G04 #@! TF.FileFunction,Legend,Top*
%FSLAX46Y46*%
G04 Gerber Fmt 4.6, Leading zero omitted, Abs format (unit mm)*
G04 Created by KiCad (PCBNEW 4.0.2-stable) date 9/9/2016 3:28:36 PM*
%MOMM*%
G01*
G04 APERTURE LIST*
%ADD10C,0.100000*%
%ADD11C,0.300000*%
%ADD12C,0.150000*%
G04 APERTURE END LIST*
D10*
D11*
X119698430Y-51123571D02*
X119698430Y-49623571D01*
X120269858Y-49623571D01*
X120412716Y-49695000D01*
X120484144Y-49766429D01*
X120555573Y-49909286D01*
X120555573Y-50123571D01*
X120484144Y-50266429D01*
X120412716Y-50337857D01*
X120269858Y-50409286D01*
X119698430Y-50409286D01*
X121198430Y-51123571D02*
X121198430Y-49623571D01*
X121555573Y-49623571D01*
X121769858Y-49695000D01*
X121912716Y-49837857D01*
X121984144Y-49980714D01*
X122055573Y-50266429D01*
X122055573Y-50480714D01*
X121984144Y-50766429D01*
X121912716Y-50909286D01*
X121769858Y-51052143D01*
X121555573Y-51123571D01*
X121198430Y-51123571D01*
X122698430Y-51123571D02*
X122698430Y-49623571D01*
X122698430Y-50337857D02*
X123555573Y-50337857D01*
X123555573Y-51123571D02*
X123555573Y-49623571D01*
X125341287Y-51052143D02*
X125555573Y-51123571D01*
X125912716Y-51123571D01*
X126055573Y-51052143D01*
X126127002Y-50980714D01*
X126198430Y-50837857D01*
X126198430Y-50695000D01*
X126127002Y-50552143D01*
X126055573Y-50480714D01*
X125912716Y-50409286D01*
X125627002Y-50337857D01*
X125484144Y-50266429D01*
X125412716Y-50195000D01*
X125341287Y-50052143D01*
X125341287Y-49909286D01*
X125412716Y-49766429D01*
X125484144Y-49695000D01*
X125627002Y-49623571D01*
X125984144Y-49623571D01*
X126198430Y-49695000D01*
X127412715Y-51052143D02*
X127269858Y-51123571D01*
X126984144Y-51123571D01*
X126841287Y-51052143D01*
X126769858Y-50909286D01*
X126769858Y-50337857D01*
X126841287Y-50195000D01*
X126984144Y-50123571D01*
X127269858Y-50123571D01*
X127412715Y-50195000D01*
X127484144Y-50337857D01*
X127484144Y-50480714D01*
X126769858Y-50623571D01*
X128127001Y-51123571D02*
X128127001Y-50123571D01*
X128127001Y-50409286D02*
X128198429Y-50266429D01*
X128269858Y-50195000D01*
X128412715Y-50123571D01*
X128555572Y-50123571D01*
X128912715Y-50123571D02*
X129269858Y-51123571D01*
X129627000Y-50123571D01*
X130412715Y-51123571D02*
X130269857Y-51052143D01*
X130198429Y-50980714D01*
X130127000Y-50837857D01*
X130127000Y-50409286D01*
X130198429Y-50266429D01*
X130269857Y-50195000D01*
X130412715Y-50123571D01*
X130627000Y-50123571D01*
X130769857Y-50195000D01*
X130841286Y-50266429D01*
X130912715Y-50409286D01*
X130912715Y-50837857D01*
X130841286Y-50980714D01*
X130769857Y-51052143D01*
X130627000Y-51123571D01*
X130412715Y-51123571D01*
X132555572Y-50123571D02*
X132912715Y-51123571D01*
X133269857Y-50123571D01*
X133769857Y-49766429D02*
X133841286Y-49695000D01*
X133984143Y-49623571D01*
X134341286Y-49623571D01*
X134484143Y-49695000D01*
X134555572Y-49766429D01*
X134627000Y-49909286D01*
X134627000Y-50052143D01*
X134555572Y-50266429D01*
X133698429Y-51123571D01*
X134627000Y-51123571D01*
X121019857Y-52023571D02*
X121519857Y-53523571D01*
X122019857Y-52023571D01*
X123162714Y-52523571D02*
X123162714Y-53523571D01*
X122519857Y-52523571D02*
X122519857Y-53309286D01*
X122591285Y-53452143D01*
X122734143Y-53523571D01*
X122948428Y-53523571D01*
X123091285Y-53452143D01*
X123162714Y-53380714D01*
X123662714Y-52523571D02*
X124234143Y-52523571D01*
X123877000Y-52023571D02*
X123877000Y-53309286D01*
X123948428Y-53452143D01*
X124091286Y-53523571D01*
X124234143Y-53523571D01*
X124734143Y-53523571D02*
X124734143Y-52023571D01*
X125377000Y-53523571D02*
X125377000Y-52737857D01*
X125305571Y-52595000D01*
X125162714Y-52523571D01*
X124948429Y-52523571D01*
X124805571Y-52595000D01*
X124734143Y-52666429D01*
X126734143Y-53523571D02*
X126734143Y-52737857D01*
X126662714Y-52595000D01*
X126519857Y-52523571D01*
X126234143Y-52523571D01*
X126091286Y-52595000D01*
X126734143Y-53452143D02*
X126591286Y-53523571D01*
X126234143Y-53523571D01*
X126091286Y-53452143D01*
X126019857Y-53309286D01*
X126019857Y-53166429D01*
X126091286Y-53023571D01*
X126234143Y-52952143D01*
X126591286Y-52952143D01*
X126734143Y-52880714D01*
X129305572Y-53523571D02*
X128591286Y-53523571D01*
X128591286Y-52023571D01*
X130448429Y-53523571D02*
X130448429Y-52737857D01*
X130377000Y-52595000D01*
X130234143Y-52523571D01*
X129948429Y-52523571D01*
X129805572Y-52595000D01*
X130448429Y-53452143D02*
X130305572Y-53523571D01*
X129948429Y-53523571D01*
X129805572Y-53452143D01*
X129734143Y-53309286D01*
X129734143Y-53166429D01*
X129805572Y-53023571D01*
X129948429Y-52952143D01*
X130305572Y-52952143D01*
X130448429Y-52880714D01*
X131162715Y-53523571D02*
X131162715Y-52023571D01*
X131162715Y-52595000D02*
X131305572Y-52523571D01*
X131591286Y-52523571D01*
X131734143Y-52595000D01*
X131805572Y-52666429D01*
X131877001Y-52809286D01*
X131877001Y-53237857D01*
X131805572Y-53380714D01*
X131734143Y-53452143D01*
X131591286Y-53523571D01*
X131305572Y-53523571D01*
X131162715Y-53452143D01*
X132448429Y-53452143D02*
X132591286Y-53523571D01*
X132877001Y-53523571D01*
X133019858Y-53452143D01*
X133091286Y-53309286D01*
X133091286Y-53237857D01*
X133019858Y-53095000D01*
X132877001Y-53023571D01*
X132662715Y-53023571D01*
X132519858Y-52952143D01*
X132448429Y-52809286D01*
X132448429Y-52737857D01*
X132519858Y-52595000D01*
X132662715Y-52523571D01*
X132877001Y-52523571D01*
X133019858Y-52595000D01*
X118984143Y-58252143D02*
X119198429Y-58323571D01*
X119555572Y-58323571D01*
X119698429Y-58252143D01*
X119769858Y-58180714D01*
X119841286Y-58037857D01*
X119841286Y-57895000D01*
X119769858Y-57752143D01*
X119698429Y-57680714D01*
X119555572Y-57609286D01*
X119269858Y-57537857D01*
X119127000Y-57466429D01*
X119055572Y-57395000D01*
X118984143Y-57252143D01*
X118984143Y-57109286D01*
X119055572Y-56966429D01*
X119127000Y-56895000D01*
X119269858Y-56823571D01*
X119627000Y-56823571D01*
X119841286Y-56895000D01*
X120484143Y-58323571D02*
X120484143Y-56823571D01*
X121127000Y-58323571D02*
X121127000Y-57537857D01*
X121055571Y-57395000D01*
X120912714Y-57323571D01*
X120698429Y-57323571D01*
X120555571Y-57395000D01*
X120484143Y-57466429D01*
X121841286Y-58323571D02*
X121841286Y-57323571D01*
X121841286Y-57609286D02*
X121912714Y-57466429D01*
X121984143Y-57395000D01*
X122127000Y-57323571D01*
X122269857Y-57323571D01*
X123341285Y-58252143D02*
X123198428Y-58323571D01*
X122912714Y-58323571D01*
X122769857Y-58252143D01*
X122698428Y-58109286D01*
X122698428Y-57537857D01*
X122769857Y-57395000D01*
X122912714Y-57323571D01*
X123198428Y-57323571D01*
X123341285Y-57395000D01*
X123412714Y-57537857D01*
X123412714Y-57680714D01*
X122698428Y-57823571D01*
X123912714Y-57323571D02*
X124269857Y-58323571D01*
X124626999Y-57323571D02*
X124269857Y-58323571D01*
X124126999Y-58680714D01*
X124055571Y-58752143D01*
X123912714Y-58823571D01*
X125841285Y-58323571D02*
X125841285Y-57537857D01*
X125769856Y-57395000D01*
X125626999Y-57323571D01*
X125341285Y-57323571D01*
X125198428Y-57395000D01*
X125841285Y-58252143D02*
X125698428Y-58323571D01*
X125341285Y-58323571D01*
X125198428Y-58252143D01*
X125126999Y-58109286D01*
X125126999Y-57966429D01*
X125198428Y-57823571D01*
X125341285Y-57752143D01*
X125698428Y-57752143D01*
X125841285Y-57680714D01*
X126484142Y-58252143D02*
X126626999Y-58323571D01*
X126912714Y-58323571D01*
X127055571Y-58252143D01*
X127126999Y-58109286D01*
X127126999Y-58037857D01*
X127055571Y-57895000D01*
X126912714Y-57823571D01*
X126698428Y-57823571D01*
X126555571Y-57752143D01*
X126484142Y-57609286D01*
X126484142Y-57537857D01*
X126555571Y-57395000D01*
X126698428Y-57323571D01*
X126912714Y-57323571D01*
X127055571Y-57395000D01*
X128912714Y-58323571D02*
X128912714Y-56823571D01*
X129484142Y-56823571D01*
X129627000Y-56895000D01*
X129698428Y-56966429D01*
X129769857Y-57109286D01*
X129769857Y-57323571D01*
X129698428Y-57466429D01*
X129627000Y-57537857D01*
X129484142Y-57609286D01*
X128912714Y-57609286D01*
X130627000Y-58323571D02*
X130484142Y-58252143D01*
X130412714Y-58180714D01*
X130341285Y-58037857D01*
X130341285Y-57609286D01*
X130412714Y-57466429D01*
X130484142Y-57395000D01*
X130627000Y-57323571D01*
X130841285Y-57323571D01*
X130984142Y-57395000D01*
X131055571Y-57466429D01*
X131127000Y-57609286D01*
X131127000Y-58037857D01*
X131055571Y-58180714D01*
X130984142Y-58252143D01*
X130841285Y-58323571D01*
X130627000Y-58323571D01*
X131555571Y-57323571D02*
X132127000Y-57323571D01*
X131769857Y-56823571D02*
X131769857Y-58109286D01*
X131841285Y-58252143D01*
X131984143Y-58323571D01*
X132127000Y-58323571D01*
X132627000Y-57323571D02*
X132627000Y-58323571D01*
X132627000Y-57466429D02*
X132698428Y-57395000D01*
X132841286Y-57323571D01*
X133055571Y-57323571D01*
X133198428Y-57395000D01*
X133269857Y-57537857D01*
X133269857Y-58323571D01*
X133984143Y-58323571D02*
X133984143Y-57323571D01*
X133984143Y-56823571D02*
X133912714Y-56895000D01*
X133984143Y-56966429D01*
X134055571Y-56895000D01*
X133984143Y-56823571D01*
X133984143Y-56966429D01*
X134627000Y-58252143D02*
X134769857Y-58323571D01*
X135055572Y-58323571D01*
X135198429Y-58252143D01*
X135269857Y-58109286D01*
X135269857Y-58037857D01*
X135198429Y-57895000D01*
X135055572Y-57823571D01*
X134841286Y-57823571D01*
X134698429Y-57752143D01*
X134627000Y-57609286D01*
X134627000Y-57537857D01*
X134698429Y-57395000D01*
X134841286Y-57323571D01*
X135055572Y-57323571D01*
X135198429Y-57395000D01*
D12*
X44661000Y-92929000D02*
X44661000Y-92979000D01*
X48811000Y-92929000D02*
X48811000Y-93074000D01*
X48811000Y-98079000D02*
X48811000Y-97934000D01*
X44661000Y-98079000D02*
X44661000Y-97934000D01*
X44661000Y-92929000D02*
X48811000Y-92929000D01*
X44661000Y-98079000D02*
X48811000Y-98079000D01*
X44661000Y-92979000D02*
X43261000Y-92979000D01*
X173762000Y-134594000D02*
X170662000Y-134594000D01*
X173762000Y-136144000D02*
X173762000Y-134594000D01*
X170942000Y-137414000D02*
X173482000Y-137414000D01*
X170662000Y-134594000D02*
X170662000Y-136144000D01*
X173482000Y-165354000D02*
X173482000Y-137414000D01*
X170942000Y-165354000D02*
X173482000Y-165354000D01*
X170942000Y-137414000D02*
X170942000Y-165354000D01*
X170942000Y-137414000D02*
X170942000Y-165354000D01*
X170942000Y-165354000D02*
X173482000Y-165354000D01*
X173482000Y-165354000D02*
X173482000Y-137414000D01*
X170662000Y-134594000D02*
X170662000Y-136144000D01*
X170942000Y-137414000D02*
X173482000Y-137414000D01*
X173762000Y-136144000D02*
X173762000Y-134594000D01*
X173762000Y-134594000D02*
X170662000Y-134594000D01*
X155982000Y-134594000D02*
X152882000Y-134594000D01*
X155982000Y-136144000D02*
X155982000Y-134594000D01*
X153162000Y-137414000D02*
X155702000Y-137414000D01*
X152882000Y-134594000D02*
X152882000Y-136144000D01*
X155702000Y-165354000D02*
X155702000Y-137414000D01*
X153162000Y-165354000D02*
X155702000Y-165354000D01*
X153162000Y-137414000D02*
X153162000Y-165354000D01*
X153162000Y-137414000D02*
X153162000Y-165354000D01*
X153162000Y-165354000D02*
X155702000Y-165354000D01*
X155702000Y-165354000D02*
X155702000Y-137414000D01*
X152882000Y-134594000D02*
X152882000Y-136144000D01*
X153162000Y-137414000D02*
X155702000Y-137414000D01*
X155982000Y-136144000D02*
X155982000Y-134594000D01*
X155982000Y-134594000D02*
X152882000Y-134594000D01*
X79459000Y-160533000D02*
X79459000Y-160558000D01*
X83609000Y-160533000D02*
X83609000Y-160638000D01*
X83609000Y-170683000D02*
X83609000Y-170578000D01*
X79459000Y-170683000D02*
X79459000Y-170578000D01*
X79459000Y-160533000D02*
X83609000Y-160533000D01*
X79459000Y-170683000D02*
X83609000Y-170683000D01*
X79459000Y-160558000D02*
X78084000Y-160558000D01*
X54602000Y-117133000D02*
X53602000Y-117133000D01*
X53602000Y-118833000D02*
X54602000Y-118833000D01*
X38870000Y-119214000D02*
X39870000Y-119214000D01*
X39870000Y-117514000D02*
X38870000Y-117514000D01*
X38389000Y-140558000D02*
X38389000Y-139858000D01*
X39589000Y-139858000D02*
X39589000Y-140558000D01*
X57396000Y-154598000D02*
X56396000Y-154598000D01*
X56396000Y-156298000D02*
X57396000Y-156298000D01*
X47594000Y-136236000D02*
X46894000Y-136236000D01*
X46894000Y-135036000D02*
X47594000Y-135036000D01*
X50296000Y-133063000D02*
X50796000Y-133063000D01*
X50796000Y-132113000D02*
X50296000Y-132113000D01*
X54190000Y-143248000D02*
X54190000Y-142248000D01*
X52490000Y-142248000D02*
X52490000Y-143248000D01*
X42252000Y-148201000D02*
X42252000Y-147201000D01*
X40552000Y-147201000D02*
X40552000Y-148201000D01*
X117467000Y-136945000D02*
X116467000Y-136945000D01*
X116467000Y-138645000D02*
X117467000Y-138645000D01*
X104402000Y-146392000D02*
X105402000Y-146392000D01*
X105402000Y-144692000D02*
X104402000Y-144692000D01*
X39208000Y-105060000D02*
X39208000Y-105760000D01*
X38008000Y-105760000D02*
X38008000Y-105060000D01*
X116240000Y-143352000D02*
X116240000Y-142652000D01*
X117440000Y-142652000D02*
X117440000Y-143352000D01*
X48164000Y-82204000D02*
X48864000Y-82204000D01*
X48864000Y-83404000D02*
X48164000Y-83404000D01*
X56126000Y-94146000D02*
X55126000Y-94146000D01*
X55126000Y-95846000D02*
X56126000Y-95846000D01*
X38092000Y-99734000D02*
X37092000Y-99734000D01*
X37092000Y-101434000D02*
X38092000Y-101434000D01*
X116832000Y-73064000D02*
X115832000Y-73064000D01*
X115832000Y-74764000D02*
X116832000Y-74764000D01*
X98814000Y-79082000D02*
X99814000Y-79082000D01*
X99814000Y-77382000D02*
X98814000Y-77382000D01*
X37430000Y-161194000D02*
X37430000Y-161894000D01*
X36230000Y-161894000D02*
X36230000Y-161194000D01*
X43950000Y-172300000D02*
X44950000Y-172300000D01*
X44950000Y-170600000D02*
X43950000Y-170600000D01*
X65874000Y-99814000D02*
X65874000Y-98814000D01*
X64174000Y-98814000D02*
X64174000Y-99814000D01*
X80510000Y-92622000D02*
X79510000Y-92622000D01*
X79510000Y-94322000D02*
X80510000Y-94322000D01*
X57396000Y-162472000D02*
X56396000Y-162472000D01*
X56396000Y-164172000D02*
X57396000Y-164172000D01*
X128174000Y-140116000D02*
X128874000Y-140116000D01*
X128874000Y-141316000D02*
X128174000Y-141316000D01*
X128516000Y-144946000D02*
X127516000Y-144946000D01*
X127516000Y-146646000D02*
X128516000Y-146646000D01*
X130468000Y-167648000D02*
X130468000Y-168648000D01*
X132168000Y-168648000D02*
X132168000Y-167648000D01*
X142836000Y-166870000D02*
X142836000Y-165870000D01*
X141136000Y-165870000D02*
X141136000Y-166870000D01*
X145534000Y-156249000D02*
X144534000Y-156249000D01*
X144534000Y-157949000D02*
X145534000Y-157949000D01*
X152662000Y-131914000D02*
X153662000Y-131914000D01*
X153662000Y-130214000D02*
X152662000Y-130214000D01*
X133000000Y-94142000D02*
X133700000Y-94142000D01*
X133700000Y-95342000D02*
X133000000Y-95342000D01*
X145638000Y-78959000D02*
X144938000Y-78959000D01*
X144938000Y-77759000D02*
X145638000Y-77759000D01*
X163734000Y-81950000D02*
X164434000Y-81950000D01*
X164434000Y-83150000D02*
X163734000Y-83150000D01*
X143344000Y-105402000D02*
X143344000Y-104402000D01*
X141644000Y-104402000D02*
X141644000Y-105402000D01*
X153004000Y-112106000D02*
X152304000Y-112106000D01*
X152304000Y-110906000D02*
X153004000Y-110906000D01*
X151884000Y-93892000D02*
X150884000Y-93892000D01*
X150884000Y-95592000D02*
X151884000Y-95592000D01*
X166235000Y-93765000D02*
X165235000Y-93765000D01*
X165235000Y-95465000D02*
X166235000Y-95465000D01*
X159250000Y-99480000D02*
X158250000Y-99480000D01*
X158250000Y-101180000D02*
X159250000Y-101180000D01*
X170776000Y-117594000D02*
X170776000Y-116594000D01*
X169076000Y-116594000D02*
X169076000Y-117594000D01*
X150376000Y-101180000D02*
X151376000Y-101180000D01*
X151376000Y-99480000D02*
X150376000Y-99480000D01*
X165362000Y-101434000D02*
X166362000Y-101434000D01*
X166362000Y-99734000D02*
X165362000Y-99734000D01*
X87384000Y-175348000D02*
X88384000Y-175348000D01*
X88384000Y-173648000D02*
X87384000Y-173648000D01*
X122213000Y-120277000D02*
X122213000Y-121277000D01*
X123913000Y-121277000D02*
X123913000Y-120277000D01*
X74414000Y-164250000D02*
X73414000Y-164250000D01*
X73414000Y-165950000D02*
X74414000Y-165950000D01*
X91178000Y-163996000D02*
X90178000Y-163996000D01*
X90178000Y-165696000D02*
X91178000Y-165696000D01*
X73318000Y-142502000D02*
X73318000Y-143502000D01*
X75018000Y-143502000D02*
X75018000Y-142502000D01*
X76038000Y-132746000D02*
X76038000Y-133446000D01*
X74838000Y-133446000D02*
X74838000Y-132746000D01*
X103466000Y-105148000D02*
X103466000Y-104148000D01*
X101766000Y-104148000D02*
X101766000Y-105148000D01*
X86272000Y-134374000D02*
X86272000Y-135374000D01*
X87972000Y-135374000D02*
X87972000Y-134374000D01*
X88130000Y-113450000D02*
X87130000Y-113450000D01*
X87130000Y-115150000D02*
X88130000Y-115150000D01*
X101004000Y-88654000D02*
X101004000Y-89654000D01*
X102704000Y-89654000D02*
X102704000Y-88654000D01*
X119642000Y-159346000D02*
X120642000Y-159346000D01*
X120642000Y-157646000D02*
X119642000Y-157646000D01*
X107688000Y-166028000D02*
X106688000Y-166028000D01*
X106688000Y-167728000D02*
X107688000Y-167728000D01*
X66069160Y-178419760D02*
X66020900Y-178419760D01*
X63270180Y-179120800D02*
X63270180Y-178419760D01*
X63270180Y-178419760D02*
X63519100Y-178419760D01*
X66069160Y-178419760D02*
X66269820Y-178419760D01*
X66269820Y-178419760D02*
X66269820Y-179120800D01*
X57941160Y-178419760D02*
X57892900Y-178419760D01*
X55142180Y-179120800D02*
X55142180Y-178419760D01*
X55142180Y-178419760D02*
X55391100Y-178419760D01*
X57941160Y-178419760D02*
X58141820Y-178419760D01*
X58141820Y-178419760D02*
X58141820Y-179120800D01*
X116361160Y-176133760D02*
X116312900Y-176133760D01*
X113562180Y-176834800D02*
X113562180Y-176133760D01*
X113562180Y-176133760D02*
X113811100Y-176133760D01*
X116361160Y-176133760D02*
X116561820Y-176133760D01*
X116561820Y-176133760D02*
X116561820Y-176834800D01*
X107979160Y-176133760D02*
X107930900Y-176133760D01*
X105180180Y-176834800D02*
X105180180Y-176133760D01*
X105180180Y-176133760D02*
X105429100Y-176133760D01*
X107979160Y-176133760D02*
X108179820Y-176133760D01*
X108179820Y-176133760D02*
X108179820Y-176834800D01*
X169242000Y-85520000D02*
X172642000Y-85520000D01*
X169244944Y-85517056D02*
G75*
G02X170942000Y-81420000I1697056J1697056D01*
G01*
X172639056Y-85517056D02*
G75*
G03X170942000Y-81420000I-1697056J1697056D01*
G01*
X148160000Y-85774000D02*
X151560000Y-85774000D01*
X148162944Y-85771056D02*
G75*
G02X149860000Y-81674000I1697056J1697056D01*
G01*
X151557056Y-85771056D02*
G75*
G03X149860000Y-81674000I-1697056J1697056D01*
G01*
X70266000Y-176163000D02*
X71466000Y-176163000D01*
X71466000Y-177913000D02*
X70266000Y-177913000D01*
X51781000Y-180707000D02*
X50581000Y-180707000D01*
X50581000Y-178957000D02*
X51781000Y-178957000D01*
X39664000Y-133993000D02*
X39664000Y-134993000D01*
X38314000Y-134993000D02*
X38314000Y-133993000D01*
X34457000Y-134120000D02*
X34457000Y-135120000D01*
X33107000Y-135120000D02*
X33107000Y-134120000D01*
X52665000Y-150614000D02*
X52665000Y-149614000D01*
X54015000Y-149614000D02*
X54015000Y-150614000D01*
X108974000Y-148931000D02*
X109974000Y-148931000D01*
X109974000Y-150281000D02*
X108974000Y-150281000D01*
X45807000Y-149090000D02*
X45807000Y-148090000D01*
X47157000Y-148090000D02*
X47157000Y-149090000D01*
X45553000Y-128262000D02*
X45553000Y-127262000D01*
X46903000Y-127262000D02*
X46903000Y-128262000D01*
X52745000Y-136406000D02*
X52745000Y-137406000D01*
X51395000Y-137406000D02*
X51395000Y-136406000D01*
X102529000Y-136660000D02*
X102529000Y-137660000D01*
X101179000Y-137660000D02*
X101179000Y-136660000D01*
X37933000Y-110736000D02*
X37933000Y-109736000D01*
X39283000Y-109736000D02*
X39283000Y-110736000D01*
X41823000Y-87384000D02*
X41823000Y-88384000D01*
X40473000Y-88384000D02*
X40473000Y-87384000D01*
X44029000Y-109720000D02*
X44029000Y-108720000D01*
X45379000Y-108720000D02*
X45379000Y-109720000D01*
X117086000Y-131993000D02*
X116086000Y-131993000D01*
X116086000Y-130643000D02*
X117086000Y-130643000D01*
X45347000Y-103846000D02*
X46347000Y-103846000D01*
X46347000Y-105196000D02*
X45347000Y-105196000D01*
X39378000Y-95591000D02*
X40378000Y-95591000D01*
X40378000Y-96941000D02*
X39378000Y-96941000D01*
X120737000Y-143502000D02*
X120737000Y-142502000D01*
X122087000Y-142502000D02*
X122087000Y-143502000D01*
X99274000Y-73525000D02*
X99274000Y-72525000D01*
X100624000Y-72525000D02*
X100624000Y-73525000D01*
X103878000Y-70525000D02*
X102878000Y-70525000D01*
X102878000Y-69175000D02*
X103878000Y-69175000D01*
X43680000Y-178221000D02*
X42680000Y-178221000D01*
X42680000Y-176871000D02*
X43680000Y-176871000D01*
X41743000Y-162044000D02*
X41743000Y-161044000D01*
X43093000Y-161044000D02*
X43093000Y-162044000D01*
X153916000Y-79161000D02*
X152916000Y-79161000D01*
X152916000Y-77811000D02*
X153916000Y-77811000D01*
X172585000Y-76875000D02*
X171585000Y-76875000D01*
X171585000Y-75525000D02*
X172585000Y-75525000D01*
X79748000Y-147487000D02*
X78748000Y-147487000D01*
X78748000Y-146137000D02*
X79748000Y-146137000D01*
X93988000Y-170521000D02*
X94988000Y-170521000D01*
X94988000Y-171871000D02*
X93988000Y-171871000D01*
X109085000Y-122976000D02*
X108085000Y-122976000D01*
X108085000Y-121626000D02*
X109085000Y-121626000D01*
X93718000Y-121833000D02*
X92718000Y-121833000D01*
X92718000Y-120483000D02*
X93718000Y-120483000D01*
X85177000Y-149344000D02*
X85177000Y-148344000D01*
X86527000Y-148344000D02*
X86527000Y-149344000D01*
X88051000Y-104148000D02*
X88051000Y-105148000D01*
X86701000Y-105148000D02*
X86701000Y-104148000D01*
X82034000Y-132755000D02*
X81034000Y-132755000D01*
X81034000Y-131405000D02*
X82034000Y-131405000D01*
X92210000Y-101941000D02*
X93210000Y-101941000D01*
X93210000Y-103291000D02*
X92210000Y-103291000D01*
X89654000Y-130723000D02*
X88654000Y-130723000D01*
X88654000Y-129373000D02*
X89654000Y-129373000D01*
X103719000Y-110736000D02*
X103719000Y-109736000D01*
X105069000Y-109736000D02*
X105069000Y-110736000D01*
X113451000Y-166632000D02*
X113451000Y-167632000D01*
X112101000Y-167632000D02*
X112101000Y-166632000D01*
X117102000Y-169759000D02*
X118102000Y-169759000D01*
X118102000Y-171109000D02*
X117102000Y-171109000D01*
X150360000Y-90083000D02*
X149360000Y-90083000D01*
X149360000Y-88733000D02*
X150360000Y-88733000D01*
X171315000Y-90210000D02*
X170315000Y-90210000D01*
X170315000Y-88860000D02*
X171315000Y-88860000D01*
X44661000Y-113797000D02*
X44661000Y-113822000D01*
X48811000Y-113797000D02*
X48811000Y-113902000D01*
X48811000Y-123947000D02*
X48811000Y-123842000D01*
X44661000Y-123947000D02*
X44661000Y-123842000D01*
X44661000Y-113797000D02*
X48811000Y-113797000D01*
X44661000Y-123947000D02*
X48811000Y-123947000D01*
X44661000Y-113822000D02*
X43286000Y-113822000D01*
X44407000Y-139411000D02*
X44407000Y-139461000D01*
X48557000Y-139411000D02*
X48557000Y-139556000D01*
X48557000Y-144561000D02*
X48557000Y-144416000D01*
X44407000Y-144561000D02*
X44407000Y-144416000D01*
X44407000Y-139411000D02*
X48557000Y-139411000D01*
X44407000Y-144561000D02*
X48557000Y-144561000D01*
X44407000Y-139461000D02*
X43007000Y-139461000D01*
X47201000Y-163033000D02*
X47201000Y-163083000D01*
X51351000Y-163033000D02*
X51351000Y-163178000D01*
X51351000Y-168183000D02*
X51351000Y-168038000D01*
X47201000Y-168183000D02*
X47201000Y-168038000D01*
X47201000Y-163033000D02*
X51351000Y-163033000D01*
X47201000Y-168183000D02*
X51351000Y-168183000D01*
X47201000Y-163083000D02*
X45801000Y-163083000D01*
X106002000Y-73498000D02*
X106002000Y-73548000D01*
X110152000Y-73498000D02*
X110152000Y-73643000D01*
X110152000Y-78648000D02*
X110152000Y-78503000D01*
X106002000Y-78648000D02*
X106002000Y-78503000D01*
X106002000Y-73498000D02*
X110152000Y-73498000D01*
X106002000Y-78648000D02*
X110152000Y-78648000D01*
X106002000Y-73548000D02*
X104602000Y-73548000D01*
X69299000Y-93183000D02*
X69299000Y-93233000D01*
X73449000Y-93183000D02*
X73449000Y-93328000D01*
X73449000Y-98333000D02*
X73449000Y-98188000D01*
X69299000Y-98333000D02*
X69299000Y-98188000D01*
X69299000Y-93183000D02*
X73449000Y-93183000D01*
X69299000Y-98333000D02*
X73449000Y-98333000D01*
X69299000Y-93233000D02*
X67899000Y-93233000D01*
X78697000Y-136617000D02*
X78697000Y-136667000D01*
X82847000Y-136617000D02*
X82847000Y-136762000D01*
X82847000Y-141767000D02*
X82847000Y-141622000D01*
X78697000Y-141767000D02*
X78697000Y-141622000D01*
X78697000Y-136617000D02*
X82847000Y-136617000D01*
X78697000Y-141767000D02*
X82847000Y-141767000D01*
X78697000Y-136667000D02*
X77297000Y-136667000D01*
X93683000Y-106899000D02*
X93683000Y-106949000D01*
X97833000Y-106899000D02*
X97833000Y-107044000D01*
X97833000Y-112049000D02*
X97833000Y-111904000D01*
X93683000Y-112049000D02*
X93683000Y-111904000D01*
X93683000Y-106899000D02*
X97833000Y-106899000D01*
X93683000Y-112049000D02*
X97833000Y-112049000D01*
X93683000Y-106949000D02*
X92283000Y-106949000D01*
X109685000Y-158207000D02*
X109685000Y-158257000D01*
X113835000Y-158207000D02*
X113835000Y-158352000D01*
X113835000Y-163357000D02*
X113835000Y-163212000D01*
X109685000Y-163357000D02*
X109685000Y-163212000D01*
X109685000Y-158207000D02*
X113835000Y-158207000D01*
X109685000Y-163357000D02*
X113835000Y-163357000D01*
X109685000Y-158257000D02*
X108285000Y-158257000D01*
X134577000Y-143983000D02*
X134577000Y-144033000D01*
X138727000Y-143983000D02*
X138727000Y-144128000D01*
X138727000Y-149133000D02*
X138727000Y-148988000D01*
X134577000Y-149133000D02*
X134577000Y-148988000D01*
X134577000Y-143983000D02*
X138727000Y-143983000D01*
X134577000Y-149133000D02*
X138727000Y-149133000D01*
X134577000Y-144033000D02*
X133177000Y-144033000D01*
X137771000Y-169775000D02*
X137771000Y-170000000D01*
X141121000Y-169775000D02*
X141121000Y-170075000D01*
X141121000Y-173125000D02*
X141121000Y-172825000D01*
X137771000Y-173125000D02*
X137771000Y-172825000D01*
X137771000Y-169775000D02*
X141121000Y-169775000D01*
X137771000Y-173125000D02*
X141121000Y-173125000D01*
X137771000Y-170000000D02*
X136546000Y-170000000D01*
X134323000Y-156556000D02*
X134323000Y-156606000D01*
X138473000Y-156556000D02*
X138473000Y-156701000D01*
X138473000Y-161706000D02*
X138473000Y-161561000D01*
X134323000Y-161706000D02*
X134323000Y-161561000D01*
X134323000Y-156556000D02*
X138473000Y-156556000D01*
X134323000Y-161706000D02*
X138473000Y-161706000D01*
X134323000Y-156606000D02*
X132923000Y-156606000D01*
X167315000Y-65985000D02*
X167315000Y-74985000D01*
X151455000Y-65985000D02*
X151455000Y-74985000D01*
X167315000Y-74985000D02*
X151455000Y-74985000D01*
X167315000Y-65985000D02*
X151455000Y-65985000D01*
X132842000Y-100330000D02*
X132842000Y-101473000D01*
X135890000Y-100330000D02*
X135890000Y-101473000D01*
X139700000Y-101473000D02*
X139700000Y-105156000D01*
X139700000Y-105156000D02*
X129032000Y-105156000D01*
X129032000Y-105156000D02*
X129032000Y-101473000D01*
X139700000Y-100330000D02*
X139700000Y-101473000D01*
X139700000Y-101473000D02*
X129032000Y-101473000D01*
X129032000Y-101473000D02*
X129032000Y-100330000D01*
X134366000Y-100330000D02*
X129032000Y-100330000D01*
X134366000Y-100330000D02*
X139700000Y-100330000D01*
X159004000Y-113157000D02*
X159004000Y-114300000D01*
X162052000Y-113157000D02*
X162052000Y-114300000D01*
X165862000Y-114300000D02*
X165862000Y-117983000D01*
X165862000Y-117983000D02*
X155194000Y-117983000D01*
X155194000Y-117983000D02*
X155194000Y-114300000D01*
X165862000Y-113157000D02*
X165862000Y-114300000D01*
X165862000Y-114300000D02*
X155194000Y-114300000D01*
X155194000Y-114300000D02*
X155194000Y-113157000D01*
X160528000Y-113157000D02*
X155194000Y-113157000D01*
X160528000Y-113157000D02*
X165862000Y-113157000D01*
X114130000Y-120234000D02*
X114130000Y-120284000D01*
X118280000Y-120234000D02*
X118280000Y-120379000D01*
X118280000Y-125384000D02*
X118280000Y-125239000D01*
X114130000Y-125384000D02*
X114130000Y-125239000D01*
X114130000Y-120234000D02*
X118280000Y-120234000D01*
X114130000Y-125384000D02*
X118280000Y-125384000D01*
X114130000Y-120284000D02*
X112730000Y-120284000D01*
X92667000Y-88865000D02*
X92667000Y-88915000D01*
X96817000Y-88865000D02*
X96817000Y-89010000D01*
X96817000Y-94015000D02*
X96817000Y-93870000D01*
X92667000Y-94015000D02*
X92667000Y-93870000D01*
X92667000Y-88865000D02*
X96817000Y-88865000D01*
X92667000Y-94015000D02*
X96817000Y-94015000D01*
X92667000Y-88915000D02*
X91267000Y-88915000D01*
X107399000Y-137379000D02*
X107399000Y-137429000D01*
X111549000Y-137379000D02*
X111549000Y-137524000D01*
X111549000Y-142529000D02*
X111549000Y-142384000D01*
X107399000Y-142529000D02*
X107399000Y-142384000D01*
X107399000Y-137379000D02*
X111549000Y-137379000D01*
X107399000Y-142529000D02*
X111549000Y-142529000D01*
X107399000Y-137429000D02*
X105999000Y-137429000D01*
X103682800Y-129082800D02*
X109880400Y-129082800D01*
X109880400Y-129082800D02*
X109880400Y-131470400D01*
X109880400Y-131470400D02*
X103632000Y-131470400D01*
X103632000Y-131470400D02*
X103632000Y-129082800D01*
X82092800Y-122732800D02*
X88290400Y-122732800D01*
X88290400Y-122732800D02*
X88290400Y-125120400D01*
X88290400Y-125120400D02*
X82042000Y-125120400D01*
X82042000Y-125120400D02*
X82042000Y-122732800D01*
X41758000Y-225598000D02*
X41758000Y-213658000D01*
X35408000Y-225598000D02*
X41758000Y-225598000D01*
X35408000Y-213658000D02*
X35408000Y-225598000D01*
X43608000Y-213658000D02*
X43608000Y-204978000D01*
X33608000Y-213658000D02*
X43608000Y-213658000D01*
X33608000Y-204978000D02*
X33608000Y-213658000D01*
X27178000Y-185928000D02*
X27178000Y-204978000D01*
X27178000Y-204978000D02*
X49398000Y-204978000D01*
X49398000Y-185928000D02*
X49398000Y-204978000D01*
X27178000Y-185928000D02*
X49398000Y-185928000D01*
X64872000Y-225598000D02*
X64872000Y-213658000D01*
X58522000Y-225598000D02*
X64872000Y-225598000D01*
X58522000Y-213658000D02*
X58522000Y-225598000D01*
X66722000Y-213658000D02*
X66722000Y-204978000D01*
X56722000Y-213658000D02*
X66722000Y-213658000D01*
X56722000Y-204978000D02*
X56722000Y-213658000D01*
X50292000Y-185928000D02*
X50292000Y-204978000D01*
X50292000Y-204978000D02*
X72512000Y-204978000D01*
X72512000Y-185928000D02*
X72512000Y-204978000D01*
X50292000Y-185928000D02*
X72512000Y-185928000D01*
X136119000Y-225344000D02*
X136119000Y-213404000D01*
X129769000Y-225344000D02*
X136119000Y-225344000D01*
X129769000Y-213404000D02*
X129769000Y-225344000D01*
X137969000Y-213404000D02*
X137969000Y-204724000D01*
X127969000Y-213404000D02*
X137969000Y-213404000D01*
X127969000Y-204724000D02*
X127969000Y-213404000D01*
X121539000Y-185674000D02*
X121539000Y-204724000D01*
X121539000Y-204724000D02*
X143759000Y-204724000D01*
X143759000Y-185674000D02*
X143759000Y-204724000D01*
X121539000Y-185674000D02*
X143759000Y-185674000D01*
X112116000Y-225344000D02*
X112116000Y-213404000D01*
X105766000Y-225344000D02*
X112116000Y-225344000D01*
X105766000Y-213404000D02*
X105766000Y-225344000D01*
X113966000Y-213404000D02*
X113966000Y-204724000D01*
X103966000Y-213404000D02*
X113966000Y-213404000D01*
X103966000Y-204724000D02*
X103966000Y-213404000D01*
X97536000Y-185674000D02*
X97536000Y-204724000D01*
X97536000Y-204724000D02*
X119756000Y-204724000D01*
X119756000Y-185674000D02*
X119756000Y-204724000D01*
X97536000Y-185674000D02*
X119756000Y-185674000D01*
X88113000Y-225598000D02*
X88113000Y-213658000D01*
X81763000Y-225598000D02*
X88113000Y-225598000D01*
X81763000Y-213658000D02*
X81763000Y-225598000D01*
X89963000Y-213658000D02*
X89963000Y-204978000D01*
X79963000Y-213658000D02*
X89963000Y-213658000D01*
X79963000Y-204978000D02*
X79963000Y-213658000D01*
X73533000Y-185928000D02*
X73533000Y-204978000D01*
X73533000Y-204978000D02*
X95753000Y-204978000D01*
X95753000Y-185928000D02*
X95753000Y-204978000D01*
X73533000Y-185928000D02*
X95753000Y-185928000D01*
X46939905Y-27432000D02*
G75*
G03X46939905Y-27432000I-457905J0D01*
G01*
X51181000Y-38227000D02*
X51181000Y-38735000D01*
X51181000Y-38735000D02*
X41783000Y-38227000D01*
X41783000Y-38227000D02*
X41783000Y-38735000D01*
X41783000Y-38735000D02*
X51181000Y-39243000D01*
X51181000Y-39243000D02*
X51054000Y-39751000D01*
X51054000Y-39751000D02*
X41783000Y-39116000D01*
X41783000Y-39116000D02*
X41783000Y-39751000D01*
X41783000Y-39751000D02*
X51181000Y-40386000D01*
X51181000Y-40386000D02*
X51181000Y-41021000D01*
X51181000Y-41021000D02*
X41783000Y-40259000D01*
X41783000Y-40259000D02*
X41783000Y-40894000D01*
X41783000Y-40894000D02*
X51181000Y-41529000D01*
X51181000Y-41529000D02*
X51181000Y-42164000D01*
X51181000Y-42164000D02*
X41783000Y-41402000D01*
X41783000Y-41402000D02*
X41783000Y-42037000D01*
X41783000Y-42037000D02*
X51181000Y-42799000D01*
X51181000Y-42799000D02*
X51181000Y-43434000D01*
X51181000Y-43434000D02*
X41783000Y-42545000D01*
X41783000Y-42545000D02*
X41783000Y-43053000D01*
X41783000Y-43053000D02*
X51181000Y-43942000D01*
X51181000Y-43942000D02*
X51181000Y-44450000D01*
X51181000Y-44450000D02*
X41783000Y-43434000D01*
X41783000Y-43434000D02*
X41783000Y-44069000D01*
X41783000Y-44069000D02*
X51181000Y-44958000D01*
X51181000Y-44958000D02*
X51181000Y-45466000D01*
X51181000Y-45466000D02*
X41783000Y-44577000D01*
X41783000Y-44577000D02*
X41783000Y-45212000D01*
X41783000Y-45212000D02*
X50546000Y-45974000D01*
X41783000Y-37719000D02*
X51181000Y-38227000D01*
X42164000Y-37338000D02*
X42164000Y-25273000D01*
X42164000Y-25273000D02*
X50800000Y-25273000D01*
X50800000Y-25273000D02*
X50800000Y-37338000D01*
X41783000Y-45974000D02*
X41783000Y-37338000D01*
X41783000Y-37338000D02*
X51181000Y-37338000D01*
X51181000Y-37338000D02*
X51181000Y-45847000D01*
X39243000Y-45974000D02*
X51943000Y-45974000D01*
X39243000Y-45974000D02*
X39243000Y-61468000D01*
X39243000Y-61468000D02*
X53721000Y-61468000D01*
X53721000Y-61468000D02*
X53721000Y-45974000D01*
X53721000Y-45974000D02*
X51689000Y-45974000D01*
X66497905Y-27432000D02*
G75*
G03X66497905Y-27432000I-457905J0D01*
G01*
X70739000Y-38227000D02*
X70739000Y-38735000D01*
X70739000Y-38735000D02*
X61341000Y-38227000D01*
X61341000Y-38227000D02*
X61341000Y-38735000D01*
X61341000Y-38735000D02*
X70739000Y-39243000D01*
X70739000Y-39243000D02*
X70612000Y-39751000D01*
X70612000Y-39751000D02*
X61341000Y-39116000D01*
X61341000Y-39116000D02*
X61341000Y-39751000D01*
X61341000Y-39751000D02*
X70739000Y-40386000D01*
X70739000Y-40386000D02*
X70739000Y-41021000D01*
X70739000Y-41021000D02*
X61341000Y-40259000D01*
X61341000Y-40259000D02*
X61341000Y-40894000D01*
X61341000Y-40894000D02*
X70739000Y-41529000D01*
X70739000Y-41529000D02*
X70739000Y-42164000D01*
X70739000Y-42164000D02*
X61341000Y-41402000D01*
X61341000Y-41402000D02*
X61341000Y-42037000D01*
X61341000Y-42037000D02*
X70739000Y-42799000D01*
X70739000Y-42799000D02*
X70739000Y-43434000D01*
X70739000Y-43434000D02*
X61341000Y-42545000D01*
X61341000Y-42545000D02*
X61341000Y-43053000D01*
X61341000Y-43053000D02*
X70739000Y-43942000D01*
X70739000Y-43942000D02*
X70739000Y-44450000D01*
X70739000Y-44450000D02*
X61341000Y-43434000D01*
X61341000Y-43434000D02*
X61341000Y-44069000D01*
X61341000Y-44069000D02*
X70739000Y-44958000D01*
X70739000Y-44958000D02*
X70739000Y-45466000D01*
X70739000Y-45466000D02*
X61341000Y-44577000D01*
X61341000Y-44577000D02*
X61341000Y-45212000D01*
X61341000Y-45212000D02*
X70104000Y-45974000D01*
X61341000Y-37719000D02*
X70739000Y-38227000D01*
X61722000Y-37338000D02*
X61722000Y-25273000D01*
X61722000Y-25273000D02*
X70358000Y-25273000D01*
X70358000Y-25273000D02*
X70358000Y-37338000D01*
X61341000Y-45974000D02*
X61341000Y-37338000D01*
X61341000Y-37338000D02*
X70739000Y-37338000D01*
X70739000Y-37338000D02*
X70739000Y-45847000D01*
X58801000Y-45974000D02*
X71501000Y-45974000D01*
X58801000Y-45974000D02*
X58801000Y-61468000D01*
X58801000Y-61468000D02*
X73279000Y-61468000D01*
X73279000Y-61468000D02*
X73279000Y-45974000D01*
X73279000Y-45974000D02*
X71247000Y-45974000D01*
X86055905Y-27432000D02*
G75*
G03X86055905Y-27432000I-457905J0D01*
G01*
X90297000Y-38227000D02*
X90297000Y-38735000D01*
X90297000Y-38735000D02*
X80899000Y-38227000D01*
X80899000Y-38227000D02*
X80899000Y-38735000D01*
X80899000Y-38735000D02*
X90297000Y-39243000D01*
X90297000Y-39243000D02*
X90170000Y-39751000D01*
X90170000Y-39751000D02*
X80899000Y-39116000D01*
X80899000Y-39116000D02*
X80899000Y-39751000D01*
X80899000Y-39751000D02*
X90297000Y-40386000D01*
X90297000Y-40386000D02*
X90297000Y-41021000D01*
X90297000Y-41021000D02*
X80899000Y-40259000D01*
X80899000Y-40259000D02*
X80899000Y-40894000D01*
X80899000Y-40894000D02*
X90297000Y-41529000D01*
X90297000Y-41529000D02*
X90297000Y-42164000D01*
X90297000Y-42164000D02*
X80899000Y-41402000D01*
X80899000Y-41402000D02*
X80899000Y-42037000D01*
X80899000Y-42037000D02*
X90297000Y-42799000D01*
X90297000Y-42799000D02*
X90297000Y-43434000D01*
X90297000Y-43434000D02*
X80899000Y-42545000D01*
X80899000Y-42545000D02*
X80899000Y-43053000D01*
X80899000Y-43053000D02*
X90297000Y-43942000D01*
X90297000Y-43942000D02*
X90297000Y-44450000D01*
X90297000Y-44450000D02*
X80899000Y-43434000D01*
X80899000Y-43434000D02*
X80899000Y-44069000D01*
X80899000Y-44069000D02*
X90297000Y-44958000D01*
X90297000Y-44958000D02*
X90297000Y-45466000D01*
X90297000Y-45466000D02*
X80899000Y-44577000D01*
X80899000Y-44577000D02*
X80899000Y-45212000D01*
X80899000Y-45212000D02*
X89662000Y-45974000D01*
X80899000Y-37719000D02*
X90297000Y-38227000D01*
X81280000Y-37338000D02*
X81280000Y-25273000D01*
X81280000Y-25273000D02*
X89916000Y-25273000D01*
X89916000Y-25273000D02*
X89916000Y-37338000D01*
X80899000Y-45974000D02*
X80899000Y-37338000D01*
X80899000Y-37338000D02*
X90297000Y-37338000D01*
X90297000Y-37338000D02*
X90297000Y-45847000D01*
X78359000Y-45974000D02*
X91059000Y-45974000D01*
X78359000Y-45974000D02*
X78359000Y-61468000D01*
X78359000Y-61468000D02*
X92837000Y-61468000D01*
X92837000Y-61468000D02*
X92837000Y-45974000D01*
X92837000Y-45974000D02*
X90805000Y-45974000D01*
X106121905Y-27432000D02*
G75*
G03X106121905Y-27432000I-457905J0D01*
G01*
X110363000Y-38227000D02*
X110363000Y-38735000D01*
X110363000Y-38735000D02*
X100965000Y-38227000D01*
X100965000Y-38227000D02*
X100965000Y-38735000D01*
X100965000Y-38735000D02*
X110363000Y-39243000D01*
X110363000Y-39243000D02*
X110236000Y-39751000D01*
X110236000Y-39751000D02*
X100965000Y-39116000D01*
X100965000Y-39116000D02*
X100965000Y-39751000D01*
X100965000Y-39751000D02*
X110363000Y-40386000D01*
X110363000Y-40386000D02*
X110363000Y-41021000D01*
X110363000Y-41021000D02*
X100965000Y-40259000D01*
X100965000Y-40259000D02*
X100965000Y-40894000D01*
X100965000Y-40894000D02*
X110363000Y-41529000D01*
X110363000Y-41529000D02*
X110363000Y-42164000D01*
X110363000Y-42164000D02*
X100965000Y-41402000D01*
X100965000Y-41402000D02*
X100965000Y-42037000D01*
X100965000Y-42037000D02*
X110363000Y-42799000D01*
X110363000Y-42799000D02*
X110363000Y-43434000D01*
X110363000Y-43434000D02*
X100965000Y-42545000D01*
X100965000Y-42545000D02*
X100965000Y-43053000D01*
X100965000Y-43053000D02*
X110363000Y-43942000D01*
X110363000Y-43942000D02*
X110363000Y-44450000D01*
X110363000Y-44450000D02*
X100965000Y-43434000D01*
X100965000Y-43434000D02*
X100965000Y-44069000D01*
X100965000Y-44069000D02*
X110363000Y-44958000D01*
X110363000Y-44958000D02*
X110363000Y-45466000D01*
X110363000Y-45466000D02*
X100965000Y-44577000D01*
X100965000Y-44577000D02*
X100965000Y-45212000D01*
X100965000Y-45212000D02*
X109728000Y-45974000D01*
X100965000Y-37719000D02*
X110363000Y-38227000D01*
X101346000Y-37338000D02*
X101346000Y-25273000D01*
X101346000Y-25273000D02*
X109982000Y-25273000D01*
X109982000Y-25273000D02*
X109982000Y-37338000D01*
X100965000Y-45974000D02*
X100965000Y-37338000D01*
X100965000Y-37338000D02*
X110363000Y-37338000D01*
X110363000Y-37338000D02*
X110363000Y-45847000D01*
X98425000Y-45974000D02*
X111125000Y-45974000D01*
X98425000Y-45974000D02*
X98425000Y-61468000D01*
X98425000Y-61468000D02*
X112903000Y-61468000D01*
X112903000Y-61468000D02*
X112903000Y-45974000D01*
X112903000Y-45974000D02*
X110871000Y-45974000D01*
X54221000Y-123229000D02*
X53221000Y-123229000D01*
X53221000Y-124929000D02*
X54221000Y-124929000D01*
X91178000Y-166790000D02*
X90178000Y-166790000D01*
X90178000Y-168490000D02*
X91178000Y-168490000D01*
X164592000Y-45466000D02*
X164592000Y-40386000D01*
X164592000Y-40386000D02*
X149352000Y-40386000D01*
X149352000Y-40386000D02*
X149352000Y-45466000D01*
X149352000Y-45466000D02*
X164592000Y-45466000D01*
X172212000Y-58166000D02*
X141732000Y-58166000D01*
X147572000Y-39766000D02*
X141572000Y-39766000D01*
X172372000Y-39766000D02*
X166372000Y-39766000D01*
X141572000Y-45766000D02*
X141572000Y-39766000D01*
X147572000Y-45766000D02*
X147572000Y-39766000D01*
X166372000Y-45766000D02*
X166372000Y-39766000D01*
X172372000Y-45766000D02*
X172372000Y-39766000D01*
X172212000Y-45766000D02*
X141732000Y-45766000D01*
X141572000Y-45766000D02*
X141572000Y-58166000D01*
X172372000Y-45766000D02*
X172372000Y-58166000D01*
X119415000Y-176798000D02*
X120615000Y-176798000D01*
X120615000Y-178548000D02*
X119415000Y-178548000D01*
X101127000Y-176417000D02*
X102327000Y-176417000D01*
X102327000Y-178167000D02*
X101127000Y-178167000D01*
X134239000Y-175768000D02*
G75*
G03X134239000Y-175768000I-2286000J0D01*
G01*
X49014000Y-79161000D02*
X48014000Y-79161000D01*
X48014000Y-77811000D02*
X49014000Y-77811000D01*
X45974095Y-91456381D02*
X45974095Y-92265905D01*
X46021714Y-92361143D01*
X46069333Y-92408762D01*
X46164571Y-92456381D01*
X46355048Y-92456381D01*
X46450286Y-92408762D01*
X46497905Y-92361143D01*
X46545524Y-92265905D01*
X46545524Y-91456381D01*
X46974095Y-91551619D02*
X47021714Y-91504000D01*
X47116952Y-91456381D01*
X47355048Y-91456381D01*
X47450286Y-91504000D01*
X47497905Y-91551619D01*
X47545524Y-91646857D01*
X47545524Y-91742095D01*
X47497905Y-91884952D01*
X46926476Y-92456381D01*
X47545524Y-92456381D01*
X162083905Y-136866381D02*
X162083905Y-137675905D01*
X162131524Y-137771143D01*
X162179143Y-137818762D01*
X162274381Y-137866381D01*
X162464858Y-137866381D01*
X162560096Y-137818762D01*
X162607715Y-137771143D01*
X162655334Y-137675905D01*
X162655334Y-136866381D01*
X163655334Y-137866381D02*
X163083905Y-137866381D01*
X163369619Y-137866381D02*
X163369619Y-136866381D01*
X163274381Y-137009238D01*
X163179143Y-137104476D01*
X163083905Y-137152095D01*
X164036286Y-136961619D02*
X164083905Y-136914000D01*
X164179143Y-136866381D01*
X164417239Y-136866381D01*
X164512477Y-136914000D01*
X164560096Y-136961619D01*
X164607715Y-137056857D01*
X164607715Y-137152095D01*
X164560096Y-137294952D01*
X163988667Y-137866381D01*
X164607715Y-137866381D01*
X80772095Y-160012762D02*
X80914952Y-160060381D01*
X81153048Y-160060381D01*
X81248286Y-160012762D01*
X81295905Y-159965143D01*
X81343524Y-159869905D01*
X81343524Y-159774667D01*
X81295905Y-159679429D01*
X81248286Y-159631810D01*
X81153048Y-159584190D01*
X80962571Y-159536571D01*
X80867333Y-159488952D01*
X80819714Y-159441333D01*
X80772095Y-159346095D01*
X80772095Y-159250857D01*
X80819714Y-159155619D01*
X80867333Y-159108000D01*
X80962571Y-159060381D01*
X81200667Y-159060381D01*
X81343524Y-159108000D01*
X82200667Y-159060381D02*
X82010190Y-159060381D01*
X81914952Y-159108000D01*
X81867333Y-159155619D01*
X81772095Y-159298476D01*
X81724476Y-159488952D01*
X81724476Y-159869905D01*
X81772095Y-159965143D01*
X81819714Y-160012762D01*
X81914952Y-160060381D01*
X82105429Y-160060381D01*
X82200667Y-160012762D01*
X82248286Y-159965143D01*
X82295905Y-159869905D01*
X82295905Y-159631810D01*
X82248286Y-159536571D01*
X82200667Y-159488952D01*
X82105429Y-159441333D01*
X81914952Y-159441333D01*
X81819714Y-159488952D01*
X81772095Y-159536571D01*
X81724476Y-159631810D01*
X53935334Y-116240143D02*
X53887715Y-116287762D01*
X53744858Y-116335381D01*
X53649620Y-116335381D01*
X53506762Y-116287762D01*
X53411524Y-116192524D01*
X53363905Y-116097286D01*
X53316286Y-115906810D01*
X53316286Y-115763952D01*
X53363905Y-115573476D01*
X53411524Y-115478238D01*
X53506762Y-115383000D01*
X53649620Y-115335381D01*
X53744858Y-115335381D01*
X53887715Y-115383000D01*
X53935334Y-115430619D01*
X54887715Y-116335381D02*
X54316286Y-116335381D01*
X54602000Y-116335381D02*
X54602000Y-115335381D01*
X54506762Y-115478238D01*
X54411524Y-115573476D01*
X54316286Y-115621095D01*
X39203334Y-120821143D02*
X39155715Y-120868762D01*
X39012858Y-120916381D01*
X38917620Y-120916381D01*
X38774762Y-120868762D01*
X38679524Y-120773524D01*
X38631905Y-120678286D01*
X38584286Y-120487810D01*
X38584286Y-120344952D01*
X38631905Y-120154476D01*
X38679524Y-120059238D01*
X38774762Y-119964000D01*
X38917620Y-119916381D01*
X39012858Y-119916381D01*
X39155715Y-119964000D01*
X39203334Y-120011619D01*
X39584286Y-120011619D02*
X39631905Y-119964000D01*
X39727143Y-119916381D01*
X39965239Y-119916381D01*
X40060477Y-119964000D01*
X40108096Y-120011619D01*
X40155715Y-120106857D01*
X40155715Y-120202095D01*
X40108096Y-120344952D01*
X39536667Y-120916381D01*
X40155715Y-120916381D01*
X37446143Y-140374666D02*
X37493762Y-140422285D01*
X37541381Y-140565142D01*
X37541381Y-140660380D01*
X37493762Y-140803238D01*
X37398524Y-140898476D01*
X37303286Y-140946095D01*
X37112810Y-140993714D01*
X36969952Y-140993714D01*
X36779476Y-140946095D01*
X36684238Y-140898476D01*
X36589000Y-140803238D01*
X36541381Y-140660380D01*
X36541381Y-140565142D01*
X36589000Y-140422285D01*
X36636619Y-140374666D01*
X36541381Y-140041333D02*
X36541381Y-139422285D01*
X36922333Y-139755619D01*
X36922333Y-139612761D01*
X36969952Y-139517523D01*
X37017571Y-139469904D01*
X37112810Y-139422285D01*
X37350905Y-139422285D01*
X37446143Y-139469904D01*
X37493762Y-139517523D01*
X37541381Y-139612761D01*
X37541381Y-139898476D01*
X37493762Y-139993714D01*
X37446143Y-140041333D01*
X56729334Y-153705143D02*
X56681715Y-153752762D01*
X56538858Y-153800381D01*
X56443620Y-153800381D01*
X56300762Y-153752762D01*
X56205524Y-153657524D01*
X56157905Y-153562286D01*
X56110286Y-153371810D01*
X56110286Y-153228952D01*
X56157905Y-153038476D01*
X56205524Y-152943238D01*
X56300762Y-152848000D01*
X56443620Y-152800381D01*
X56538858Y-152800381D01*
X56681715Y-152848000D01*
X56729334Y-152895619D01*
X57586477Y-153133714D02*
X57586477Y-153800381D01*
X57348381Y-152752762D02*
X57110286Y-153467048D01*
X57729334Y-153467048D01*
X47077334Y-137893143D02*
X47029715Y-137940762D01*
X46886858Y-137988381D01*
X46791620Y-137988381D01*
X46648762Y-137940762D01*
X46553524Y-137845524D01*
X46505905Y-137750286D01*
X46458286Y-137559810D01*
X46458286Y-137416952D01*
X46505905Y-137226476D01*
X46553524Y-137131238D01*
X46648762Y-137036000D01*
X46791620Y-136988381D01*
X46886858Y-136988381D01*
X47029715Y-137036000D01*
X47077334Y-137083619D01*
X47982096Y-136988381D02*
X47505905Y-136988381D01*
X47458286Y-137464571D01*
X47505905Y-137416952D01*
X47601143Y-137369333D01*
X47839239Y-137369333D01*
X47934477Y-137416952D01*
X47982096Y-137464571D01*
X48029715Y-137559810D01*
X48029715Y-137797905D01*
X47982096Y-137893143D01*
X47934477Y-137940762D01*
X47839239Y-137988381D01*
X47601143Y-137988381D01*
X47505905Y-137940762D01*
X47458286Y-137893143D01*
X50379334Y-134645143D02*
X50331715Y-134692762D01*
X50188858Y-134740381D01*
X50093620Y-134740381D01*
X49950762Y-134692762D01*
X49855524Y-134597524D01*
X49807905Y-134502286D01*
X49760286Y-134311810D01*
X49760286Y-134168952D01*
X49807905Y-133978476D01*
X49855524Y-133883238D01*
X49950762Y-133788000D01*
X50093620Y-133740381D01*
X50188858Y-133740381D01*
X50331715Y-133788000D01*
X50379334Y-133835619D01*
X51236477Y-133740381D02*
X51046000Y-133740381D01*
X50950762Y-133788000D01*
X50903143Y-133835619D01*
X50807905Y-133978476D01*
X50760286Y-134168952D01*
X50760286Y-134549905D01*
X50807905Y-134645143D01*
X50855524Y-134692762D01*
X50950762Y-134740381D01*
X51141239Y-134740381D01*
X51236477Y-134692762D01*
X51284096Y-134645143D01*
X51331715Y-134549905D01*
X51331715Y-134311810D01*
X51284096Y-134216571D01*
X51236477Y-134168952D01*
X51141239Y-134121333D01*
X50950762Y-134121333D01*
X50855524Y-134168952D01*
X50807905Y-134216571D01*
X50760286Y-134311810D01*
X55797143Y-142914666D02*
X55844762Y-142962285D01*
X55892381Y-143105142D01*
X55892381Y-143200380D01*
X55844762Y-143343238D01*
X55749524Y-143438476D01*
X55654286Y-143486095D01*
X55463810Y-143533714D01*
X55320952Y-143533714D01*
X55130476Y-143486095D01*
X55035238Y-143438476D01*
X54940000Y-143343238D01*
X54892381Y-143200380D01*
X54892381Y-143105142D01*
X54940000Y-142962285D01*
X54987619Y-142914666D01*
X54892381Y-142581333D02*
X54892381Y-141914666D01*
X55892381Y-142343238D01*
X43859143Y-147867666D02*
X43906762Y-147915285D01*
X43954381Y-148058142D01*
X43954381Y-148153380D01*
X43906762Y-148296238D01*
X43811524Y-148391476D01*
X43716286Y-148439095D01*
X43525810Y-148486714D01*
X43382952Y-148486714D01*
X43192476Y-148439095D01*
X43097238Y-148391476D01*
X43002000Y-148296238D01*
X42954381Y-148153380D01*
X42954381Y-148058142D01*
X43002000Y-147915285D01*
X43049619Y-147867666D01*
X43382952Y-147296238D02*
X43335333Y-147391476D01*
X43287714Y-147439095D01*
X43192476Y-147486714D01*
X43144857Y-147486714D01*
X43049619Y-147439095D01*
X43002000Y-147391476D01*
X42954381Y-147296238D01*
X42954381Y-147105761D01*
X43002000Y-147010523D01*
X43049619Y-146962904D01*
X43144857Y-146915285D01*
X43192476Y-146915285D01*
X43287714Y-146962904D01*
X43335333Y-147010523D01*
X43382952Y-147105761D01*
X43382952Y-147296238D01*
X43430571Y-147391476D01*
X43478190Y-147439095D01*
X43573429Y-147486714D01*
X43763905Y-147486714D01*
X43859143Y-147439095D01*
X43906762Y-147391476D01*
X43954381Y-147296238D01*
X43954381Y-147105761D01*
X43906762Y-147010523D01*
X43859143Y-146962904D01*
X43763905Y-146915285D01*
X43573429Y-146915285D01*
X43478190Y-146962904D01*
X43430571Y-147010523D01*
X43382952Y-147105761D01*
X116800334Y-136052143D02*
X116752715Y-136099762D01*
X116609858Y-136147381D01*
X116514620Y-136147381D01*
X116371762Y-136099762D01*
X116276524Y-136004524D01*
X116228905Y-135909286D01*
X116181286Y-135718810D01*
X116181286Y-135575952D01*
X116228905Y-135385476D01*
X116276524Y-135290238D01*
X116371762Y-135195000D01*
X116514620Y-135147381D01*
X116609858Y-135147381D01*
X116752715Y-135195000D01*
X116800334Y-135242619D01*
X117276524Y-136147381D02*
X117467000Y-136147381D01*
X117562239Y-136099762D01*
X117609858Y-136052143D01*
X117705096Y-135909286D01*
X117752715Y-135718810D01*
X117752715Y-135337857D01*
X117705096Y-135242619D01*
X117657477Y-135195000D01*
X117562239Y-135147381D01*
X117371762Y-135147381D01*
X117276524Y-135195000D01*
X117228905Y-135242619D01*
X117181286Y-135337857D01*
X117181286Y-135575952D01*
X117228905Y-135671190D01*
X117276524Y-135718810D01*
X117371762Y-135766429D01*
X117562239Y-135766429D01*
X117657477Y-135718810D01*
X117705096Y-135671190D01*
X117752715Y-135575952D01*
X104259143Y-147999143D02*
X104211524Y-148046762D01*
X104068667Y-148094381D01*
X103973429Y-148094381D01*
X103830571Y-148046762D01*
X103735333Y-147951524D01*
X103687714Y-147856286D01*
X103640095Y-147665810D01*
X103640095Y-147522952D01*
X103687714Y-147332476D01*
X103735333Y-147237238D01*
X103830571Y-147142000D01*
X103973429Y-147094381D01*
X104068667Y-147094381D01*
X104211524Y-147142000D01*
X104259143Y-147189619D01*
X105211524Y-148094381D02*
X104640095Y-148094381D01*
X104925809Y-148094381D02*
X104925809Y-147094381D01*
X104830571Y-147237238D01*
X104735333Y-147332476D01*
X104640095Y-147380095D01*
X105830571Y-147094381D02*
X105925810Y-147094381D01*
X106021048Y-147142000D01*
X106068667Y-147189619D01*
X106116286Y-147284857D01*
X106163905Y-147475333D01*
X106163905Y-147713429D01*
X106116286Y-147903905D01*
X106068667Y-147999143D01*
X106021048Y-148046762D01*
X105925810Y-148094381D01*
X105830571Y-148094381D01*
X105735333Y-148046762D01*
X105687714Y-147999143D01*
X105640095Y-147903905D01*
X105592476Y-147713429D01*
X105592476Y-147475333D01*
X105640095Y-147284857D01*
X105687714Y-147189619D01*
X105735333Y-147142000D01*
X105830571Y-147094381D01*
X40865143Y-106052857D02*
X40912762Y-106100476D01*
X40960381Y-106243333D01*
X40960381Y-106338571D01*
X40912762Y-106481429D01*
X40817524Y-106576667D01*
X40722286Y-106624286D01*
X40531810Y-106671905D01*
X40388952Y-106671905D01*
X40198476Y-106624286D01*
X40103238Y-106576667D01*
X40008000Y-106481429D01*
X39960381Y-106338571D01*
X39960381Y-106243333D01*
X40008000Y-106100476D01*
X40055619Y-106052857D01*
X40960381Y-105100476D02*
X40960381Y-105671905D01*
X40960381Y-105386191D02*
X39960381Y-105386191D01*
X40103238Y-105481429D01*
X40198476Y-105576667D01*
X40246095Y-105671905D01*
X40960381Y-104148095D02*
X40960381Y-104719524D01*
X40960381Y-104433810D02*
X39960381Y-104433810D01*
X40103238Y-104529048D01*
X40198476Y-104624286D01*
X40246095Y-104719524D01*
X115297143Y-143644857D02*
X115344762Y-143692476D01*
X115392381Y-143835333D01*
X115392381Y-143930571D01*
X115344762Y-144073429D01*
X115249524Y-144168667D01*
X115154286Y-144216286D01*
X114963810Y-144263905D01*
X114820952Y-144263905D01*
X114630476Y-144216286D01*
X114535238Y-144168667D01*
X114440000Y-144073429D01*
X114392381Y-143930571D01*
X114392381Y-143835333D01*
X114440000Y-143692476D01*
X114487619Y-143644857D01*
X115392381Y-142692476D02*
X115392381Y-143263905D01*
X115392381Y-142978191D02*
X114392381Y-142978191D01*
X114535238Y-143073429D01*
X114630476Y-143168667D01*
X114678095Y-143263905D01*
X114487619Y-142311524D02*
X114440000Y-142263905D01*
X114392381Y-142168667D01*
X114392381Y-141930571D01*
X114440000Y-141835333D01*
X114487619Y-141787714D01*
X114582857Y-141740095D01*
X114678095Y-141740095D01*
X114820952Y-141787714D01*
X115392381Y-142359143D01*
X115392381Y-141740095D01*
X47871143Y-81261143D02*
X47823524Y-81308762D01*
X47680667Y-81356381D01*
X47585429Y-81356381D01*
X47442571Y-81308762D01*
X47347333Y-81213524D01*
X47299714Y-81118286D01*
X47252095Y-80927810D01*
X47252095Y-80784952D01*
X47299714Y-80594476D01*
X47347333Y-80499238D01*
X47442571Y-80404000D01*
X47585429Y-80356381D01*
X47680667Y-80356381D01*
X47823524Y-80404000D01*
X47871143Y-80451619D01*
X48823524Y-81356381D02*
X48252095Y-81356381D01*
X48537809Y-81356381D02*
X48537809Y-80356381D01*
X48442571Y-80499238D01*
X48347333Y-80594476D01*
X48252095Y-80642095D01*
X49156857Y-80356381D02*
X49775905Y-80356381D01*
X49442571Y-80737333D01*
X49585429Y-80737333D01*
X49680667Y-80784952D01*
X49728286Y-80832571D01*
X49775905Y-80927810D01*
X49775905Y-81165905D01*
X49728286Y-81261143D01*
X49680667Y-81308762D01*
X49585429Y-81356381D01*
X49299714Y-81356381D01*
X49204476Y-81308762D01*
X49156857Y-81261143D01*
X54983143Y-93253143D02*
X54935524Y-93300762D01*
X54792667Y-93348381D01*
X54697429Y-93348381D01*
X54554571Y-93300762D01*
X54459333Y-93205524D01*
X54411714Y-93110286D01*
X54364095Y-92919810D01*
X54364095Y-92776952D01*
X54411714Y-92586476D01*
X54459333Y-92491238D01*
X54554571Y-92396000D01*
X54697429Y-92348381D01*
X54792667Y-92348381D01*
X54935524Y-92396000D01*
X54983143Y-92443619D01*
X55935524Y-93348381D02*
X55364095Y-93348381D01*
X55649809Y-93348381D02*
X55649809Y-92348381D01*
X55554571Y-92491238D01*
X55459333Y-92586476D01*
X55364095Y-92634095D01*
X56792667Y-92681714D02*
X56792667Y-93348381D01*
X56554571Y-92300762D02*
X56316476Y-93015048D01*
X56935524Y-93015048D01*
X36949143Y-98841143D02*
X36901524Y-98888762D01*
X36758667Y-98936381D01*
X36663429Y-98936381D01*
X36520571Y-98888762D01*
X36425333Y-98793524D01*
X36377714Y-98698286D01*
X36330095Y-98507810D01*
X36330095Y-98364952D01*
X36377714Y-98174476D01*
X36425333Y-98079238D01*
X36520571Y-97984000D01*
X36663429Y-97936381D01*
X36758667Y-97936381D01*
X36901524Y-97984000D01*
X36949143Y-98031619D01*
X37901524Y-98936381D02*
X37330095Y-98936381D01*
X37615809Y-98936381D02*
X37615809Y-97936381D01*
X37520571Y-98079238D01*
X37425333Y-98174476D01*
X37330095Y-98222095D01*
X38806286Y-97936381D02*
X38330095Y-97936381D01*
X38282476Y-98412571D01*
X38330095Y-98364952D01*
X38425333Y-98317333D01*
X38663429Y-98317333D01*
X38758667Y-98364952D01*
X38806286Y-98412571D01*
X38853905Y-98507810D01*
X38853905Y-98745905D01*
X38806286Y-98841143D01*
X38758667Y-98888762D01*
X38663429Y-98936381D01*
X38425333Y-98936381D01*
X38330095Y-98888762D01*
X38282476Y-98841143D01*
X115689143Y-72171143D02*
X115641524Y-72218762D01*
X115498667Y-72266381D01*
X115403429Y-72266381D01*
X115260571Y-72218762D01*
X115165333Y-72123524D01*
X115117714Y-72028286D01*
X115070095Y-71837810D01*
X115070095Y-71694952D01*
X115117714Y-71504476D01*
X115165333Y-71409238D01*
X115260571Y-71314000D01*
X115403429Y-71266381D01*
X115498667Y-71266381D01*
X115641524Y-71314000D01*
X115689143Y-71361619D01*
X116641524Y-72266381D02*
X116070095Y-72266381D01*
X116355809Y-72266381D02*
X116355809Y-71266381D01*
X116260571Y-71409238D01*
X116165333Y-71504476D01*
X116070095Y-71552095D01*
X117498667Y-71266381D02*
X117308190Y-71266381D01*
X117212952Y-71314000D01*
X117165333Y-71361619D01*
X117070095Y-71504476D01*
X117022476Y-71694952D01*
X117022476Y-72075905D01*
X117070095Y-72171143D01*
X117117714Y-72218762D01*
X117212952Y-72266381D01*
X117403429Y-72266381D01*
X117498667Y-72218762D01*
X117546286Y-72171143D01*
X117593905Y-72075905D01*
X117593905Y-71837810D01*
X117546286Y-71742571D01*
X117498667Y-71694952D01*
X117403429Y-71647333D01*
X117212952Y-71647333D01*
X117117714Y-71694952D01*
X117070095Y-71742571D01*
X117022476Y-71837810D01*
X98671143Y-80689143D02*
X98623524Y-80736762D01*
X98480667Y-80784381D01*
X98385429Y-80784381D01*
X98242571Y-80736762D01*
X98147333Y-80641524D01*
X98099714Y-80546286D01*
X98052095Y-80355810D01*
X98052095Y-80212952D01*
X98099714Y-80022476D01*
X98147333Y-79927238D01*
X98242571Y-79832000D01*
X98385429Y-79784381D01*
X98480667Y-79784381D01*
X98623524Y-79832000D01*
X98671143Y-79879619D01*
X99623524Y-80784381D02*
X99052095Y-80784381D01*
X99337809Y-80784381D02*
X99337809Y-79784381D01*
X99242571Y-79927238D01*
X99147333Y-80022476D01*
X99052095Y-80070095D01*
X99956857Y-79784381D02*
X100623524Y-79784381D01*
X100194952Y-80784381D01*
X39087143Y-162186857D02*
X39134762Y-162234476D01*
X39182381Y-162377333D01*
X39182381Y-162472571D01*
X39134762Y-162615429D01*
X39039524Y-162710667D01*
X38944286Y-162758286D01*
X38753810Y-162805905D01*
X38610952Y-162805905D01*
X38420476Y-162758286D01*
X38325238Y-162710667D01*
X38230000Y-162615429D01*
X38182381Y-162472571D01*
X38182381Y-162377333D01*
X38230000Y-162234476D01*
X38277619Y-162186857D01*
X39182381Y-161234476D02*
X39182381Y-161805905D01*
X39182381Y-161520191D02*
X38182381Y-161520191D01*
X38325238Y-161615429D01*
X38420476Y-161710667D01*
X38468095Y-161805905D01*
X38610952Y-160663048D02*
X38563333Y-160758286D01*
X38515714Y-160805905D01*
X38420476Y-160853524D01*
X38372857Y-160853524D01*
X38277619Y-160805905D01*
X38230000Y-160758286D01*
X38182381Y-160663048D01*
X38182381Y-160472571D01*
X38230000Y-160377333D01*
X38277619Y-160329714D01*
X38372857Y-160282095D01*
X38420476Y-160282095D01*
X38515714Y-160329714D01*
X38563333Y-160377333D01*
X38610952Y-160472571D01*
X38610952Y-160663048D01*
X38658571Y-160758286D01*
X38706190Y-160805905D01*
X38801429Y-160853524D01*
X38991905Y-160853524D01*
X39087143Y-160805905D01*
X39134762Y-160758286D01*
X39182381Y-160663048D01*
X39182381Y-160472571D01*
X39134762Y-160377333D01*
X39087143Y-160329714D01*
X38991905Y-160282095D01*
X38801429Y-160282095D01*
X38706190Y-160329714D01*
X38658571Y-160377333D01*
X38610952Y-160472571D01*
X43807143Y-173907143D02*
X43759524Y-173954762D01*
X43616667Y-174002381D01*
X43521429Y-174002381D01*
X43378571Y-173954762D01*
X43283333Y-173859524D01*
X43235714Y-173764286D01*
X43188095Y-173573810D01*
X43188095Y-173430952D01*
X43235714Y-173240476D01*
X43283333Y-173145238D01*
X43378571Y-173050000D01*
X43521429Y-173002381D01*
X43616667Y-173002381D01*
X43759524Y-173050000D01*
X43807143Y-173097619D01*
X44759524Y-174002381D02*
X44188095Y-174002381D01*
X44473809Y-174002381D02*
X44473809Y-173002381D01*
X44378571Y-173145238D01*
X44283333Y-173240476D01*
X44188095Y-173288095D01*
X45235714Y-174002381D02*
X45426190Y-174002381D01*
X45521429Y-173954762D01*
X45569048Y-173907143D01*
X45664286Y-173764286D01*
X45711905Y-173573810D01*
X45711905Y-173192857D01*
X45664286Y-173097619D01*
X45616667Y-173050000D01*
X45521429Y-173002381D01*
X45330952Y-173002381D01*
X45235714Y-173050000D01*
X45188095Y-173097619D01*
X45140476Y-173192857D01*
X45140476Y-173430952D01*
X45188095Y-173526190D01*
X45235714Y-173573810D01*
X45330952Y-173621429D01*
X45521429Y-173621429D01*
X45616667Y-173573810D01*
X45664286Y-173526190D01*
X45711905Y-173430952D01*
X67481143Y-99956857D02*
X67528762Y-100004476D01*
X67576381Y-100147333D01*
X67576381Y-100242571D01*
X67528762Y-100385429D01*
X67433524Y-100480667D01*
X67338286Y-100528286D01*
X67147810Y-100575905D01*
X67004952Y-100575905D01*
X66814476Y-100528286D01*
X66719238Y-100480667D01*
X66624000Y-100385429D01*
X66576381Y-100242571D01*
X66576381Y-100147333D01*
X66624000Y-100004476D01*
X66671619Y-99956857D01*
X66671619Y-99575905D02*
X66624000Y-99528286D01*
X66576381Y-99433048D01*
X66576381Y-99194952D01*
X66624000Y-99099714D01*
X66671619Y-99052095D01*
X66766857Y-99004476D01*
X66862095Y-99004476D01*
X67004952Y-99052095D01*
X67576381Y-99623524D01*
X67576381Y-99004476D01*
X66576381Y-98385429D02*
X66576381Y-98290190D01*
X66624000Y-98194952D01*
X66671619Y-98147333D01*
X66766857Y-98099714D01*
X66957333Y-98052095D01*
X67195429Y-98052095D01*
X67385905Y-98099714D01*
X67481143Y-98147333D01*
X67528762Y-98194952D01*
X67576381Y-98290190D01*
X67576381Y-98385429D01*
X67528762Y-98480667D01*
X67481143Y-98528286D01*
X67385905Y-98575905D01*
X67195429Y-98623524D01*
X66957333Y-98623524D01*
X66766857Y-98575905D01*
X66671619Y-98528286D01*
X66624000Y-98480667D01*
X66576381Y-98385429D01*
X79367143Y-91729143D02*
X79319524Y-91776762D01*
X79176667Y-91824381D01*
X79081429Y-91824381D01*
X78938571Y-91776762D01*
X78843333Y-91681524D01*
X78795714Y-91586286D01*
X78748095Y-91395810D01*
X78748095Y-91252952D01*
X78795714Y-91062476D01*
X78843333Y-90967238D01*
X78938571Y-90872000D01*
X79081429Y-90824381D01*
X79176667Y-90824381D01*
X79319524Y-90872000D01*
X79367143Y-90919619D01*
X79748095Y-90919619D02*
X79795714Y-90872000D01*
X79890952Y-90824381D01*
X80129048Y-90824381D01*
X80224286Y-90872000D01*
X80271905Y-90919619D01*
X80319524Y-91014857D01*
X80319524Y-91110095D01*
X80271905Y-91252952D01*
X79700476Y-91824381D01*
X80319524Y-91824381D01*
X81271905Y-91824381D02*
X80700476Y-91824381D01*
X80986190Y-91824381D02*
X80986190Y-90824381D01*
X80890952Y-90967238D01*
X80795714Y-91062476D01*
X80700476Y-91110095D01*
X56253143Y-161579143D02*
X56205524Y-161626762D01*
X56062667Y-161674381D01*
X55967429Y-161674381D01*
X55824571Y-161626762D01*
X55729333Y-161531524D01*
X55681714Y-161436286D01*
X55634095Y-161245810D01*
X55634095Y-161102952D01*
X55681714Y-160912476D01*
X55729333Y-160817238D01*
X55824571Y-160722000D01*
X55967429Y-160674381D01*
X56062667Y-160674381D01*
X56205524Y-160722000D01*
X56253143Y-160769619D01*
X56634095Y-160769619D02*
X56681714Y-160722000D01*
X56776952Y-160674381D01*
X57015048Y-160674381D01*
X57110286Y-160722000D01*
X57157905Y-160769619D01*
X57205524Y-160864857D01*
X57205524Y-160960095D01*
X57157905Y-161102952D01*
X56586476Y-161674381D01*
X57205524Y-161674381D01*
X57586476Y-160769619D02*
X57634095Y-160722000D01*
X57729333Y-160674381D01*
X57967429Y-160674381D01*
X58062667Y-160722000D01*
X58110286Y-160769619D01*
X58157905Y-160864857D01*
X58157905Y-160960095D01*
X58110286Y-161102952D01*
X57538857Y-161674381D01*
X58157905Y-161674381D01*
X127881143Y-139173143D02*
X127833524Y-139220762D01*
X127690667Y-139268381D01*
X127595429Y-139268381D01*
X127452571Y-139220762D01*
X127357333Y-139125524D01*
X127309714Y-139030286D01*
X127262095Y-138839810D01*
X127262095Y-138696952D01*
X127309714Y-138506476D01*
X127357333Y-138411238D01*
X127452571Y-138316000D01*
X127595429Y-138268381D01*
X127690667Y-138268381D01*
X127833524Y-138316000D01*
X127881143Y-138363619D01*
X128262095Y-138363619D02*
X128309714Y-138316000D01*
X128404952Y-138268381D01*
X128643048Y-138268381D01*
X128738286Y-138316000D01*
X128785905Y-138363619D01*
X128833524Y-138458857D01*
X128833524Y-138554095D01*
X128785905Y-138696952D01*
X128214476Y-139268381D01*
X128833524Y-139268381D01*
X129166857Y-138268381D02*
X129785905Y-138268381D01*
X129452571Y-138649333D01*
X129595429Y-138649333D01*
X129690667Y-138696952D01*
X129738286Y-138744571D01*
X129785905Y-138839810D01*
X129785905Y-139077905D01*
X129738286Y-139173143D01*
X129690667Y-139220762D01*
X129595429Y-139268381D01*
X129309714Y-139268381D01*
X129214476Y-139220762D01*
X129166857Y-139173143D01*
X127373143Y-144053143D02*
X127325524Y-144100762D01*
X127182667Y-144148381D01*
X127087429Y-144148381D01*
X126944571Y-144100762D01*
X126849333Y-144005524D01*
X126801714Y-143910286D01*
X126754095Y-143719810D01*
X126754095Y-143576952D01*
X126801714Y-143386476D01*
X126849333Y-143291238D01*
X126944571Y-143196000D01*
X127087429Y-143148381D01*
X127182667Y-143148381D01*
X127325524Y-143196000D01*
X127373143Y-143243619D01*
X127754095Y-143243619D02*
X127801714Y-143196000D01*
X127896952Y-143148381D01*
X128135048Y-143148381D01*
X128230286Y-143196000D01*
X128277905Y-143243619D01*
X128325524Y-143338857D01*
X128325524Y-143434095D01*
X128277905Y-143576952D01*
X127706476Y-144148381D01*
X128325524Y-144148381D01*
X129182667Y-143481714D02*
X129182667Y-144148381D01*
X128944571Y-143100762D02*
X128706476Y-143815048D01*
X129325524Y-143815048D01*
X129575143Y-168790857D02*
X129622762Y-168838476D01*
X129670381Y-168981333D01*
X129670381Y-169076571D01*
X129622762Y-169219429D01*
X129527524Y-169314667D01*
X129432286Y-169362286D01*
X129241810Y-169409905D01*
X129098952Y-169409905D01*
X128908476Y-169362286D01*
X128813238Y-169314667D01*
X128718000Y-169219429D01*
X128670381Y-169076571D01*
X128670381Y-168981333D01*
X128718000Y-168838476D01*
X128765619Y-168790857D01*
X128765619Y-168409905D02*
X128718000Y-168362286D01*
X128670381Y-168267048D01*
X128670381Y-168028952D01*
X128718000Y-167933714D01*
X128765619Y-167886095D01*
X128860857Y-167838476D01*
X128956095Y-167838476D01*
X129098952Y-167886095D01*
X129670381Y-168457524D01*
X129670381Y-167838476D01*
X128670381Y-166933714D02*
X128670381Y-167409905D01*
X129146571Y-167457524D01*
X129098952Y-167409905D01*
X129051333Y-167314667D01*
X129051333Y-167076571D01*
X129098952Y-166981333D01*
X129146571Y-166933714D01*
X129241810Y-166886095D01*
X129479905Y-166886095D01*
X129575143Y-166933714D01*
X129622762Y-166981333D01*
X129670381Y-167076571D01*
X129670381Y-167314667D01*
X129622762Y-167409905D01*
X129575143Y-167457524D01*
X144443143Y-167012857D02*
X144490762Y-167060476D01*
X144538381Y-167203333D01*
X144538381Y-167298571D01*
X144490762Y-167441429D01*
X144395524Y-167536667D01*
X144300286Y-167584286D01*
X144109810Y-167631905D01*
X143966952Y-167631905D01*
X143776476Y-167584286D01*
X143681238Y-167536667D01*
X143586000Y-167441429D01*
X143538381Y-167298571D01*
X143538381Y-167203333D01*
X143586000Y-167060476D01*
X143633619Y-167012857D01*
X143633619Y-166631905D02*
X143586000Y-166584286D01*
X143538381Y-166489048D01*
X143538381Y-166250952D01*
X143586000Y-166155714D01*
X143633619Y-166108095D01*
X143728857Y-166060476D01*
X143824095Y-166060476D01*
X143966952Y-166108095D01*
X144538381Y-166679524D01*
X144538381Y-166060476D01*
X143538381Y-165203333D02*
X143538381Y-165393810D01*
X143586000Y-165489048D01*
X143633619Y-165536667D01*
X143776476Y-165631905D01*
X143966952Y-165679524D01*
X144347905Y-165679524D01*
X144443143Y-165631905D01*
X144490762Y-165584286D01*
X144538381Y-165489048D01*
X144538381Y-165298571D01*
X144490762Y-165203333D01*
X144443143Y-165155714D01*
X144347905Y-165108095D01*
X144109810Y-165108095D01*
X144014571Y-165155714D01*
X143966952Y-165203333D01*
X143919333Y-165298571D01*
X143919333Y-165489048D01*
X143966952Y-165584286D01*
X144014571Y-165631905D01*
X144109810Y-165679524D01*
X144391143Y-155356143D02*
X144343524Y-155403762D01*
X144200667Y-155451381D01*
X144105429Y-155451381D01*
X143962571Y-155403762D01*
X143867333Y-155308524D01*
X143819714Y-155213286D01*
X143772095Y-155022810D01*
X143772095Y-154879952D01*
X143819714Y-154689476D01*
X143867333Y-154594238D01*
X143962571Y-154499000D01*
X144105429Y-154451381D01*
X144200667Y-154451381D01*
X144343524Y-154499000D01*
X144391143Y-154546619D01*
X144772095Y-154546619D02*
X144819714Y-154499000D01*
X144914952Y-154451381D01*
X145153048Y-154451381D01*
X145248286Y-154499000D01*
X145295905Y-154546619D01*
X145343524Y-154641857D01*
X145343524Y-154737095D01*
X145295905Y-154879952D01*
X144724476Y-155451381D01*
X145343524Y-155451381D01*
X145676857Y-154451381D02*
X146343524Y-154451381D01*
X145914952Y-155451381D01*
X152519143Y-133521143D02*
X152471524Y-133568762D01*
X152328667Y-133616381D01*
X152233429Y-133616381D01*
X152090571Y-133568762D01*
X151995333Y-133473524D01*
X151947714Y-133378286D01*
X151900095Y-133187810D01*
X151900095Y-133044952D01*
X151947714Y-132854476D01*
X151995333Y-132759238D01*
X152090571Y-132664000D01*
X152233429Y-132616381D01*
X152328667Y-132616381D01*
X152471524Y-132664000D01*
X152519143Y-132711619D01*
X152900095Y-132711619D02*
X152947714Y-132664000D01*
X153042952Y-132616381D01*
X153281048Y-132616381D01*
X153376286Y-132664000D01*
X153423905Y-132711619D01*
X153471524Y-132806857D01*
X153471524Y-132902095D01*
X153423905Y-133044952D01*
X152852476Y-133616381D01*
X153471524Y-133616381D01*
X154042952Y-133044952D02*
X153947714Y-132997333D01*
X153900095Y-132949714D01*
X153852476Y-132854476D01*
X153852476Y-132806857D01*
X153900095Y-132711619D01*
X153947714Y-132664000D01*
X154042952Y-132616381D01*
X154233429Y-132616381D01*
X154328667Y-132664000D01*
X154376286Y-132711619D01*
X154423905Y-132806857D01*
X154423905Y-132854476D01*
X154376286Y-132949714D01*
X154328667Y-132997333D01*
X154233429Y-133044952D01*
X154042952Y-133044952D01*
X153947714Y-133092571D01*
X153900095Y-133140190D01*
X153852476Y-133235429D01*
X153852476Y-133425905D01*
X153900095Y-133521143D01*
X153947714Y-133568762D01*
X154042952Y-133616381D01*
X154233429Y-133616381D01*
X154328667Y-133568762D01*
X154376286Y-133521143D01*
X154423905Y-133425905D01*
X154423905Y-133235429D01*
X154376286Y-133140190D01*
X154328667Y-133092571D01*
X154233429Y-133044952D01*
X132707143Y-93199143D02*
X132659524Y-93246762D01*
X132516667Y-93294381D01*
X132421429Y-93294381D01*
X132278571Y-93246762D01*
X132183333Y-93151524D01*
X132135714Y-93056286D01*
X132088095Y-92865810D01*
X132088095Y-92722952D01*
X132135714Y-92532476D01*
X132183333Y-92437238D01*
X132278571Y-92342000D01*
X132421429Y-92294381D01*
X132516667Y-92294381D01*
X132659524Y-92342000D01*
X132707143Y-92389619D01*
X133088095Y-92389619D02*
X133135714Y-92342000D01*
X133230952Y-92294381D01*
X133469048Y-92294381D01*
X133564286Y-92342000D01*
X133611905Y-92389619D01*
X133659524Y-92484857D01*
X133659524Y-92580095D01*
X133611905Y-92722952D01*
X133040476Y-93294381D01*
X133659524Y-93294381D01*
X134135714Y-93294381D02*
X134326190Y-93294381D01*
X134421429Y-93246762D01*
X134469048Y-93199143D01*
X134564286Y-93056286D01*
X134611905Y-92865810D01*
X134611905Y-92484857D01*
X134564286Y-92389619D01*
X134516667Y-92342000D01*
X134421429Y-92294381D01*
X134230952Y-92294381D01*
X134135714Y-92342000D01*
X134088095Y-92389619D01*
X134040476Y-92484857D01*
X134040476Y-92722952D01*
X134088095Y-92818190D01*
X134135714Y-92865810D01*
X134230952Y-92913429D01*
X134421429Y-92913429D01*
X134516667Y-92865810D01*
X134564286Y-92818190D01*
X134611905Y-92722952D01*
X144645143Y-80616143D02*
X144597524Y-80663762D01*
X144454667Y-80711381D01*
X144359429Y-80711381D01*
X144216571Y-80663762D01*
X144121333Y-80568524D01*
X144073714Y-80473286D01*
X144026095Y-80282810D01*
X144026095Y-80139952D01*
X144073714Y-79949476D01*
X144121333Y-79854238D01*
X144216571Y-79759000D01*
X144359429Y-79711381D01*
X144454667Y-79711381D01*
X144597524Y-79759000D01*
X144645143Y-79806619D01*
X144978476Y-79711381D02*
X145597524Y-79711381D01*
X145264190Y-80092333D01*
X145407048Y-80092333D01*
X145502286Y-80139952D01*
X145549905Y-80187571D01*
X145597524Y-80282810D01*
X145597524Y-80520905D01*
X145549905Y-80616143D01*
X145502286Y-80663762D01*
X145407048Y-80711381D01*
X145121333Y-80711381D01*
X145026095Y-80663762D01*
X144978476Y-80616143D01*
X146216571Y-79711381D02*
X146311810Y-79711381D01*
X146407048Y-79759000D01*
X146454667Y-79806619D01*
X146502286Y-79901857D01*
X146549905Y-80092333D01*
X146549905Y-80330429D01*
X146502286Y-80520905D01*
X146454667Y-80616143D01*
X146407048Y-80663762D01*
X146311810Y-80711381D01*
X146216571Y-80711381D01*
X146121333Y-80663762D01*
X146073714Y-80616143D01*
X146026095Y-80520905D01*
X145978476Y-80330429D01*
X145978476Y-80092333D01*
X146026095Y-79901857D01*
X146073714Y-79806619D01*
X146121333Y-79759000D01*
X146216571Y-79711381D01*
X163441143Y-81007143D02*
X163393524Y-81054762D01*
X163250667Y-81102381D01*
X163155429Y-81102381D01*
X163012571Y-81054762D01*
X162917333Y-80959524D01*
X162869714Y-80864286D01*
X162822095Y-80673810D01*
X162822095Y-80530952D01*
X162869714Y-80340476D01*
X162917333Y-80245238D01*
X163012571Y-80150000D01*
X163155429Y-80102381D01*
X163250667Y-80102381D01*
X163393524Y-80150000D01*
X163441143Y-80197619D01*
X163774476Y-80102381D02*
X164393524Y-80102381D01*
X164060190Y-80483333D01*
X164203048Y-80483333D01*
X164298286Y-80530952D01*
X164345905Y-80578571D01*
X164393524Y-80673810D01*
X164393524Y-80911905D01*
X164345905Y-81007143D01*
X164298286Y-81054762D01*
X164203048Y-81102381D01*
X163917333Y-81102381D01*
X163822095Y-81054762D01*
X163774476Y-81007143D01*
X165345905Y-81102381D02*
X164774476Y-81102381D01*
X165060190Y-81102381D02*
X165060190Y-80102381D01*
X164964952Y-80245238D01*
X164869714Y-80340476D01*
X164774476Y-80388095D01*
X144951143Y-105544857D02*
X144998762Y-105592476D01*
X145046381Y-105735333D01*
X145046381Y-105830571D01*
X144998762Y-105973429D01*
X144903524Y-106068667D01*
X144808286Y-106116286D01*
X144617810Y-106163905D01*
X144474952Y-106163905D01*
X144284476Y-106116286D01*
X144189238Y-106068667D01*
X144094000Y-105973429D01*
X144046381Y-105830571D01*
X144046381Y-105735333D01*
X144094000Y-105592476D01*
X144141619Y-105544857D01*
X144046381Y-105211524D02*
X144046381Y-104592476D01*
X144427333Y-104925810D01*
X144427333Y-104782952D01*
X144474952Y-104687714D01*
X144522571Y-104640095D01*
X144617810Y-104592476D01*
X144855905Y-104592476D01*
X144951143Y-104640095D01*
X144998762Y-104687714D01*
X145046381Y-104782952D01*
X145046381Y-105068667D01*
X144998762Y-105163905D01*
X144951143Y-105211524D01*
X144141619Y-104211524D02*
X144094000Y-104163905D01*
X144046381Y-104068667D01*
X144046381Y-103830571D01*
X144094000Y-103735333D01*
X144141619Y-103687714D01*
X144236857Y-103640095D01*
X144332095Y-103640095D01*
X144474952Y-103687714D01*
X145046381Y-104259143D01*
X145046381Y-103640095D01*
X152011143Y-113763143D02*
X151963524Y-113810762D01*
X151820667Y-113858381D01*
X151725429Y-113858381D01*
X151582571Y-113810762D01*
X151487333Y-113715524D01*
X151439714Y-113620286D01*
X151392095Y-113429810D01*
X151392095Y-113286952D01*
X151439714Y-113096476D01*
X151487333Y-113001238D01*
X151582571Y-112906000D01*
X151725429Y-112858381D01*
X151820667Y-112858381D01*
X151963524Y-112906000D01*
X152011143Y-112953619D01*
X152344476Y-112858381D02*
X152963524Y-112858381D01*
X152630190Y-113239333D01*
X152773048Y-113239333D01*
X152868286Y-113286952D01*
X152915905Y-113334571D01*
X152963524Y-113429810D01*
X152963524Y-113667905D01*
X152915905Y-113763143D01*
X152868286Y-113810762D01*
X152773048Y-113858381D01*
X152487333Y-113858381D01*
X152392095Y-113810762D01*
X152344476Y-113763143D01*
X153296857Y-112858381D02*
X153915905Y-112858381D01*
X153582571Y-113239333D01*
X153725429Y-113239333D01*
X153820667Y-113286952D01*
X153868286Y-113334571D01*
X153915905Y-113429810D01*
X153915905Y-113667905D01*
X153868286Y-113763143D01*
X153820667Y-113810762D01*
X153725429Y-113858381D01*
X153439714Y-113858381D01*
X153344476Y-113810762D01*
X153296857Y-113763143D01*
X150741143Y-92999143D02*
X150693524Y-93046762D01*
X150550667Y-93094381D01*
X150455429Y-93094381D01*
X150312571Y-93046762D01*
X150217333Y-92951524D01*
X150169714Y-92856286D01*
X150122095Y-92665810D01*
X150122095Y-92522952D01*
X150169714Y-92332476D01*
X150217333Y-92237238D01*
X150312571Y-92142000D01*
X150455429Y-92094381D01*
X150550667Y-92094381D01*
X150693524Y-92142000D01*
X150741143Y-92189619D01*
X151074476Y-92094381D02*
X151693524Y-92094381D01*
X151360190Y-92475333D01*
X151503048Y-92475333D01*
X151598286Y-92522952D01*
X151645905Y-92570571D01*
X151693524Y-92665810D01*
X151693524Y-92903905D01*
X151645905Y-92999143D01*
X151598286Y-93046762D01*
X151503048Y-93094381D01*
X151217333Y-93094381D01*
X151122095Y-93046762D01*
X151074476Y-92999143D01*
X152550667Y-92427714D02*
X152550667Y-93094381D01*
X152312571Y-92046762D02*
X152074476Y-92761048D01*
X152693524Y-92761048D01*
X165092143Y-92872143D02*
X165044524Y-92919762D01*
X164901667Y-92967381D01*
X164806429Y-92967381D01*
X164663571Y-92919762D01*
X164568333Y-92824524D01*
X164520714Y-92729286D01*
X164473095Y-92538810D01*
X164473095Y-92395952D01*
X164520714Y-92205476D01*
X164568333Y-92110238D01*
X164663571Y-92015000D01*
X164806429Y-91967381D01*
X164901667Y-91967381D01*
X165044524Y-92015000D01*
X165092143Y-92062619D01*
X165425476Y-91967381D02*
X166044524Y-91967381D01*
X165711190Y-92348333D01*
X165854048Y-92348333D01*
X165949286Y-92395952D01*
X165996905Y-92443571D01*
X166044524Y-92538810D01*
X166044524Y-92776905D01*
X165996905Y-92872143D01*
X165949286Y-92919762D01*
X165854048Y-92967381D01*
X165568333Y-92967381D01*
X165473095Y-92919762D01*
X165425476Y-92872143D01*
X166949286Y-91967381D02*
X166473095Y-91967381D01*
X166425476Y-92443571D01*
X166473095Y-92395952D01*
X166568333Y-92348333D01*
X166806429Y-92348333D01*
X166901667Y-92395952D01*
X166949286Y-92443571D01*
X166996905Y-92538810D01*
X166996905Y-92776905D01*
X166949286Y-92872143D01*
X166901667Y-92919762D01*
X166806429Y-92967381D01*
X166568333Y-92967381D01*
X166473095Y-92919762D01*
X166425476Y-92872143D01*
X158107143Y-98587143D02*
X158059524Y-98634762D01*
X157916667Y-98682381D01*
X157821429Y-98682381D01*
X157678571Y-98634762D01*
X157583333Y-98539524D01*
X157535714Y-98444286D01*
X157488095Y-98253810D01*
X157488095Y-98110952D01*
X157535714Y-97920476D01*
X157583333Y-97825238D01*
X157678571Y-97730000D01*
X157821429Y-97682381D01*
X157916667Y-97682381D01*
X158059524Y-97730000D01*
X158107143Y-97777619D01*
X158440476Y-97682381D02*
X159059524Y-97682381D01*
X158726190Y-98063333D01*
X158869048Y-98063333D01*
X158964286Y-98110952D01*
X159011905Y-98158571D01*
X159059524Y-98253810D01*
X159059524Y-98491905D01*
X159011905Y-98587143D01*
X158964286Y-98634762D01*
X158869048Y-98682381D01*
X158583333Y-98682381D01*
X158488095Y-98634762D01*
X158440476Y-98587143D01*
X159916667Y-97682381D02*
X159726190Y-97682381D01*
X159630952Y-97730000D01*
X159583333Y-97777619D01*
X159488095Y-97920476D01*
X159440476Y-98110952D01*
X159440476Y-98491905D01*
X159488095Y-98587143D01*
X159535714Y-98634762D01*
X159630952Y-98682381D01*
X159821429Y-98682381D01*
X159916667Y-98634762D01*
X159964286Y-98587143D01*
X160011905Y-98491905D01*
X160011905Y-98253810D01*
X159964286Y-98158571D01*
X159916667Y-98110952D01*
X159821429Y-98063333D01*
X159630952Y-98063333D01*
X159535714Y-98110952D01*
X159488095Y-98158571D01*
X159440476Y-98253810D01*
X172383143Y-117736857D02*
X172430762Y-117784476D01*
X172478381Y-117927333D01*
X172478381Y-118022571D01*
X172430762Y-118165429D01*
X172335524Y-118260667D01*
X172240286Y-118308286D01*
X172049810Y-118355905D01*
X171906952Y-118355905D01*
X171716476Y-118308286D01*
X171621238Y-118260667D01*
X171526000Y-118165429D01*
X171478381Y-118022571D01*
X171478381Y-117927333D01*
X171526000Y-117784476D01*
X171573619Y-117736857D01*
X171478381Y-117403524D02*
X171478381Y-116784476D01*
X171859333Y-117117810D01*
X171859333Y-116974952D01*
X171906952Y-116879714D01*
X171954571Y-116832095D01*
X172049810Y-116784476D01*
X172287905Y-116784476D01*
X172383143Y-116832095D01*
X172430762Y-116879714D01*
X172478381Y-116974952D01*
X172478381Y-117260667D01*
X172430762Y-117355905D01*
X172383143Y-117403524D01*
X171478381Y-116451143D02*
X171478381Y-115784476D01*
X172478381Y-116213048D01*
X150233143Y-102787143D02*
X150185524Y-102834762D01*
X150042667Y-102882381D01*
X149947429Y-102882381D01*
X149804571Y-102834762D01*
X149709333Y-102739524D01*
X149661714Y-102644286D01*
X149614095Y-102453810D01*
X149614095Y-102310952D01*
X149661714Y-102120476D01*
X149709333Y-102025238D01*
X149804571Y-101930000D01*
X149947429Y-101882381D01*
X150042667Y-101882381D01*
X150185524Y-101930000D01*
X150233143Y-101977619D01*
X150566476Y-101882381D02*
X151185524Y-101882381D01*
X150852190Y-102263333D01*
X150995048Y-102263333D01*
X151090286Y-102310952D01*
X151137905Y-102358571D01*
X151185524Y-102453810D01*
X151185524Y-102691905D01*
X151137905Y-102787143D01*
X151090286Y-102834762D01*
X150995048Y-102882381D01*
X150709333Y-102882381D01*
X150614095Y-102834762D01*
X150566476Y-102787143D01*
X151756952Y-102310952D02*
X151661714Y-102263333D01*
X151614095Y-102215714D01*
X151566476Y-102120476D01*
X151566476Y-102072857D01*
X151614095Y-101977619D01*
X151661714Y-101930000D01*
X151756952Y-101882381D01*
X151947429Y-101882381D01*
X152042667Y-101930000D01*
X152090286Y-101977619D01*
X152137905Y-102072857D01*
X152137905Y-102120476D01*
X152090286Y-102215714D01*
X152042667Y-102263333D01*
X151947429Y-102310952D01*
X151756952Y-102310952D01*
X151661714Y-102358571D01*
X151614095Y-102406190D01*
X151566476Y-102501429D01*
X151566476Y-102691905D01*
X151614095Y-102787143D01*
X151661714Y-102834762D01*
X151756952Y-102882381D01*
X151947429Y-102882381D01*
X152042667Y-102834762D01*
X152090286Y-102787143D01*
X152137905Y-102691905D01*
X152137905Y-102501429D01*
X152090286Y-102406190D01*
X152042667Y-102358571D01*
X151947429Y-102310952D01*
X165219143Y-103041143D02*
X165171524Y-103088762D01*
X165028667Y-103136381D01*
X164933429Y-103136381D01*
X164790571Y-103088762D01*
X164695333Y-102993524D01*
X164647714Y-102898286D01*
X164600095Y-102707810D01*
X164600095Y-102564952D01*
X164647714Y-102374476D01*
X164695333Y-102279238D01*
X164790571Y-102184000D01*
X164933429Y-102136381D01*
X165028667Y-102136381D01*
X165171524Y-102184000D01*
X165219143Y-102231619D01*
X165552476Y-102136381D02*
X166171524Y-102136381D01*
X165838190Y-102517333D01*
X165981048Y-102517333D01*
X166076286Y-102564952D01*
X166123905Y-102612571D01*
X166171524Y-102707810D01*
X166171524Y-102945905D01*
X166123905Y-103041143D01*
X166076286Y-103088762D01*
X165981048Y-103136381D01*
X165695333Y-103136381D01*
X165600095Y-103088762D01*
X165552476Y-103041143D01*
X166647714Y-103136381D02*
X166838190Y-103136381D01*
X166933429Y-103088762D01*
X166981048Y-103041143D01*
X167076286Y-102898286D01*
X167123905Y-102707810D01*
X167123905Y-102326857D01*
X167076286Y-102231619D01*
X167028667Y-102184000D01*
X166933429Y-102136381D01*
X166742952Y-102136381D01*
X166647714Y-102184000D01*
X166600095Y-102231619D01*
X166552476Y-102326857D01*
X166552476Y-102564952D01*
X166600095Y-102660190D01*
X166647714Y-102707810D01*
X166742952Y-102755429D01*
X166933429Y-102755429D01*
X167028667Y-102707810D01*
X167076286Y-102660190D01*
X167123905Y-102564952D01*
X87241143Y-176955143D02*
X87193524Y-177002762D01*
X87050667Y-177050381D01*
X86955429Y-177050381D01*
X86812571Y-177002762D01*
X86717333Y-176907524D01*
X86669714Y-176812286D01*
X86622095Y-176621810D01*
X86622095Y-176478952D01*
X86669714Y-176288476D01*
X86717333Y-176193238D01*
X86812571Y-176098000D01*
X86955429Y-176050381D01*
X87050667Y-176050381D01*
X87193524Y-176098000D01*
X87241143Y-176145619D01*
X88098286Y-176383714D02*
X88098286Y-177050381D01*
X87860190Y-176002762D02*
X87622095Y-176717048D01*
X88241143Y-176717048D01*
X88812571Y-176050381D02*
X88907810Y-176050381D01*
X89003048Y-176098000D01*
X89050667Y-176145619D01*
X89098286Y-176240857D01*
X89145905Y-176431333D01*
X89145905Y-176669429D01*
X89098286Y-176859905D01*
X89050667Y-176955143D01*
X89003048Y-177002762D01*
X88907810Y-177050381D01*
X88812571Y-177050381D01*
X88717333Y-177002762D01*
X88669714Y-176955143D01*
X88622095Y-176859905D01*
X88574476Y-176669429D01*
X88574476Y-176431333D01*
X88622095Y-176240857D01*
X88669714Y-176145619D01*
X88717333Y-176098000D01*
X88812571Y-176050381D01*
X121320143Y-121419857D02*
X121367762Y-121467476D01*
X121415381Y-121610333D01*
X121415381Y-121705571D01*
X121367762Y-121848429D01*
X121272524Y-121943667D01*
X121177286Y-121991286D01*
X120986810Y-122038905D01*
X120843952Y-122038905D01*
X120653476Y-121991286D01*
X120558238Y-121943667D01*
X120463000Y-121848429D01*
X120415381Y-121705571D01*
X120415381Y-121610333D01*
X120463000Y-121467476D01*
X120510619Y-121419857D01*
X120748714Y-120562714D02*
X121415381Y-120562714D01*
X120367762Y-120800810D02*
X121082048Y-121038905D01*
X121082048Y-120419857D01*
X121415381Y-119515095D02*
X121415381Y-120086524D01*
X121415381Y-119800810D02*
X120415381Y-119800810D01*
X120558238Y-119896048D01*
X120653476Y-119991286D01*
X120701095Y-120086524D01*
X73271143Y-163357143D02*
X73223524Y-163404762D01*
X73080667Y-163452381D01*
X72985429Y-163452381D01*
X72842571Y-163404762D01*
X72747333Y-163309524D01*
X72699714Y-163214286D01*
X72652095Y-163023810D01*
X72652095Y-162880952D01*
X72699714Y-162690476D01*
X72747333Y-162595238D01*
X72842571Y-162500000D01*
X72985429Y-162452381D01*
X73080667Y-162452381D01*
X73223524Y-162500000D01*
X73271143Y-162547619D01*
X74128286Y-162785714D02*
X74128286Y-163452381D01*
X73890190Y-162404762D02*
X73652095Y-163119048D01*
X74271143Y-163119048D01*
X74604476Y-162547619D02*
X74652095Y-162500000D01*
X74747333Y-162452381D01*
X74985429Y-162452381D01*
X75080667Y-162500000D01*
X75128286Y-162547619D01*
X75175905Y-162642857D01*
X75175905Y-162738095D01*
X75128286Y-162880952D01*
X74556857Y-163452381D01*
X75175905Y-163452381D01*
X90035143Y-163103143D02*
X89987524Y-163150762D01*
X89844667Y-163198381D01*
X89749429Y-163198381D01*
X89606571Y-163150762D01*
X89511333Y-163055524D01*
X89463714Y-162960286D01*
X89416095Y-162769810D01*
X89416095Y-162626952D01*
X89463714Y-162436476D01*
X89511333Y-162341238D01*
X89606571Y-162246000D01*
X89749429Y-162198381D01*
X89844667Y-162198381D01*
X89987524Y-162246000D01*
X90035143Y-162293619D01*
X90892286Y-162531714D02*
X90892286Y-163198381D01*
X90654190Y-162150762D02*
X90416095Y-162865048D01*
X91035143Y-162865048D01*
X91320857Y-162198381D02*
X91939905Y-162198381D01*
X91606571Y-162579333D01*
X91749429Y-162579333D01*
X91844667Y-162626952D01*
X91892286Y-162674571D01*
X91939905Y-162769810D01*
X91939905Y-163007905D01*
X91892286Y-163103143D01*
X91844667Y-163150762D01*
X91749429Y-163198381D01*
X91463714Y-163198381D01*
X91368476Y-163150762D01*
X91320857Y-163103143D01*
X72425143Y-143644857D02*
X72472762Y-143692476D01*
X72520381Y-143835333D01*
X72520381Y-143930571D01*
X72472762Y-144073429D01*
X72377524Y-144168667D01*
X72282286Y-144216286D01*
X72091810Y-144263905D01*
X71948952Y-144263905D01*
X71758476Y-144216286D01*
X71663238Y-144168667D01*
X71568000Y-144073429D01*
X71520381Y-143930571D01*
X71520381Y-143835333D01*
X71568000Y-143692476D01*
X71615619Y-143644857D01*
X71853714Y-142787714D02*
X72520381Y-142787714D01*
X71472762Y-143025810D02*
X72187048Y-143263905D01*
X72187048Y-142644857D01*
X71853714Y-141835333D02*
X72520381Y-141835333D01*
X71472762Y-142073429D02*
X72187048Y-142311524D01*
X72187048Y-141692476D01*
X77695143Y-133738857D02*
X77742762Y-133786476D01*
X77790381Y-133929333D01*
X77790381Y-134024571D01*
X77742762Y-134167429D01*
X77647524Y-134262667D01*
X77552286Y-134310286D01*
X77361810Y-134357905D01*
X77218952Y-134357905D01*
X77028476Y-134310286D01*
X76933238Y-134262667D01*
X76838000Y-134167429D01*
X76790381Y-134024571D01*
X76790381Y-133929333D01*
X76838000Y-133786476D01*
X76885619Y-133738857D01*
X77123714Y-132881714D02*
X77790381Y-132881714D01*
X76742762Y-133119810D02*
X77457048Y-133357905D01*
X77457048Y-132738857D01*
X76790381Y-131881714D02*
X76790381Y-132357905D01*
X77266571Y-132405524D01*
X77218952Y-132357905D01*
X77171333Y-132262667D01*
X77171333Y-132024571D01*
X77218952Y-131929333D01*
X77266571Y-131881714D01*
X77361810Y-131834095D01*
X77599905Y-131834095D01*
X77695143Y-131881714D01*
X77742762Y-131929333D01*
X77790381Y-132024571D01*
X77790381Y-132262667D01*
X77742762Y-132357905D01*
X77695143Y-132405524D01*
X105073143Y-105290857D02*
X105120762Y-105338476D01*
X105168381Y-105481333D01*
X105168381Y-105576571D01*
X105120762Y-105719429D01*
X105025524Y-105814667D01*
X104930286Y-105862286D01*
X104739810Y-105909905D01*
X104596952Y-105909905D01*
X104406476Y-105862286D01*
X104311238Y-105814667D01*
X104216000Y-105719429D01*
X104168381Y-105576571D01*
X104168381Y-105481333D01*
X104216000Y-105338476D01*
X104263619Y-105290857D01*
X104501714Y-104433714D02*
X105168381Y-104433714D01*
X104120762Y-104671810D02*
X104835048Y-104909905D01*
X104835048Y-104290857D01*
X104168381Y-103481333D02*
X104168381Y-103671810D01*
X104216000Y-103767048D01*
X104263619Y-103814667D01*
X104406476Y-103909905D01*
X104596952Y-103957524D01*
X104977905Y-103957524D01*
X105073143Y-103909905D01*
X105120762Y-103862286D01*
X105168381Y-103767048D01*
X105168381Y-103576571D01*
X105120762Y-103481333D01*
X105073143Y-103433714D01*
X104977905Y-103386095D01*
X104739810Y-103386095D01*
X104644571Y-103433714D01*
X104596952Y-103481333D01*
X104549333Y-103576571D01*
X104549333Y-103767048D01*
X104596952Y-103862286D01*
X104644571Y-103909905D01*
X104739810Y-103957524D01*
X85379143Y-135516857D02*
X85426762Y-135564476D01*
X85474381Y-135707333D01*
X85474381Y-135802571D01*
X85426762Y-135945429D01*
X85331524Y-136040667D01*
X85236286Y-136088286D01*
X85045810Y-136135905D01*
X84902952Y-136135905D01*
X84712476Y-136088286D01*
X84617238Y-136040667D01*
X84522000Y-135945429D01*
X84474381Y-135802571D01*
X84474381Y-135707333D01*
X84522000Y-135564476D01*
X84569619Y-135516857D01*
X84807714Y-134659714D02*
X85474381Y-134659714D01*
X84426762Y-134897810D02*
X85141048Y-135135905D01*
X85141048Y-134516857D01*
X84474381Y-134231143D02*
X84474381Y-133564476D01*
X85474381Y-133993048D01*
X86987143Y-112557143D02*
X86939524Y-112604762D01*
X86796667Y-112652381D01*
X86701429Y-112652381D01*
X86558571Y-112604762D01*
X86463333Y-112509524D01*
X86415714Y-112414286D01*
X86368095Y-112223810D01*
X86368095Y-112080952D01*
X86415714Y-111890476D01*
X86463333Y-111795238D01*
X86558571Y-111700000D01*
X86701429Y-111652381D01*
X86796667Y-111652381D01*
X86939524Y-111700000D01*
X86987143Y-111747619D01*
X87844286Y-111985714D02*
X87844286Y-112652381D01*
X87606190Y-111604762D02*
X87368095Y-112319048D01*
X87987143Y-112319048D01*
X88510952Y-112080952D02*
X88415714Y-112033333D01*
X88368095Y-111985714D01*
X88320476Y-111890476D01*
X88320476Y-111842857D01*
X88368095Y-111747619D01*
X88415714Y-111700000D01*
X88510952Y-111652381D01*
X88701429Y-111652381D01*
X88796667Y-111700000D01*
X88844286Y-111747619D01*
X88891905Y-111842857D01*
X88891905Y-111890476D01*
X88844286Y-111985714D01*
X88796667Y-112033333D01*
X88701429Y-112080952D01*
X88510952Y-112080952D01*
X88415714Y-112128571D01*
X88368095Y-112176190D01*
X88320476Y-112271429D01*
X88320476Y-112461905D01*
X88368095Y-112557143D01*
X88415714Y-112604762D01*
X88510952Y-112652381D01*
X88701429Y-112652381D01*
X88796667Y-112604762D01*
X88844286Y-112557143D01*
X88891905Y-112461905D01*
X88891905Y-112271429D01*
X88844286Y-112176190D01*
X88796667Y-112128571D01*
X88701429Y-112080952D01*
X100111143Y-89796857D02*
X100158762Y-89844476D01*
X100206381Y-89987333D01*
X100206381Y-90082571D01*
X100158762Y-90225429D01*
X100063524Y-90320667D01*
X99968286Y-90368286D01*
X99777810Y-90415905D01*
X99634952Y-90415905D01*
X99444476Y-90368286D01*
X99349238Y-90320667D01*
X99254000Y-90225429D01*
X99206381Y-90082571D01*
X99206381Y-89987333D01*
X99254000Y-89844476D01*
X99301619Y-89796857D01*
X99539714Y-88939714D02*
X100206381Y-88939714D01*
X99158762Y-89177810D02*
X99873048Y-89415905D01*
X99873048Y-88796857D01*
X100206381Y-88368286D02*
X100206381Y-88177810D01*
X100158762Y-88082571D01*
X100111143Y-88034952D01*
X99968286Y-87939714D01*
X99777810Y-87892095D01*
X99396857Y-87892095D01*
X99301619Y-87939714D01*
X99254000Y-87987333D01*
X99206381Y-88082571D01*
X99206381Y-88273048D01*
X99254000Y-88368286D01*
X99301619Y-88415905D01*
X99396857Y-88463524D01*
X99634952Y-88463524D01*
X99730190Y-88415905D01*
X99777810Y-88368286D01*
X99825429Y-88273048D01*
X99825429Y-88082571D01*
X99777810Y-87987333D01*
X99730190Y-87939714D01*
X99634952Y-87892095D01*
X119499143Y-160953143D02*
X119451524Y-161000762D01*
X119308667Y-161048381D01*
X119213429Y-161048381D01*
X119070571Y-161000762D01*
X118975333Y-160905524D01*
X118927714Y-160810286D01*
X118880095Y-160619810D01*
X118880095Y-160476952D01*
X118927714Y-160286476D01*
X118975333Y-160191238D01*
X119070571Y-160096000D01*
X119213429Y-160048381D01*
X119308667Y-160048381D01*
X119451524Y-160096000D01*
X119499143Y-160143619D01*
X120403905Y-160048381D02*
X119927714Y-160048381D01*
X119880095Y-160524571D01*
X119927714Y-160476952D01*
X120022952Y-160429333D01*
X120261048Y-160429333D01*
X120356286Y-160476952D01*
X120403905Y-160524571D01*
X120451524Y-160619810D01*
X120451524Y-160857905D01*
X120403905Y-160953143D01*
X120356286Y-161000762D01*
X120261048Y-161048381D01*
X120022952Y-161048381D01*
X119927714Y-161000762D01*
X119880095Y-160953143D01*
X121070571Y-160048381D02*
X121165810Y-160048381D01*
X121261048Y-160096000D01*
X121308667Y-160143619D01*
X121356286Y-160238857D01*
X121403905Y-160429333D01*
X121403905Y-160667429D01*
X121356286Y-160857905D01*
X121308667Y-160953143D01*
X121261048Y-161000762D01*
X121165810Y-161048381D01*
X121070571Y-161048381D01*
X120975333Y-161000762D01*
X120927714Y-160953143D01*
X120880095Y-160857905D01*
X120832476Y-160667429D01*
X120832476Y-160429333D01*
X120880095Y-160238857D01*
X120927714Y-160143619D01*
X120975333Y-160096000D01*
X121070571Y-160048381D01*
X106545143Y-165135143D02*
X106497524Y-165182762D01*
X106354667Y-165230381D01*
X106259429Y-165230381D01*
X106116571Y-165182762D01*
X106021333Y-165087524D01*
X105973714Y-164992286D01*
X105926095Y-164801810D01*
X105926095Y-164658952D01*
X105973714Y-164468476D01*
X106021333Y-164373238D01*
X106116571Y-164278000D01*
X106259429Y-164230381D01*
X106354667Y-164230381D01*
X106497524Y-164278000D01*
X106545143Y-164325619D01*
X107449905Y-164230381D02*
X106973714Y-164230381D01*
X106926095Y-164706571D01*
X106973714Y-164658952D01*
X107068952Y-164611333D01*
X107307048Y-164611333D01*
X107402286Y-164658952D01*
X107449905Y-164706571D01*
X107497524Y-164801810D01*
X107497524Y-165039905D01*
X107449905Y-165135143D01*
X107402286Y-165182762D01*
X107307048Y-165230381D01*
X107068952Y-165230381D01*
X106973714Y-165182762D01*
X106926095Y-165135143D01*
X108449905Y-165230381D02*
X107878476Y-165230381D01*
X108164190Y-165230381D02*
X108164190Y-164230381D01*
X108068952Y-164373238D01*
X107973714Y-164468476D01*
X107878476Y-164516095D01*
X64031905Y-177272381D02*
X64031905Y-176272381D01*
X64270000Y-176272381D01*
X64412858Y-176320000D01*
X64508096Y-176415238D01*
X64555715Y-176510476D01*
X64603334Y-176700952D01*
X64603334Y-176843810D01*
X64555715Y-177034286D01*
X64508096Y-177129524D01*
X64412858Y-177224762D01*
X64270000Y-177272381D01*
X64031905Y-177272381D01*
X65555715Y-177272381D02*
X64984286Y-177272381D01*
X65270000Y-177272381D02*
X65270000Y-176272381D01*
X65174762Y-176415238D01*
X65079524Y-176510476D01*
X64984286Y-176558095D01*
X55903905Y-177272381D02*
X55903905Y-176272381D01*
X56142000Y-176272381D01*
X56284858Y-176320000D01*
X56380096Y-176415238D01*
X56427715Y-176510476D01*
X56475334Y-176700952D01*
X56475334Y-176843810D01*
X56427715Y-177034286D01*
X56380096Y-177129524D01*
X56284858Y-177224762D01*
X56142000Y-177272381D01*
X55903905Y-177272381D01*
X56856286Y-176367619D02*
X56903905Y-176320000D01*
X56999143Y-176272381D01*
X57237239Y-176272381D01*
X57332477Y-176320000D01*
X57380096Y-176367619D01*
X57427715Y-176462857D01*
X57427715Y-176558095D01*
X57380096Y-176700952D01*
X56808667Y-177272381D01*
X57427715Y-177272381D01*
X114323905Y-174986381D02*
X114323905Y-173986381D01*
X114562000Y-173986381D01*
X114704858Y-174034000D01*
X114800096Y-174129238D01*
X114847715Y-174224476D01*
X114895334Y-174414952D01*
X114895334Y-174557810D01*
X114847715Y-174748286D01*
X114800096Y-174843524D01*
X114704858Y-174938762D01*
X114562000Y-174986381D01*
X114323905Y-174986381D01*
X115228667Y-173986381D02*
X115847715Y-173986381D01*
X115514381Y-174367333D01*
X115657239Y-174367333D01*
X115752477Y-174414952D01*
X115800096Y-174462571D01*
X115847715Y-174557810D01*
X115847715Y-174795905D01*
X115800096Y-174891143D01*
X115752477Y-174938762D01*
X115657239Y-174986381D01*
X115371524Y-174986381D01*
X115276286Y-174938762D01*
X115228667Y-174891143D01*
X105941905Y-174986381D02*
X105941905Y-173986381D01*
X106180000Y-173986381D01*
X106322858Y-174034000D01*
X106418096Y-174129238D01*
X106465715Y-174224476D01*
X106513334Y-174414952D01*
X106513334Y-174557810D01*
X106465715Y-174748286D01*
X106418096Y-174843524D01*
X106322858Y-174938762D01*
X106180000Y-174986381D01*
X105941905Y-174986381D01*
X107370477Y-174319714D02*
X107370477Y-174986381D01*
X107132381Y-173938762D02*
X106894286Y-174653048D01*
X107513334Y-174653048D01*
X169576762Y-80367619D02*
X169481524Y-80320000D01*
X169386286Y-80224762D01*
X169243429Y-80081905D01*
X169148190Y-80034286D01*
X169052952Y-80034286D01*
X169100571Y-80272381D02*
X169005333Y-80224762D01*
X168910095Y-80129524D01*
X168862476Y-79939048D01*
X168862476Y-79605714D01*
X168910095Y-79415238D01*
X169005333Y-79320000D01*
X169100571Y-79272381D01*
X169291048Y-79272381D01*
X169386286Y-79320000D01*
X169481524Y-79415238D01*
X169529143Y-79605714D01*
X169529143Y-79939048D01*
X169481524Y-80129524D01*
X169386286Y-80224762D01*
X169291048Y-80272381D01*
X169100571Y-80272381D01*
X170481524Y-80272381D02*
X169910095Y-80272381D01*
X170195809Y-80272381D02*
X170195809Y-79272381D01*
X170100571Y-79415238D01*
X170005333Y-79510476D01*
X169910095Y-79558095D01*
X148494762Y-80621619D02*
X148399524Y-80574000D01*
X148304286Y-80478762D01*
X148161429Y-80335905D01*
X148066190Y-80288286D01*
X147970952Y-80288286D01*
X148018571Y-80526381D02*
X147923333Y-80478762D01*
X147828095Y-80383524D01*
X147780476Y-80193048D01*
X147780476Y-79859714D01*
X147828095Y-79669238D01*
X147923333Y-79574000D01*
X148018571Y-79526381D01*
X148209048Y-79526381D01*
X148304286Y-79574000D01*
X148399524Y-79669238D01*
X148447143Y-79859714D01*
X148447143Y-80193048D01*
X148399524Y-80383524D01*
X148304286Y-80478762D01*
X148209048Y-80526381D01*
X148018571Y-80526381D01*
X148828095Y-79621619D02*
X148875714Y-79574000D01*
X148970952Y-79526381D01*
X149209048Y-79526381D01*
X149304286Y-79574000D01*
X149351905Y-79621619D01*
X149399524Y-79716857D01*
X149399524Y-79812095D01*
X149351905Y-79954952D01*
X148780476Y-80526381D01*
X149399524Y-80526381D01*
X70699334Y-179590381D02*
X70366000Y-179114190D01*
X70127905Y-179590381D02*
X70127905Y-178590381D01*
X70508858Y-178590381D01*
X70604096Y-178638000D01*
X70651715Y-178685619D01*
X70699334Y-178780857D01*
X70699334Y-178923714D01*
X70651715Y-179018952D01*
X70604096Y-179066571D01*
X70508858Y-179114190D01*
X70127905Y-179114190D01*
X71651715Y-179590381D02*
X71080286Y-179590381D01*
X71366000Y-179590381D02*
X71366000Y-178590381D01*
X71270762Y-178733238D01*
X71175524Y-178828476D01*
X71080286Y-178876095D01*
X51014334Y-178184381D02*
X50681000Y-177708190D01*
X50442905Y-178184381D02*
X50442905Y-177184381D01*
X50823858Y-177184381D01*
X50919096Y-177232000D01*
X50966715Y-177279619D01*
X51014334Y-177374857D01*
X51014334Y-177517714D01*
X50966715Y-177612952D01*
X50919096Y-177660571D01*
X50823858Y-177708190D01*
X50442905Y-177708190D01*
X51395286Y-177279619D02*
X51442905Y-177232000D01*
X51538143Y-177184381D01*
X51776239Y-177184381D01*
X51871477Y-177232000D01*
X51919096Y-177279619D01*
X51966715Y-177374857D01*
X51966715Y-177470095D01*
X51919096Y-177612952D01*
X51347667Y-178184381D01*
X51966715Y-178184381D01*
X37541381Y-134659666D02*
X37065190Y-134993000D01*
X37541381Y-135231095D02*
X36541381Y-135231095D01*
X36541381Y-134850142D01*
X36589000Y-134754904D01*
X36636619Y-134707285D01*
X36731857Y-134659666D01*
X36874714Y-134659666D01*
X36969952Y-134707285D01*
X37017571Y-134754904D01*
X37065190Y-134850142D01*
X37065190Y-135231095D01*
X36541381Y-134326333D02*
X36541381Y-133707285D01*
X36922333Y-134040619D01*
X36922333Y-133897761D01*
X36969952Y-133802523D01*
X37017571Y-133754904D01*
X37112810Y-133707285D01*
X37350905Y-133707285D01*
X37446143Y-133754904D01*
X37493762Y-133802523D01*
X37541381Y-133897761D01*
X37541381Y-134183476D01*
X37493762Y-134278714D01*
X37446143Y-134326333D01*
X32334381Y-134786666D02*
X31858190Y-135120000D01*
X32334381Y-135358095D02*
X31334381Y-135358095D01*
X31334381Y-134977142D01*
X31382000Y-134881904D01*
X31429619Y-134834285D01*
X31524857Y-134786666D01*
X31667714Y-134786666D01*
X31762952Y-134834285D01*
X31810571Y-134881904D01*
X31858190Y-134977142D01*
X31858190Y-135358095D01*
X31667714Y-133929523D02*
X32334381Y-133929523D01*
X31286762Y-134167619D02*
X32001048Y-134405714D01*
X32001048Y-133786666D01*
X55692381Y-150280666D02*
X55216190Y-150614000D01*
X55692381Y-150852095D02*
X54692381Y-150852095D01*
X54692381Y-150471142D01*
X54740000Y-150375904D01*
X54787619Y-150328285D01*
X54882857Y-150280666D01*
X55025714Y-150280666D01*
X55120952Y-150328285D01*
X55168571Y-150375904D01*
X55216190Y-150471142D01*
X55216190Y-150852095D01*
X54692381Y-149375904D02*
X54692381Y-149852095D01*
X55168571Y-149899714D01*
X55120952Y-149852095D01*
X55073333Y-149756857D01*
X55073333Y-149518761D01*
X55120952Y-149423523D01*
X55168571Y-149375904D01*
X55263810Y-149328285D01*
X55501905Y-149328285D01*
X55597143Y-149375904D01*
X55644762Y-149423523D01*
X55692381Y-149518761D01*
X55692381Y-149756857D01*
X55644762Y-149852095D01*
X55597143Y-149899714D01*
X109307334Y-151958381D02*
X108974000Y-151482190D01*
X108735905Y-151958381D02*
X108735905Y-150958381D01*
X109116858Y-150958381D01*
X109212096Y-151006000D01*
X109259715Y-151053619D01*
X109307334Y-151148857D01*
X109307334Y-151291714D01*
X109259715Y-151386952D01*
X109212096Y-151434571D01*
X109116858Y-151482190D01*
X108735905Y-151482190D01*
X110164477Y-150958381D02*
X109974000Y-150958381D01*
X109878762Y-151006000D01*
X109831143Y-151053619D01*
X109735905Y-151196476D01*
X109688286Y-151386952D01*
X109688286Y-151767905D01*
X109735905Y-151863143D01*
X109783524Y-151910762D01*
X109878762Y-151958381D01*
X110069239Y-151958381D01*
X110164477Y-151910762D01*
X110212096Y-151863143D01*
X110259715Y-151767905D01*
X110259715Y-151529810D01*
X110212096Y-151434571D01*
X110164477Y-151386952D01*
X110069239Y-151339333D01*
X109878762Y-151339333D01*
X109783524Y-151386952D01*
X109735905Y-151434571D01*
X109688286Y-151529810D01*
X48834381Y-148756666D02*
X48358190Y-149090000D01*
X48834381Y-149328095D02*
X47834381Y-149328095D01*
X47834381Y-148947142D01*
X47882000Y-148851904D01*
X47929619Y-148804285D01*
X48024857Y-148756666D01*
X48167714Y-148756666D01*
X48262952Y-148804285D01*
X48310571Y-148851904D01*
X48358190Y-148947142D01*
X48358190Y-149328095D01*
X47834381Y-148423333D02*
X47834381Y-147756666D01*
X48834381Y-148185238D01*
X48580381Y-127928666D02*
X48104190Y-128262000D01*
X48580381Y-128500095D02*
X47580381Y-128500095D01*
X47580381Y-128119142D01*
X47628000Y-128023904D01*
X47675619Y-127976285D01*
X47770857Y-127928666D01*
X47913714Y-127928666D01*
X48008952Y-127976285D01*
X48056571Y-128023904D01*
X48104190Y-128119142D01*
X48104190Y-128500095D01*
X48580381Y-127452476D02*
X48580381Y-127262000D01*
X48532762Y-127166761D01*
X48485143Y-127119142D01*
X48342286Y-127023904D01*
X48151810Y-126976285D01*
X47770857Y-126976285D01*
X47675619Y-127023904D01*
X47628000Y-127071523D01*
X47580381Y-127166761D01*
X47580381Y-127357238D01*
X47628000Y-127452476D01*
X47675619Y-127500095D01*
X47770857Y-127547714D01*
X48008952Y-127547714D01*
X48104190Y-127500095D01*
X48151810Y-127452476D01*
X48199429Y-127357238D01*
X48199429Y-127166761D01*
X48151810Y-127071523D01*
X48104190Y-127023904D01*
X48008952Y-126976285D01*
X50622381Y-137548857D02*
X50146190Y-137882191D01*
X50622381Y-138120286D02*
X49622381Y-138120286D01*
X49622381Y-137739333D01*
X49670000Y-137644095D01*
X49717619Y-137596476D01*
X49812857Y-137548857D01*
X49955714Y-137548857D01*
X50050952Y-137596476D01*
X50098571Y-137644095D01*
X50146190Y-137739333D01*
X50146190Y-138120286D01*
X50622381Y-136596476D02*
X50622381Y-137167905D01*
X50622381Y-136882191D02*
X49622381Y-136882191D01*
X49765238Y-136977429D01*
X49860476Y-137072667D01*
X49908095Y-137167905D01*
X49622381Y-135977429D02*
X49622381Y-135882190D01*
X49670000Y-135786952D01*
X49717619Y-135739333D01*
X49812857Y-135691714D01*
X50003333Y-135644095D01*
X50241429Y-135644095D01*
X50431905Y-135691714D01*
X50527143Y-135739333D01*
X50574762Y-135786952D01*
X50622381Y-135882190D01*
X50622381Y-135977429D01*
X50574762Y-136072667D01*
X50527143Y-136120286D01*
X50431905Y-136167905D01*
X50241429Y-136215524D01*
X50003333Y-136215524D01*
X49812857Y-136167905D01*
X49717619Y-136120286D01*
X49670000Y-136072667D01*
X49622381Y-135977429D01*
X100406381Y-137802857D02*
X99930190Y-138136191D01*
X100406381Y-138374286D02*
X99406381Y-138374286D01*
X99406381Y-137993333D01*
X99454000Y-137898095D01*
X99501619Y-137850476D01*
X99596857Y-137802857D01*
X99739714Y-137802857D01*
X99834952Y-137850476D01*
X99882571Y-137898095D01*
X99930190Y-137993333D01*
X99930190Y-138374286D01*
X100406381Y-136850476D02*
X100406381Y-137421905D01*
X100406381Y-137136191D02*
X99406381Y-137136191D01*
X99549238Y-137231429D01*
X99644476Y-137326667D01*
X99692095Y-137421905D01*
X100406381Y-135898095D02*
X100406381Y-136469524D01*
X100406381Y-136183810D02*
X99406381Y-136183810D01*
X99549238Y-136279048D01*
X99644476Y-136374286D01*
X99692095Y-136469524D01*
X40960381Y-110878857D02*
X40484190Y-111212191D01*
X40960381Y-111450286D02*
X39960381Y-111450286D01*
X39960381Y-111069333D01*
X40008000Y-110974095D01*
X40055619Y-110926476D01*
X40150857Y-110878857D01*
X40293714Y-110878857D01*
X40388952Y-110926476D01*
X40436571Y-110974095D01*
X40484190Y-111069333D01*
X40484190Y-111450286D01*
X40960381Y-109926476D02*
X40960381Y-110497905D01*
X40960381Y-110212191D02*
X39960381Y-110212191D01*
X40103238Y-110307429D01*
X40198476Y-110402667D01*
X40246095Y-110497905D01*
X40055619Y-109545524D02*
X40008000Y-109497905D01*
X39960381Y-109402667D01*
X39960381Y-109164571D01*
X40008000Y-109069333D01*
X40055619Y-109021714D01*
X40150857Y-108974095D01*
X40246095Y-108974095D01*
X40388952Y-109021714D01*
X40960381Y-109593143D01*
X40960381Y-108974095D01*
X39700381Y-88526857D02*
X39224190Y-88860191D01*
X39700381Y-89098286D02*
X38700381Y-89098286D01*
X38700381Y-88717333D01*
X38748000Y-88622095D01*
X38795619Y-88574476D01*
X38890857Y-88526857D01*
X39033714Y-88526857D01*
X39128952Y-88574476D01*
X39176571Y-88622095D01*
X39224190Y-88717333D01*
X39224190Y-89098286D01*
X39700381Y-87574476D02*
X39700381Y-88145905D01*
X39700381Y-87860191D02*
X38700381Y-87860191D01*
X38843238Y-87955429D01*
X38938476Y-88050667D01*
X38986095Y-88145905D01*
X38700381Y-87241143D02*
X38700381Y-86622095D01*
X39081333Y-86955429D01*
X39081333Y-86812571D01*
X39128952Y-86717333D01*
X39176571Y-86669714D01*
X39271810Y-86622095D01*
X39509905Y-86622095D01*
X39605143Y-86669714D01*
X39652762Y-86717333D01*
X39700381Y-86812571D01*
X39700381Y-87098286D01*
X39652762Y-87193524D01*
X39605143Y-87241143D01*
X47056381Y-109862857D02*
X46580190Y-110196191D01*
X47056381Y-110434286D02*
X46056381Y-110434286D01*
X46056381Y-110053333D01*
X46104000Y-109958095D01*
X46151619Y-109910476D01*
X46246857Y-109862857D01*
X46389714Y-109862857D01*
X46484952Y-109910476D01*
X46532571Y-109958095D01*
X46580190Y-110053333D01*
X46580190Y-110434286D01*
X47056381Y-108910476D02*
X47056381Y-109481905D01*
X47056381Y-109196191D02*
X46056381Y-109196191D01*
X46199238Y-109291429D01*
X46294476Y-109386667D01*
X46342095Y-109481905D01*
X46389714Y-108053333D02*
X47056381Y-108053333D01*
X46008762Y-108291429D02*
X46723048Y-108529524D01*
X46723048Y-107910476D01*
X115943143Y-129870381D02*
X115609809Y-129394190D01*
X115371714Y-129870381D02*
X115371714Y-128870381D01*
X115752667Y-128870381D01*
X115847905Y-128918000D01*
X115895524Y-128965619D01*
X115943143Y-129060857D01*
X115943143Y-129203714D01*
X115895524Y-129298952D01*
X115847905Y-129346571D01*
X115752667Y-129394190D01*
X115371714Y-129394190D01*
X116895524Y-129870381D02*
X116324095Y-129870381D01*
X116609809Y-129870381D02*
X116609809Y-128870381D01*
X116514571Y-129013238D01*
X116419333Y-129108476D01*
X116324095Y-129156095D01*
X117800286Y-128870381D02*
X117324095Y-128870381D01*
X117276476Y-129346571D01*
X117324095Y-129298952D01*
X117419333Y-129251333D01*
X117657429Y-129251333D01*
X117752667Y-129298952D01*
X117800286Y-129346571D01*
X117847905Y-129441810D01*
X117847905Y-129679905D01*
X117800286Y-129775143D01*
X117752667Y-129822762D01*
X117657429Y-129870381D01*
X117419333Y-129870381D01*
X117324095Y-129822762D01*
X117276476Y-129775143D01*
X45204143Y-106873381D02*
X44870809Y-106397190D01*
X44632714Y-106873381D02*
X44632714Y-105873381D01*
X45013667Y-105873381D01*
X45108905Y-105921000D01*
X45156524Y-105968619D01*
X45204143Y-106063857D01*
X45204143Y-106206714D01*
X45156524Y-106301952D01*
X45108905Y-106349571D01*
X45013667Y-106397190D01*
X44632714Y-106397190D01*
X46156524Y-106873381D02*
X45585095Y-106873381D01*
X45870809Y-106873381D02*
X45870809Y-105873381D01*
X45775571Y-106016238D01*
X45680333Y-106111476D01*
X45585095Y-106159095D01*
X46489857Y-105873381D02*
X47156524Y-105873381D01*
X46727952Y-106873381D01*
X39235143Y-94686381D02*
X38901809Y-94210190D01*
X38663714Y-94686381D02*
X38663714Y-93686381D01*
X39044667Y-93686381D01*
X39139905Y-93734000D01*
X39187524Y-93781619D01*
X39235143Y-93876857D01*
X39235143Y-94019714D01*
X39187524Y-94114952D01*
X39139905Y-94162571D01*
X39044667Y-94210190D01*
X38663714Y-94210190D01*
X40187524Y-94686381D02*
X39616095Y-94686381D01*
X39901809Y-94686381D02*
X39901809Y-93686381D01*
X39806571Y-93829238D01*
X39711333Y-93924476D01*
X39616095Y-93972095D01*
X40758952Y-94114952D02*
X40663714Y-94067333D01*
X40616095Y-94019714D01*
X40568476Y-93924476D01*
X40568476Y-93876857D01*
X40616095Y-93781619D01*
X40663714Y-93734000D01*
X40758952Y-93686381D01*
X40949429Y-93686381D01*
X41044667Y-93734000D01*
X41092286Y-93781619D01*
X41139905Y-93876857D01*
X41139905Y-93924476D01*
X41092286Y-94019714D01*
X41044667Y-94067333D01*
X40949429Y-94114952D01*
X40758952Y-94114952D01*
X40663714Y-94162571D01*
X40616095Y-94210190D01*
X40568476Y-94305429D01*
X40568476Y-94495905D01*
X40616095Y-94591143D01*
X40663714Y-94638762D01*
X40758952Y-94686381D01*
X40949429Y-94686381D01*
X41044667Y-94638762D01*
X41092286Y-94591143D01*
X41139905Y-94495905D01*
X41139905Y-94305429D01*
X41092286Y-94210190D01*
X41044667Y-94162571D01*
X40949429Y-94114952D01*
X123764381Y-143644857D02*
X123288190Y-143978191D01*
X123764381Y-144216286D02*
X122764381Y-144216286D01*
X122764381Y-143835333D01*
X122812000Y-143740095D01*
X122859619Y-143692476D01*
X122954857Y-143644857D01*
X123097714Y-143644857D01*
X123192952Y-143692476D01*
X123240571Y-143740095D01*
X123288190Y-143835333D01*
X123288190Y-144216286D01*
X123764381Y-142692476D02*
X123764381Y-143263905D01*
X123764381Y-142978191D02*
X122764381Y-142978191D01*
X122907238Y-143073429D01*
X123002476Y-143168667D01*
X123050095Y-143263905D01*
X123764381Y-142216286D02*
X123764381Y-142025810D01*
X123716762Y-141930571D01*
X123669143Y-141882952D01*
X123526286Y-141787714D01*
X123335810Y-141740095D01*
X122954857Y-141740095D01*
X122859619Y-141787714D01*
X122812000Y-141835333D01*
X122764381Y-141930571D01*
X122764381Y-142121048D01*
X122812000Y-142216286D01*
X122859619Y-142263905D01*
X122954857Y-142311524D01*
X123192952Y-142311524D01*
X123288190Y-142263905D01*
X123335810Y-142216286D01*
X123383429Y-142121048D01*
X123383429Y-141930571D01*
X123335810Y-141835333D01*
X123288190Y-141787714D01*
X123192952Y-141740095D01*
X102301381Y-73667857D02*
X101825190Y-74001191D01*
X102301381Y-74239286D02*
X101301381Y-74239286D01*
X101301381Y-73858333D01*
X101349000Y-73763095D01*
X101396619Y-73715476D01*
X101491857Y-73667857D01*
X101634714Y-73667857D01*
X101729952Y-73715476D01*
X101777571Y-73763095D01*
X101825190Y-73858333D01*
X101825190Y-74239286D01*
X101396619Y-73286905D02*
X101349000Y-73239286D01*
X101301381Y-73144048D01*
X101301381Y-72905952D01*
X101349000Y-72810714D01*
X101396619Y-72763095D01*
X101491857Y-72715476D01*
X101587095Y-72715476D01*
X101729952Y-72763095D01*
X102301381Y-73334524D01*
X102301381Y-72715476D01*
X101301381Y-72096429D02*
X101301381Y-72001190D01*
X101349000Y-71905952D01*
X101396619Y-71858333D01*
X101491857Y-71810714D01*
X101682333Y-71763095D01*
X101920429Y-71763095D01*
X102110905Y-71810714D01*
X102206143Y-71858333D01*
X102253762Y-71905952D01*
X102301381Y-72001190D01*
X102301381Y-72096429D01*
X102253762Y-72191667D01*
X102206143Y-72239286D01*
X102110905Y-72286905D01*
X101920429Y-72334524D01*
X101682333Y-72334524D01*
X101491857Y-72286905D01*
X101396619Y-72239286D01*
X101349000Y-72191667D01*
X101301381Y-72096429D01*
X102735143Y-68402381D02*
X102401809Y-67926190D01*
X102163714Y-68402381D02*
X102163714Y-67402381D01*
X102544667Y-67402381D01*
X102639905Y-67450000D01*
X102687524Y-67497619D01*
X102735143Y-67592857D01*
X102735143Y-67735714D01*
X102687524Y-67830952D01*
X102639905Y-67878571D01*
X102544667Y-67926190D01*
X102163714Y-67926190D01*
X103116095Y-67497619D02*
X103163714Y-67450000D01*
X103258952Y-67402381D01*
X103497048Y-67402381D01*
X103592286Y-67450000D01*
X103639905Y-67497619D01*
X103687524Y-67592857D01*
X103687524Y-67688095D01*
X103639905Y-67830952D01*
X103068476Y-68402381D01*
X103687524Y-68402381D01*
X104068476Y-67497619D02*
X104116095Y-67450000D01*
X104211333Y-67402381D01*
X104449429Y-67402381D01*
X104544667Y-67450000D01*
X104592286Y-67497619D01*
X104639905Y-67592857D01*
X104639905Y-67688095D01*
X104592286Y-67830952D01*
X104020857Y-68402381D01*
X104639905Y-68402381D01*
X42537143Y-176098381D02*
X42203809Y-175622190D01*
X41965714Y-176098381D02*
X41965714Y-175098381D01*
X42346667Y-175098381D01*
X42441905Y-175146000D01*
X42489524Y-175193619D01*
X42537143Y-175288857D01*
X42537143Y-175431714D01*
X42489524Y-175526952D01*
X42441905Y-175574571D01*
X42346667Y-175622190D01*
X41965714Y-175622190D01*
X42918095Y-175193619D02*
X42965714Y-175146000D01*
X43060952Y-175098381D01*
X43299048Y-175098381D01*
X43394286Y-175146000D01*
X43441905Y-175193619D01*
X43489524Y-175288857D01*
X43489524Y-175384095D01*
X43441905Y-175526952D01*
X42870476Y-176098381D01*
X43489524Y-176098381D01*
X43822857Y-175098381D02*
X44441905Y-175098381D01*
X44108571Y-175479333D01*
X44251429Y-175479333D01*
X44346667Y-175526952D01*
X44394286Y-175574571D01*
X44441905Y-175669810D01*
X44441905Y-175907905D01*
X44394286Y-176003143D01*
X44346667Y-176050762D01*
X44251429Y-176098381D01*
X43965714Y-176098381D01*
X43870476Y-176050762D01*
X43822857Y-176003143D01*
X44770381Y-162186857D02*
X44294190Y-162520191D01*
X44770381Y-162758286D02*
X43770381Y-162758286D01*
X43770381Y-162377333D01*
X43818000Y-162282095D01*
X43865619Y-162234476D01*
X43960857Y-162186857D01*
X44103714Y-162186857D01*
X44198952Y-162234476D01*
X44246571Y-162282095D01*
X44294190Y-162377333D01*
X44294190Y-162758286D01*
X43865619Y-161805905D02*
X43818000Y-161758286D01*
X43770381Y-161663048D01*
X43770381Y-161424952D01*
X43818000Y-161329714D01*
X43865619Y-161282095D01*
X43960857Y-161234476D01*
X44056095Y-161234476D01*
X44198952Y-161282095D01*
X44770381Y-161853524D01*
X44770381Y-161234476D01*
X43770381Y-160329714D02*
X43770381Y-160805905D01*
X44246571Y-160853524D01*
X44198952Y-160805905D01*
X44151333Y-160710667D01*
X44151333Y-160472571D01*
X44198952Y-160377333D01*
X44246571Y-160329714D01*
X44341810Y-160282095D01*
X44579905Y-160282095D01*
X44675143Y-160329714D01*
X44722762Y-160377333D01*
X44770381Y-160472571D01*
X44770381Y-160710667D01*
X44722762Y-160805905D01*
X44675143Y-160853524D01*
X152773143Y-77038381D02*
X152439809Y-76562190D01*
X152201714Y-77038381D02*
X152201714Y-76038381D01*
X152582667Y-76038381D01*
X152677905Y-76086000D01*
X152725524Y-76133619D01*
X152773143Y-76228857D01*
X152773143Y-76371714D01*
X152725524Y-76466952D01*
X152677905Y-76514571D01*
X152582667Y-76562190D01*
X152201714Y-76562190D01*
X153154095Y-76133619D02*
X153201714Y-76086000D01*
X153296952Y-76038381D01*
X153535048Y-76038381D01*
X153630286Y-76086000D01*
X153677905Y-76133619D01*
X153725524Y-76228857D01*
X153725524Y-76324095D01*
X153677905Y-76466952D01*
X153106476Y-77038381D01*
X153725524Y-77038381D01*
X154582667Y-76038381D02*
X154392190Y-76038381D01*
X154296952Y-76086000D01*
X154249333Y-76133619D01*
X154154095Y-76276476D01*
X154106476Y-76466952D01*
X154106476Y-76847905D01*
X154154095Y-76943143D01*
X154201714Y-76990762D01*
X154296952Y-77038381D01*
X154487429Y-77038381D01*
X154582667Y-76990762D01*
X154630286Y-76943143D01*
X154677905Y-76847905D01*
X154677905Y-76609810D01*
X154630286Y-76514571D01*
X154582667Y-76466952D01*
X154487429Y-76419333D01*
X154296952Y-76419333D01*
X154201714Y-76466952D01*
X154154095Y-76514571D01*
X154106476Y-76609810D01*
X171442143Y-74752381D02*
X171108809Y-74276190D01*
X170870714Y-74752381D02*
X170870714Y-73752381D01*
X171251667Y-73752381D01*
X171346905Y-73800000D01*
X171394524Y-73847619D01*
X171442143Y-73942857D01*
X171442143Y-74085714D01*
X171394524Y-74180952D01*
X171346905Y-74228571D01*
X171251667Y-74276190D01*
X170870714Y-74276190D01*
X171823095Y-73847619D02*
X171870714Y-73800000D01*
X171965952Y-73752381D01*
X172204048Y-73752381D01*
X172299286Y-73800000D01*
X172346905Y-73847619D01*
X172394524Y-73942857D01*
X172394524Y-74038095D01*
X172346905Y-74180952D01*
X171775476Y-74752381D01*
X172394524Y-74752381D01*
X172727857Y-73752381D02*
X173394524Y-73752381D01*
X172965952Y-74752381D01*
X78605143Y-145364381D02*
X78271809Y-144888190D01*
X78033714Y-145364381D02*
X78033714Y-144364381D01*
X78414667Y-144364381D01*
X78509905Y-144412000D01*
X78557524Y-144459619D01*
X78605143Y-144554857D01*
X78605143Y-144697714D01*
X78557524Y-144792952D01*
X78509905Y-144840571D01*
X78414667Y-144888190D01*
X78033714Y-144888190D01*
X78938476Y-144364381D02*
X79557524Y-144364381D01*
X79224190Y-144745333D01*
X79367048Y-144745333D01*
X79462286Y-144792952D01*
X79509905Y-144840571D01*
X79557524Y-144935810D01*
X79557524Y-145173905D01*
X79509905Y-145269143D01*
X79462286Y-145316762D01*
X79367048Y-145364381D01*
X79081333Y-145364381D01*
X78986095Y-145316762D01*
X78938476Y-145269143D01*
X80176571Y-144364381D02*
X80271810Y-144364381D01*
X80367048Y-144412000D01*
X80414667Y-144459619D01*
X80462286Y-144554857D01*
X80509905Y-144745333D01*
X80509905Y-144983429D01*
X80462286Y-145173905D01*
X80414667Y-145269143D01*
X80367048Y-145316762D01*
X80271810Y-145364381D01*
X80176571Y-145364381D01*
X80081333Y-145316762D01*
X80033714Y-145269143D01*
X79986095Y-145173905D01*
X79938476Y-144983429D01*
X79938476Y-144745333D01*
X79986095Y-144554857D01*
X80033714Y-144459619D01*
X80081333Y-144412000D01*
X80176571Y-144364381D01*
X93845143Y-173548381D02*
X93511809Y-173072190D01*
X93273714Y-173548381D02*
X93273714Y-172548381D01*
X93654667Y-172548381D01*
X93749905Y-172596000D01*
X93797524Y-172643619D01*
X93845143Y-172738857D01*
X93845143Y-172881714D01*
X93797524Y-172976952D01*
X93749905Y-173024571D01*
X93654667Y-173072190D01*
X93273714Y-173072190D01*
X94178476Y-172548381D02*
X94797524Y-172548381D01*
X94464190Y-172929333D01*
X94607048Y-172929333D01*
X94702286Y-172976952D01*
X94749905Y-173024571D01*
X94797524Y-173119810D01*
X94797524Y-173357905D01*
X94749905Y-173453143D01*
X94702286Y-173500762D01*
X94607048Y-173548381D01*
X94321333Y-173548381D01*
X94226095Y-173500762D01*
X94178476Y-173453143D01*
X95749905Y-173548381D02*
X95178476Y-173548381D01*
X95464190Y-173548381D02*
X95464190Y-172548381D01*
X95368952Y-172691238D01*
X95273714Y-172786476D01*
X95178476Y-172834095D01*
X107942143Y-120853381D02*
X107608809Y-120377190D01*
X107370714Y-120853381D02*
X107370714Y-119853381D01*
X107751667Y-119853381D01*
X107846905Y-119901000D01*
X107894524Y-119948619D01*
X107942143Y-120043857D01*
X107942143Y-120186714D01*
X107894524Y-120281952D01*
X107846905Y-120329571D01*
X107751667Y-120377190D01*
X107370714Y-120377190D01*
X108275476Y-119853381D02*
X108894524Y-119853381D01*
X108561190Y-120234333D01*
X108704048Y-120234333D01*
X108799286Y-120281952D01*
X108846905Y-120329571D01*
X108894524Y-120424810D01*
X108894524Y-120662905D01*
X108846905Y-120758143D01*
X108799286Y-120805762D01*
X108704048Y-120853381D01*
X108418333Y-120853381D01*
X108323095Y-120805762D01*
X108275476Y-120758143D01*
X109275476Y-119948619D02*
X109323095Y-119901000D01*
X109418333Y-119853381D01*
X109656429Y-119853381D01*
X109751667Y-119901000D01*
X109799286Y-119948619D01*
X109846905Y-120043857D01*
X109846905Y-120139095D01*
X109799286Y-120281952D01*
X109227857Y-120853381D01*
X109846905Y-120853381D01*
X92575143Y-119710381D02*
X92241809Y-119234190D01*
X92003714Y-119710381D02*
X92003714Y-118710381D01*
X92384667Y-118710381D01*
X92479905Y-118758000D01*
X92527524Y-118805619D01*
X92575143Y-118900857D01*
X92575143Y-119043714D01*
X92527524Y-119138952D01*
X92479905Y-119186571D01*
X92384667Y-119234190D01*
X92003714Y-119234190D01*
X92908476Y-118710381D02*
X93527524Y-118710381D01*
X93194190Y-119091333D01*
X93337048Y-119091333D01*
X93432286Y-119138952D01*
X93479905Y-119186571D01*
X93527524Y-119281810D01*
X93527524Y-119519905D01*
X93479905Y-119615143D01*
X93432286Y-119662762D01*
X93337048Y-119710381D01*
X93051333Y-119710381D01*
X92956095Y-119662762D01*
X92908476Y-119615143D01*
X94384667Y-119043714D02*
X94384667Y-119710381D01*
X94146571Y-118662762D02*
X93908476Y-119377048D01*
X94527524Y-119377048D01*
X88204381Y-149486857D02*
X87728190Y-149820191D01*
X88204381Y-150058286D02*
X87204381Y-150058286D01*
X87204381Y-149677333D01*
X87252000Y-149582095D01*
X87299619Y-149534476D01*
X87394857Y-149486857D01*
X87537714Y-149486857D01*
X87632952Y-149534476D01*
X87680571Y-149582095D01*
X87728190Y-149677333D01*
X87728190Y-150058286D01*
X87204381Y-149153524D02*
X87204381Y-148534476D01*
X87585333Y-148867810D01*
X87585333Y-148724952D01*
X87632952Y-148629714D01*
X87680571Y-148582095D01*
X87775810Y-148534476D01*
X88013905Y-148534476D01*
X88109143Y-148582095D01*
X88156762Y-148629714D01*
X88204381Y-148724952D01*
X88204381Y-149010667D01*
X88156762Y-149105905D01*
X88109143Y-149153524D01*
X87204381Y-147677333D02*
X87204381Y-147867810D01*
X87252000Y-147963048D01*
X87299619Y-148010667D01*
X87442476Y-148105905D01*
X87632952Y-148153524D01*
X88013905Y-148153524D01*
X88109143Y-148105905D01*
X88156762Y-148058286D01*
X88204381Y-147963048D01*
X88204381Y-147772571D01*
X88156762Y-147677333D01*
X88109143Y-147629714D01*
X88013905Y-147582095D01*
X87775810Y-147582095D01*
X87680571Y-147629714D01*
X87632952Y-147677333D01*
X87585333Y-147772571D01*
X87585333Y-147963048D01*
X87632952Y-148058286D01*
X87680571Y-148105905D01*
X87775810Y-148153524D01*
X85928381Y-105290857D02*
X85452190Y-105624191D01*
X85928381Y-105862286D02*
X84928381Y-105862286D01*
X84928381Y-105481333D01*
X84976000Y-105386095D01*
X85023619Y-105338476D01*
X85118857Y-105290857D01*
X85261714Y-105290857D01*
X85356952Y-105338476D01*
X85404571Y-105386095D01*
X85452190Y-105481333D01*
X85452190Y-105862286D01*
X84928381Y-104957524D02*
X84928381Y-104338476D01*
X85309333Y-104671810D01*
X85309333Y-104528952D01*
X85356952Y-104433714D01*
X85404571Y-104386095D01*
X85499810Y-104338476D01*
X85737905Y-104338476D01*
X85833143Y-104386095D01*
X85880762Y-104433714D01*
X85928381Y-104528952D01*
X85928381Y-104814667D01*
X85880762Y-104909905D01*
X85833143Y-104957524D01*
X84928381Y-104005143D02*
X84928381Y-103338476D01*
X85928381Y-103767048D01*
X80891143Y-130632381D02*
X80557809Y-130156190D01*
X80319714Y-130632381D02*
X80319714Y-129632381D01*
X80700667Y-129632381D01*
X80795905Y-129680000D01*
X80843524Y-129727619D01*
X80891143Y-129822857D01*
X80891143Y-129965714D01*
X80843524Y-130060952D01*
X80795905Y-130108571D01*
X80700667Y-130156190D01*
X80319714Y-130156190D01*
X81224476Y-129632381D02*
X81843524Y-129632381D01*
X81510190Y-130013333D01*
X81653048Y-130013333D01*
X81748286Y-130060952D01*
X81795905Y-130108571D01*
X81843524Y-130203810D01*
X81843524Y-130441905D01*
X81795905Y-130537143D01*
X81748286Y-130584762D01*
X81653048Y-130632381D01*
X81367333Y-130632381D01*
X81272095Y-130584762D01*
X81224476Y-130537143D01*
X82414952Y-130060952D02*
X82319714Y-130013333D01*
X82272095Y-129965714D01*
X82224476Y-129870476D01*
X82224476Y-129822857D01*
X82272095Y-129727619D01*
X82319714Y-129680000D01*
X82414952Y-129632381D01*
X82605429Y-129632381D01*
X82700667Y-129680000D01*
X82748286Y-129727619D01*
X82795905Y-129822857D01*
X82795905Y-129870476D01*
X82748286Y-129965714D01*
X82700667Y-130013333D01*
X82605429Y-130060952D01*
X82414952Y-130060952D01*
X82319714Y-130108571D01*
X82272095Y-130156190D01*
X82224476Y-130251429D01*
X82224476Y-130441905D01*
X82272095Y-130537143D01*
X82319714Y-130584762D01*
X82414952Y-130632381D01*
X82605429Y-130632381D01*
X82700667Y-130584762D01*
X82748286Y-130537143D01*
X82795905Y-130441905D01*
X82795905Y-130251429D01*
X82748286Y-130156190D01*
X82700667Y-130108571D01*
X82605429Y-130060952D01*
X92067143Y-104968381D02*
X91733809Y-104492190D01*
X91495714Y-104968381D02*
X91495714Y-103968381D01*
X91876667Y-103968381D01*
X91971905Y-104016000D01*
X92019524Y-104063619D01*
X92067143Y-104158857D01*
X92067143Y-104301714D01*
X92019524Y-104396952D01*
X91971905Y-104444571D01*
X91876667Y-104492190D01*
X91495714Y-104492190D01*
X92400476Y-103968381D02*
X93019524Y-103968381D01*
X92686190Y-104349333D01*
X92829048Y-104349333D01*
X92924286Y-104396952D01*
X92971905Y-104444571D01*
X93019524Y-104539810D01*
X93019524Y-104777905D01*
X92971905Y-104873143D01*
X92924286Y-104920762D01*
X92829048Y-104968381D01*
X92543333Y-104968381D01*
X92448095Y-104920762D01*
X92400476Y-104873143D01*
X93495714Y-104968381D02*
X93686190Y-104968381D01*
X93781429Y-104920762D01*
X93829048Y-104873143D01*
X93924286Y-104730286D01*
X93971905Y-104539810D01*
X93971905Y-104158857D01*
X93924286Y-104063619D01*
X93876667Y-104016000D01*
X93781429Y-103968381D01*
X93590952Y-103968381D01*
X93495714Y-104016000D01*
X93448095Y-104063619D01*
X93400476Y-104158857D01*
X93400476Y-104396952D01*
X93448095Y-104492190D01*
X93495714Y-104539810D01*
X93590952Y-104587429D01*
X93781429Y-104587429D01*
X93876667Y-104539810D01*
X93924286Y-104492190D01*
X93971905Y-104396952D01*
X88511143Y-128600381D02*
X88177809Y-128124190D01*
X87939714Y-128600381D02*
X87939714Y-127600381D01*
X88320667Y-127600381D01*
X88415905Y-127648000D01*
X88463524Y-127695619D01*
X88511143Y-127790857D01*
X88511143Y-127933714D01*
X88463524Y-128028952D01*
X88415905Y-128076571D01*
X88320667Y-128124190D01*
X87939714Y-128124190D01*
X89368286Y-127933714D02*
X89368286Y-128600381D01*
X89130190Y-127552762D02*
X88892095Y-128267048D01*
X89511143Y-128267048D01*
X89844476Y-127695619D02*
X89892095Y-127648000D01*
X89987333Y-127600381D01*
X90225429Y-127600381D01*
X90320667Y-127648000D01*
X90368286Y-127695619D01*
X90415905Y-127790857D01*
X90415905Y-127886095D01*
X90368286Y-128028952D01*
X89796857Y-128600381D01*
X90415905Y-128600381D01*
X106746381Y-110878857D02*
X106270190Y-111212191D01*
X106746381Y-111450286D02*
X105746381Y-111450286D01*
X105746381Y-111069333D01*
X105794000Y-110974095D01*
X105841619Y-110926476D01*
X105936857Y-110878857D01*
X106079714Y-110878857D01*
X106174952Y-110926476D01*
X106222571Y-110974095D01*
X106270190Y-111069333D01*
X106270190Y-111450286D01*
X106079714Y-110021714D02*
X106746381Y-110021714D01*
X105698762Y-110259810D02*
X106413048Y-110497905D01*
X106413048Y-109878857D01*
X105746381Y-109593143D02*
X105746381Y-108974095D01*
X106127333Y-109307429D01*
X106127333Y-109164571D01*
X106174952Y-109069333D01*
X106222571Y-109021714D01*
X106317810Y-108974095D01*
X106555905Y-108974095D01*
X106651143Y-109021714D01*
X106698762Y-109069333D01*
X106746381Y-109164571D01*
X106746381Y-109450286D01*
X106698762Y-109545524D01*
X106651143Y-109593143D01*
X111328381Y-167774857D02*
X110852190Y-168108191D01*
X111328381Y-168346286D02*
X110328381Y-168346286D01*
X110328381Y-167965333D01*
X110376000Y-167870095D01*
X110423619Y-167822476D01*
X110518857Y-167774857D01*
X110661714Y-167774857D01*
X110756952Y-167822476D01*
X110804571Y-167870095D01*
X110852190Y-167965333D01*
X110852190Y-168346286D01*
X110661714Y-166917714D02*
X111328381Y-166917714D01*
X110280762Y-167155810D02*
X110995048Y-167393905D01*
X110995048Y-166774857D01*
X110661714Y-165965333D02*
X111328381Y-165965333D01*
X110280762Y-166203429D02*
X110995048Y-166441524D01*
X110995048Y-165822476D01*
X116959143Y-172786381D02*
X116625809Y-172310190D01*
X116387714Y-172786381D02*
X116387714Y-171786381D01*
X116768667Y-171786381D01*
X116863905Y-171834000D01*
X116911524Y-171881619D01*
X116959143Y-171976857D01*
X116959143Y-172119714D01*
X116911524Y-172214952D01*
X116863905Y-172262571D01*
X116768667Y-172310190D01*
X116387714Y-172310190D01*
X117816286Y-172119714D02*
X117816286Y-172786381D01*
X117578190Y-171738762D02*
X117340095Y-172453048D01*
X117959143Y-172453048D01*
X118816286Y-171786381D02*
X118340095Y-171786381D01*
X118292476Y-172262571D01*
X118340095Y-172214952D01*
X118435333Y-172167333D01*
X118673429Y-172167333D01*
X118768667Y-172214952D01*
X118816286Y-172262571D01*
X118863905Y-172357810D01*
X118863905Y-172595905D01*
X118816286Y-172691143D01*
X118768667Y-172738762D01*
X118673429Y-172786381D01*
X118435333Y-172786381D01*
X118340095Y-172738762D01*
X118292476Y-172691143D01*
X149217143Y-87960381D02*
X148883809Y-87484190D01*
X148645714Y-87960381D02*
X148645714Y-86960381D01*
X149026667Y-86960381D01*
X149121905Y-87008000D01*
X149169524Y-87055619D01*
X149217143Y-87150857D01*
X149217143Y-87293714D01*
X149169524Y-87388952D01*
X149121905Y-87436571D01*
X149026667Y-87484190D01*
X148645714Y-87484190D01*
X150074286Y-87293714D02*
X150074286Y-87960381D01*
X149836190Y-86912762D02*
X149598095Y-87627048D01*
X150217143Y-87627048D01*
X151026667Y-86960381D02*
X150836190Y-86960381D01*
X150740952Y-87008000D01*
X150693333Y-87055619D01*
X150598095Y-87198476D01*
X150550476Y-87388952D01*
X150550476Y-87769905D01*
X150598095Y-87865143D01*
X150645714Y-87912762D01*
X150740952Y-87960381D01*
X150931429Y-87960381D01*
X151026667Y-87912762D01*
X151074286Y-87865143D01*
X151121905Y-87769905D01*
X151121905Y-87531810D01*
X151074286Y-87436571D01*
X151026667Y-87388952D01*
X150931429Y-87341333D01*
X150740952Y-87341333D01*
X150645714Y-87388952D01*
X150598095Y-87436571D01*
X150550476Y-87531810D01*
X170172143Y-88087381D02*
X169838809Y-87611190D01*
X169600714Y-88087381D02*
X169600714Y-87087381D01*
X169981667Y-87087381D01*
X170076905Y-87135000D01*
X170124524Y-87182619D01*
X170172143Y-87277857D01*
X170172143Y-87420714D01*
X170124524Y-87515952D01*
X170076905Y-87563571D01*
X169981667Y-87611190D01*
X169600714Y-87611190D01*
X171029286Y-87420714D02*
X171029286Y-88087381D01*
X170791190Y-87039762D02*
X170553095Y-87754048D01*
X171172143Y-87754048D01*
X171457857Y-87087381D02*
X172124524Y-87087381D01*
X171695952Y-88087381D01*
X45974095Y-113276762D02*
X46116952Y-113324381D01*
X46355048Y-113324381D01*
X46450286Y-113276762D01*
X46497905Y-113229143D01*
X46545524Y-113133905D01*
X46545524Y-113038667D01*
X46497905Y-112943429D01*
X46450286Y-112895810D01*
X46355048Y-112848190D01*
X46164571Y-112800571D01*
X46069333Y-112752952D01*
X46021714Y-112705333D01*
X45974095Y-112610095D01*
X45974095Y-112514857D01*
X46021714Y-112419619D01*
X46069333Y-112372000D01*
X46164571Y-112324381D01*
X46402667Y-112324381D01*
X46545524Y-112372000D01*
X47497905Y-113324381D02*
X46926476Y-113324381D01*
X47212190Y-113324381D02*
X47212190Y-112324381D01*
X47116952Y-112467238D01*
X47021714Y-112562476D01*
X46926476Y-112610095D01*
X45720095Y-137938381D02*
X45720095Y-138747905D01*
X45767714Y-138843143D01*
X45815333Y-138890762D01*
X45910571Y-138938381D01*
X46101048Y-138938381D01*
X46196286Y-138890762D01*
X46243905Y-138843143D01*
X46291524Y-138747905D01*
X46291524Y-137938381D01*
X47291524Y-138938381D02*
X46720095Y-138938381D01*
X47005809Y-138938381D02*
X47005809Y-137938381D01*
X46910571Y-138081238D01*
X46815333Y-138176476D01*
X46720095Y-138224095D01*
X48514095Y-161560381D02*
X48514095Y-162369905D01*
X48561714Y-162465143D01*
X48609333Y-162512762D01*
X48704571Y-162560381D01*
X48895048Y-162560381D01*
X48990286Y-162512762D01*
X49037905Y-162465143D01*
X49085524Y-162369905D01*
X49085524Y-161560381D01*
X49466476Y-161560381D02*
X50085524Y-161560381D01*
X49752190Y-161941333D01*
X49895048Y-161941333D01*
X49990286Y-161988952D01*
X50037905Y-162036571D01*
X50085524Y-162131810D01*
X50085524Y-162369905D01*
X50037905Y-162465143D01*
X49990286Y-162512762D01*
X49895048Y-162560381D01*
X49609333Y-162560381D01*
X49514095Y-162512762D01*
X49466476Y-162465143D01*
X107315095Y-72025381D02*
X107315095Y-72834905D01*
X107362714Y-72930143D01*
X107410333Y-72977762D01*
X107505571Y-73025381D01*
X107696048Y-73025381D01*
X107791286Y-72977762D01*
X107838905Y-72930143D01*
X107886524Y-72834905D01*
X107886524Y-72025381D01*
X108791286Y-72358714D02*
X108791286Y-73025381D01*
X108553190Y-71977762D02*
X108315095Y-72692048D01*
X108934143Y-72692048D01*
X70612095Y-91710381D02*
X70612095Y-92519905D01*
X70659714Y-92615143D01*
X70707333Y-92662762D01*
X70802571Y-92710381D01*
X70993048Y-92710381D01*
X71088286Y-92662762D01*
X71135905Y-92615143D01*
X71183524Y-92519905D01*
X71183524Y-91710381D01*
X72135905Y-91710381D02*
X71659714Y-91710381D01*
X71612095Y-92186571D01*
X71659714Y-92138952D01*
X71754952Y-92091333D01*
X71993048Y-92091333D01*
X72088286Y-92138952D01*
X72135905Y-92186571D01*
X72183524Y-92281810D01*
X72183524Y-92519905D01*
X72135905Y-92615143D01*
X72088286Y-92662762D01*
X71993048Y-92710381D01*
X71754952Y-92710381D01*
X71659714Y-92662762D01*
X71612095Y-92615143D01*
X80010095Y-135144381D02*
X80010095Y-135953905D01*
X80057714Y-136049143D01*
X80105333Y-136096762D01*
X80200571Y-136144381D01*
X80391048Y-136144381D01*
X80486286Y-136096762D01*
X80533905Y-136049143D01*
X80581524Y-135953905D01*
X80581524Y-135144381D01*
X81486286Y-135144381D02*
X81295809Y-135144381D01*
X81200571Y-135192000D01*
X81152952Y-135239619D01*
X81057714Y-135382476D01*
X81010095Y-135572952D01*
X81010095Y-135953905D01*
X81057714Y-136049143D01*
X81105333Y-136096762D01*
X81200571Y-136144381D01*
X81391048Y-136144381D01*
X81486286Y-136096762D01*
X81533905Y-136049143D01*
X81581524Y-135953905D01*
X81581524Y-135715810D01*
X81533905Y-135620571D01*
X81486286Y-135572952D01*
X81391048Y-135525333D01*
X81200571Y-135525333D01*
X81105333Y-135572952D01*
X81057714Y-135620571D01*
X81010095Y-135715810D01*
X94996095Y-105426381D02*
X94996095Y-106235905D01*
X95043714Y-106331143D01*
X95091333Y-106378762D01*
X95186571Y-106426381D01*
X95377048Y-106426381D01*
X95472286Y-106378762D01*
X95519905Y-106331143D01*
X95567524Y-106235905D01*
X95567524Y-105426381D01*
X95948476Y-105426381D02*
X96615143Y-105426381D01*
X96186571Y-106426381D01*
X110998095Y-156734381D02*
X110998095Y-157543905D01*
X111045714Y-157639143D01*
X111093333Y-157686762D01*
X111188571Y-157734381D01*
X111379048Y-157734381D01*
X111474286Y-157686762D01*
X111521905Y-157639143D01*
X111569524Y-157543905D01*
X111569524Y-156734381D01*
X112188571Y-157162952D02*
X112093333Y-157115333D01*
X112045714Y-157067714D01*
X111998095Y-156972476D01*
X111998095Y-156924857D01*
X112045714Y-156829619D01*
X112093333Y-156782000D01*
X112188571Y-156734381D01*
X112379048Y-156734381D01*
X112474286Y-156782000D01*
X112521905Y-156829619D01*
X112569524Y-156924857D01*
X112569524Y-156972476D01*
X112521905Y-157067714D01*
X112474286Y-157115333D01*
X112379048Y-157162952D01*
X112188571Y-157162952D01*
X112093333Y-157210571D01*
X112045714Y-157258190D01*
X111998095Y-157353429D01*
X111998095Y-157543905D01*
X112045714Y-157639143D01*
X112093333Y-157686762D01*
X112188571Y-157734381D01*
X112379048Y-157734381D01*
X112474286Y-157686762D01*
X112521905Y-157639143D01*
X112569524Y-157543905D01*
X112569524Y-157353429D01*
X112521905Y-157258190D01*
X112474286Y-157210571D01*
X112379048Y-157162952D01*
X135890095Y-142510381D02*
X135890095Y-143319905D01*
X135937714Y-143415143D01*
X135985333Y-143462762D01*
X136080571Y-143510381D01*
X136271048Y-143510381D01*
X136366286Y-143462762D01*
X136413905Y-143415143D01*
X136461524Y-143319905D01*
X136461524Y-142510381D01*
X136985333Y-143510381D02*
X137175809Y-143510381D01*
X137271048Y-143462762D01*
X137318667Y-143415143D01*
X137413905Y-143272286D01*
X137461524Y-143081810D01*
X137461524Y-142700857D01*
X137413905Y-142605619D01*
X137366286Y-142558000D01*
X137271048Y-142510381D01*
X137080571Y-142510381D01*
X136985333Y-142558000D01*
X136937714Y-142605619D01*
X136890095Y-142700857D01*
X136890095Y-142938952D01*
X136937714Y-143034190D01*
X136985333Y-143081810D01*
X137080571Y-143129429D01*
X137271048Y-143129429D01*
X137366286Y-143081810D01*
X137413905Y-143034190D01*
X137461524Y-142938952D01*
X138207905Y-168302381D02*
X138207905Y-169111905D01*
X138255524Y-169207143D01*
X138303143Y-169254762D01*
X138398381Y-169302381D01*
X138588858Y-169302381D01*
X138684096Y-169254762D01*
X138731715Y-169207143D01*
X138779334Y-169111905D01*
X138779334Y-168302381D01*
X139779334Y-169302381D02*
X139207905Y-169302381D01*
X139493619Y-169302381D02*
X139493619Y-168302381D01*
X139398381Y-168445238D01*
X139303143Y-168540476D01*
X139207905Y-168588095D01*
X140398381Y-168302381D02*
X140493620Y-168302381D01*
X140588858Y-168350000D01*
X140636477Y-168397619D01*
X140684096Y-168492857D01*
X140731715Y-168683333D01*
X140731715Y-168921429D01*
X140684096Y-169111905D01*
X140636477Y-169207143D01*
X140588858Y-169254762D01*
X140493620Y-169302381D01*
X140398381Y-169302381D01*
X140303143Y-169254762D01*
X140255524Y-169207143D01*
X140207905Y-169111905D01*
X140160286Y-168921429D01*
X140160286Y-168683333D01*
X140207905Y-168492857D01*
X140255524Y-168397619D01*
X140303143Y-168350000D01*
X140398381Y-168302381D01*
X135159905Y-155083381D02*
X135159905Y-155892905D01*
X135207524Y-155988143D01*
X135255143Y-156035762D01*
X135350381Y-156083381D01*
X135540858Y-156083381D01*
X135636096Y-156035762D01*
X135683715Y-155988143D01*
X135731334Y-155892905D01*
X135731334Y-155083381D01*
X136731334Y-156083381D02*
X136159905Y-156083381D01*
X136445619Y-156083381D02*
X136445619Y-155083381D01*
X136350381Y-155226238D01*
X136255143Y-155321476D01*
X136159905Y-155369095D01*
X137683715Y-156083381D02*
X137112286Y-156083381D01*
X137398000Y-156083381D02*
X137398000Y-155083381D01*
X137302762Y-155226238D01*
X137207524Y-155321476D01*
X137112286Y-155369095D01*
X152487381Y-69183095D02*
X153296905Y-69183095D01*
X153392143Y-69135476D01*
X153439762Y-69087857D01*
X153487381Y-68992619D01*
X153487381Y-68802142D01*
X153439762Y-68706904D01*
X153392143Y-68659285D01*
X153296905Y-68611666D01*
X152487381Y-68611666D01*
X153487381Y-67611666D02*
X153487381Y-68183095D01*
X153487381Y-67897381D02*
X152487381Y-67897381D01*
X152630238Y-67992619D01*
X152725476Y-68087857D01*
X152773095Y-68183095D01*
X152487381Y-67278333D02*
X152487381Y-66659285D01*
X152868333Y-66992619D01*
X152868333Y-66849761D01*
X152915952Y-66754523D01*
X152963571Y-66706904D01*
X153058810Y-66659285D01*
X153296905Y-66659285D01*
X153392143Y-66706904D01*
X153439762Y-66754523D01*
X153487381Y-66849761D01*
X153487381Y-67135476D01*
X153439762Y-67230714D01*
X153392143Y-67278333D01*
X133127905Y-97750381D02*
X133127905Y-98559905D01*
X133175524Y-98655143D01*
X133223143Y-98702762D01*
X133318381Y-98750381D01*
X133508858Y-98750381D01*
X133604096Y-98702762D01*
X133651715Y-98655143D01*
X133699334Y-98559905D01*
X133699334Y-97750381D01*
X134699334Y-98750381D02*
X134127905Y-98750381D01*
X134413619Y-98750381D02*
X134413619Y-97750381D01*
X134318381Y-97893238D01*
X134223143Y-97988476D01*
X134127905Y-98036095D01*
X135556477Y-98083714D02*
X135556477Y-98750381D01*
X135318381Y-97702762D02*
X135080286Y-98417048D01*
X135699334Y-98417048D01*
X159289905Y-110577381D02*
X159289905Y-111386905D01*
X159337524Y-111482143D01*
X159385143Y-111529762D01*
X159480381Y-111577381D01*
X159670858Y-111577381D01*
X159766096Y-111529762D01*
X159813715Y-111482143D01*
X159861334Y-111386905D01*
X159861334Y-110577381D01*
X160861334Y-111577381D02*
X160289905Y-111577381D01*
X160575619Y-111577381D02*
X160575619Y-110577381D01*
X160480381Y-110720238D01*
X160385143Y-110815476D01*
X160289905Y-110863095D01*
X161766096Y-110577381D02*
X161289905Y-110577381D01*
X161242286Y-111053571D01*
X161289905Y-111005952D01*
X161385143Y-110958333D01*
X161623239Y-110958333D01*
X161718477Y-111005952D01*
X161766096Y-111053571D01*
X161813715Y-111148810D01*
X161813715Y-111386905D01*
X161766096Y-111482143D01*
X161718477Y-111529762D01*
X161623239Y-111577381D01*
X161385143Y-111577381D01*
X161289905Y-111529762D01*
X161242286Y-111482143D01*
X114966905Y-118761381D02*
X114966905Y-119570905D01*
X115014524Y-119666143D01*
X115062143Y-119713762D01*
X115157381Y-119761381D01*
X115347858Y-119761381D01*
X115443096Y-119713762D01*
X115490715Y-119666143D01*
X115538334Y-119570905D01*
X115538334Y-118761381D01*
X116538334Y-119761381D02*
X115966905Y-119761381D01*
X116252619Y-119761381D02*
X116252619Y-118761381D01*
X116157381Y-118904238D01*
X116062143Y-118999476D01*
X115966905Y-119047095D01*
X117395477Y-118761381D02*
X117205000Y-118761381D01*
X117109762Y-118809000D01*
X117062143Y-118856619D01*
X116966905Y-118999476D01*
X116919286Y-119189952D01*
X116919286Y-119570905D01*
X116966905Y-119666143D01*
X117014524Y-119713762D01*
X117109762Y-119761381D01*
X117300239Y-119761381D01*
X117395477Y-119713762D01*
X117443096Y-119666143D01*
X117490715Y-119570905D01*
X117490715Y-119332810D01*
X117443096Y-119237571D01*
X117395477Y-119189952D01*
X117300239Y-119142333D01*
X117109762Y-119142333D01*
X117014524Y-119189952D01*
X116966905Y-119237571D01*
X116919286Y-119332810D01*
X93503905Y-87392381D02*
X93503905Y-88201905D01*
X93551524Y-88297143D01*
X93599143Y-88344762D01*
X93694381Y-88392381D01*
X93884858Y-88392381D01*
X93980096Y-88344762D01*
X94027715Y-88297143D01*
X94075334Y-88201905D01*
X94075334Y-87392381D01*
X95075334Y-88392381D02*
X94503905Y-88392381D01*
X94789619Y-88392381D02*
X94789619Y-87392381D01*
X94694381Y-87535238D01*
X94599143Y-87630476D01*
X94503905Y-87678095D01*
X95408667Y-87392381D02*
X96075334Y-87392381D01*
X95646762Y-88392381D01*
X108235905Y-135906381D02*
X108235905Y-136715905D01*
X108283524Y-136811143D01*
X108331143Y-136858762D01*
X108426381Y-136906381D01*
X108616858Y-136906381D01*
X108712096Y-136858762D01*
X108759715Y-136811143D01*
X108807334Y-136715905D01*
X108807334Y-135906381D01*
X109235905Y-136001619D02*
X109283524Y-135954000D01*
X109378762Y-135906381D01*
X109616858Y-135906381D01*
X109712096Y-135954000D01*
X109759715Y-136001619D01*
X109807334Y-136096857D01*
X109807334Y-136192095D01*
X109759715Y-136334952D01*
X109188286Y-136906381D01*
X109807334Y-136906381D01*
X110426381Y-135906381D02*
X110521620Y-135906381D01*
X110616858Y-135954000D01*
X110664477Y-136001619D01*
X110712096Y-136096857D01*
X110759715Y-136287333D01*
X110759715Y-136525429D01*
X110712096Y-136715905D01*
X110664477Y-136811143D01*
X110616858Y-136858762D01*
X110521620Y-136906381D01*
X110426381Y-136906381D01*
X110331143Y-136858762D01*
X110283524Y-136811143D01*
X110235905Y-136715905D01*
X110188286Y-136525429D01*
X110188286Y-136287333D01*
X110235905Y-136096857D01*
X110283524Y-136001619D01*
X110331143Y-135954000D01*
X110426381Y-135906381D01*
X106172095Y-134770762D02*
X106314952Y-134818381D01*
X106553048Y-134818381D01*
X106648286Y-134770762D01*
X106695905Y-134723143D01*
X106743524Y-134627905D01*
X106743524Y-134532667D01*
X106695905Y-134437429D01*
X106648286Y-134389810D01*
X106553048Y-134342190D01*
X106362571Y-134294571D01*
X106267333Y-134246952D01*
X106219714Y-134199333D01*
X106172095Y-134104095D01*
X106172095Y-134008857D01*
X106219714Y-133913619D01*
X106267333Y-133866000D01*
X106362571Y-133818381D01*
X106600667Y-133818381D01*
X106743524Y-133866000D01*
X107124476Y-133913619D02*
X107172095Y-133866000D01*
X107267333Y-133818381D01*
X107505429Y-133818381D01*
X107600667Y-133866000D01*
X107648286Y-133913619D01*
X107695905Y-134008857D01*
X107695905Y-134104095D01*
X107648286Y-134246952D01*
X107076857Y-134818381D01*
X107695905Y-134818381D01*
X84582095Y-128420762D02*
X84724952Y-128468381D01*
X84963048Y-128468381D01*
X85058286Y-128420762D01*
X85105905Y-128373143D01*
X85153524Y-128277905D01*
X85153524Y-128182667D01*
X85105905Y-128087429D01*
X85058286Y-128039810D01*
X84963048Y-127992190D01*
X84772571Y-127944571D01*
X84677333Y-127896952D01*
X84629714Y-127849333D01*
X84582095Y-127754095D01*
X84582095Y-127658857D01*
X84629714Y-127563619D01*
X84677333Y-127516000D01*
X84772571Y-127468381D01*
X85010667Y-127468381D01*
X85153524Y-127516000D01*
X85486857Y-127468381D02*
X86153524Y-127468381D01*
X85724952Y-128468381D01*
X47156762Y-185364381D02*
X46823428Y-184888190D01*
X46585333Y-185364381D02*
X46585333Y-184364381D01*
X46966286Y-184364381D01*
X47061524Y-184412000D01*
X47109143Y-184459619D01*
X47156762Y-184554857D01*
X47156762Y-184697714D01*
X47109143Y-184792952D01*
X47061524Y-184840571D01*
X46966286Y-184888190D01*
X46585333Y-184888190D01*
X47442476Y-184364381D02*
X47775809Y-185364381D01*
X48109143Y-184364381D01*
X48966286Y-185364381D02*
X48394857Y-185364381D01*
X48680571Y-185364381D02*
X48680571Y-184364381D01*
X48585333Y-184507238D01*
X48490095Y-184602476D01*
X48394857Y-184650095D01*
X70270762Y-185364381D02*
X69937428Y-184888190D01*
X69699333Y-185364381D02*
X69699333Y-184364381D01*
X70080286Y-184364381D01*
X70175524Y-184412000D01*
X70223143Y-184459619D01*
X70270762Y-184554857D01*
X70270762Y-184697714D01*
X70223143Y-184792952D01*
X70175524Y-184840571D01*
X70080286Y-184888190D01*
X69699333Y-184888190D01*
X70556476Y-184364381D02*
X70889809Y-185364381D01*
X71223143Y-184364381D01*
X71508857Y-184459619D02*
X71556476Y-184412000D01*
X71651714Y-184364381D01*
X71889810Y-184364381D01*
X71985048Y-184412000D01*
X72032667Y-184459619D01*
X72080286Y-184554857D01*
X72080286Y-184650095D01*
X72032667Y-184792952D01*
X71461238Y-185364381D01*
X72080286Y-185364381D01*
X141517762Y-185110381D02*
X141184428Y-184634190D01*
X140946333Y-185110381D02*
X140946333Y-184110381D01*
X141327286Y-184110381D01*
X141422524Y-184158000D01*
X141470143Y-184205619D01*
X141517762Y-184300857D01*
X141517762Y-184443714D01*
X141470143Y-184538952D01*
X141422524Y-184586571D01*
X141327286Y-184634190D01*
X140946333Y-184634190D01*
X141803476Y-184110381D02*
X142136809Y-185110381D01*
X142470143Y-184110381D01*
X142708238Y-184110381D02*
X143327286Y-184110381D01*
X142993952Y-184491333D01*
X143136810Y-184491333D01*
X143232048Y-184538952D01*
X143279667Y-184586571D01*
X143327286Y-184681810D01*
X143327286Y-184919905D01*
X143279667Y-185015143D01*
X143232048Y-185062762D01*
X143136810Y-185110381D01*
X142851095Y-185110381D01*
X142755857Y-185062762D01*
X142708238Y-185015143D01*
X117514762Y-185110381D02*
X117181428Y-184634190D01*
X116943333Y-185110381D02*
X116943333Y-184110381D01*
X117324286Y-184110381D01*
X117419524Y-184158000D01*
X117467143Y-184205619D01*
X117514762Y-184300857D01*
X117514762Y-184443714D01*
X117467143Y-184538952D01*
X117419524Y-184586571D01*
X117324286Y-184634190D01*
X116943333Y-184634190D01*
X117800476Y-184110381D02*
X118133809Y-185110381D01*
X118467143Y-184110381D01*
X119229048Y-184443714D02*
X119229048Y-185110381D01*
X118990952Y-184062762D02*
X118752857Y-184777048D01*
X119371905Y-184777048D01*
X93511762Y-185364381D02*
X93178428Y-184888190D01*
X92940333Y-185364381D02*
X92940333Y-184364381D01*
X93321286Y-184364381D01*
X93416524Y-184412000D01*
X93464143Y-184459619D01*
X93511762Y-184554857D01*
X93511762Y-184697714D01*
X93464143Y-184792952D01*
X93416524Y-184840571D01*
X93321286Y-184888190D01*
X92940333Y-184888190D01*
X93797476Y-184364381D02*
X94130809Y-185364381D01*
X94464143Y-184364381D01*
X95273667Y-184364381D02*
X94797476Y-184364381D01*
X94749857Y-184840571D01*
X94797476Y-184792952D01*
X94892714Y-184745333D01*
X95130810Y-184745333D01*
X95226048Y-184792952D01*
X95273667Y-184840571D01*
X95321286Y-184935810D01*
X95321286Y-185173905D01*
X95273667Y-185269143D01*
X95226048Y-185316762D01*
X95130810Y-185364381D01*
X94892714Y-185364381D01*
X94797476Y-185316762D01*
X94749857Y-185269143D01*
X45743905Y-64206381D02*
X45743905Y-63206381D01*
X46124858Y-63206381D01*
X46220096Y-63254000D01*
X46267715Y-63301619D01*
X46315334Y-63396857D01*
X46315334Y-63539714D01*
X46267715Y-63634952D01*
X46220096Y-63682571D01*
X46124858Y-63730190D01*
X45743905Y-63730190D01*
X47267715Y-64206381D02*
X46696286Y-64206381D01*
X46982000Y-64206381D02*
X46982000Y-63206381D01*
X46886762Y-63349238D01*
X46791524Y-63444476D01*
X46696286Y-63492095D01*
X65301905Y-64206381D02*
X65301905Y-63206381D01*
X65682858Y-63206381D01*
X65778096Y-63254000D01*
X65825715Y-63301619D01*
X65873334Y-63396857D01*
X65873334Y-63539714D01*
X65825715Y-63634952D01*
X65778096Y-63682571D01*
X65682858Y-63730190D01*
X65301905Y-63730190D01*
X66254286Y-63301619D02*
X66301905Y-63254000D01*
X66397143Y-63206381D01*
X66635239Y-63206381D01*
X66730477Y-63254000D01*
X66778096Y-63301619D01*
X66825715Y-63396857D01*
X66825715Y-63492095D01*
X66778096Y-63634952D01*
X66206667Y-64206381D01*
X66825715Y-64206381D01*
X84859905Y-64206381D02*
X84859905Y-63206381D01*
X85240858Y-63206381D01*
X85336096Y-63254000D01*
X85383715Y-63301619D01*
X85431334Y-63396857D01*
X85431334Y-63539714D01*
X85383715Y-63634952D01*
X85336096Y-63682571D01*
X85240858Y-63730190D01*
X84859905Y-63730190D01*
X85764667Y-63206381D02*
X86383715Y-63206381D01*
X86050381Y-63587333D01*
X86193239Y-63587333D01*
X86288477Y-63634952D01*
X86336096Y-63682571D01*
X86383715Y-63777810D01*
X86383715Y-64015905D01*
X86336096Y-64111143D01*
X86288477Y-64158762D01*
X86193239Y-64206381D01*
X85907524Y-64206381D01*
X85812286Y-64158762D01*
X85764667Y-64111143D01*
X104925905Y-64206381D02*
X104925905Y-63206381D01*
X105306858Y-63206381D01*
X105402096Y-63254000D01*
X105449715Y-63301619D01*
X105497334Y-63396857D01*
X105497334Y-63539714D01*
X105449715Y-63634952D01*
X105402096Y-63682571D01*
X105306858Y-63730190D01*
X104925905Y-63730190D01*
X106354477Y-63539714D02*
X106354477Y-64206381D01*
X106116381Y-63158762D02*
X105878286Y-63873048D01*
X106497334Y-63873048D01*
X53078143Y-122336143D02*
X53030524Y-122383762D01*
X52887667Y-122431381D01*
X52792429Y-122431381D01*
X52649571Y-122383762D01*
X52554333Y-122288524D01*
X52506714Y-122193286D01*
X52459095Y-122002810D01*
X52459095Y-121859952D01*
X52506714Y-121669476D01*
X52554333Y-121574238D01*
X52649571Y-121479000D01*
X52792429Y-121431381D01*
X52887667Y-121431381D01*
X53030524Y-121479000D01*
X53078143Y-121526619D01*
X53982905Y-121431381D02*
X53506714Y-121431381D01*
X53459095Y-121907571D01*
X53506714Y-121859952D01*
X53601952Y-121812333D01*
X53840048Y-121812333D01*
X53935286Y-121859952D01*
X53982905Y-121907571D01*
X54030524Y-122002810D01*
X54030524Y-122240905D01*
X53982905Y-122336143D01*
X53935286Y-122383762D01*
X53840048Y-122431381D01*
X53601952Y-122431381D01*
X53506714Y-122383762D01*
X53459095Y-122336143D01*
X54411476Y-121526619D02*
X54459095Y-121479000D01*
X54554333Y-121431381D01*
X54792429Y-121431381D01*
X54887667Y-121479000D01*
X54935286Y-121526619D01*
X54982905Y-121621857D01*
X54982905Y-121717095D01*
X54935286Y-121859952D01*
X54363857Y-122431381D01*
X54982905Y-122431381D01*
X90035143Y-165897143D02*
X89987524Y-165944762D01*
X89844667Y-165992381D01*
X89749429Y-165992381D01*
X89606571Y-165944762D01*
X89511333Y-165849524D01*
X89463714Y-165754286D01*
X89416095Y-165563810D01*
X89416095Y-165420952D01*
X89463714Y-165230476D01*
X89511333Y-165135238D01*
X89606571Y-165040000D01*
X89749429Y-164992381D01*
X89844667Y-164992381D01*
X89987524Y-165040000D01*
X90035143Y-165087619D01*
X90939905Y-164992381D02*
X90463714Y-164992381D01*
X90416095Y-165468571D01*
X90463714Y-165420952D01*
X90558952Y-165373333D01*
X90797048Y-165373333D01*
X90892286Y-165420952D01*
X90939905Y-165468571D01*
X90987524Y-165563810D01*
X90987524Y-165801905D01*
X90939905Y-165897143D01*
X90892286Y-165944762D01*
X90797048Y-165992381D01*
X90558952Y-165992381D01*
X90463714Y-165944762D01*
X90416095Y-165897143D01*
X91320857Y-164992381D02*
X91939905Y-164992381D01*
X91606571Y-165373333D01*
X91749429Y-165373333D01*
X91844667Y-165420952D01*
X91892286Y-165468571D01*
X91939905Y-165563810D01*
X91939905Y-165801905D01*
X91892286Y-165897143D01*
X91844667Y-165944762D01*
X91749429Y-165992381D01*
X91463714Y-165992381D01*
X91368476Y-165944762D01*
X91320857Y-165897143D01*
X156638667Y-38568381D02*
X156638667Y-39282667D01*
X156591047Y-39425524D01*
X156495809Y-39520762D01*
X156352952Y-39568381D01*
X156257714Y-39568381D01*
X157638667Y-39568381D02*
X157067238Y-39568381D01*
X157352952Y-39568381D02*
X157352952Y-38568381D01*
X157257714Y-38711238D01*
X157162476Y-38806476D01*
X157067238Y-38854095D01*
X119372143Y-180225381D02*
X119038809Y-179749190D01*
X118800714Y-180225381D02*
X118800714Y-179225381D01*
X119181667Y-179225381D01*
X119276905Y-179273000D01*
X119324524Y-179320619D01*
X119372143Y-179415857D01*
X119372143Y-179558714D01*
X119324524Y-179653952D01*
X119276905Y-179701571D01*
X119181667Y-179749190D01*
X118800714Y-179749190D01*
X119753095Y-179320619D02*
X119800714Y-179273000D01*
X119895952Y-179225381D01*
X120134048Y-179225381D01*
X120229286Y-179273000D01*
X120276905Y-179320619D01*
X120324524Y-179415857D01*
X120324524Y-179511095D01*
X120276905Y-179653952D01*
X119705476Y-180225381D01*
X120324524Y-180225381D01*
X120895952Y-179653952D02*
X120800714Y-179606333D01*
X120753095Y-179558714D01*
X120705476Y-179463476D01*
X120705476Y-179415857D01*
X120753095Y-179320619D01*
X120800714Y-179273000D01*
X120895952Y-179225381D01*
X121086429Y-179225381D01*
X121181667Y-179273000D01*
X121229286Y-179320619D01*
X121276905Y-179415857D01*
X121276905Y-179463476D01*
X121229286Y-179558714D01*
X121181667Y-179606333D01*
X121086429Y-179653952D01*
X120895952Y-179653952D01*
X120800714Y-179701571D01*
X120753095Y-179749190D01*
X120705476Y-179844429D01*
X120705476Y-180034905D01*
X120753095Y-180130143D01*
X120800714Y-180177762D01*
X120895952Y-180225381D01*
X121086429Y-180225381D01*
X121181667Y-180177762D01*
X121229286Y-180130143D01*
X121276905Y-180034905D01*
X121276905Y-179844429D01*
X121229286Y-179749190D01*
X121181667Y-179701571D01*
X121086429Y-179653952D01*
X101084143Y-179844381D02*
X100750809Y-179368190D01*
X100512714Y-179844381D02*
X100512714Y-178844381D01*
X100893667Y-178844381D01*
X100988905Y-178892000D01*
X101036524Y-178939619D01*
X101084143Y-179034857D01*
X101084143Y-179177714D01*
X101036524Y-179272952D01*
X100988905Y-179320571D01*
X100893667Y-179368190D01*
X100512714Y-179368190D01*
X101465095Y-178939619D02*
X101512714Y-178892000D01*
X101607952Y-178844381D01*
X101846048Y-178844381D01*
X101941286Y-178892000D01*
X101988905Y-178939619D01*
X102036524Y-179034857D01*
X102036524Y-179130095D01*
X101988905Y-179272952D01*
X101417476Y-179844381D01*
X102036524Y-179844381D01*
X102512714Y-179844381D02*
X102703190Y-179844381D01*
X102798429Y-179796762D01*
X102846048Y-179749143D01*
X102941286Y-179606286D01*
X102988905Y-179415810D01*
X102988905Y-179034857D01*
X102941286Y-178939619D01*
X102893667Y-178892000D01*
X102798429Y-178844381D01*
X102607952Y-178844381D01*
X102512714Y-178892000D01*
X102465095Y-178939619D01*
X102417476Y-179034857D01*
X102417476Y-179272952D01*
X102465095Y-179368190D01*
X102512714Y-179415810D01*
X102607952Y-179463429D01*
X102798429Y-179463429D01*
X102893667Y-179415810D01*
X102941286Y-179368190D01*
X102988905Y-179272952D01*
X131048238Y-172172381D02*
X131286333Y-173172381D01*
X131476810Y-172458095D01*
X131667286Y-173172381D01*
X131905381Y-172172381D01*
X132810143Y-173172381D02*
X132238714Y-173172381D01*
X132524428Y-173172381D02*
X132524428Y-172172381D01*
X132429190Y-172315238D01*
X132333952Y-172410476D01*
X132238714Y-172458095D01*
X48347334Y-77038381D02*
X48014000Y-76562190D01*
X47775905Y-77038381D02*
X47775905Y-76038381D01*
X48156858Y-76038381D01*
X48252096Y-76086000D01*
X48299715Y-76133619D01*
X48347334Y-76228857D01*
X48347334Y-76371714D01*
X48299715Y-76466952D01*
X48252096Y-76514571D01*
X48156858Y-76562190D01*
X47775905Y-76562190D01*
X48918762Y-76466952D02*
X48823524Y-76419333D01*
X48775905Y-76371714D01*
X48728286Y-76276476D01*
X48728286Y-76228857D01*
X48775905Y-76133619D01*
X48823524Y-76086000D01*
X48918762Y-76038381D01*
X49109239Y-76038381D01*
X49204477Y-76086000D01*
X49252096Y-76133619D01*
X49299715Y-76228857D01*
X49299715Y-76276476D01*
X49252096Y-76371714D01*
X49204477Y-76419333D01*
X49109239Y-76466952D01*
X48918762Y-76466952D01*
X48823524Y-76514571D01*
X48775905Y-76562190D01*
X48728286Y-76657429D01*
X48728286Y-76847905D01*
X48775905Y-76943143D01*
X48823524Y-76990762D01*
X48918762Y-77038381D01*
X49109239Y-77038381D01*
X49204477Y-76990762D01*
X49252096Y-76943143D01*
X49299715Y-76847905D01*
X49299715Y-76657429D01*
X49252096Y-76562190D01*
X49204477Y-76514571D01*
X49109239Y-76466952D01*
M02*
