G04 #@! TF.FileFunction,Soldermask,Top*
%FSLAX46Y46*%
G04 Gerber Fmt 4.6, Leading zero omitted, Abs format (unit mm)*
G04 Created by KiCad (PCBNEW 4.0.2-stable) date 9/9/2016 3:28:37 PM*
%MOMM*%
G01*
G04 APERTURE LIST*
%ADD10C,0.100000*%
%ADD11R,1.950000X1.000000*%
%ADD12O,2.432000X2.127200*%
%ADD13R,2.432000X2.127200*%
%ADD14R,1.900000X1.000000*%
%ADD15R,1.900000X1.650000*%
%ADD16R,1.150000X1.600000*%
%ADD17R,1.600000X1.150000*%
%ADD18R,1.000000X0.900000*%
%ADD19R,1.650000X1.900000*%
%ADD20R,1.200100X1.200100*%
%ADD21C,1.400760*%
%ADD22R,1.900000X1.700000*%
%ADD23R,1.300000X1.600000*%
%ADD24R,1.600000X1.300000*%
%ADD25R,1.800000X0.700000*%
%ADD26C,2.910000*%
%ADD27O,1.901140X2.899360*%
%ADD28R,1.400000X1.700000*%
%ADD29C,6.200000*%
%ADD30C,2.940000*%
%ADD31C,1.670000*%
%ADD32C,4.900000*%
%ADD33C,2.400000*%
%ADD34C,4.464000*%
G04 APERTURE END LIST*
D10*
D11*
X44036000Y-93599000D03*
X44036000Y-94869000D03*
X44036000Y-96139000D03*
X44036000Y-97409000D03*
X49436000Y-97409000D03*
X49436000Y-96139000D03*
X49436000Y-94869000D03*
X49436000Y-93599000D03*
D12*
X172212000Y-164084000D03*
X172212000Y-161544000D03*
X172212000Y-159004000D03*
X172212000Y-156464000D03*
X172212000Y-153924000D03*
X172212000Y-151384000D03*
X172212000Y-148844000D03*
X172212000Y-146304000D03*
X172212000Y-143764000D03*
X172212000Y-141224000D03*
X172212000Y-138684000D03*
D13*
X172212000Y-136144000D03*
X172212000Y-136144000D03*
D12*
X172212000Y-138684000D03*
X172212000Y-141224000D03*
X172212000Y-143764000D03*
X172212000Y-146304000D03*
X172212000Y-148844000D03*
X172212000Y-151384000D03*
X172212000Y-153924000D03*
X172212000Y-156464000D03*
X172212000Y-159004000D03*
X172212000Y-161544000D03*
X172212000Y-164084000D03*
X154432000Y-164084000D03*
X154432000Y-161544000D03*
X154432000Y-159004000D03*
X154432000Y-156464000D03*
X154432000Y-153924000D03*
X154432000Y-151384000D03*
X154432000Y-148844000D03*
X154432000Y-146304000D03*
X154432000Y-143764000D03*
X154432000Y-141224000D03*
X154432000Y-138684000D03*
D13*
X154432000Y-136144000D03*
X154432000Y-136144000D03*
D12*
X154432000Y-138684000D03*
X154432000Y-141224000D03*
X154432000Y-143764000D03*
X154432000Y-146304000D03*
X154432000Y-148844000D03*
X154432000Y-151384000D03*
X154432000Y-153924000D03*
X154432000Y-156464000D03*
X154432000Y-159004000D03*
X154432000Y-161544000D03*
X154432000Y-164084000D03*
D14*
X78834000Y-161163000D03*
X78834000Y-162433000D03*
X78834000Y-163703000D03*
X78834000Y-164973000D03*
X78834000Y-166243000D03*
X78834000Y-167513000D03*
X78834000Y-168783000D03*
X78834000Y-170053000D03*
X84234000Y-170053000D03*
X84234000Y-168783000D03*
X84234000Y-167513000D03*
X84234000Y-166243000D03*
X84234000Y-164973000D03*
X84234000Y-163703000D03*
X84234000Y-162433000D03*
X84234000Y-161163000D03*
D15*
X52852000Y-117983000D03*
X55352000Y-117983000D03*
X40620000Y-118364000D03*
X38120000Y-118364000D03*
D16*
X38989000Y-141158000D03*
X38989000Y-139258000D03*
D15*
X55646000Y-155448000D03*
X58146000Y-155448000D03*
D17*
X48194000Y-135636000D03*
X46294000Y-135636000D03*
D18*
X51096000Y-132588000D03*
X49996000Y-132588000D03*
D19*
X53340000Y-141498000D03*
X53340000Y-143998000D03*
X41402000Y-146451000D03*
X41402000Y-148951000D03*
D15*
X115717000Y-137795000D03*
X118217000Y-137795000D03*
X106152000Y-145542000D03*
X103652000Y-145542000D03*
D16*
X38608000Y-104460000D03*
X38608000Y-106360000D03*
X116840000Y-143952000D03*
X116840000Y-142052000D03*
D17*
X47564000Y-82804000D03*
X49464000Y-82804000D03*
D15*
X54376000Y-94996000D03*
X56876000Y-94996000D03*
X36342000Y-100584000D03*
X38842000Y-100584000D03*
X115082000Y-73914000D03*
X117582000Y-73914000D03*
X100564000Y-78232000D03*
X98064000Y-78232000D03*
D16*
X36830000Y-160594000D03*
X36830000Y-162494000D03*
D15*
X45700000Y-171450000D03*
X43200000Y-171450000D03*
D19*
X65024000Y-98064000D03*
X65024000Y-100564000D03*
D15*
X78760000Y-93472000D03*
X81260000Y-93472000D03*
X55646000Y-163322000D03*
X58146000Y-163322000D03*
D17*
X127574000Y-140716000D03*
X129474000Y-140716000D03*
D15*
X126766000Y-145796000D03*
X129266000Y-145796000D03*
D19*
X131318000Y-169398000D03*
X131318000Y-166898000D03*
X141986000Y-165120000D03*
X141986000Y-167620000D03*
D15*
X143784000Y-157099000D03*
X146284000Y-157099000D03*
X154412000Y-131064000D03*
X151912000Y-131064000D03*
D17*
X132400000Y-94742000D03*
X134300000Y-94742000D03*
X146238000Y-78359000D03*
X144338000Y-78359000D03*
X163134000Y-82550000D03*
X165034000Y-82550000D03*
D19*
X142494000Y-103652000D03*
X142494000Y-106152000D03*
D17*
X153604000Y-111506000D03*
X151704000Y-111506000D03*
D15*
X150134000Y-94742000D03*
X152634000Y-94742000D03*
X164485000Y-94615000D03*
X166985000Y-94615000D03*
X157500000Y-100330000D03*
X160000000Y-100330000D03*
D19*
X169926000Y-115844000D03*
X169926000Y-118344000D03*
D15*
X152126000Y-100330000D03*
X149626000Y-100330000D03*
X167112000Y-100584000D03*
X164612000Y-100584000D03*
X89134000Y-174498000D03*
X86634000Y-174498000D03*
D19*
X123063000Y-122027000D03*
X123063000Y-119527000D03*
D15*
X72664000Y-165100000D03*
X75164000Y-165100000D03*
X89428000Y-164846000D03*
X91928000Y-164846000D03*
D19*
X74168000Y-144252000D03*
X74168000Y-141752000D03*
D16*
X75438000Y-132146000D03*
X75438000Y-134046000D03*
D19*
X102616000Y-103398000D03*
X102616000Y-105898000D03*
X87122000Y-136124000D03*
X87122000Y-133624000D03*
D15*
X86380000Y-114300000D03*
X88880000Y-114300000D03*
D19*
X101854000Y-90404000D03*
X101854000Y-87904000D03*
D15*
X121392000Y-158496000D03*
X118892000Y-158496000D03*
X105938000Y-166878000D03*
X108438000Y-166878000D03*
D20*
X63820000Y-180070760D03*
X65720000Y-180070760D03*
X64770000Y-178071780D03*
X55692000Y-180070760D03*
X57592000Y-180070760D03*
X56642000Y-178071780D03*
X114112000Y-177784760D03*
X116012000Y-177784760D03*
X115062000Y-175785780D03*
X105730000Y-177784760D03*
X107630000Y-177784760D03*
X106680000Y-175785780D03*
D21*
X170942000Y-82550000D03*
X172212000Y-83820000D03*
X169672000Y-83820000D03*
X149860000Y-82804000D03*
X151130000Y-84074000D03*
X148590000Y-84074000D03*
D22*
X72216000Y-177038000D03*
X69516000Y-177038000D03*
X49831000Y-179832000D03*
X52531000Y-179832000D03*
D23*
X38989000Y-135593000D03*
X38989000Y-133393000D03*
X33782000Y-135720000D03*
X33782000Y-133520000D03*
X53340000Y-149014000D03*
X53340000Y-151214000D03*
D24*
X110574000Y-149606000D03*
X108374000Y-149606000D03*
D23*
X46482000Y-147490000D03*
X46482000Y-149690000D03*
X46228000Y-126662000D03*
X46228000Y-128862000D03*
X52070000Y-138006000D03*
X52070000Y-135806000D03*
X101854000Y-138260000D03*
X101854000Y-136060000D03*
X38608000Y-109136000D03*
X38608000Y-111336000D03*
X41148000Y-88984000D03*
X41148000Y-86784000D03*
X44704000Y-108120000D03*
X44704000Y-110320000D03*
D24*
X115486000Y-131318000D03*
X117686000Y-131318000D03*
X46947000Y-104521000D03*
X44747000Y-104521000D03*
X40978000Y-96266000D03*
X38778000Y-96266000D03*
D23*
X121412000Y-141902000D03*
X121412000Y-144102000D03*
X99949000Y-71925000D03*
X99949000Y-74125000D03*
D24*
X102278000Y-69850000D03*
X104478000Y-69850000D03*
X42080000Y-177546000D03*
X44280000Y-177546000D03*
D23*
X42418000Y-160444000D03*
X42418000Y-162644000D03*
D24*
X152316000Y-78486000D03*
X154516000Y-78486000D03*
X170985000Y-76200000D03*
X173185000Y-76200000D03*
X78148000Y-146812000D03*
X80348000Y-146812000D03*
X95588000Y-171196000D03*
X93388000Y-171196000D03*
X107485000Y-122301000D03*
X109685000Y-122301000D03*
X92118000Y-121158000D03*
X94318000Y-121158000D03*
D23*
X85852000Y-147744000D03*
X85852000Y-149944000D03*
X87376000Y-105748000D03*
X87376000Y-103548000D03*
D24*
X80434000Y-132080000D03*
X82634000Y-132080000D03*
X93810000Y-102616000D03*
X91610000Y-102616000D03*
X88054000Y-130048000D03*
X90254000Y-130048000D03*
D23*
X104394000Y-109136000D03*
X104394000Y-111336000D03*
X112776000Y-168232000D03*
X112776000Y-166032000D03*
D24*
X118702000Y-170434000D03*
X116502000Y-170434000D03*
X148760000Y-89408000D03*
X150960000Y-89408000D03*
X169715000Y-89535000D03*
X171915000Y-89535000D03*
D14*
X44036000Y-114427000D03*
X44036000Y-115697000D03*
X44036000Y-116967000D03*
X44036000Y-118237000D03*
X44036000Y-119507000D03*
X44036000Y-120777000D03*
X44036000Y-122047000D03*
X44036000Y-123317000D03*
X49436000Y-123317000D03*
X49436000Y-122047000D03*
X49436000Y-120777000D03*
X49436000Y-119507000D03*
X49436000Y-118237000D03*
X49436000Y-116967000D03*
X49436000Y-115697000D03*
X49436000Y-114427000D03*
D11*
X43782000Y-140081000D03*
X43782000Y-141351000D03*
X43782000Y-142621000D03*
X43782000Y-143891000D03*
X49182000Y-143891000D03*
X49182000Y-142621000D03*
X49182000Y-141351000D03*
X49182000Y-140081000D03*
X46576000Y-163703000D03*
X46576000Y-164973000D03*
X46576000Y-166243000D03*
X46576000Y-167513000D03*
X51976000Y-167513000D03*
X51976000Y-166243000D03*
X51976000Y-164973000D03*
X51976000Y-163703000D03*
X105377000Y-74168000D03*
X105377000Y-75438000D03*
X105377000Y-76708000D03*
X105377000Y-77978000D03*
X110777000Y-77978000D03*
X110777000Y-76708000D03*
X110777000Y-75438000D03*
X110777000Y-74168000D03*
X68674000Y-93853000D03*
X68674000Y-95123000D03*
X68674000Y-96393000D03*
X68674000Y-97663000D03*
X74074000Y-97663000D03*
X74074000Y-96393000D03*
X74074000Y-95123000D03*
X74074000Y-93853000D03*
X78072000Y-137287000D03*
X78072000Y-138557000D03*
X78072000Y-139827000D03*
X78072000Y-141097000D03*
X83472000Y-141097000D03*
X83472000Y-139827000D03*
X83472000Y-138557000D03*
X83472000Y-137287000D03*
X93058000Y-107569000D03*
X93058000Y-108839000D03*
X93058000Y-110109000D03*
X93058000Y-111379000D03*
X98458000Y-111379000D03*
X98458000Y-110109000D03*
X98458000Y-108839000D03*
X98458000Y-107569000D03*
X109060000Y-158877000D03*
X109060000Y-160147000D03*
X109060000Y-161417000D03*
X109060000Y-162687000D03*
X114460000Y-162687000D03*
X114460000Y-161417000D03*
X114460000Y-160147000D03*
X114460000Y-158877000D03*
X133952000Y-144653000D03*
X133952000Y-145923000D03*
X133952000Y-147193000D03*
X133952000Y-148463000D03*
X139352000Y-148463000D03*
X139352000Y-147193000D03*
X139352000Y-145923000D03*
X139352000Y-144653000D03*
D25*
X137246000Y-170450000D03*
X137246000Y-170950000D03*
X137246000Y-171450000D03*
X137246000Y-171950000D03*
X137246000Y-172450000D03*
X141646000Y-172450000D03*
X141646000Y-171950000D03*
X141646000Y-171450000D03*
X141646000Y-170950000D03*
X141646000Y-170450000D03*
D11*
X133698000Y-157226000D03*
X133698000Y-158496000D03*
X133698000Y-159766000D03*
X133698000Y-161036000D03*
X139098000Y-161036000D03*
X139098000Y-159766000D03*
X139098000Y-158496000D03*
X139098000Y-157226000D03*
D26*
X154655000Y-70985000D03*
X159735000Y-70985000D03*
X164815000Y-70985000D03*
D27*
X134366000Y-103378000D03*
X131826000Y-103378000D03*
X136906000Y-103378000D03*
X160528000Y-116205000D03*
X157988000Y-116205000D03*
X163068000Y-116205000D03*
D11*
X113505000Y-120904000D03*
X113505000Y-122174000D03*
X113505000Y-123444000D03*
X113505000Y-124714000D03*
X118905000Y-124714000D03*
X118905000Y-123444000D03*
X118905000Y-122174000D03*
X118905000Y-120904000D03*
X92042000Y-89535000D03*
X92042000Y-90805000D03*
X92042000Y-92075000D03*
X92042000Y-93345000D03*
X97442000Y-93345000D03*
X97442000Y-92075000D03*
X97442000Y-90805000D03*
X97442000Y-89535000D03*
X106774000Y-138049000D03*
X106774000Y-139319000D03*
X106774000Y-140589000D03*
X106774000Y-141859000D03*
X112174000Y-141859000D03*
X112174000Y-140589000D03*
X112174000Y-139319000D03*
X112174000Y-138049000D03*
D28*
X108531600Y-132273200D03*
X105031600Y-132273200D03*
X106781600Y-128473200D03*
X86941600Y-125923200D03*
X83441600Y-125923200D03*
X85191600Y-122123200D03*
D29*
X40503000Y-187698000D03*
X34158000Y-193198000D03*
X34158000Y-199898000D03*
X63617000Y-187698000D03*
X57272000Y-193198000D03*
X57272000Y-199898000D03*
X134864000Y-187444000D03*
X128519000Y-192944000D03*
X128519000Y-199644000D03*
X110861000Y-187444000D03*
X104516000Y-192944000D03*
X104516000Y-199644000D03*
X86858000Y-187698000D03*
X80513000Y-193198000D03*
X80513000Y-199898000D03*
D30*
X51562000Y-51562000D03*
X41402000Y-51562000D03*
D31*
X46482000Y-57912000D03*
X46482000Y-60452000D03*
X43942000Y-60452000D03*
X49022000Y-60452000D03*
D30*
X71120000Y-51562000D03*
X60960000Y-51562000D03*
D31*
X66040000Y-57912000D03*
X66040000Y-60452000D03*
X63500000Y-60452000D03*
X68580000Y-60452000D03*
D30*
X90678000Y-51562000D03*
X80518000Y-51562000D03*
D31*
X85598000Y-57912000D03*
X85598000Y-60452000D03*
X83058000Y-60452000D03*
X88138000Y-60452000D03*
D30*
X110744000Y-51562000D03*
X100584000Y-51562000D03*
D31*
X105664000Y-57912000D03*
X105664000Y-60452000D03*
X103124000Y-60452000D03*
X108204000Y-60452000D03*
D30*
X172085000Y-185547000D03*
X167386000Y-185547000D03*
X176784000Y-185547000D03*
X169545000Y-198247000D03*
X174625000Y-198247000D03*
X158623000Y-185547000D03*
X153924000Y-185547000D03*
X163322000Y-185547000D03*
X156083000Y-198247000D03*
X161163000Y-198247000D03*
X145034000Y-185547000D03*
X140335000Y-185547000D03*
X149733000Y-185547000D03*
X142494000Y-198247000D03*
X147574000Y-198247000D03*
X120777000Y-185547000D03*
X116078000Y-185547000D03*
X125476000Y-185547000D03*
X118237000Y-198247000D03*
X123317000Y-198247000D03*
X96774000Y-185674000D03*
X92075000Y-185674000D03*
X101473000Y-185674000D03*
X94234000Y-198374000D03*
X99314000Y-198374000D03*
D15*
X52471000Y-124079000D03*
X54971000Y-124079000D03*
X89428000Y-167640000D03*
X91928000Y-167640000D03*
D32*
X169492000Y-54746000D03*
X144452000Y-54746000D03*
D33*
X161127000Y-53326000D03*
X158357000Y-53326000D03*
X155587000Y-53326000D03*
X152817000Y-53326000D03*
X162512000Y-56166000D03*
X159742000Y-56166000D03*
X156972000Y-56166000D03*
X154202000Y-56166000D03*
X151432000Y-56166000D03*
D22*
X121365000Y-177673000D03*
X118665000Y-177673000D03*
X103077000Y-177292000D03*
X100377000Y-177292000D03*
D34*
X131953000Y-175768000D03*
D24*
X47414000Y-78486000D03*
X49614000Y-78486000D03*
M02*
