G04 #@! TF.FileFunction,Copper,L2,Bot,Signal*
%FSLAX46Y46*%
G04 Gerber Fmt 4.6, Leading zero omitted, Abs format (unit mm)*
G04 Created by KiCad (PCBNEW 4.0.2-stable) date 9/9/2016 3:28:36 PM*
%MOMM*%
G01*
G04 APERTURE LIST*
%ADD10C,0.100000*%
%ADD11C,0.600000*%
%ADD12O,2.032000X1.727200*%
%ADD13R,2.032000X1.727200*%
%ADD14C,1.000760*%
%ADD15C,2.510000*%
%ADD16O,1.501140X2.499360*%
%ADD17C,5.800000*%
%ADD18C,2.540000*%
%ADD19C,1.270000*%
%ADD20C,4.500000*%
%ADD21C,2.000000*%
%ADD22C,4.064000*%
%ADD23C,0.400000*%
%ADD24C,0.180000*%
%ADD25C,0.254000*%
G04 APERTURE END LIST*
D10*
D11*
X59944000Y-167386000D03*
X58928000Y-165989000D03*
X109601000Y-170053000D03*
X104521000Y-174752000D03*
X137033000Y-157988000D03*
X141859000Y-149479000D03*
X141351000Y-156210000D03*
X128016000Y-166624000D03*
X112776000Y-145542000D03*
X112776000Y-144018000D03*
X84455000Y-134112000D03*
X40259000Y-123063000D03*
X40259000Y-121412000D03*
X49784000Y-125095000D03*
X107696000Y-125095000D03*
X117475000Y-139827000D03*
D12*
X172212000Y-164084000D03*
X172212000Y-161544000D03*
X172212000Y-159004000D03*
X172212000Y-156464000D03*
X172212000Y-153924000D03*
X172212000Y-151384000D03*
X172212000Y-148844000D03*
X172212000Y-146304000D03*
X172212000Y-143764000D03*
X172212000Y-141224000D03*
X172212000Y-138684000D03*
D13*
X172212000Y-136144000D03*
X172212000Y-136144000D03*
D12*
X172212000Y-138684000D03*
X172212000Y-141224000D03*
X172212000Y-143764000D03*
X172212000Y-146304000D03*
X172212000Y-148844000D03*
X172212000Y-151384000D03*
X172212000Y-153924000D03*
X172212000Y-156464000D03*
X172212000Y-159004000D03*
X172212000Y-161544000D03*
X172212000Y-164084000D03*
X154432000Y-164084000D03*
X154432000Y-161544000D03*
X154432000Y-159004000D03*
X154432000Y-156464000D03*
X154432000Y-153924000D03*
X154432000Y-151384000D03*
X154432000Y-148844000D03*
X154432000Y-146304000D03*
X154432000Y-143764000D03*
X154432000Y-141224000D03*
X154432000Y-138684000D03*
D13*
X154432000Y-136144000D03*
X154432000Y-136144000D03*
D12*
X154432000Y-138684000D03*
X154432000Y-141224000D03*
X154432000Y-143764000D03*
X154432000Y-146304000D03*
X154432000Y-148844000D03*
X154432000Y-151384000D03*
X154432000Y-153924000D03*
X154432000Y-156464000D03*
X154432000Y-159004000D03*
X154432000Y-161544000D03*
X154432000Y-164084000D03*
D14*
X170942000Y-82550000D03*
X172212000Y-83820000D03*
X169672000Y-83820000D03*
X149860000Y-82804000D03*
X151130000Y-84074000D03*
X148590000Y-84074000D03*
D15*
X154655000Y-70985000D03*
X159735000Y-70985000D03*
X164815000Y-70985000D03*
D16*
X134366000Y-103378000D03*
X131826000Y-103378000D03*
X136906000Y-103378000D03*
X160528000Y-116205000D03*
X157988000Y-116205000D03*
X163068000Y-116205000D03*
D17*
X40503000Y-187698000D03*
X34158000Y-193198000D03*
X34158000Y-199898000D03*
X63617000Y-187698000D03*
X57272000Y-193198000D03*
X57272000Y-199898000D03*
X134864000Y-187444000D03*
X128519000Y-192944000D03*
X128519000Y-199644000D03*
X110861000Y-187444000D03*
X104516000Y-192944000D03*
X104516000Y-199644000D03*
X86858000Y-187698000D03*
X80513000Y-193198000D03*
X80513000Y-199898000D03*
D18*
X51562000Y-51562000D03*
X41402000Y-51562000D03*
D19*
X46482000Y-57912000D03*
X46482000Y-60452000D03*
X43942000Y-60452000D03*
X49022000Y-60452000D03*
D18*
X71120000Y-51562000D03*
X60960000Y-51562000D03*
D19*
X66040000Y-57912000D03*
X66040000Y-60452000D03*
X63500000Y-60452000D03*
X68580000Y-60452000D03*
D18*
X90678000Y-51562000D03*
X80518000Y-51562000D03*
D19*
X85598000Y-57912000D03*
X85598000Y-60452000D03*
X83058000Y-60452000D03*
X88138000Y-60452000D03*
D18*
X110744000Y-51562000D03*
X100584000Y-51562000D03*
D19*
X105664000Y-57912000D03*
X105664000Y-60452000D03*
X103124000Y-60452000D03*
X108204000Y-60452000D03*
D18*
X172085000Y-185547000D03*
X167386000Y-185547000D03*
X176784000Y-185547000D03*
X169545000Y-198247000D03*
X174625000Y-198247000D03*
X158623000Y-185547000D03*
X153924000Y-185547000D03*
X163322000Y-185547000D03*
X156083000Y-198247000D03*
X161163000Y-198247000D03*
X145034000Y-185547000D03*
X140335000Y-185547000D03*
X149733000Y-185547000D03*
X142494000Y-198247000D03*
X147574000Y-198247000D03*
X120777000Y-185547000D03*
X116078000Y-185547000D03*
X125476000Y-185547000D03*
X118237000Y-198247000D03*
X123317000Y-198247000D03*
X96774000Y-185674000D03*
X92075000Y-185674000D03*
X101473000Y-185674000D03*
X94234000Y-198374000D03*
X99314000Y-198374000D03*
D20*
X169492000Y-54746000D03*
X144452000Y-54746000D03*
D21*
X161127000Y-53326000D03*
X158357000Y-53326000D03*
X155587000Y-53326000D03*
X152817000Y-53326000D03*
X162512000Y-56166000D03*
X159742000Y-56166000D03*
X156972000Y-56166000D03*
X154202000Y-56166000D03*
X151432000Y-56166000D03*
D11*
X56134000Y-119888000D03*
X119634000Y-139700000D03*
X109982000Y-125095000D03*
D22*
X131953000Y-175768000D03*
D11*
X81788000Y-166116000D03*
X61214000Y-93980000D03*
X58166000Y-135128000D03*
X56134000Y-140208000D03*
X56642000Y-160020000D03*
X62738000Y-155194000D03*
X70104000Y-174498000D03*
X89154000Y-135128000D03*
X120142000Y-134112000D03*
X100330000Y-104902000D03*
X55880000Y-92456000D03*
X76454000Y-92202000D03*
X66802000Y-88392000D03*
X103886000Y-143510000D03*
X78994000Y-143510000D03*
X71374000Y-113792000D03*
X86360000Y-116840000D03*
X68580000Y-99568000D03*
X35941000Y-121031000D03*
X37846000Y-144526000D03*
X41656000Y-175768000D03*
X48006000Y-178054000D03*
X36576000Y-92456000D03*
X163576000Y-87884000D03*
X106934000Y-84328000D03*
X122301000Y-149733000D03*
X119126000Y-141986000D03*
X52578000Y-96520000D03*
X66802000Y-96266000D03*
X42545000Y-181610000D03*
X87630000Y-181610000D03*
X135636000Y-118872000D03*
X124714000Y-121920000D03*
X93472000Y-151003000D03*
X145796000Y-151003000D03*
X52471000Y-121178000D03*
X91186000Y-172466000D03*
X108712000Y-172720000D03*
X31750000Y-183007000D03*
X37973000Y-59055000D03*
X112268000Y-183388000D03*
X112268000Y-177800000D03*
X111760000Y-161036000D03*
X75946000Y-179578000D03*
X60452000Y-183769000D03*
X69088000Y-106680000D03*
X77724000Y-179832000D03*
X49149000Y-104521000D03*
X105664000Y-122428000D03*
X102616000Y-122428000D03*
X42164000Y-114427000D03*
X52070000Y-114300000D03*
X57658000Y-117475000D03*
X65151000Y-150114000D03*
X44069000Y-124714000D03*
X148971000Y-169164000D03*
X85979000Y-170053000D03*
X148209000Y-155194000D03*
X149606000Y-168529000D03*
X148844000Y-154686000D03*
X85852000Y-161163000D03*
X77089000Y-169926000D03*
X125222000Y-163830000D03*
X116840000Y-161544000D03*
X136779000Y-175133000D03*
X143002000Y-173736000D03*
X173101000Y-172466000D03*
X172593000Y-171704000D03*
X145542000Y-171958000D03*
X146812000Y-170180000D03*
X176403000Y-170180000D03*
X32004000Y-181991000D03*
X38227000Y-60071000D03*
D23*
X384556000Y-132334000D02*
X384810000Y-132080000D01*
X385064000Y-132080000D02*
X385064000Y-132334000D01*
X384810000Y-132080000D02*
X385064000Y-132080000D01*
X384556000Y-132334000D02*
X384556000Y-132842000D01*
X384556000Y-132842000D02*
X385064000Y-132334000D01*
X385064000Y-132334000D02*
X385318000Y-132080000D01*
X384556000Y-132080000D02*
X385318000Y-132080000D01*
X384556000Y-132334000D02*
X384556000Y-132080000D01*
X68580000Y-172974000D02*
X79248000Y-172974000D01*
X81788000Y-170434000D02*
X81788000Y-166116000D01*
X79248000Y-172974000D02*
X81788000Y-170434000D01*
X61214000Y-93980000D02*
X61214000Y-92202000D01*
X58166000Y-138176000D02*
X58166000Y-135128000D01*
X56134000Y-140208000D02*
X58166000Y-138176000D01*
X59309000Y-157353000D02*
X64897000Y-157353000D01*
X56642000Y-160020000D02*
X59309000Y-157353000D01*
X62738000Y-155194000D02*
X64897000Y-157353000D01*
X64897000Y-157353000D02*
X66548000Y-159004000D01*
X66548000Y-159004000D02*
X66548000Y-170942000D01*
X66548000Y-170942000D02*
X68580000Y-172974000D01*
X68580000Y-172974000D02*
X70104000Y-174498000D01*
X120142000Y-130810000D02*
X93472000Y-130810000D01*
X93472000Y-130810000D02*
X89154000Y-135128000D01*
X125730000Y-103124000D02*
X125730000Y-111506000D01*
X120142000Y-130810000D02*
X120142000Y-134112000D01*
X120142000Y-117094000D02*
X120142000Y-130810000D01*
X125730000Y-111506000D02*
X120142000Y-117094000D01*
X98552000Y-103124000D02*
X125730000Y-103124000D01*
X125730000Y-103124000D02*
X131572000Y-103124000D01*
X131572000Y-103124000D02*
X131826000Y-103378000D01*
X75184000Y-92202000D02*
X87630000Y-92202000D01*
X87630000Y-92202000D02*
X98552000Y-103124000D01*
X98552000Y-103124000D02*
X100330000Y-104902000D01*
X55880000Y-92456000D02*
X56134000Y-92202000D01*
X56134000Y-92202000D02*
X61214000Y-92202000D01*
X61214000Y-92202000D02*
X75184000Y-92202000D01*
X75184000Y-92202000D02*
X76454000Y-92202000D01*
X66802000Y-88392000D02*
X68580000Y-86614000D01*
X78994000Y-143510000D02*
X103886000Y-143510000D01*
X71374000Y-113792000D02*
X71374000Y-110490000D01*
X86360000Y-116840000D02*
X77724000Y-116840000D01*
X77724000Y-116840000D02*
X71374000Y-110490000D01*
X71374000Y-110490000D02*
X71374000Y-102362000D01*
X71374000Y-102362000D02*
X68580000Y-99568000D01*
X33782000Y-95250000D02*
X33782000Y-118872000D01*
X36576000Y-92456000D02*
X33782000Y-95250000D01*
X33782000Y-118872000D02*
X35941000Y-121031000D01*
X35941000Y-121031000D02*
X37846000Y-122936000D01*
X37846000Y-122936000D02*
X37846000Y-144526000D01*
X45720000Y-175768000D02*
X48006000Y-178054000D01*
X40132000Y-175768000D02*
X41656000Y-175768000D01*
X37846000Y-144526000D02*
X37846000Y-173482000D01*
X37846000Y-173482000D02*
X40132000Y-175768000D01*
X41656000Y-175768000D02*
X45720000Y-175768000D01*
X109220000Y-86614000D02*
X68580000Y-86614000D01*
X68580000Y-86614000D02*
X42418000Y-86614000D01*
X42418000Y-86614000D02*
X36576000Y-92456000D01*
X110490000Y-87884000D02*
X163576000Y-87884000D01*
X106934000Y-84328000D02*
X109220000Y-86614000D01*
X109220000Y-86614000D02*
X110490000Y-87884000D01*
D24*
X122301000Y-149733000D02*
X120904000Y-148336000D01*
X120904000Y-148336000D02*
X119126000Y-146558000D01*
X119126000Y-146558000D02*
X119126000Y-141986000D01*
X66548000Y-96520000D02*
X52578000Y-96520000D01*
X66802000Y-96266000D02*
X66548000Y-96520000D01*
X87630000Y-181610000D02*
X42545000Y-181610000D01*
X132334000Y-122174000D02*
X135636000Y-118872000D01*
X124968000Y-122174000D02*
X132334000Y-122174000D01*
X124714000Y-121920000D02*
X124968000Y-122174000D01*
X59436000Y-125857000D02*
X60071000Y-125857000D01*
X60071000Y-125857000D02*
X65913000Y-131699000D01*
X65913000Y-131699000D02*
X65913000Y-149352000D01*
X65913000Y-149352000D02*
X66548000Y-149987000D01*
X93472000Y-151003000D02*
X92837000Y-151003000D01*
X65913000Y-149352000D02*
X66548000Y-149987000D01*
X66548000Y-149987000D02*
X67310000Y-150749000D01*
X67310000Y-150749000D02*
X67564000Y-151003000D01*
X67564000Y-151003000D02*
X92837000Y-151003000D01*
X92837000Y-151003000D02*
X145796000Y-151003000D01*
X57150000Y-125857000D02*
X52471000Y-121178000D01*
X57150000Y-125857000D02*
X59436000Y-125857000D01*
X108458000Y-172466000D02*
X91186000Y-172466000D01*
X108712000Y-172720000D02*
X108458000Y-172466000D01*
X93980000Y-183007000D02*
X94107000Y-183007000D01*
X94107000Y-183007000D02*
X95631000Y-184531000D01*
X95631000Y-184531000D02*
X96774000Y-185674000D01*
X96774000Y-185039000D02*
X96774000Y-184912000D01*
X93980000Y-183007000D02*
X31750000Y-183007000D01*
X37973000Y-59055000D02*
X41021000Y-56007000D01*
X41021000Y-56007000D02*
X83693000Y-56007000D01*
X83693000Y-56007000D02*
X85598000Y-57912000D01*
X112268000Y-183388000D02*
X114046000Y-185166000D01*
X114046000Y-185166000D02*
X115697000Y-185166000D01*
X115697000Y-185166000D02*
X116078000Y-185547000D01*
X112268000Y-161544000D02*
X112268000Y-177800000D01*
X111760000Y-161036000D02*
X112268000Y-161544000D01*
X120650000Y-180848000D02*
X120777000Y-180848000D01*
X120777000Y-180848000D02*
X125476000Y-185547000D01*
X77216000Y-180848000D02*
X120650000Y-180848000D01*
X75946000Y-179578000D02*
X77216000Y-180848000D01*
X87249000Y-183642000D02*
X87757000Y-183642000D01*
X99314000Y-187833000D02*
X101473000Y-185674000D01*
X91948000Y-187833000D02*
X99314000Y-187833000D01*
X87757000Y-183642000D02*
X91948000Y-187833000D01*
X60579000Y-183642000D02*
X87249000Y-183642000D01*
X60452000Y-183769000D02*
X60579000Y-183642000D01*
X134864000Y-187444000D02*
X131818000Y-187444000D01*
X66802000Y-104394000D02*
X49276000Y-104394000D01*
X69088000Y-106680000D02*
X66802000Y-104394000D01*
X124206000Y-179832000D02*
X77724000Y-179832000D01*
X131818000Y-187444000D02*
X124206000Y-179832000D01*
X49149000Y-104521000D02*
X49276000Y-104394000D01*
X102616000Y-122428000D02*
X105664000Y-122428000D01*
X57785000Y-127508000D02*
X58420000Y-127508000D01*
X58420000Y-127508000D02*
X63881000Y-132969000D01*
X63881000Y-132969000D02*
X63881000Y-151638000D01*
X63881000Y-151638000D02*
X64389000Y-152146000D01*
X149352000Y-152908000D02*
X152908000Y-156464000D01*
X152908000Y-156464000D02*
X154432000Y-156464000D01*
X42291000Y-125730000D02*
X44069000Y-127508000D01*
X44069000Y-127508000D02*
X57785000Y-127508000D01*
X149352000Y-152908000D02*
X65151000Y-152908000D01*
X63881000Y-151638000D02*
X64389000Y-152146000D01*
X64389000Y-152146000D02*
X65151000Y-152908000D01*
X41656000Y-125095000D02*
X42291000Y-125730000D01*
X42164000Y-114427000D02*
X41656000Y-114935000D01*
X41656000Y-114935000D02*
X41656000Y-125095000D01*
X52070000Y-114300000D02*
X52959000Y-114300000D01*
X148844000Y-151638000D02*
X154178000Y-151638000D01*
X54483000Y-114300000D02*
X52959000Y-114300000D01*
X57658000Y-117475000D02*
X54483000Y-114300000D01*
X66675000Y-151638000D02*
X65151000Y-150114000D01*
X148844000Y-151638000D02*
X66675000Y-151638000D01*
X154178000Y-151638000D02*
X154432000Y-151384000D01*
X58039000Y-126746000D02*
X58928000Y-126746000D01*
X58928000Y-126746000D02*
X64516000Y-132334000D01*
X64516000Y-132334000D02*
X64516000Y-150876000D01*
X64516000Y-150876000D02*
X65532000Y-151892000D01*
X149098000Y-152273000D02*
X149987000Y-152273000D01*
X151638000Y-153924000D02*
X154432000Y-153924000D01*
X149987000Y-152273000D02*
X151638000Y-153924000D01*
X44069000Y-124714000D02*
X46101000Y-126746000D01*
X46101000Y-126746000D02*
X58039000Y-126746000D01*
X64516000Y-150876000D02*
X65532000Y-151892000D01*
X65532000Y-151892000D02*
X65913000Y-152273000D01*
X149098000Y-152273000D02*
X65913000Y-152273000D01*
X176784000Y-166116000D02*
X176784000Y-164719000D01*
X173101000Y-169799000D02*
X176784000Y-166116000D01*
X149606000Y-169799000D02*
X173101000Y-169799000D01*
X148971000Y-169164000D02*
X149606000Y-169799000D01*
X172212000Y-161544000D02*
X173863000Y-161544000D01*
X86868000Y-160938404D02*
X88660702Y-159145702D01*
X86868000Y-169164000D02*
X86868000Y-160938404D01*
X85979000Y-170053000D02*
X86868000Y-169164000D01*
X88660702Y-159116298D02*
X92964000Y-154813000D01*
X92964000Y-154813000D02*
X147828000Y-154813000D01*
X148209000Y-155194000D02*
X147828000Y-154813000D01*
X88660702Y-159145702D02*
X88660702Y-159116298D01*
X176784000Y-164719000D02*
X176784000Y-162560000D01*
X176784000Y-162560000D02*
X175768000Y-161544000D01*
X175768000Y-161544000D02*
X173863000Y-161544000D01*
X173736000Y-164084000D02*
X172212000Y-164084000D01*
X175260000Y-165608000D02*
X173736000Y-164084000D01*
X175260000Y-167005000D02*
X175260000Y-165608000D01*
X172846002Y-169418998D02*
X175260000Y-167005000D01*
X150495998Y-169418998D02*
X172846002Y-169418998D01*
X149606000Y-168529000D02*
X150495998Y-169418998D01*
X148844000Y-154686000D02*
X148336000Y-154178000D01*
X148336000Y-154178000D02*
X92837000Y-154178000D01*
X85852000Y-161163000D02*
X92837000Y-154178000D01*
X172212000Y-164084000D02*
X172212000Y-164211000D01*
X149034500Y-153733500D02*
X150495000Y-155194000D01*
X153162000Y-158369000D02*
X153797000Y-159004000D01*
X153162000Y-157861000D02*
X153162000Y-158369000D01*
X150495000Y-155194000D02*
X153162000Y-157861000D01*
X153797000Y-159004000D02*
X154432000Y-159004000D01*
X92837000Y-153543000D02*
X148844000Y-153543000D01*
X88011000Y-158369000D02*
X92837000Y-153543000D01*
X149034500Y-153733500D02*
X148844000Y-153543000D01*
X76581000Y-160528000D02*
X78740000Y-158369000D01*
X78740000Y-158369000D02*
X88011000Y-158369000D01*
X76581000Y-169418000D02*
X76581000Y-160528000D01*
X77089000Y-169926000D02*
X76581000Y-169418000D01*
X125730000Y-164338000D02*
X154178000Y-164338000D01*
X125222000Y-163830000D02*
X125730000Y-164338000D01*
X154178000Y-164338000D02*
X154432000Y-164084000D01*
X153416000Y-162560000D02*
X154432000Y-161544000D01*
X117856000Y-162560000D02*
X153416000Y-162560000D01*
X116840000Y-161544000D02*
X117856000Y-162560000D01*
X163957000Y-175133000D02*
X172847000Y-175133000D01*
X177419000Y-156591000D02*
X172212000Y-151384000D01*
X177419000Y-170561000D02*
X177419000Y-156591000D01*
X172847000Y-175133000D02*
X177419000Y-170561000D01*
X136779000Y-175133000D02*
X163957000Y-175133000D01*
X146177000Y-172466000D02*
X173101000Y-172466000D01*
X144907000Y-173736000D02*
X146177000Y-172466000D01*
X143002000Y-173736000D02*
X144907000Y-173736000D01*
X145796000Y-171704000D02*
X172593000Y-171704000D01*
X145542000Y-171958000D02*
X145796000Y-171704000D01*
X146812000Y-170180000D02*
X176403000Y-170180000D01*
X117348000Y-182372000D02*
X117602000Y-182372000D01*
X117602000Y-182372000D02*
X120777000Y-185547000D01*
X85598000Y-60452000D02*
X81788000Y-56642000D01*
X32385000Y-182372000D02*
X117348000Y-182372000D01*
X32004000Y-181991000D02*
X32385000Y-182372000D01*
X41656000Y-56642000D02*
X38227000Y-60071000D01*
X81788000Y-56642000D02*
X41656000Y-56642000D01*
D25*
G36*
X181290000Y-204290000D02*
X23710000Y-204290000D01*
X23710000Y-200598070D01*
X30622387Y-200598070D01*
X31159425Y-201897801D01*
X32152969Y-202893080D01*
X33451760Y-203432385D01*
X34858070Y-203433613D01*
X36157801Y-202896575D01*
X37153080Y-201903031D01*
X37692385Y-200604240D01*
X37693613Y-199197930D01*
X37156575Y-197898199D01*
X36163031Y-196902920D01*
X35306917Y-196547431D01*
X36148334Y-196202867D01*
X36172467Y-196186742D01*
X36502882Y-195722487D01*
X34158000Y-193377605D01*
X31813118Y-195722487D01*
X32143533Y-196186742D01*
X33007271Y-196548596D01*
X32158199Y-196899425D01*
X31162920Y-197892969D01*
X30623615Y-199191760D01*
X30622387Y-200598070D01*
X23710000Y-200598070D01*
X23710000Y-193886916D01*
X30620197Y-193886916D01*
X31153133Y-195188334D01*
X31169258Y-195212467D01*
X31633513Y-195542882D01*
X33978395Y-193198000D01*
X34337605Y-193198000D01*
X36682487Y-195542882D01*
X37146742Y-195212467D01*
X37690141Y-193915383D01*
X37690210Y-193898070D01*
X53736387Y-193898070D01*
X54273425Y-195197801D01*
X55266969Y-196193080D01*
X56122211Y-196548207D01*
X55272199Y-196899425D01*
X54276920Y-197892969D01*
X53737615Y-199191760D01*
X53736387Y-200598070D01*
X54273425Y-201897801D01*
X55266969Y-202893080D01*
X56565760Y-203432385D01*
X57972070Y-203433613D01*
X59271801Y-202896575D01*
X60267080Y-201903031D01*
X60806385Y-200604240D01*
X60806390Y-200598070D01*
X76977387Y-200598070D01*
X77514425Y-201897801D01*
X78507969Y-202893080D01*
X79806760Y-203432385D01*
X81213070Y-203433613D01*
X82512801Y-202896575D01*
X83508080Y-201903031D01*
X84047385Y-200604240D01*
X84048613Y-199197930D01*
X83864055Y-198751265D01*
X92328670Y-198751265D01*
X92618078Y-199451686D01*
X93153495Y-199988039D01*
X93853410Y-200278668D01*
X94611265Y-200279330D01*
X95311686Y-199989922D01*
X95848039Y-199454505D01*
X96138668Y-198754590D01*
X96138670Y-198751265D01*
X97408670Y-198751265D01*
X97698078Y-199451686D01*
X98233495Y-199988039D01*
X98933410Y-200278668D01*
X99691265Y-200279330D01*
X100391686Y-199989922D01*
X100928039Y-199454505D01*
X100981276Y-199326296D01*
X100980387Y-200344070D01*
X101517425Y-201643801D01*
X102510969Y-202639080D01*
X103809760Y-203178385D01*
X105216070Y-203179613D01*
X106515801Y-202642575D01*
X107511080Y-201649031D01*
X108050385Y-200350240D01*
X108051613Y-198943930D01*
X107919531Y-198624265D01*
X116331670Y-198624265D01*
X116621078Y-199324686D01*
X117156495Y-199861039D01*
X117856410Y-200151668D01*
X118614265Y-200152330D01*
X119314686Y-199862922D01*
X119851039Y-199327505D01*
X120141668Y-198627590D01*
X120141670Y-198624265D01*
X121411670Y-198624265D01*
X121701078Y-199324686D01*
X122236495Y-199861039D01*
X122936410Y-200151668D01*
X123694265Y-200152330D01*
X124394686Y-199862922D01*
X124931039Y-199327505D01*
X124984387Y-199199029D01*
X124983387Y-200344070D01*
X125520425Y-201643801D01*
X126513969Y-202639080D01*
X127812760Y-203178385D01*
X129219070Y-203179613D01*
X130518801Y-202642575D01*
X131514080Y-201649031D01*
X132053385Y-200350240D01*
X132054613Y-198943930D01*
X131922531Y-198624265D01*
X140588670Y-198624265D01*
X140878078Y-199324686D01*
X141413495Y-199861039D01*
X142113410Y-200151668D01*
X142871265Y-200152330D01*
X143571686Y-199862922D01*
X144108039Y-199327505D01*
X144398668Y-198627590D01*
X144398670Y-198624265D01*
X145668670Y-198624265D01*
X145958078Y-199324686D01*
X146493495Y-199861039D01*
X147193410Y-200151668D01*
X147951265Y-200152330D01*
X148651686Y-199862922D01*
X149188039Y-199327505D01*
X149478668Y-198627590D01*
X149478670Y-198624265D01*
X154177670Y-198624265D01*
X154467078Y-199324686D01*
X155002495Y-199861039D01*
X155702410Y-200151668D01*
X156460265Y-200152330D01*
X157160686Y-199862922D01*
X157697039Y-199327505D01*
X157987668Y-198627590D01*
X157987670Y-198624265D01*
X159257670Y-198624265D01*
X159547078Y-199324686D01*
X160082495Y-199861039D01*
X160782410Y-200151668D01*
X161540265Y-200152330D01*
X162240686Y-199862922D01*
X162777039Y-199327505D01*
X163067668Y-198627590D01*
X163067670Y-198624265D01*
X167639670Y-198624265D01*
X167929078Y-199324686D01*
X168464495Y-199861039D01*
X169164410Y-200151668D01*
X169922265Y-200152330D01*
X170622686Y-199862922D01*
X171159039Y-199327505D01*
X171449668Y-198627590D01*
X171449670Y-198624265D01*
X172719670Y-198624265D01*
X173009078Y-199324686D01*
X173544495Y-199861039D01*
X174244410Y-200151668D01*
X175002265Y-200152330D01*
X175702686Y-199862922D01*
X176239039Y-199327505D01*
X176529668Y-198627590D01*
X176530330Y-197869735D01*
X176240922Y-197169314D01*
X175705505Y-196632961D01*
X175005590Y-196342332D01*
X174247735Y-196341670D01*
X173547314Y-196631078D01*
X173010961Y-197166495D01*
X172720332Y-197866410D01*
X172719670Y-198624265D01*
X171449670Y-198624265D01*
X171450330Y-197869735D01*
X171160922Y-197169314D01*
X170625505Y-196632961D01*
X169925590Y-196342332D01*
X169167735Y-196341670D01*
X168467314Y-196631078D01*
X167930961Y-197166495D01*
X167640332Y-197866410D01*
X167639670Y-198624265D01*
X163067670Y-198624265D01*
X163068330Y-197869735D01*
X162778922Y-197169314D01*
X162243505Y-196632961D01*
X161543590Y-196342332D01*
X160785735Y-196341670D01*
X160085314Y-196631078D01*
X159548961Y-197166495D01*
X159258332Y-197866410D01*
X159257670Y-198624265D01*
X157987670Y-198624265D01*
X157988330Y-197869735D01*
X157698922Y-197169314D01*
X157163505Y-196632961D01*
X156463590Y-196342332D01*
X155705735Y-196341670D01*
X155005314Y-196631078D01*
X154468961Y-197166495D01*
X154178332Y-197866410D01*
X154177670Y-198624265D01*
X149478670Y-198624265D01*
X149479330Y-197869735D01*
X149189922Y-197169314D01*
X148654505Y-196632961D01*
X147954590Y-196342332D01*
X147196735Y-196341670D01*
X146496314Y-196631078D01*
X145959961Y-197166495D01*
X145669332Y-197866410D01*
X145668670Y-198624265D01*
X144398670Y-198624265D01*
X144399330Y-197869735D01*
X144109922Y-197169314D01*
X143574505Y-196632961D01*
X142874590Y-196342332D01*
X142116735Y-196341670D01*
X141416314Y-196631078D01*
X140879961Y-197166495D01*
X140589332Y-197866410D01*
X140588670Y-198624265D01*
X131922531Y-198624265D01*
X131517575Y-197644199D01*
X130524031Y-196648920D01*
X129667917Y-196293431D01*
X130509334Y-195948867D01*
X130533467Y-195932742D01*
X130863882Y-195468487D01*
X128519000Y-193123605D01*
X126174118Y-195468487D01*
X126504533Y-195932742D01*
X127368271Y-196294596D01*
X126519199Y-196645425D01*
X125523920Y-197638969D01*
X125221896Y-198366323D01*
X125222330Y-197869735D01*
X124932922Y-197169314D01*
X124397505Y-196632961D01*
X123697590Y-196342332D01*
X122939735Y-196341670D01*
X122239314Y-196631078D01*
X121702961Y-197166495D01*
X121412332Y-197866410D01*
X121411670Y-198624265D01*
X120141670Y-198624265D01*
X120142330Y-197869735D01*
X119852922Y-197169314D01*
X119317505Y-196632961D01*
X118617590Y-196342332D01*
X117859735Y-196341670D01*
X117159314Y-196631078D01*
X116622961Y-197166495D01*
X116332332Y-197866410D01*
X116331670Y-198624265D01*
X107919531Y-198624265D01*
X107514575Y-197644199D01*
X106521031Y-196648920D01*
X105665789Y-196293793D01*
X106515801Y-195942575D01*
X107511080Y-194949031D01*
X108050385Y-193650240D01*
X108050400Y-193632916D01*
X124981197Y-193632916D01*
X125514133Y-194934334D01*
X125530258Y-194958467D01*
X125994513Y-195288882D01*
X128339395Y-192944000D01*
X128698605Y-192944000D01*
X131043487Y-195288882D01*
X131507742Y-194958467D01*
X132051141Y-193661383D01*
X132056803Y-192255084D01*
X131523867Y-190953666D01*
X131507742Y-190929533D01*
X131043487Y-190599118D01*
X128698605Y-192944000D01*
X128339395Y-192944000D01*
X125994513Y-190599118D01*
X125530258Y-190929533D01*
X124986859Y-192226617D01*
X124981197Y-193632916D01*
X108050400Y-193632916D01*
X108051613Y-192243930D01*
X107514575Y-190944199D01*
X106521031Y-189948920D01*
X105222240Y-189409615D01*
X103815930Y-189408387D01*
X102516199Y-189945425D01*
X101520920Y-190938969D01*
X100981615Y-192237760D01*
X100980387Y-193644070D01*
X101517425Y-194943801D01*
X102510969Y-195939080D01*
X103366211Y-196294207D01*
X102516199Y-196645425D01*
X101520920Y-197638969D01*
X101219007Y-198366055D01*
X101219330Y-197996735D01*
X100929922Y-197296314D01*
X100394505Y-196759961D01*
X99694590Y-196469332D01*
X98936735Y-196468670D01*
X98236314Y-196758078D01*
X97699961Y-197293495D01*
X97409332Y-197993410D01*
X97408670Y-198751265D01*
X96138670Y-198751265D01*
X96139330Y-197996735D01*
X95849922Y-197296314D01*
X95314505Y-196759961D01*
X94614590Y-196469332D01*
X93856735Y-196468670D01*
X93156314Y-196758078D01*
X92619961Y-197293495D01*
X92329332Y-197993410D01*
X92328670Y-198751265D01*
X83864055Y-198751265D01*
X83511575Y-197898199D01*
X82518031Y-196902920D01*
X81661917Y-196547431D01*
X82503334Y-196202867D01*
X82527467Y-196186742D01*
X82857882Y-195722487D01*
X80513000Y-193377605D01*
X78168118Y-195722487D01*
X78498533Y-196186742D01*
X79362271Y-196548596D01*
X78513199Y-196899425D01*
X77517920Y-197892969D01*
X76978615Y-199191760D01*
X76977387Y-200598070D01*
X60806390Y-200598070D01*
X60807613Y-199197930D01*
X60270575Y-197898199D01*
X59277031Y-196902920D01*
X58421789Y-196547793D01*
X59271801Y-196196575D01*
X60267080Y-195203031D01*
X60806385Y-193904240D01*
X60806400Y-193886916D01*
X76975197Y-193886916D01*
X77508133Y-195188334D01*
X77524258Y-195212467D01*
X77988513Y-195542882D01*
X80333395Y-193198000D01*
X80692605Y-193198000D01*
X83037487Y-195542882D01*
X83501742Y-195212467D01*
X84045141Y-193915383D01*
X84050803Y-192509084D01*
X83517867Y-191207666D01*
X83501742Y-191183533D01*
X83037487Y-190853118D01*
X80692605Y-193198000D01*
X80333395Y-193198000D01*
X77988513Y-190853118D01*
X77524258Y-191183533D01*
X76980859Y-192480617D01*
X76975197Y-193886916D01*
X60806400Y-193886916D01*
X60807613Y-192497930D01*
X60270575Y-191198199D01*
X59277031Y-190202920D01*
X57978240Y-189663615D01*
X56571930Y-189662387D01*
X55272199Y-190199425D01*
X54276920Y-191192969D01*
X53737615Y-192491760D01*
X53736387Y-193898070D01*
X37690210Y-193898070D01*
X37695803Y-192509084D01*
X37162867Y-191207666D01*
X37146742Y-191183533D01*
X36682487Y-190853118D01*
X34337605Y-193198000D01*
X33978395Y-193198000D01*
X31633513Y-190853118D01*
X31169258Y-191183533D01*
X30625859Y-192480617D01*
X30620197Y-193886916D01*
X23710000Y-193886916D01*
X23710000Y-190673513D01*
X31813118Y-190673513D01*
X34158000Y-193018395D01*
X36502882Y-190673513D01*
X36172467Y-190209258D01*
X34875383Y-189665859D01*
X33469084Y-189660197D01*
X32167666Y-190193133D01*
X32143533Y-190209258D01*
X31813118Y-190673513D01*
X23710000Y-190673513D01*
X23710000Y-188398070D01*
X36967387Y-188398070D01*
X37504425Y-189697801D01*
X38497969Y-190693080D01*
X39796760Y-191232385D01*
X41203070Y-191233613D01*
X42502801Y-190696575D01*
X43498080Y-189703031D01*
X44037385Y-188404240D01*
X44038613Y-186997930D01*
X43501575Y-185698199D01*
X42508031Y-184702920D01*
X41209240Y-184163615D01*
X39802930Y-184162387D01*
X38503199Y-184699425D01*
X37507920Y-185692969D01*
X36968615Y-186991760D01*
X36967387Y-188398070D01*
X23710000Y-188398070D01*
X23710000Y-183192167D01*
X30814838Y-183192167D01*
X30956883Y-183535943D01*
X31219673Y-183799192D01*
X31563201Y-183941838D01*
X31935167Y-183942162D01*
X32278943Y-183800117D01*
X32347179Y-183732000D01*
X59517032Y-183732000D01*
X59516838Y-183954167D01*
X59658883Y-184297943D01*
X59921673Y-184561192D01*
X60265201Y-184703838D01*
X60637167Y-184704162D01*
X60980943Y-184562117D01*
X61176401Y-184367000D01*
X62421729Y-184367000D01*
X61617199Y-184699425D01*
X60621920Y-185692969D01*
X60082615Y-186991760D01*
X60081387Y-188398070D01*
X60618425Y-189697801D01*
X61611969Y-190693080D01*
X62910760Y-191232385D01*
X64317070Y-191233613D01*
X65616801Y-190696575D01*
X65639903Y-190673513D01*
X78168118Y-190673513D01*
X80513000Y-193018395D01*
X82857882Y-190673513D01*
X82527467Y-190209258D01*
X81230383Y-189665859D01*
X79824084Y-189660197D01*
X78522666Y-190193133D01*
X78498533Y-190209258D01*
X78168118Y-190673513D01*
X65639903Y-190673513D01*
X66612080Y-189703031D01*
X67151385Y-188404240D01*
X67152613Y-186997930D01*
X66615575Y-185698199D01*
X65622031Y-184702920D01*
X64813046Y-184367000D01*
X85662729Y-184367000D01*
X84858199Y-184699425D01*
X83862920Y-185692969D01*
X83323615Y-186991760D01*
X83322387Y-188398070D01*
X83859425Y-189697801D01*
X84852969Y-190693080D01*
X86151760Y-191232385D01*
X87558070Y-191233613D01*
X88857801Y-190696575D01*
X89853080Y-189703031D01*
X90392385Y-188404240D01*
X90393346Y-187303650D01*
X91435348Y-188345652D01*
X91670554Y-188502813D01*
X91716585Y-188511969D01*
X91948000Y-188558000D01*
X99314000Y-188558000D01*
X99545415Y-188511969D01*
X99591446Y-188502813D01*
X99826652Y-188345652D01*
X100739978Y-187432326D01*
X101092410Y-187578668D01*
X101850265Y-187579330D01*
X102550686Y-187289922D01*
X103087039Y-186754505D01*
X103377668Y-186054590D01*
X103378330Y-185296735D01*
X103088922Y-184596314D01*
X102553505Y-184059961D01*
X101853590Y-183769332D01*
X101095735Y-183768670D01*
X100395314Y-184058078D01*
X99858961Y-184593495D01*
X99568332Y-185293410D01*
X99567670Y-186051265D01*
X99714668Y-186407028D01*
X99013696Y-187108000D01*
X98033926Y-187108000D01*
X98388039Y-186754505D01*
X98678668Y-186054590D01*
X98679330Y-185296735D01*
X98389922Y-184596314D01*
X97854505Y-184059961D01*
X97154590Y-183769332D01*
X96396735Y-183768670D01*
X96040973Y-183915668D01*
X95222304Y-183097000D01*
X111376430Y-183097000D01*
X111333162Y-183201201D01*
X111332838Y-183573167D01*
X111471821Y-183909532D01*
X110160930Y-183908387D01*
X108861199Y-184445425D01*
X107865920Y-185438969D01*
X107326615Y-186737760D01*
X107325387Y-188144070D01*
X107862425Y-189443801D01*
X108855969Y-190439080D01*
X110154760Y-190978385D01*
X111561070Y-190979613D01*
X112860801Y-190442575D01*
X112883903Y-190419513D01*
X126174118Y-190419513D01*
X128519000Y-192764395D01*
X130863882Y-190419513D01*
X130533467Y-189955258D01*
X129236383Y-189411859D01*
X127830084Y-189406197D01*
X126528666Y-189939133D01*
X126504533Y-189955258D01*
X126174118Y-190419513D01*
X112883903Y-190419513D01*
X113856080Y-189449031D01*
X114395385Y-188150240D01*
X114396613Y-186743930D01*
X114044027Y-185890608D01*
X114046000Y-185891000D01*
X114172699Y-185891000D01*
X114172670Y-185924265D01*
X114462078Y-186624686D01*
X114997495Y-187161039D01*
X115697410Y-187451668D01*
X116455265Y-187452330D01*
X117155686Y-187162922D01*
X117692039Y-186627505D01*
X117982668Y-185927590D01*
X117983330Y-185169735D01*
X117693922Y-184469314D01*
X117158505Y-183932961D01*
X116458590Y-183642332D01*
X115700735Y-183641670D01*
X115000314Y-183931078D01*
X114489501Y-184441000D01*
X114346305Y-184441000D01*
X113203079Y-183297775D01*
X113203162Y-183202833D01*
X113159433Y-183097000D01*
X117301696Y-183097000D01*
X119018674Y-184813978D01*
X118872332Y-185166410D01*
X118871670Y-185924265D01*
X119161078Y-186624686D01*
X119696495Y-187161039D01*
X120396410Y-187451668D01*
X121154265Y-187452330D01*
X121854686Y-187162922D01*
X122391039Y-186627505D01*
X122681668Y-185927590D01*
X122682330Y-185169735D01*
X122392922Y-184469314D01*
X121857505Y-183932961D01*
X121157590Y-183642332D01*
X120399735Y-183641670D01*
X120043972Y-183788668D01*
X118114652Y-181859348D01*
X117879446Y-181702187D01*
X117833415Y-181693031D01*
X117602000Y-181647000D01*
X88564968Y-181647000D01*
X88565033Y-181573000D01*
X120476696Y-181573000D01*
X123717674Y-184813979D01*
X123571332Y-185166410D01*
X123570670Y-185924265D01*
X123860078Y-186624686D01*
X124395495Y-187161039D01*
X125095410Y-187451668D01*
X125853265Y-187452330D01*
X126553686Y-187162922D01*
X127090039Y-186627505D01*
X127380668Y-185927590D01*
X127381330Y-185169735D01*
X127091922Y-184469314D01*
X126556505Y-183932961D01*
X125856590Y-183642332D01*
X125098735Y-183641670D01*
X124742973Y-183788668D01*
X121511304Y-180557000D01*
X123905696Y-180557000D01*
X131305348Y-187956653D01*
X131328537Y-187972148D01*
X131328387Y-188144070D01*
X131865425Y-189443801D01*
X132858969Y-190439080D01*
X134157760Y-190978385D01*
X135564070Y-190979613D01*
X136863801Y-190442575D01*
X137859080Y-189449031D01*
X138398385Y-188150240D01*
X138399613Y-186743930D01*
X138060935Y-185924265D01*
X138429670Y-185924265D01*
X138719078Y-186624686D01*
X139254495Y-187161039D01*
X139954410Y-187451668D01*
X140712265Y-187452330D01*
X141412686Y-187162922D01*
X141949039Y-186627505D01*
X142239668Y-185927590D01*
X142239670Y-185924265D01*
X143128670Y-185924265D01*
X143418078Y-186624686D01*
X143953495Y-187161039D01*
X144653410Y-187451668D01*
X145411265Y-187452330D01*
X146111686Y-187162922D01*
X146380299Y-186894777D01*
X148564828Y-186894777D01*
X148696520Y-187189657D01*
X149404036Y-187461261D01*
X150161632Y-187441436D01*
X150769480Y-187189657D01*
X150901172Y-186894777D01*
X149733000Y-185726605D01*
X148564828Y-186894777D01*
X146380299Y-186894777D01*
X146648039Y-186627505D01*
X146938668Y-185927590D01*
X146939287Y-185218036D01*
X147818739Y-185218036D01*
X147838564Y-185975632D01*
X148090343Y-186583480D01*
X148385223Y-186715172D01*
X149553395Y-185547000D01*
X149912605Y-185547000D01*
X151080777Y-186715172D01*
X151375657Y-186583480D01*
X151628719Y-185924265D01*
X152018670Y-185924265D01*
X152308078Y-186624686D01*
X152843495Y-187161039D01*
X153543410Y-187451668D01*
X154301265Y-187452330D01*
X155001686Y-187162922D01*
X155538039Y-186627505D01*
X155828668Y-185927590D01*
X155828670Y-185924265D01*
X156717670Y-185924265D01*
X157007078Y-186624686D01*
X157542495Y-187161039D01*
X158242410Y-187451668D01*
X159000265Y-187452330D01*
X159700686Y-187162922D01*
X159969299Y-186894777D01*
X162153828Y-186894777D01*
X162285520Y-187189657D01*
X162993036Y-187461261D01*
X163750632Y-187441436D01*
X164358480Y-187189657D01*
X164490172Y-186894777D01*
X163322000Y-185726605D01*
X162153828Y-186894777D01*
X159969299Y-186894777D01*
X160237039Y-186627505D01*
X160527668Y-185927590D01*
X160528287Y-185218036D01*
X161407739Y-185218036D01*
X161427564Y-185975632D01*
X161679343Y-186583480D01*
X161974223Y-186715172D01*
X163142395Y-185547000D01*
X163501605Y-185547000D01*
X164669777Y-186715172D01*
X164964657Y-186583480D01*
X165217719Y-185924265D01*
X165480670Y-185924265D01*
X165770078Y-186624686D01*
X166305495Y-187161039D01*
X167005410Y-187451668D01*
X167763265Y-187452330D01*
X168463686Y-187162922D01*
X169000039Y-186627505D01*
X169290668Y-185927590D01*
X169290670Y-185924265D01*
X170179670Y-185924265D01*
X170469078Y-186624686D01*
X171004495Y-187161039D01*
X171704410Y-187451668D01*
X172462265Y-187452330D01*
X173162686Y-187162922D01*
X173431299Y-186894777D01*
X175615828Y-186894777D01*
X175747520Y-187189657D01*
X176455036Y-187461261D01*
X177212632Y-187441436D01*
X177820480Y-187189657D01*
X177952172Y-186894777D01*
X176784000Y-185726605D01*
X175615828Y-186894777D01*
X173431299Y-186894777D01*
X173699039Y-186627505D01*
X173989668Y-185927590D01*
X173990287Y-185218036D01*
X174869739Y-185218036D01*
X174889564Y-185975632D01*
X175141343Y-186583480D01*
X175436223Y-186715172D01*
X176604395Y-185547000D01*
X176963605Y-185547000D01*
X178131777Y-186715172D01*
X178426657Y-186583480D01*
X178698261Y-185875964D01*
X178678436Y-185118368D01*
X178426657Y-184510520D01*
X178131777Y-184378828D01*
X176963605Y-185547000D01*
X176604395Y-185547000D01*
X175436223Y-184378828D01*
X175141343Y-184510520D01*
X174869739Y-185218036D01*
X173990287Y-185218036D01*
X173990330Y-185169735D01*
X173700922Y-184469314D01*
X173431303Y-184199223D01*
X175615828Y-184199223D01*
X176784000Y-185367395D01*
X177952172Y-184199223D01*
X177820480Y-183904343D01*
X177112964Y-183632739D01*
X176355368Y-183652564D01*
X175747520Y-183904343D01*
X175615828Y-184199223D01*
X173431303Y-184199223D01*
X173165505Y-183932961D01*
X172465590Y-183642332D01*
X171707735Y-183641670D01*
X171007314Y-183931078D01*
X170470961Y-184466495D01*
X170180332Y-185166410D01*
X170179670Y-185924265D01*
X169290670Y-185924265D01*
X169291330Y-185169735D01*
X169001922Y-184469314D01*
X168466505Y-183932961D01*
X167766590Y-183642332D01*
X167008735Y-183641670D01*
X166308314Y-183931078D01*
X165771961Y-184466495D01*
X165481332Y-185166410D01*
X165480670Y-185924265D01*
X165217719Y-185924265D01*
X165236261Y-185875964D01*
X165216436Y-185118368D01*
X164964657Y-184510520D01*
X164669777Y-184378828D01*
X163501605Y-185547000D01*
X163142395Y-185547000D01*
X161974223Y-184378828D01*
X161679343Y-184510520D01*
X161407739Y-185218036D01*
X160528287Y-185218036D01*
X160528330Y-185169735D01*
X160238922Y-184469314D01*
X159969303Y-184199223D01*
X162153828Y-184199223D01*
X163322000Y-185367395D01*
X164490172Y-184199223D01*
X164358480Y-183904343D01*
X163650964Y-183632739D01*
X162893368Y-183652564D01*
X162285520Y-183904343D01*
X162153828Y-184199223D01*
X159969303Y-184199223D01*
X159703505Y-183932961D01*
X159003590Y-183642332D01*
X158245735Y-183641670D01*
X157545314Y-183931078D01*
X157008961Y-184466495D01*
X156718332Y-185166410D01*
X156717670Y-185924265D01*
X155828670Y-185924265D01*
X155829330Y-185169735D01*
X155539922Y-184469314D01*
X155004505Y-183932961D01*
X154304590Y-183642332D01*
X153546735Y-183641670D01*
X152846314Y-183931078D01*
X152309961Y-184466495D01*
X152019332Y-185166410D01*
X152018670Y-185924265D01*
X151628719Y-185924265D01*
X151647261Y-185875964D01*
X151627436Y-185118368D01*
X151375657Y-184510520D01*
X151080777Y-184378828D01*
X149912605Y-185547000D01*
X149553395Y-185547000D01*
X148385223Y-184378828D01*
X148090343Y-184510520D01*
X147818739Y-185218036D01*
X146939287Y-185218036D01*
X146939330Y-185169735D01*
X146649922Y-184469314D01*
X146380303Y-184199223D01*
X148564828Y-184199223D01*
X149733000Y-185367395D01*
X150901172Y-184199223D01*
X150769480Y-183904343D01*
X150061964Y-183632739D01*
X149304368Y-183652564D01*
X148696520Y-183904343D01*
X148564828Y-184199223D01*
X146380303Y-184199223D01*
X146114505Y-183932961D01*
X145414590Y-183642332D01*
X144656735Y-183641670D01*
X143956314Y-183931078D01*
X143419961Y-184466495D01*
X143129332Y-185166410D01*
X143128670Y-185924265D01*
X142239670Y-185924265D01*
X142240330Y-185169735D01*
X141950922Y-184469314D01*
X141415505Y-183932961D01*
X140715590Y-183642332D01*
X139957735Y-183641670D01*
X139257314Y-183931078D01*
X138720961Y-184466495D01*
X138430332Y-185166410D01*
X138429670Y-185924265D01*
X138060935Y-185924265D01*
X137862575Y-185444199D01*
X136869031Y-184448920D01*
X135570240Y-183909615D01*
X134163930Y-183908387D01*
X132864199Y-184445425D01*
X131868920Y-185438969D01*
X131566524Y-186167219D01*
X124718652Y-179319348D01*
X124483446Y-179162187D01*
X124437415Y-179153031D01*
X124206000Y-179107000D01*
X78321402Y-179107000D01*
X78254327Y-179039808D01*
X77910799Y-178897162D01*
X77538833Y-178896838D01*
X77195057Y-179038883D01*
X76931808Y-179301673D01*
X76881135Y-179423706D01*
X76881162Y-179392833D01*
X76739117Y-179049057D01*
X76476327Y-178785808D01*
X76132799Y-178643162D01*
X75760833Y-178642838D01*
X75417057Y-178784883D01*
X75153808Y-179047673D01*
X75011162Y-179391201D01*
X75010838Y-179763167D01*
X75152883Y-180106943D01*
X75415673Y-180370192D01*
X75759201Y-180512838D01*
X75855618Y-180512922D01*
X76227695Y-180885000D01*
X43142402Y-180885000D01*
X43075327Y-180817808D01*
X42731799Y-180675162D01*
X42359833Y-180674838D01*
X42016057Y-180816883D01*
X41752808Y-181079673D01*
X41610162Y-181423201D01*
X41609967Y-181647000D01*
X32873534Y-181647000D01*
X32797117Y-181462057D01*
X32534327Y-181198808D01*
X32190799Y-181056162D01*
X31818833Y-181055838D01*
X31475057Y-181197883D01*
X31211808Y-181460673D01*
X31069162Y-181804201D01*
X31068838Y-182176167D01*
X31124322Y-182310449D01*
X30957808Y-182476673D01*
X30815162Y-182820201D01*
X30814838Y-183192167D01*
X23710000Y-183192167D01*
X23710000Y-95250000D01*
X32947000Y-95250000D01*
X32947000Y-118872000D01*
X33010561Y-119191541D01*
X33150479Y-119400943D01*
X33191566Y-119462434D01*
X35048465Y-121319333D01*
X35147883Y-121559943D01*
X35410673Y-121823192D01*
X35652910Y-121923778D01*
X37011000Y-123281868D01*
X37011000Y-144098766D01*
X36911162Y-144339201D01*
X36910838Y-144711167D01*
X37011000Y-144953578D01*
X37011000Y-173482000D01*
X37074561Y-173801541D01*
X37255566Y-174072434D01*
X39541566Y-176358434D01*
X39812459Y-176539439D01*
X40132000Y-176603000D01*
X41228766Y-176603000D01*
X41469201Y-176702838D01*
X41841167Y-176703162D01*
X42083578Y-176603000D01*
X45374132Y-176603000D01*
X47113465Y-178342333D01*
X47212883Y-178582943D01*
X47475673Y-178846192D01*
X47819201Y-178988838D01*
X48191167Y-178989162D01*
X48534943Y-178847117D01*
X48798192Y-178584327D01*
X48940838Y-178240799D01*
X48941162Y-177868833D01*
X48799117Y-177525057D01*
X48536327Y-177261808D01*
X48294090Y-177161222D01*
X46310434Y-175177566D01*
X46243736Y-175133000D01*
X46039541Y-174996561D01*
X45720000Y-174933000D01*
X42083234Y-174933000D01*
X41842799Y-174833162D01*
X41470833Y-174832838D01*
X41228422Y-174933000D01*
X40477868Y-174933000D01*
X38681000Y-173136132D01*
X38681000Y-160205167D01*
X55706838Y-160205167D01*
X55848883Y-160548943D01*
X56111673Y-160812192D01*
X56455201Y-160954838D01*
X56827167Y-160955162D01*
X57170943Y-160813117D01*
X57434192Y-160550327D01*
X57534778Y-160308090D01*
X59654868Y-158188000D01*
X64551132Y-158188000D01*
X65713000Y-159349868D01*
X65713000Y-170942000D01*
X65776561Y-171261541D01*
X65886819Y-171426554D01*
X65957566Y-171532434D01*
X69211465Y-174786333D01*
X69310883Y-175026943D01*
X69573673Y-175290192D01*
X69917201Y-175432838D01*
X70289167Y-175433162D01*
X70632943Y-175291117D01*
X70896192Y-175028327D01*
X71038838Y-174684799D01*
X71039162Y-174312833D01*
X70897117Y-173969057D01*
X70737339Y-173809000D01*
X79248000Y-173809000D01*
X79567541Y-173745439D01*
X79838434Y-173564434D01*
X80751701Y-172651167D01*
X90250838Y-172651167D01*
X90392883Y-172994943D01*
X90655673Y-173258192D01*
X90999201Y-173400838D01*
X91371167Y-173401162D01*
X91714943Y-173259117D01*
X91783179Y-173191000D01*
X107894941Y-173191000D01*
X107918883Y-173248943D01*
X108181673Y-173512192D01*
X108525201Y-173654838D01*
X108897167Y-173655162D01*
X109240943Y-173513117D01*
X109504192Y-173250327D01*
X109646838Y-172906799D01*
X109647162Y-172534833D01*
X109505117Y-172191057D01*
X109242327Y-171927808D01*
X108898799Y-171785162D01*
X108679056Y-171784971D01*
X108678389Y-171784838D01*
X108458000Y-171741000D01*
X91783402Y-171741000D01*
X91716327Y-171673808D01*
X91372799Y-171531162D01*
X91000833Y-171530838D01*
X90657057Y-171672883D01*
X90393808Y-171935673D01*
X90251162Y-172279201D01*
X90250838Y-172651167D01*
X80751701Y-172651167D01*
X82378434Y-171024434D01*
X82413341Y-170972192D01*
X82559439Y-170753541D01*
X82623000Y-170434000D01*
X82623000Y-166543234D01*
X82722838Y-166302799D01*
X82723162Y-165930833D01*
X82581117Y-165587057D01*
X82318327Y-165323808D01*
X81974799Y-165181162D01*
X81602833Y-165180838D01*
X81259057Y-165322883D01*
X80995808Y-165585673D01*
X80853162Y-165929201D01*
X80852838Y-166301167D01*
X80953000Y-166543578D01*
X80953000Y-170088132D01*
X78902132Y-172139000D01*
X68925868Y-172139000D01*
X67383000Y-170596132D01*
X67383000Y-159004000D01*
X67319440Y-158684460D01*
X67138434Y-158413566D01*
X63630535Y-154905667D01*
X63531117Y-154665057D01*
X63268327Y-154401808D01*
X62924799Y-154259162D01*
X62552833Y-154258838D01*
X62209057Y-154400883D01*
X61945808Y-154663673D01*
X61803162Y-155007201D01*
X61802838Y-155379167D01*
X61944883Y-155722943D01*
X62207673Y-155986192D01*
X62449910Y-156086778D01*
X62881132Y-156518000D01*
X59309000Y-156518000D01*
X58989460Y-156581560D01*
X58718566Y-156762566D01*
X56353667Y-159127465D01*
X56113057Y-159226883D01*
X55849808Y-159489673D01*
X55707162Y-159833201D01*
X55706838Y-160205167D01*
X38681000Y-160205167D01*
X38681000Y-144953234D01*
X38780838Y-144712799D01*
X38781162Y-144340833D01*
X38681000Y-144098422D01*
X38681000Y-140393167D01*
X55198838Y-140393167D01*
X55340883Y-140736943D01*
X55603673Y-141000192D01*
X55947201Y-141142838D01*
X56319167Y-141143162D01*
X56662943Y-141001117D01*
X56926192Y-140738327D01*
X57026778Y-140496090D01*
X58756434Y-138766434D01*
X58937439Y-138495541D01*
X59001000Y-138176000D01*
X59001000Y-135555234D01*
X59100838Y-135314799D01*
X59101162Y-134942833D01*
X58959117Y-134599057D01*
X58696327Y-134335808D01*
X58352799Y-134193162D01*
X57980833Y-134192838D01*
X57637057Y-134334883D01*
X57373808Y-134597673D01*
X57231162Y-134941201D01*
X57230838Y-135313167D01*
X57331000Y-135555578D01*
X57331000Y-137830132D01*
X55845667Y-139315465D01*
X55605057Y-139414883D01*
X55341808Y-139677673D01*
X55199162Y-140021201D01*
X55198838Y-140393167D01*
X38681000Y-140393167D01*
X38681000Y-122936000D01*
X38617439Y-122616459D01*
X38436434Y-122345566D01*
X36833535Y-120742667D01*
X36734117Y-120502057D01*
X36471327Y-120238808D01*
X36229090Y-120138222D01*
X34617000Y-118526132D01*
X34617000Y-114935000D01*
X40931000Y-114935000D01*
X40931000Y-125095000D01*
X40960428Y-125242943D01*
X40986187Y-125372446D01*
X41143348Y-125607652D01*
X41778348Y-126242653D01*
X41778351Y-126242655D01*
X43556348Y-128020653D01*
X43791554Y-128177813D01*
X44069000Y-128233000D01*
X58119696Y-128233000D01*
X63156000Y-133269305D01*
X63156000Y-151638000D01*
X63201860Y-151868554D01*
X63211187Y-151915446D01*
X63368348Y-152150652D01*
X63876347Y-152658652D01*
X63876350Y-152658654D01*
X64638348Y-153420653D01*
X64873554Y-153577813D01*
X65151000Y-153633000D01*
X91721695Y-153633000D01*
X87710696Y-157644000D01*
X78740000Y-157644000D01*
X78462555Y-157699187D01*
X78462553Y-157699188D01*
X78462554Y-157699188D01*
X78227348Y-157856348D01*
X76068348Y-160015348D01*
X75911187Y-160250554D01*
X75911187Y-160250555D01*
X75856000Y-160528000D01*
X75856000Y-169418000D01*
X75892003Y-169599001D01*
X75911187Y-169695446D01*
X76068348Y-169930652D01*
X76153921Y-170016225D01*
X76153838Y-170111167D01*
X76295883Y-170454943D01*
X76558673Y-170718192D01*
X76902201Y-170860838D01*
X77274167Y-170861162D01*
X77617943Y-170719117D01*
X77881192Y-170456327D01*
X78023838Y-170112799D01*
X78024162Y-169740833D01*
X77882117Y-169397057D01*
X77619327Y-169133808D01*
X77306000Y-169003703D01*
X77306000Y-160828304D01*
X79040304Y-159094000D01*
X86895696Y-159094000D01*
X85761775Y-160227921D01*
X85666833Y-160227838D01*
X85323057Y-160369883D01*
X85059808Y-160632673D01*
X84917162Y-160976201D01*
X84916838Y-161348167D01*
X85058883Y-161691943D01*
X85321673Y-161955192D01*
X85665201Y-162097838D01*
X86037167Y-162098162D01*
X86143000Y-162054433D01*
X86143000Y-168863695D01*
X85888775Y-169117921D01*
X85793833Y-169117838D01*
X85450057Y-169259883D01*
X85186808Y-169522673D01*
X85044162Y-169866201D01*
X85043838Y-170238167D01*
X85185883Y-170581943D01*
X85448673Y-170845192D01*
X85792201Y-170987838D01*
X86164167Y-170988162D01*
X86507943Y-170846117D01*
X86771192Y-170583327D01*
X86913838Y-170239799D01*
X86913922Y-170143382D01*
X87380653Y-169676652D01*
X87537813Y-169441446D01*
X87593000Y-169164000D01*
X87593000Y-161238708D01*
X87610541Y-161221167D01*
X110824838Y-161221167D01*
X110966883Y-161564943D01*
X111229673Y-161828192D01*
X111543000Y-161958297D01*
X111543000Y-177202598D01*
X111475808Y-177269673D01*
X111333162Y-177613201D01*
X111332838Y-177985167D01*
X111474883Y-178328943D01*
X111737673Y-178592192D01*
X112081201Y-178734838D01*
X112453167Y-178735162D01*
X112796943Y-178593117D01*
X113060192Y-178330327D01*
X113202838Y-177986799D01*
X113203162Y-177614833D01*
X113061117Y-177271057D01*
X112993000Y-177202821D01*
X112993000Y-176296172D01*
X129285538Y-176296172D01*
X129690709Y-177276761D01*
X130440293Y-178027655D01*
X131420173Y-178434536D01*
X132481172Y-178435462D01*
X133461761Y-178030291D01*
X134212655Y-177280707D01*
X134619536Y-176300827D01*
X134620393Y-175318167D01*
X135843838Y-175318167D01*
X135985883Y-175661943D01*
X136248673Y-175925192D01*
X136592201Y-176067838D01*
X136964167Y-176068162D01*
X137307943Y-175926117D01*
X137376179Y-175858000D01*
X172847000Y-175858000D01*
X173078415Y-175811969D01*
X173124446Y-175802813D01*
X173359652Y-175645652D01*
X177931652Y-171073653D01*
X178081217Y-170849813D01*
X178088813Y-170838445D01*
X178144000Y-170561000D01*
X178144000Y-156591000D01*
X178088813Y-156313555D01*
X178088813Y-156313554D01*
X177931652Y-156078348D01*
X173786169Y-151932865D01*
X173895345Y-151384000D01*
X173781271Y-150810511D01*
X173456415Y-150324330D01*
X173141634Y-150114000D01*
X173456415Y-149903670D01*
X173781271Y-149417489D01*
X173895345Y-148844000D01*
X173781271Y-148270511D01*
X173456415Y-147784330D01*
X173141634Y-147574000D01*
X173456415Y-147363670D01*
X173781271Y-146877489D01*
X173895345Y-146304000D01*
X173781271Y-145730511D01*
X173456415Y-145244330D01*
X173141634Y-145034000D01*
X173456415Y-144823670D01*
X173781271Y-144337489D01*
X173895345Y-143764000D01*
X173781271Y-143190511D01*
X173456415Y-142704330D01*
X173141634Y-142494000D01*
X173456415Y-142283670D01*
X173781271Y-141797489D01*
X173895345Y-141224000D01*
X173781271Y-140650511D01*
X173456415Y-140164330D01*
X173141634Y-139954000D01*
X173456415Y-139743670D01*
X173781271Y-139257489D01*
X173895345Y-138684000D01*
X173781271Y-138110511D01*
X173456415Y-137624330D01*
X173442087Y-137614757D01*
X173463317Y-137610762D01*
X173679441Y-137471690D01*
X173824431Y-137259490D01*
X173875440Y-137007600D01*
X173875440Y-135280400D01*
X173831162Y-135045083D01*
X173692090Y-134828959D01*
X173479890Y-134683969D01*
X173228000Y-134632960D01*
X171196000Y-134632960D01*
X170960683Y-134677238D01*
X170744559Y-134816310D01*
X170599569Y-135028510D01*
X170548560Y-135280400D01*
X170548560Y-137007600D01*
X170592838Y-137242917D01*
X170731910Y-137459041D01*
X170944110Y-137604031D01*
X170985439Y-137612400D01*
X170967585Y-137624330D01*
X170642729Y-138110511D01*
X170528655Y-138684000D01*
X170642729Y-139257489D01*
X170967585Y-139743670D01*
X171282366Y-139954000D01*
X170967585Y-140164330D01*
X170642729Y-140650511D01*
X170528655Y-141224000D01*
X170642729Y-141797489D01*
X170967585Y-142283670D01*
X171282366Y-142494000D01*
X170967585Y-142704330D01*
X170642729Y-143190511D01*
X170528655Y-143764000D01*
X170642729Y-144337489D01*
X170967585Y-144823670D01*
X171282366Y-145034000D01*
X170967585Y-145244330D01*
X170642729Y-145730511D01*
X170528655Y-146304000D01*
X170642729Y-146877489D01*
X170967585Y-147363670D01*
X171282366Y-147574000D01*
X170967585Y-147784330D01*
X170642729Y-148270511D01*
X170528655Y-148844000D01*
X170642729Y-149417489D01*
X170967585Y-149903670D01*
X171282366Y-150114000D01*
X170967585Y-150324330D01*
X170642729Y-150810511D01*
X170528655Y-151384000D01*
X170642729Y-151957489D01*
X170967585Y-152443670D01*
X171282366Y-152654000D01*
X170967585Y-152864330D01*
X170642729Y-153350511D01*
X170528655Y-153924000D01*
X170642729Y-154497489D01*
X170967585Y-154983670D01*
X171282366Y-155194000D01*
X170967585Y-155404330D01*
X170642729Y-155890511D01*
X170561000Y-156301391D01*
X170561000Y-155575000D01*
X170550994Y-155525590D01*
X170522553Y-155483965D01*
X170480159Y-155456685D01*
X170434000Y-155448000D01*
X156972000Y-155448000D01*
X156922590Y-155458006D01*
X156880965Y-155486447D01*
X156853685Y-155528841D01*
X156845000Y-155575000D01*
X156845000Y-165989000D01*
X156855006Y-166038410D01*
X156883447Y-166080035D01*
X156925841Y-166107315D01*
X156972000Y-166116000D01*
X170434000Y-166116000D01*
X170483410Y-166105994D01*
X170525035Y-166077553D01*
X170552315Y-166035159D01*
X170561000Y-165989000D01*
X170561000Y-164246609D01*
X170642729Y-164657489D01*
X170967585Y-165143670D01*
X171453766Y-165468526D01*
X172027255Y-165582600D01*
X172396745Y-165582600D01*
X172970234Y-165468526D01*
X173456415Y-165143670D01*
X173582166Y-164955470D01*
X174535000Y-165908305D01*
X174535000Y-166704695D01*
X172545698Y-168693998D01*
X150796303Y-168693998D01*
X150541079Y-168438775D01*
X150541162Y-168343833D01*
X150399117Y-168000057D01*
X150136327Y-167736808D01*
X149792799Y-167594162D01*
X149420833Y-167593838D01*
X149077057Y-167735883D01*
X148813808Y-167998673D01*
X148704235Y-168262554D01*
X148442057Y-168370883D01*
X148178808Y-168633673D01*
X148036162Y-168977201D01*
X148035838Y-169349167D01*
X148079567Y-169455000D01*
X147409402Y-169455000D01*
X147342327Y-169387808D01*
X146998799Y-169245162D01*
X146626833Y-169244838D01*
X146283057Y-169386883D01*
X146019808Y-169649673D01*
X145877162Y-169993201D01*
X145876838Y-170365167D01*
X146018883Y-170708943D01*
X146281673Y-170972192D01*
X146298068Y-170979000D01*
X145796000Y-170979000D01*
X145574657Y-171023028D01*
X145356833Y-171022838D01*
X145013057Y-171164883D01*
X144749808Y-171427673D01*
X144607162Y-171771201D01*
X144606838Y-172143167D01*
X144748883Y-172486943D01*
X144939651Y-172678044D01*
X144606696Y-173011000D01*
X143599402Y-173011000D01*
X143532327Y-172943808D01*
X143188799Y-172801162D01*
X142816833Y-172800838D01*
X142473057Y-172942883D01*
X142209808Y-173205673D01*
X142067162Y-173549201D01*
X142066838Y-173921167D01*
X142208883Y-174264943D01*
X142351691Y-174408000D01*
X137376402Y-174408000D01*
X137309327Y-174340808D01*
X136965799Y-174198162D01*
X136593833Y-174197838D01*
X136250057Y-174339883D01*
X135986808Y-174602673D01*
X135844162Y-174946201D01*
X135843838Y-175318167D01*
X134620393Y-175318167D01*
X134620462Y-175239828D01*
X134215291Y-174259239D01*
X133465707Y-173508345D01*
X132485827Y-173101464D01*
X131424828Y-173100538D01*
X130444239Y-173505709D01*
X129693345Y-174255293D01*
X129286464Y-175235173D01*
X129285538Y-176296172D01*
X112993000Y-176296172D01*
X112993000Y-161544000D01*
X112937813Y-161266555D01*
X112885663Y-161188508D01*
X112780652Y-161031347D01*
X112695079Y-160945774D01*
X112695162Y-160850833D01*
X112553117Y-160507057D01*
X112290327Y-160243808D01*
X111946799Y-160101162D01*
X111574833Y-160100838D01*
X111231057Y-160242883D01*
X110967808Y-160505673D01*
X110825162Y-160849201D01*
X110824838Y-161221167D01*
X87610541Y-161221167D01*
X89173354Y-159658355D01*
X89232566Y-159569738D01*
X93264305Y-155538000D01*
X147339466Y-155538000D01*
X147415883Y-155722943D01*
X147678673Y-155986192D01*
X148022201Y-156128838D01*
X148394167Y-156129162D01*
X148737943Y-155987117D01*
X149001192Y-155724327D01*
X149047108Y-155613749D01*
X149372943Y-155479117D01*
X149564045Y-155288349D01*
X149982348Y-155706652D01*
X152437000Y-158161305D01*
X152437000Y-158369000D01*
X152480164Y-158586000D01*
X152492187Y-158646446D01*
X152649348Y-158881652D01*
X152752478Y-158984782D01*
X152748655Y-159004000D01*
X152862729Y-159577489D01*
X153187585Y-160063670D01*
X153502366Y-160274000D01*
X153187585Y-160484330D01*
X152862729Y-160970511D01*
X152748655Y-161544000D01*
X152806538Y-161835000D01*
X118156304Y-161835000D01*
X117775079Y-161453775D01*
X117775162Y-161358833D01*
X117633117Y-161015057D01*
X117370327Y-160751808D01*
X117026799Y-160609162D01*
X116654833Y-160608838D01*
X116311057Y-160750883D01*
X116047808Y-161013673D01*
X115905162Y-161357201D01*
X115904838Y-161729167D01*
X116046883Y-162072943D01*
X116309673Y-162336192D01*
X116653201Y-162478838D01*
X116749618Y-162478922D01*
X117343348Y-163072652D01*
X117578554Y-163229813D01*
X117624585Y-163238969D01*
X117856000Y-163285000D01*
X124444507Y-163285000D01*
X124429808Y-163299673D01*
X124287162Y-163643201D01*
X124286838Y-164015167D01*
X124428883Y-164358943D01*
X124691673Y-164622192D01*
X125035201Y-164764838D01*
X125131617Y-164764922D01*
X125217347Y-164850652D01*
X125345080Y-164936000D01*
X125452555Y-165007813D01*
X125730000Y-165063000D01*
X153133683Y-165063000D01*
X153187585Y-165143670D01*
X153673766Y-165468526D01*
X154247255Y-165582600D01*
X154616745Y-165582600D01*
X155190234Y-165468526D01*
X155676415Y-165143670D01*
X156001271Y-164657489D01*
X156115345Y-164084000D01*
X156001271Y-163510511D01*
X155676415Y-163024330D01*
X155361634Y-162814000D01*
X155676415Y-162603670D01*
X156001271Y-162117489D01*
X156115345Y-161544000D01*
X156001271Y-160970511D01*
X155676415Y-160484330D01*
X155361634Y-160274000D01*
X155676415Y-160063670D01*
X156001271Y-159577489D01*
X156115345Y-159004000D01*
X156001271Y-158430511D01*
X155676415Y-157944330D01*
X155361634Y-157734000D01*
X155676415Y-157523670D01*
X156001271Y-157037489D01*
X156115345Y-156464000D01*
X156001271Y-155890511D01*
X155676415Y-155404330D01*
X155361634Y-155194000D01*
X155676415Y-154983670D01*
X156001271Y-154497489D01*
X156115345Y-153924000D01*
X156001271Y-153350511D01*
X155676415Y-152864330D01*
X155361634Y-152654000D01*
X155676415Y-152443670D01*
X156001271Y-151957489D01*
X156115345Y-151384000D01*
X156001271Y-150810511D01*
X155676415Y-150324330D01*
X155361634Y-150114000D01*
X155676415Y-149903670D01*
X156001271Y-149417489D01*
X156115345Y-148844000D01*
X156001271Y-148270511D01*
X155676415Y-147784330D01*
X155361634Y-147574000D01*
X155676415Y-147363670D01*
X156001271Y-146877489D01*
X156115345Y-146304000D01*
X156001271Y-145730511D01*
X155676415Y-145244330D01*
X155361634Y-145034000D01*
X155676415Y-144823670D01*
X156001271Y-144337489D01*
X156115345Y-143764000D01*
X156001271Y-143190511D01*
X155676415Y-142704330D01*
X155361634Y-142494000D01*
X155676415Y-142283670D01*
X156001271Y-141797489D01*
X156115345Y-141224000D01*
X156001271Y-140650511D01*
X155676415Y-140164330D01*
X155366931Y-139957539D01*
X155782732Y-139586036D01*
X156036709Y-139058791D01*
X156039358Y-139043026D01*
X155918217Y-138811000D01*
X154559000Y-138811000D01*
X154559000Y-138831000D01*
X154305000Y-138831000D01*
X154305000Y-138811000D01*
X152945783Y-138811000D01*
X152824642Y-139043026D01*
X152827291Y-139058791D01*
X153081268Y-139586036D01*
X153497069Y-139957539D01*
X153187585Y-140164330D01*
X152862729Y-140650511D01*
X152748655Y-141224000D01*
X152862729Y-141797489D01*
X153187585Y-142283670D01*
X153502366Y-142494000D01*
X153187585Y-142704330D01*
X152862729Y-143190511D01*
X152748655Y-143764000D01*
X152862729Y-144337489D01*
X153187585Y-144823670D01*
X153502366Y-145034000D01*
X153187585Y-145244330D01*
X152862729Y-145730511D01*
X152748655Y-146304000D01*
X152862729Y-146877489D01*
X153187585Y-147363670D01*
X153502366Y-147574000D01*
X153187585Y-147784330D01*
X152862729Y-148270511D01*
X152748655Y-148844000D01*
X152862729Y-149417489D01*
X153187585Y-149903670D01*
X153502366Y-150114000D01*
X153187585Y-150324330D01*
X152862729Y-150810511D01*
X152842343Y-150913000D01*
X146731079Y-150913000D01*
X146731162Y-150817833D01*
X146589117Y-150474057D01*
X146326327Y-150210808D01*
X145982799Y-150068162D01*
X145610833Y-150067838D01*
X145267057Y-150209883D01*
X145198821Y-150278000D01*
X123078493Y-150278000D01*
X123093192Y-150263327D01*
X123235838Y-149919799D01*
X123236162Y-149547833D01*
X123094117Y-149204057D01*
X122831327Y-148940808D01*
X122487799Y-148798162D01*
X122391383Y-148798078D01*
X121416655Y-147823351D01*
X121416653Y-147823348D01*
X119851000Y-146257696D01*
X119851000Y-142583402D01*
X119918192Y-142516327D01*
X120060838Y-142172799D01*
X120061162Y-141800833D01*
X119919117Y-141457057D01*
X119656327Y-141193808D01*
X119312799Y-141051162D01*
X118940833Y-141050838D01*
X118597057Y-141192883D01*
X118333808Y-141455673D01*
X118191162Y-141799201D01*
X118190838Y-142171167D01*
X118332883Y-142514943D01*
X118401000Y-142583179D01*
X118401000Y-146558000D01*
X118447031Y-146789415D01*
X118456187Y-146835446D01*
X118613348Y-147070652D01*
X120391348Y-148848653D01*
X120391351Y-148848655D01*
X121365921Y-149823225D01*
X121365838Y-149918167D01*
X121507883Y-150261943D01*
X121523912Y-150278000D01*
X94069402Y-150278000D01*
X94002327Y-150210808D01*
X93658799Y-150068162D01*
X93286833Y-150067838D01*
X92943057Y-150209883D01*
X92874821Y-150278000D01*
X67864304Y-150278000D01*
X67822655Y-150236351D01*
X67822653Y-150236348D01*
X67060655Y-149474351D01*
X67060653Y-149474348D01*
X66638000Y-149051696D01*
X66638000Y-143695167D01*
X78058838Y-143695167D01*
X78200883Y-144038943D01*
X78463673Y-144302192D01*
X78807201Y-144444838D01*
X79179167Y-144445162D01*
X79421578Y-144345000D01*
X103458766Y-144345000D01*
X103699201Y-144444838D01*
X104071167Y-144445162D01*
X104414943Y-144303117D01*
X104678192Y-144040327D01*
X104820838Y-143696799D01*
X104821162Y-143324833D01*
X104679117Y-142981057D01*
X104416327Y-142717808D01*
X104072799Y-142575162D01*
X103700833Y-142574838D01*
X103458422Y-142675000D01*
X79421234Y-142675000D01*
X79180799Y-142575162D01*
X78808833Y-142574838D01*
X78465057Y-142716883D01*
X78201808Y-142979673D01*
X78059162Y-143323201D01*
X78058838Y-143695167D01*
X66638000Y-143695167D01*
X66638000Y-131699000D01*
X66582813Y-131421555D01*
X66582813Y-131421554D01*
X66425653Y-131186348D01*
X60583652Y-125344348D01*
X60348446Y-125187187D01*
X60302415Y-125178031D01*
X60071000Y-125132000D01*
X57450305Y-125132000D01*
X54931472Y-122613167D01*
X101680838Y-122613167D01*
X101822883Y-122956943D01*
X102085673Y-123220192D01*
X102429201Y-123362838D01*
X102801167Y-123363162D01*
X103144943Y-123221117D01*
X103213179Y-123153000D01*
X105066598Y-123153000D01*
X105133673Y-123220192D01*
X105477201Y-123362838D01*
X105849167Y-123363162D01*
X106192943Y-123221117D01*
X106456192Y-122958327D01*
X106598838Y-122614799D01*
X106599162Y-122242833D01*
X106457117Y-121899057D01*
X106194327Y-121635808D01*
X105850799Y-121493162D01*
X105478833Y-121492838D01*
X105135057Y-121634883D01*
X105066821Y-121703000D01*
X103213402Y-121703000D01*
X103146327Y-121635808D01*
X102802799Y-121493162D01*
X102430833Y-121492838D01*
X102087057Y-121634883D01*
X101823808Y-121897673D01*
X101681162Y-122241201D01*
X101680838Y-122613167D01*
X54931472Y-122613167D01*
X53406079Y-121087775D01*
X53406162Y-120992833D01*
X53264117Y-120649057D01*
X53001327Y-120385808D01*
X52657799Y-120243162D01*
X52285833Y-120242838D01*
X51942057Y-120384883D01*
X51678808Y-120647673D01*
X51536162Y-120991201D01*
X51535838Y-121363167D01*
X51677883Y-121706943D01*
X51940673Y-121970192D01*
X52284201Y-122112838D01*
X52380618Y-122112922D01*
X56288695Y-126021000D01*
X46401304Y-126021000D01*
X45004079Y-124623775D01*
X45004162Y-124528833D01*
X44862117Y-124185057D01*
X44599327Y-123921808D01*
X44255799Y-123779162D01*
X43883833Y-123778838D01*
X43540057Y-123920883D01*
X43276808Y-124183673D01*
X43134162Y-124527201D01*
X43133838Y-124899167D01*
X43275883Y-125242943D01*
X43538673Y-125506192D01*
X43882201Y-125648838D01*
X43978618Y-125648922D01*
X45112696Y-126783000D01*
X44369305Y-126783000D01*
X42803655Y-125217351D01*
X42803653Y-125217348D01*
X42381000Y-124794696D01*
X42381000Y-115349009D01*
X42692943Y-115220117D01*
X42956192Y-114957327D01*
X43098838Y-114613799D01*
X43098950Y-114485167D01*
X51134838Y-114485167D01*
X51276883Y-114828943D01*
X51539673Y-115092192D01*
X51883201Y-115234838D01*
X52255167Y-115235162D01*
X52598943Y-115093117D01*
X52667179Y-115025000D01*
X54182696Y-115025000D01*
X56722921Y-117565225D01*
X56722838Y-117660167D01*
X56864883Y-118003943D01*
X57127673Y-118267192D01*
X57471201Y-118409838D01*
X57843167Y-118410162D01*
X58186943Y-118268117D01*
X58450192Y-118005327D01*
X58592838Y-117661799D01*
X58593162Y-117289833D01*
X58451117Y-116946057D01*
X58188327Y-116682808D01*
X57844799Y-116540162D01*
X57748382Y-116540078D01*
X54995652Y-113787348D01*
X54760446Y-113630187D01*
X54714415Y-113621031D01*
X54483000Y-113575000D01*
X52667402Y-113575000D01*
X52600327Y-113507808D01*
X52256799Y-113365162D01*
X51884833Y-113364838D01*
X51541057Y-113506883D01*
X51277808Y-113769673D01*
X51135162Y-114113201D01*
X51134838Y-114485167D01*
X43098950Y-114485167D01*
X43099162Y-114241833D01*
X42957117Y-113898057D01*
X42694327Y-113634808D01*
X42350799Y-113492162D01*
X41978833Y-113491838D01*
X41635057Y-113633883D01*
X41371808Y-113896673D01*
X41229162Y-114240201D01*
X41229078Y-114336618D01*
X41143348Y-114422348D01*
X40986187Y-114657554D01*
X40986187Y-114657555D01*
X40931000Y-114935000D01*
X34617000Y-114935000D01*
X34617000Y-104706167D01*
X48213838Y-104706167D01*
X48355883Y-105049943D01*
X48618673Y-105313192D01*
X48962201Y-105455838D01*
X49334167Y-105456162D01*
X49677943Y-105314117D01*
X49873401Y-105119000D01*
X66501696Y-105119000D01*
X68152921Y-106770226D01*
X68152838Y-106865167D01*
X68294883Y-107208943D01*
X68557673Y-107472192D01*
X68901201Y-107614838D01*
X69273167Y-107615162D01*
X69616943Y-107473117D01*
X69880192Y-107210327D01*
X70022838Y-106866799D01*
X70023162Y-106494833D01*
X69881117Y-106151057D01*
X69618327Y-105887808D01*
X69274799Y-105745162D01*
X69178383Y-105745078D01*
X67314652Y-103881348D01*
X67079446Y-103724187D01*
X67030413Y-103714434D01*
X66802000Y-103669000D01*
X49535294Y-103669000D01*
X49335799Y-103586162D01*
X48963833Y-103585838D01*
X48620057Y-103727883D01*
X48356808Y-103990673D01*
X48214162Y-104334201D01*
X48213838Y-104706167D01*
X34617000Y-104706167D01*
X34617000Y-99753167D01*
X67644838Y-99753167D01*
X67786883Y-100096943D01*
X68049673Y-100360192D01*
X68291910Y-100460778D01*
X70539000Y-102707868D01*
X70539000Y-113364766D01*
X70439162Y-113605201D01*
X70438838Y-113977167D01*
X70580883Y-114320943D01*
X70843673Y-114584192D01*
X71187201Y-114726838D01*
X71559167Y-114727162D01*
X71902943Y-114585117D01*
X72166192Y-114322327D01*
X72308838Y-113978799D01*
X72309162Y-113606833D01*
X72209000Y-113364422D01*
X72209000Y-112505868D01*
X77133566Y-117430434D01*
X77404459Y-117611439D01*
X77724000Y-117675000D01*
X85932766Y-117675000D01*
X86173201Y-117774838D01*
X86545167Y-117775162D01*
X86888943Y-117633117D01*
X87152192Y-117370327D01*
X87294838Y-117026799D01*
X87295162Y-116654833D01*
X87153117Y-116311057D01*
X86890327Y-116047808D01*
X86546799Y-115905162D01*
X86174833Y-115904838D01*
X85932422Y-116005000D01*
X78069868Y-116005000D01*
X72209000Y-110144132D01*
X72209000Y-102362000D01*
X72199001Y-102311732D01*
X72145440Y-102042460D01*
X71964434Y-101771566D01*
X69472535Y-99279667D01*
X69373117Y-99039057D01*
X69110327Y-98775808D01*
X68766799Y-98633162D01*
X68394833Y-98632838D01*
X68051057Y-98774883D01*
X67787808Y-99037673D01*
X67645162Y-99381201D01*
X67644838Y-99753167D01*
X34617000Y-99753167D01*
X34617000Y-96705167D01*
X51642838Y-96705167D01*
X51784883Y-97048943D01*
X52047673Y-97312192D01*
X52391201Y-97454838D01*
X52763167Y-97455162D01*
X53106943Y-97313117D01*
X53175179Y-97245000D01*
X66548000Y-97245000D01*
X66769343Y-97200972D01*
X66987167Y-97201162D01*
X67330943Y-97059117D01*
X67594192Y-96796327D01*
X67736838Y-96452799D01*
X67737162Y-96080833D01*
X67595117Y-95737057D01*
X67332327Y-95473808D01*
X66988799Y-95331162D01*
X66616833Y-95330838D01*
X66273057Y-95472883D01*
X66009808Y-95735673D01*
X65985173Y-95795000D01*
X53175402Y-95795000D01*
X53108327Y-95727808D01*
X52764799Y-95585162D01*
X52392833Y-95584838D01*
X52049057Y-95726883D01*
X51785808Y-95989673D01*
X51643162Y-96333201D01*
X51642838Y-96705167D01*
X34617000Y-96705167D01*
X34617000Y-95595868D01*
X36864333Y-93348535D01*
X37104943Y-93249117D01*
X37368192Y-92986327D01*
X37468778Y-92744090D01*
X37571701Y-92641167D01*
X54944838Y-92641167D01*
X55086883Y-92984943D01*
X55349673Y-93248192D01*
X55693201Y-93390838D01*
X56065167Y-93391162D01*
X56408943Y-93249117D01*
X56621430Y-93037000D01*
X60379000Y-93037000D01*
X60379000Y-93552766D01*
X60279162Y-93793201D01*
X60278838Y-94165167D01*
X60420883Y-94508943D01*
X60683673Y-94772192D01*
X61027201Y-94914838D01*
X61399167Y-94915162D01*
X61742943Y-94773117D01*
X62006192Y-94510327D01*
X62148838Y-94166799D01*
X62149162Y-93794833D01*
X62049000Y-93552422D01*
X62049000Y-93037000D01*
X76026766Y-93037000D01*
X76267201Y-93136838D01*
X76639167Y-93137162D01*
X76881578Y-93037000D01*
X87284132Y-93037000D01*
X99437465Y-105190333D01*
X99536883Y-105430943D01*
X99799673Y-105694192D01*
X100143201Y-105836838D01*
X100515167Y-105837162D01*
X100858943Y-105695117D01*
X101122192Y-105432327D01*
X101264838Y-105088799D01*
X101265162Y-104716833D01*
X101123117Y-104373057D01*
X100860327Y-104109808D01*
X100618090Y-104009222D01*
X100567868Y-103959000D01*
X124895000Y-103959000D01*
X124895000Y-111160132D01*
X119551566Y-116503566D01*
X119370561Y-116774459D01*
X119307000Y-117094000D01*
X119307000Y-129975000D01*
X93472000Y-129975000D01*
X93152459Y-130038561D01*
X92881566Y-130219566D01*
X88865667Y-134235465D01*
X88625057Y-134334883D01*
X88361808Y-134597673D01*
X88219162Y-134941201D01*
X88218838Y-135313167D01*
X88360883Y-135656943D01*
X88623673Y-135920192D01*
X88967201Y-136062838D01*
X89339167Y-136063162D01*
X89682943Y-135921117D01*
X89946192Y-135658327D01*
X90046778Y-135416090D01*
X90182468Y-135280400D01*
X152768560Y-135280400D01*
X152768560Y-137007600D01*
X152812838Y-137242917D01*
X152951910Y-137459041D01*
X153164110Y-137604031D01*
X153258927Y-137623232D01*
X153081268Y-137781964D01*
X152827291Y-138309209D01*
X152824642Y-138324974D01*
X152945783Y-138557000D01*
X154305000Y-138557000D01*
X154305000Y-138537000D01*
X154559000Y-138537000D01*
X154559000Y-138557000D01*
X155918217Y-138557000D01*
X156039358Y-138324974D01*
X156036709Y-138309209D01*
X155782732Y-137781964D01*
X155607155Y-137625093D01*
X155683317Y-137610762D01*
X155899441Y-137471690D01*
X156044431Y-137259490D01*
X156095440Y-137007600D01*
X156095440Y-135280400D01*
X156051162Y-135045083D01*
X155912090Y-134828959D01*
X155699890Y-134683969D01*
X155448000Y-134632960D01*
X153416000Y-134632960D01*
X153180683Y-134677238D01*
X152964559Y-134816310D01*
X152819569Y-135028510D01*
X152768560Y-135280400D01*
X90182468Y-135280400D01*
X93817868Y-131645000D01*
X119307000Y-131645000D01*
X119307000Y-133684766D01*
X119207162Y-133925201D01*
X119206838Y-134297167D01*
X119348883Y-134640943D01*
X119611673Y-134904192D01*
X119955201Y-135046838D01*
X120327167Y-135047162D01*
X120670943Y-134905117D01*
X120934192Y-134642327D01*
X121076838Y-134298799D01*
X121077162Y-133926833D01*
X120977000Y-133684422D01*
X120977000Y-122105167D01*
X123778838Y-122105167D01*
X123920883Y-122448943D01*
X124183673Y-122712192D01*
X124527201Y-122854838D01*
X124746944Y-122855029D01*
X124968000Y-122899000D01*
X132334000Y-122899000D01*
X132565415Y-122852969D01*
X132611446Y-122843813D01*
X132846652Y-122686652D01*
X135726226Y-119807079D01*
X135821167Y-119807162D01*
X136164943Y-119665117D01*
X136428192Y-119402327D01*
X136570838Y-119058799D01*
X136571162Y-118686833D01*
X136429117Y-118343057D01*
X136166327Y-118079808D01*
X135822799Y-117937162D01*
X135450833Y-117936838D01*
X135107057Y-118078883D01*
X134843808Y-118341673D01*
X134701162Y-118685201D01*
X134701078Y-118781617D01*
X132033696Y-121449000D01*
X125531059Y-121449000D01*
X125507117Y-121391057D01*
X125244327Y-121127808D01*
X124900799Y-120985162D01*
X124528833Y-120984838D01*
X124185057Y-121126883D01*
X123921808Y-121389673D01*
X123779162Y-121733201D01*
X123778838Y-122105167D01*
X120977000Y-122105167D01*
X120977000Y-117439868D01*
X122747901Y-115668967D01*
X156602430Y-115668967D01*
X156602430Y-116741033D01*
X156707900Y-117271268D01*
X157008254Y-117720779D01*
X157457765Y-118021133D01*
X157988000Y-118126603D01*
X158518235Y-118021133D01*
X158967746Y-117720779D01*
X159268100Y-117271268D01*
X159269950Y-117261968D01*
X159296501Y-117351677D01*
X159638056Y-117773658D01*
X160115097Y-118032810D01*
X160186725Y-118046993D01*
X160401000Y-117924339D01*
X160401000Y-116332000D01*
X160381000Y-116332000D01*
X160381000Y-116078000D01*
X160401000Y-116078000D01*
X160401000Y-114485661D01*
X160655000Y-114485661D01*
X160655000Y-116078000D01*
X160675000Y-116078000D01*
X160675000Y-116332000D01*
X160655000Y-116332000D01*
X160655000Y-117924339D01*
X160869275Y-118046993D01*
X160940903Y-118032810D01*
X161417944Y-117773658D01*
X161759499Y-117351677D01*
X161786050Y-117261968D01*
X161787900Y-117271268D01*
X162088254Y-117720779D01*
X162537765Y-118021133D01*
X163068000Y-118126603D01*
X163598235Y-118021133D01*
X164047746Y-117720779D01*
X164348100Y-117271268D01*
X164453570Y-116741033D01*
X164453570Y-115668967D01*
X164348100Y-115138732D01*
X164047746Y-114689221D01*
X163598235Y-114388867D01*
X163068000Y-114283397D01*
X162537765Y-114388867D01*
X162088254Y-114689221D01*
X161787900Y-115138732D01*
X161786050Y-115148032D01*
X161759499Y-115058323D01*
X161417944Y-114636342D01*
X160940903Y-114377190D01*
X160869275Y-114363007D01*
X160655000Y-114485661D01*
X160401000Y-114485661D01*
X160186725Y-114363007D01*
X160115097Y-114377190D01*
X159638056Y-114636342D01*
X159296501Y-115058323D01*
X159269950Y-115148032D01*
X159268100Y-115138732D01*
X158967746Y-114689221D01*
X158518235Y-114388867D01*
X157988000Y-114283397D01*
X157457765Y-114388867D01*
X157008254Y-114689221D01*
X156707900Y-115138732D01*
X156602430Y-115668967D01*
X122747901Y-115668967D01*
X126320434Y-112096434D01*
X126501439Y-111825541D01*
X126565000Y-111506000D01*
X126565000Y-103959000D01*
X130449374Y-103959000D01*
X130545900Y-104444268D01*
X130846254Y-104893779D01*
X131295765Y-105194133D01*
X131826000Y-105299603D01*
X132356235Y-105194133D01*
X132805746Y-104893779D01*
X133106100Y-104444268D01*
X133107950Y-104434968D01*
X133134501Y-104524677D01*
X133476056Y-104946658D01*
X133953097Y-105205810D01*
X134024725Y-105219993D01*
X134239000Y-105097339D01*
X134239000Y-103505000D01*
X134219000Y-103505000D01*
X134219000Y-103251000D01*
X134239000Y-103251000D01*
X134239000Y-101658661D01*
X134493000Y-101658661D01*
X134493000Y-103251000D01*
X134513000Y-103251000D01*
X134513000Y-103505000D01*
X134493000Y-103505000D01*
X134493000Y-105097339D01*
X134707275Y-105219993D01*
X134778903Y-105205810D01*
X135255944Y-104946658D01*
X135597499Y-104524677D01*
X135624050Y-104434968D01*
X135625900Y-104444268D01*
X135926254Y-104893779D01*
X136375765Y-105194133D01*
X136906000Y-105299603D01*
X137436235Y-105194133D01*
X137885746Y-104893779D01*
X138186100Y-104444268D01*
X138291570Y-103914033D01*
X138291570Y-102841967D01*
X138186100Y-102311732D01*
X137885746Y-101862221D01*
X137436235Y-101561867D01*
X136906000Y-101456397D01*
X136375765Y-101561867D01*
X135926254Y-101862221D01*
X135625900Y-102311732D01*
X135624050Y-102321032D01*
X135597499Y-102231323D01*
X135255944Y-101809342D01*
X134778903Y-101550190D01*
X134707275Y-101536007D01*
X134493000Y-101658661D01*
X134239000Y-101658661D01*
X134024725Y-101536007D01*
X133953097Y-101550190D01*
X133476056Y-101809342D01*
X133134501Y-102231323D01*
X133107950Y-102321032D01*
X133106100Y-102311732D01*
X132805746Y-101862221D01*
X132356235Y-101561867D01*
X131826000Y-101456397D01*
X131295765Y-101561867D01*
X130846254Y-101862221D01*
X130561089Y-102289000D01*
X98897868Y-102289000D01*
X88220434Y-91611566D01*
X87949541Y-91430561D01*
X87630000Y-91367000D01*
X76881234Y-91367000D01*
X76640799Y-91267162D01*
X76268833Y-91266838D01*
X76026422Y-91367000D01*
X56134000Y-91367000D01*
X55814459Y-91430561D01*
X55654261Y-91537602D01*
X55351057Y-91662883D01*
X55087808Y-91925673D01*
X54945162Y-92269201D01*
X54944838Y-92641167D01*
X37571701Y-92641167D01*
X42763868Y-87449000D01*
X66564132Y-87449000D01*
X66513667Y-87499465D01*
X66273057Y-87598883D01*
X66009808Y-87861673D01*
X65867162Y-88205201D01*
X65866838Y-88577167D01*
X66008883Y-88920943D01*
X66271673Y-89184192D01*
X66615201Y-89326838D01*
X66987167Y-89327162D01*
X67330943Y-89185117D01*
X67594192Y-88922327D01*
X67694778Y-88680090D01*
X68925868Y-87449000D01*
X108874132Y-87449000D01*
X109899566Y-88474434D01*
X110170459Y-88655439D01*
X110490000Y-88719000D01*
X163148766Y-88719000D01*
X163389201Y-88818838D01*
X163761167Y-88819162D01*
X164104943Y-88677117D01*
X164368192Y-88414327D01*
X164510838Y-88070799D01*
X164511162Y-87698833D01*
X164369117Y-87355057D01*
X164106327Y-87091808D01*
X163762799Y-86949162D01*
X163390833Y-86948838D01*
X163148422Y-87049000D01*
X110835868Y-87049000D01*
X108085718Y-84298850D01*
X147454424Y-84298850D01*
X147626911Y-84716301D01*
X147946019Y-85035967D01*
X148363168Y-85209182D01*
X148814850Y-85209576D01*
X149232301Y-85037089D01*
X149551967Y-84717981D01*
X149725182Y-84300832D01*
X149725497Y-83939263D01*
X149994737Y-83939497D01*
X149994424Y-84298850D01*
X150166911Y-84716301D01*
X150486019Y-85035967D01*
X150903168Y-85209182D01*
X151354850Y-85209576D01*
X151772301Y-85037089D01*
X152091967Y-84717981D01*
X152265182Y-84300832D01*
X152265405Y-84044850D01*
X168536424Y-84044850D01*
X168708911Y-84462301D01*
X169028019Y-84781967D01*
X169445168Y-84955182D01*
X169896850Y-84955576D01*
X170314301Y-84783089D01*
X170633967Y-84463981D01*
X170807182Y-84046832D01*
X170807497Y-83685263D01*
X171076737Y-83685497D01*
X171076424Y-84044850D01*
X171248911Y-84462301D01*
X171568019Y-84781967D01*
X171985168Y-84955182D01*
X172436850Y-84955576D01*
X172854301Y-84783089D01*
X173173967Y-84463981D01*
X173347182Y-84046832D01*
X173347576Y-83595150D01*
X173175089Y-83177699D01*
X172855981Y-82858033D01*
X172438832Y-82684818D01*
X172077263Y-82684503D01*
X172077576Y-82325150D01*
X171905089Y-81907699D01*
X171585981Y-81588033D01*
X171168832Y-81414818D01*
X170717150Y-81414424D01*
X170299699Y-81586911D01*
X169980033Y-81906019D01*
X169806818Y-82323168D01*
X169806503Y-82684737D01*
X169447150Y-82684424D01*
X169029699Y-82856911D01*
X168710033Y-83176019D01*
X168536818Y-83593168D01*
X168536424Y-84044850D01*
X152265405Y-84044850D01*
X152265576Y-83849150D01*
X152093089Y-83431699D01*
X151773981Y-83112033D01*
X151356832Y-82938818D01*
X150995263Y-82938503D01*
X150995576Y-82579150D01*
X150823089Y-82161699D01*
X150503981Y-81842033D01*
X150086832Y-81668818D01*
X149635150Y-81668424D01*
X149217699Y-81840911D01*
X148898033Y-82160019D01*
X148724818Y-82577168D01*
X148724503Y-82938737D01*
X148365150Y-82938424D01*
X147947699Y-83110911D01*
X147628033Y-83430019D01*
X147454818Y-83847168D01*
X147454424Y-84298850D01*
X108085718Y-84298850D01*
X107826535Y-84039667D01*
X107727117Y-83799057D01*
X107464327Y-83535808D01*
X107120799Y-83393162D01*
X106748833Y-83392838D01*
X106405057Y-83534883D01*
X106141808Y-83797673D01*
X105999162Y-84141201D01*
X105998838Y-84513167D01*
X106140883Y-84856943D01*
X106403673Y-85120192D01*
X106645910Y-85220778D01*
X107204132Y-85779000D01*
X42418000Y-85779000D01*
X42098460Y-85842560D01*
X41827566Y-86023566D01*
X36287667Y-91563465D01*
X36047057Y-91662883D01*
X35783808Y-91925673D01*
X35683222Y-92167910D01*
X33191566Y-94659566D01*
X33010561Y-94930459D01*
X32947000Y-95250000D01*
X23710000Y-95250000D01*
X23710000Y-71359295D01*
X152764673Y-71359295D01*
X153051802Y-72054200D01*
X153583003Y-72586330D01*
X154277406Y-72874671D01*
X155029295Y-72875327D01*
X155724200Y-72588198D01*
X155990929Y-72321934D01*
X158577671Y-72321934D01*
X158707530Y-72615257D01*
X159409614Y-72884357D01*
X160161235Y-72864297D01*
X160762470Y-72615257D01*
X160892329Y-72321934D01*
X159735000Y-71164605D01*
X158577671Y-72321934D01*
X155990929Y-72321934D01*
X156256330Y-72056997D01*
X156544671Y-71362594D01*
X156545284Y-70659614D01*
X157835643Y-70659614D01*
X157855703Y-71411235D01*
X158104743Y-72012470D01*
X158398066Y-72142329D01*
X159555395Y-70985000D01*
X159914605Y-70985000D01*
X161071934Y-72142329D01*
X161365257Y-72012470D01*
X161615610Y-71359295D01*
X162924673Y-71359295D01*
X163211802Y-72054200D01*
X163743003Y-72586330D01*
X164437406Y-72874671D01*
X165189295Y-72875327D01*
X165884200Y-72588198D01*
X166416330Y-72056997D01*
X166704671Y-71362594D01*
X166705327Y-70610705D01*
X166418198Y-69915800D01*
X165886997Y-69383670D01*
X165192594Y-69095329D01*
X164440705Y-69094673D01*
X163745800Y-69381802D01*
X163213670Y-69913003D01*
X162925329Y-70607406D01*
X162924673Y-71359295D01*
X161615610Y-71359295D01*
X161634357Y-71310386D01*
X161614297Y-70558765D01*
X161365257Y-69957530D01*
X161071934Y-69827671D01*
X159914605Y-70985000D01*
X159555395Y-70985000D01*
X158398066Y-69827671D01*
X158104743Y-69957530D01*
X157835643Y-70659614D01*
X156545284Y-70659614D01*
X156545327Y-70610705D01*
X156258198Y-69915800D01*
X155990932Y-69648066D01*
X158577671Y-69648066D01*
X159735000Y-70805395D01*
X160892329Y-69648066D01*
X160762470Y-69354743D01*
X160060386Y-69085643D01*
X159308765Y-69105703D01*
X158707530Y-69354743D01*
X158577671Y-69648066D01*
X155990932Y-69648066D01*
X155726997Y-69383670D01*
X155032594Y-69095329D01*
X154280705Y-69094673D01*
X153585800Y-69381802D01*
X153053670Y-69913003D01*
X152765329Y-70607406D01*
X152764673Y-71359295D01*
X23710000Y-71359295D01*
X23710000Y-61340133D01*
X43233472Y-61340133D01*
X43287303Y-61569179D01*
X43764664Y-61734681D01*
X44269023Y-61704906D01*
X44596697Y-61569179D01*
X44650528Y-61340133D01*
X43942000Y-60631605D01*
X43233472Y-61340133D01*
X23710000Y-61340133D01*
X23710000Y-59240167D01*
X37037838Y-59240167D01*
X37179883Y-59583943D01*
X37347230Y-59751583D01*
X37292162Y-59884201D01*
X37291838Y-60256167D01*
X37433883Y-60599943D01*
X37696673Y-60863192D01*
X38040201Y-61005838D01*
X38412167Y-61006162D01*
X38755943Y-60864117D01*
X39019192Y-60601327D01*
X39154835Y-60274664D01*
X42659319Y-60274664D01*
X42689094Y-60779023D01*
X42824821Y-61106697D01*
X43053867Y-61160528D01*
X43762395Y-60452000D01*
X43053867Y-59743472D01*
X42824821Y-59797303D01*
X42659319Y-60274664D01*
X39154835Y-60274664D01*
X39161838Y-60257799D01*
X39161922Y-60161382D01*
X39759437Y-59563867D01*
X43233472Y-59563867D01*
X43942000Y-60272395D01*
X44650528Y-59563867D01*
X44596697Y-59334821D01*
X44119336Y-59169319D01*
X43614977Y-59199094D01*
X43287303Y-59334821D01*
X43233472Y-59563867D01*
X39759437Y-59563867D01*
X41956305Y-57367000D01*
X45333168Y-57367000D01*
X45212221Y-57658273D01*
X45211780Y-58163510D01*
X45404718Y-58630458D01*
X45761663Y-58988026D01*
X46228273Y-59181779D01*
X46230488Y-59181781D01*
X45763542Y-59374718D01*
X45405974Y-59731663D01*
X45212221Y-60198273D01*
X45212032Y-60415071D01*
X45194906Y-60124977D01*
X45059179Y-59797303D01*
X44830133Y-59743472D01*
X44121605Y-60452000D01*
X44830133Y-61160528D01*
X45059179Y-61106697D01*
X45211812Y-60666453D01*
X45211780Y-60703510D01*
X45404718Y-61170458D01*
X45761663Y-61528026D01*
X46228273Y-61721779D01*
X46733510Y-61722220D01*
X47200458Y-61529282D01*
X47389937Y-61340133D01*
X48313472Y-61340133D01*
X48367303Y-61569179D01*
X48844664Y-61734681D01*
X49349023Y-61704906D01*
X49676697Y-61569179D01*
X49730528Y-61340133D01*
X62791472Y-61340133D01*
X62845303Y-61569179D01*
X63322664Y-61734681D01*
X63827023Y-61704906D01*
X64154697Y-61569179D01*
X64208528Y-61340133D01*
X63500000Y-60631605D01*
X62791472Y-61340133D01*
X49730528Y-61340133D01*
X49022000Y-60631605D01*
X48313472Y-61340133D01*
X47389937Y-61340133D01*
X47558026Y-61172337D01*
X47751779Y-60705727D01*
X47751968Y-60488929D01*
X47769094Y-60779023D01*
X47904821Y-61106697D01*
X48133867Y-61160528D01*
X48842395Y-60452000D01*
X49201605Y-60452000D01*
X49910133Y-61160528D01*
X50139179Y-61106697D01*
X50304681Y-60629336D01*
X50283743Y-60274664D01*
X62217319Y-60274664D01*
X62247094Y-60779023D01*
X62382821Y-61106697D01*
X62611867Y-61160528D01*
X63320395Y-60452000D01*
X62611867Y-59743472D01*
X62382821Y-59797303D01*
X62217319Y-60274664D01*
X50283743Y-60274664D01*
X50274906Y-60124977D01*
X50139179Y-59797303D01*
X49910133Y-59743472D01*
X49201605Y-60452000D01*
X48842395Y-60452000D01*
X48133867Y-59743472D01*
X47904821Y-59797303D01*
X47752188Y-60237547D01*
X47752220Y-60200490D01*
X47559282Y-59733542D01*
X47389903Y-59563867D01*
X48313472Y-59563867D01*
X49022000Y-60272395D01*
X49730528Y-59563867D01*
X62791472Y-59563867D01*
X63500000Y-60272395D01*
X64208528Y-59563867D01*
X64154697Y-59334821D01*
X63677336Y-59169319D01*
X63172977Y-59199094D01*
X62845303Y-59334821D01*
X62791472Y-59563867D01*
X49730528Y-59563867D01*
X49676697Y-59334821D01*
X49199336Y-59169319D01*
X48694977Y-59199094D01*
X48367303Y-59334821D01*
X48313472Y-59563867D01*
X47389903Y-59563867D01*
X47202337Y-59375974D01*
X46735727Y-59182221D01*
X46733512Y-59182219D01*
X47200458Y-58989282D01*
X47558026Y-58632337D01*
X47751779Y-58165727D01*
X47752220Y-57660490D01*
X47630953Y-57367000D01*
X64891168Y-57367000D01*
X64770221Y-57658273D01*
X64769780Y-58163510D01*
X64962718Y-58630458D01*
X65319663Y-58988026D01*
X65786273Y-59181779D01*
X65788488Y-59181781D01*
X65321542Y-59374718D01*
X64963974Y-59731663D01*
X64770221Y-60198273D01*
X64770032Y-60415071D01*
X64752906Y-60124977D01*
X64617179Y-59797303D01*
X64388133Y-59743472D01*
X63679605Y-60452000D01*
X64388133Y-61160528D01*
X64617179Y-61106697D01*
X64769812Y-60666453D01*
X64769780Y-60703510D01*
X64962718Y-61170458D01*
X65319663Y-61528026D01*
X65786273Y-61721779D01*
X66291510Y-61722220D01*
X66758458Y-61529282D01*
X66947937Y-61340133D01*
X67871472Y-61340133D01*
X67925303Y-61569179D01*
X68402664Y-61734681D01*
X68907023Y-61704906D01*
X69234697Y-61569179D01*
X69288528Y-61340133D01*
X82349472Y-61340133D01*
X82403303Y-61569179D01*
X82880664Y-61734681D01*
X83385023Y-61704906D01*
X83712697Y-61569179D01*
X83766528Y-61340133D01*
X83058000Y-60631605D01*
X82349472Y-61340133D01*
X69288528Y-61340133D01*
X68580000Y-60631605D01*
X67871472Y-61340133D01*
X66947937Y-61340133D01*
X67116026Y-61172337D01*
X67309779Y-60705727D01*
X67309968Y-60488929D01*
X67327094Y-60779023D01*
X67462821Y-61106697D01*
X67691867Y-61160528D01*
X68400395Y-60452000D01*
X68759605Y-60452000D01*
X69468133Y-61160528D01*
X69697179Y-61106697D01*
X69862681Y-60629336D01*
X69841743Y-60274664D01*
X81775319Y-60274664D01*
X81805094Y-60779023D01*
X81940821Y-61106697D01*
X82169867Y-61160528D01*
X82878395Y-60452000D01*
X82169867Y-59743472D01*
X81940821Y-59797303D01*
X81775319Y-60274664D01*
X69841743Y-60274664D01*
X69832906Y-60124977D01*
X69697179Y-59797303D01*
X69468133Y-59743472D01*
X68759605Y-60452000D01*
X68400395Y-60452000D01*
X67691867Y-59743472D01*
X67462821Y-59797303D01*
X67310188Y-60237547D01*
X67310220Y-60200490D01*
X67117282Y-59733542D01*
X66947903Y-59563867D01*
X67871472Y-59563867D01*
X68580000Y-60272395D01*
X69288528Y-59563867D01*
X69234697Y-59334821D01*
X68757336Y-59169319D01*
X68252977Y-59199094D01*
X67925303Y-59334821D01*
X67871472Y-59563867D01*
X66947903Y-59563867D01*
X66760337Y-59375974D01*
X66293727Y-59182221D01*
X66291512Y-59182219D01*
X66758458Y-58989282D01*
X67116026Y-58632337D01*
X67309779Y-58165727D01*
X67310220Y-57660490D01*
X67188953Y-57367000D01*
X81487696Y-57367000D01*
X83319032Y-59198337D01*
X83235336Y-59169319D01*
X82730977Y-59199094D01*
X82403303Y-59334821D01*
X82349472Y-59563867D01*
X83058000Y-60272395D01*
X83072143Y-60258253D01*
X83251748Y-60437858D01*
X83237605Y-60452000D01*
X83946133Y-61160528D01*
X84175179Y-61106697D01*
X84327812Y-60666453D01*
X84327780Y-60703510D01*
X84520718Y-61170458D01*
X84877663Y-61528026D01*
X85344273Y-61721779D01*
X85849510Y-61722220D01*
X86316458Y-61529282D01*
X86505937Y-61340133D01*
X87429472Y-61340133D01*
X87483303Y-61569179D01*
X87960664Y-61734681D01*
X88465023Y-61704906D01*
X88792697Y-61569179D01*
X88846528Y-61340133D01*
X102415472Y-61340133D01*
X102469303Y-61569179D01*
X102946664Y-61734681D01*
X103451023Y-61704906D01*
X103778697Y-61569179D01*
X103832528Y-61340133D01*
X103124000Y-60631605D01*
X102415472Y-61340133D01*
X88846528Y-61340133D01*
X88138000Y-60631605D01*
X87429472Y-61340133D01*
X86505937Y-61340133D01*
X86674026Y-61172337D01*
X86867779Y-60705727D01*
X86867968Y-60488929D01*
X86885094Y-60779023D01*
X87020821Y-61106697D01*
X87249867Y-61160528D01*
X87958395Y-60452000D01*
X88317605Y-60452000D01*
X89026133Y-61160528D01*
X89255179Y-61106697D01*
X89420681Y-60629336D01*
X89399743Y-60274664D01*
X101841319Y-60274664D01*
X101871094Y-60779023D01*
X102006821Y-61106697D01*
X102235867Y-61160528D01*
X102944395Y-60452000D01*
X103303605Y-60452000D01*
X104012133Y-61160528D01*
X104241179Y-61106697D01*
X104393812Y-60666453D01*
X104393780Y-60703510D01*
X104586718Y-61170458D01*
X104943663Y-61528026D01*
X105410273Y-61721779D01*
X105915510Y-61722220D01*
X106382458Y-61529282D01*
X106571937Y-61340133D01*
X107495472Y-61340133D01*
X107549303Y-61569179D01*
X108026664Y-61734681D01*
X108531023Y-61704906D01*
X108858697Y-61569179D01*
X108912528Y-61340133D01*
X108204000Y-60631605D01*
X107495472Y-61340133D01*
X106571937Y-61340133D01*
X106740026Y-61172337D01*
X106933779Y-60705727D01*
X106933968Y-60488929D01*
X106951094Y-60779023D01*
X107086821Y-61106697D01*
X107315867Y-61160528D01*
X108024395Y-60452000D01*
X108383605Y-60452000D01*
X109092133Y-61160528D01*
X109321179Y-61106697D01*
X109486681Y-60629336D01*
X109456906Y-60124977D01*
X109321179Y-59797303D01*
X109092133Y-59743472D01*
X108383605Y-60452000D01*
X108024395Y-60452000D01*
X107315867Y-59743472D01*
X107086821Y-59797303D01*
X106934188Y-60237547D01*
X106934220Y-60200490D01*
X106741282Y-59733542D01*
X106571903Y-59563867D01*
X107495472Y-59563867D01*
X108204000Y-60272395D01*
X108912528Y-59563867D01*
X108858697Y-59334821D01*
X108381336Y-59169319D01*
X107876977Y-59199094D01*
X107549303Y-59334821D01*
X107495472Y-59563867D01*
X106571903Y-59563867D01*
X106384337Y-59375974D01*
X105917727Y-59182221D01*
X105915512Y-59182219D01*
X106382458Y-58989282D01*
X106740026Y-58632337D01*
X106933779Y-58165727D01*
X106934220Y-57660490D01*
X106741282Y-57193542D01*
X106384337Y-56835974D01*
X105917727Y-56642221D01*
X105412490Y-56641780D01*
X104945542Y-56834718D01*
X104587974Y-57191663D01*
X104394221Y-57658273D01*
X104393780Y-58163510D01*
X104586718Y-58630458D01*
X104943663Y-58988026D01*
X105410273Y-59181779D01*
X105412488Y-59181781D01*
X104945542Y-59374718D01*
X104587974Y-59731663D01*
X104394221Y-60198273D01*
X104394032Y-60415071D01*
X104376906Y-60124977D01*
X104241179Y-59797303D01*
X104012133Y-59743472D01*
X103303605Y-60452000D01*
X102944395Y-60452000D01*
X102235867Y-59743472D01*
X102006821Y-59797303D01*
X101841319Y-60274664D01*
X89399743Y-60274664D01*
X89390906Y-60124977D01*
X89255179Y-59797303D01*
X89026133Y-59743472D01*
X88317605Y-60452000D01*
X87958395Y-60452000D01*
X87249867Y-59743472D01*
X87020821Y-59797303D01*
X86868188Y-60237547D01*
X86868220Y-60200490D01*
X86675282Y-59733542D01*
X86505903Y-59563867D01*
X87429472Y-59563867D01*
X88138000Y-60272395D01*
X88846528Y-59563867D01*
X102415472Y-59563867D01*
X103124000Y-60272395D01*
X103832528Y-59563867D01*
X103778697Y-59334821D01*
X103301336Y-59169319D01*
X102796977Y-59199094D01*
X102469303Y-59334821D01*
X102415472Y-59563867D01*
X88846528Y-59563867D01*
X88792697Y-59334821D01*
X88315336Y-59169319D01*
X87810977Y-59199094D01*
X87483303Y-59334821D01*
X87429472Y-59563867D01*
X86505903Y-59563867D01*
X86318337Y-59375974D01*
X85851727Y-59182221D01*
X85849512Y-59182219D01*
X86316458Y-58989282D01*
X86674026Y-58632337D01*
X86867779Y-58165727D01*
X86868220Y-57660490D01*
X86675282Y-57193542D01*
X86318337Y-56835974D01*
X85851727Y-56642221D01*
X85353090Y-56641786D01*
X84205652Y-55494348D01*
X83970446Y-55337187D01*
X83924415Y-55328031D01*
X83870688Y-55317344D01*
X141566501Y-55317344D01*
X142004790Y-56378086D01*
X142815645Y-57190357D01*
X143875620Y-57630498D01*
X145023344Y-57631499D01*
X146084086Y-57193210D01*
X146788729Y-56489795D01*
X149796716Y-56489795D01*
X150045106Y-57090943D01*
X150504637Y-57551278D01*
X151105352Y-57800716D01*
X151755795Y-57801284D01*
X152356943Y-57552894D01*
X152817278Y-57093363D01*
X152817350Y-57093191D01*
X153274637Y-57551278D01*
X153875352Y-57800716D01*
X154525795Y-57801284D01*
X155126943Y-57552894D01*
X155587278Y-57093363D01*
X155587350Y-57093191D01*
X156044637Y-57551278D01*
X156645352Y-57800716D01*
X157295795Y-57801284D01*
X157896943Y-57552894D01*
X158131715Y-57318532D01*
X158769073Y-57318532D01*
X158867736Y-57585387D01*
X159477461Y-57811908D01*
X160127460Y-57787856D01*
X160616264Y-57585387D01*
X160714927Y-57318532D01*
X161539073Y-57318532D01*
X161637736Y-57585387D01*
X162247461Y-57811908D01*
X162897460Y-57787856D01*
X163386264Y-57585387D01*
X163484927Y-57318532D01*
X162512000Y-56345605D01*
X161539073Y-57318532D01*
X160714927Y-57318532D01*
X159742000Y-56345605D01*
X158769073Y-57318532D01*
X158131715Y-57318532D01*
X158357278Y-57093363D01*
X158371779Y-57058442D01*
X158589468Y-57138927D01*
X159562395Y-56166000D01*
X159921605Y-56166000D01*
X160894532Y-57138927D01*
X161127000Y-57052978D01*
X161359468Y-57138927D01*
X162332395Y-56166000D01*
X162691605Y-56166000D01*
X163664532Y-57138927D01*
X163931387Y-57040264D01*
X164157908Y-56430539D01*
X164133856Y-55780540D01*
X163941995Y-55317344D01*
X166606501Y-55317344D01*
X167044790Y-56378086D01*
X167855645Y-57190357D01*
X168915620Y-57630498D01*
X170063344Y-57631499D01*
X171124086Y-57193210D01*
X171936357Y-56382355D01*
X172376498Y-55322380D01*
X172377499Y-54174656D01*
X171939210Y-53113914D01*
X171128355Y-52301643D01*
X170068380Y-51861502D01*
X168920656Y-51860501D01*
X167859914Y-52298790D01*
X167047643Y-53109645D01*
X166607502Y-54169620D01*
X166606501Y-55317344D01*
X163941995Y-55317344D01*
X163931387Y-55291736D01*
X163664532Y-55193073D01*
X162691605Y-56166000D01*
X162332395Y-56166000D01*
X161359468Y-55193073D01*
X161127000Y-55279022D01*
X160894532Y-55193073D01*
X159921605Y-56166000D01*
X159562395Y-56166000D01*
X158589468Y-55193073D01*
X158372251Y-55273384D01*
X158358894Y-55241057D01*
X158079085Y-54960759D01*
X158680795Y-54961284D01*
X158807763Y-54908822D01*
X158769073Y-55013468D01*
X159742000Y-55986395D01*
X160714927Y-55013468D01*
X160676393Y-54909244D01*
X160800352Y-54960716D01*
X161450795Y-54961284D01*
X161577763Y-54908822D01*
X161539073Y-55013468D01*
X162512000Y-55986395D01*
X163484927Y-55013468D01*
X163386264Y-54746613D01*
X162776539Y-54520092D01*
X162224624Y-54540515D01*
X162512278Y-54253363D01*
X162761716Y-53652648D01*
X162762284Y-53002205D01*
X162513894Y-52401057D01*
X162054363Y-51940722D01*
X161453648Y-51691284D01*
X160803205Y-51690716D01*
X160202057Y-51939106D01*
X159741722Y-52398637D01*
X159741650Y-52398809D01*
X159284363Y-51940722D01*
X158683648Y-51691284D01*
X158033205Y-51690716D01*
X157432057Y-51939106D01*
X156971722Y-52398637D01*
X156971650Y-52398809D01*
X156514363Y-51940722D01*
X155913648Y-51691284D01*
X155263205Y-51690716D01*
X154662057Y-51939106D01*
X154201722Y-52398637D01*
X154201650Y-52398809D01*
X153744363Y-51940722D01*
X153143648Y-51691284D01*
X152493205Y-51690716D01*
X151892057Y-51939106D01*
X151431722Y-52398637D01*
X151182284Y-52999352D01*
X151181716Y-53649795D01*
X151430106Y-54250943D01*
X151709915Y-54531241D01*
X151108205Y-54530716D01*
X150507057Y-54779106D01*
X150046722Y-55238637D01*
X149797284Y-55839352D01*
X149796716Y-56489795D01*
X146788729Y-56489795D01*
X146896357Y-56382355D01*
X147336498Y-55322380D01*
X147337499Y-54174656D01*
X146899210Y-53113914D01*
X146088355Y-52301643D01*
X145028380Y-51861502D01*
X143880656Y-51860501D01*
X142819914Y-52298790D01*
X142007643Y-53109645D01*
X141567502Y-54169620D01*
X141566501Y-55317344D01*
X83870688Y-55317344D01*
X83693000Y-55282000D01*
X41021000Y-55282000D01*
X40789585Y-55328031D01*
X40743554Y-55337187D01*
X40508348Y-55494348D01*
X37882775Y-58119921D01*
X37787833Y-58119838D01*
X37444057Y-58261883D01*
X37180808Y-58524673D01*
X37038162Y-58868201D01*
X37037838Y-59240167D01*
X23710000Y-59240167D01*
X23710000Y-51939265D01*
X39496670Y-51939265D01*
X39786078Y-52639686D01*
X40321495Y-53176039D01*
X41021410Y-53466668D01*
X41779265Y-53467330D01*
X42479686Y-53177922D01*
X43016039Y-52642505D01*
X43306668Y-51942590D01*
X43306670Y-51939265D01*
X49656670Y-51939265D01*
X49946078Y-52639686D01*
X50481495Y-53176039D01*
X51181410Y-53466668D01*
X51939265Y-53467330D01*
X52639686Y-53177922D01*
X53176039Y-52642505D01*
X53466668Y-51942590D01*
X53466670Y-51939265D01*
X59054670Y-51939265D01*
X59344078Y-52639686D01*
X59879495Y-53176039D01*
X60579410Y-53466668D01*
X61337265Y-53467330D01*
X62037686Y-53177922D01*
X62574039Y-52642505D01*
X62864668Y-51942590D01*
X62864670Y-51939265D01*
X69214670Y-51939265D01*
X69504078Y-52639686D01*
X70039495Y-53176039D01*
X70739410Y-53466668D01*
X71497265Y-53467330D01*
X72197686Y-53177922D01*
X72734039Y-52642505D01*
X73024668Y-51942590D01*
X73024670Y-51939265D01*
X78612670Y-51939265D01*
X78902078Y-52639686D01*
X79437495Y-53176039D01*
X80137410Y-53466668D01*
X80895265Y-53467330D01*
X81595686Y-53177922D01*
X82132039Y-52642505D01*
X82422668Y-51942590D01*
X82422670Y-51939265D01*
X88772670Y-51939265D01*
X89062078Y-52639686D01*
X89597495Y-53176039D01*
X90297410Y-53466668D01*
X91055265Y-53467330D01*
X91755686Y-53177922D01*
X92292039Y-52642505D01*
X92582668Y-51942590D01*
X92582670Y-51939265D01*
X98678670Y-51939265D01*
X98968078Y-52639686D01*
X99503495Y-53176039D01*
X100203410Y-53466668D01*
X100961265Y-53467330D01*
X101661686Y-53177922D01*
X102198039Y-52642505D01*
X102488668Y-51942590D01*
X102488670Y-51939265D01*
X108838670Y-51939265D01*
X109128078Y-52639686D01*
X109663495Y-53176039D01*
X110363410Y-53466668D01*
X111121265Y-53467330D01*
X111821686Y-53177922D01*
X112358039Y-52642505D01*
X112648668Y-51942590D01*
X112649330Y-51184735D01*
X112359922Y-50484314D01*
X111824505Y-49947961D01*
X111124590Y-49657332D01*
X110366735Y-49656670D01*
X109666314Y-49946078D01*
X109129961Y-50481495D01*
X108839332Y-51181410D01*
X108838670Y-51939265D01*
X102488670Y-51939265D01*
X102489330Y-51184735D01*
X102199922Y-50484314D01*
X101664505Y-49947961D01*
X100964590Y-49657332D01*
X100206735Y-49656670D01*
X99506314Y-49946078D01*
X98969961Y-50481495D01*
X98679332Y-51181410D01*
X98678670Y-51939265D01*
X92582670Y-51939265D01*
X92583330Y-51184735D01*
X92293922Y-50484314D01*
X91758505Y-49947961D01*
X91058590Y-49657332D01*
X90300735Y-49656670D01*
X89600314Y-49946078D01*
X89063961Y-50481495D01*
X88773332Y-51181410D01*
X88772670Y-51939265D01*
X82422670Y-51939265D01*
X82423330Y-51184735D01*
X82133922Y-50484314D01*
X81598505Y-49947961D01*
X80898590Y-49657332D01*
X80140735Y-49656670D01*
X79440314Y-49946078D01*
X78903961Y-50481495D01*
X78613332Y-51181410D01*
X78612670Y-51939265D01*
X73024670Y-51939265D01*
X73025330Y-51184735D01*
X72735922Y-50484314D01*
X72200505Y-49947961D01*
X71500590Y-49657332D01*
X70742735Y-49656670D01*
X70042314Y-49946078D01*
X69505961Y-50481495D01*
X69215332Y-51181410D01*
X69214670Y-51939265D01*
X62864670Y-51939265D01*
X62865330Y-51184735D01*
X62575922Y-50484314D01*
X62040505Y-49947961D01*
X61340590Y-49657332D01*
X60582735Y-49656670D01*
X59882314Y-49946078D01*
X59345961Y-50481495D01*
X59055332Y-51181410D01*
X59054670Y-51939265D01*
X53466670Y-51939265D01*
X53467330Y-51184735D01*
X53177922Y-50484314D01*
X52642505Y-49947961D01*
X51942590Y-49657332D01*
X51184735Y-49656670D01*
X50484314Y-49946078D01*
X49947961Y-50481495D01*
X49657332Y-51181410D01*
X49656670Y-51939265D01*
X43306670Y-51939265D01*
X43307330Y-51184735D01*
X43017922Y-50484314D01*
X42482505Y-49947961D01*
X41782590Y-49657332D01*
X41024735Y-49656670D01*
X40324314Y-49946078D01*
X39787961Y-50481495D01*
X39497332Y-51181410D01*
X39496670Y-51939265D01*
X23710000Y-51939265D01*
X23710000Y-46710000D01*
X181290000Y-46710000D01*
X181290000Y-204290000D01*
X181290000Y-204290000D01*
G37*
X181290000Y-204290000D02*
X23710000Y-204290000D01*
X23710000Y-200598070D01*
X30622387Y-200598070D01*
X31159425Y-201897801D01*
X32152969Y-202893080D01*
X33451760Y-203432385D01*
X34858070Y-203433613D01*
X36157801Y-202896575D01*
X37153080Y-201903031D01*
X37692385Y-200604240D01*
X37693613Y-199197930D01*
X37156575Y-197898199D01*
X36163031Y-196902920D01*
X35306917Y-196547431D01*
X36148334Y-196202867D01*
X36172467Y-196186742D01*
X36502882Y-195722487D01*
X34158000Y-193377605D01*
X31813118Y-195722487D01*
X32143533Y-196186742D01*
X33007271Y-196548596D01*
X32158199Y-196899425D01*
X31162920Y-197892969D01*
X30623615Y-199191760D01*
X30622387Y-200598070D01*
X23710000Y-200598070D01*
X23710000Y-193886916D01*
X30620197Y-193886916D01*
X31153133Y-195188334D01*
X31169258Y-195212467D01*
X31633513Y-195542882D01*
X33978395Y-193198000D01*
X34337605Y-193198000D01*
X36682487Y-195542882D01*
X37146742Y-195212467D01*
X37690141Y-193915383D01*
X37690210Y-193898070D01*
X53736387Y-193898070D01*
X54273425Y-195197801D01*
X55266969Y-196193080D01*
X56122211Y-196548207D01*
X55272199Y-196899425D01*
X54276920Y-197892969D01*
X53737615Y-199191760D01*
X53736387Y-200598070D01*
X54273425Y-201897801D01*
X55266969Y-202893080D01*
X56565760Y-203432385D01*
X57972070Y-203433613D01*
X59271801Y-202896575D01*
X60267080Y-201903031D01*
X60806385Y-200604240D01*
X60806390Y-200598070D01*
X76977387Y-200598070D01*
X77514425Y-201897801D01*
X78507969Y-202893080D01*
X79806760Y-203432385D01*
X81213070Y-203433613D01*
X82512801Y-202896575D01*
X83508080Y-201903031D01*
X84047385Y-200604240D01*
X84048613Y-199197930D01*
X83864055Y-198751265D01*
X92328670Y-198751265D01*
X92618078Y-199451686D01*
X93153495Y-199988039D01*
X93853410Y-200278668D01*
X94611265Y-200279330D01*
X95311686Y-199989922D01*
X95848039Y-199454505D01*
X96138668Y-198754590D01*
X96138670Y-198751265D01*
X97408670Y-198751265D01*
X97698078Y-199451686D01*
X98233495Y-199988039D01*
X98933410Y-200278668D01*
X99691265Y-200279330D01*
X100391686Y-199989922D01*
X100928039Y-199454505D01*
X100981276Y-199326296D01*
X100980387Y-200344070D01*
X101517425Y-201643801D01*
X102510969Y-202639080D01*
X103809760Y-203178385D01*
X105216070Y-203179613D01*
X106515801Y-202642575D01*
X107511080Y-201649031D01*
X108050385Y-200350240D01*
X108051613Y-198943930D01*
X107919531Y-198624265D01*
X116331670Y-198624265D01*
X116621078Y-199324686D01*
X117156495Y-199861039D01*
X117856410Y-200151668D01*
X118614265Y-200152330D01*
X119314686Y-199862922D01*
X119851039Y-199327505D01*
X120141668Y-198627590D01*
X120141670Y-198624265D01*
X121411670Y-198624265D01*
X121701078Y-199324686D01*
X122236495Y-199861039D01*
X122936410Y-200151668D01*
X123694265Y-200152330D01*
X124394686Y-199862922D01*
X124931039Y-199327505D01*
X124984387Y-199199029D01*
X124983387Y-200344070D01*
X125520425Y-201643801D01*
X126513969Y-202639080D01*
X127812760Y-203178385D01*
X129219070Y-203179613D01*
X130518801Y-202642575D01*
X131514080Y-201649031D01*
X132053385Y-200350240D01*
X132054613Y-198943930D01*
X131922531Y-198624265D01*
X140588670Y-198624265D01*
X140878078Y-199324686D01*
X141413495Y-199861039D01*
X142113410Y-200151668D01*
X142871265Y-200152330D01*
X143571686Y-199862922D01*
X144108039Y-199327505D01*
X144398668Y-198627590D01*
X144398670Y-198624265D01*
X145668670Y-198624265D01*
X145958078Y-199324686D01*
X146493495Y-199861039D01*
X147193410Y-200151668D01*
X147951265Y-200152330D01*
X148651686Y-199862922D01*
X149188039Y-199327505D01*
X149478668Y-198627590D01*
X149478670Y-198624265D01*
X154177670Y-198624265D01*
X154467078Y-199324686D01*
X155002495Y-199861039D01*
X155702410Y-200151668D01*
X156460265Y-200152330D01*
X157160686Y-199862922D01*
X157697039Y-199327505D01*
X157987668Y-198627590D01*
X157987670Y-198624265D01*
X159257670Y-198624265D01*
X159547078Y-199324686D01*
X160082495Y-199861039D01*
X160782410Y-200151668D01*
X161540265Y-200152330D01*
X162240686Y-199862922D01*
X162777039Y-199327505D01*
X163067668Y-198627590D01*
X163067670Y-198624265D01*
X167639670Y-198624265D01*
X167929078Y-199324686D01*
X168464495Y-199861039D01*
X169164410Y-200151668D01*
X169922265Y-200152330D01*
X170622686Y-199862922D01*
X171159039Y-199327505D01*
X171449668Y-198627590D01*
X171449670Y-198624265D01*
X172719670Y-198624265D01*
X173009078Y-199324686D01*
X173544495Y-199861039D01*
X174244410Y-200151668D01*
X175002265Y-200152330D01*
X175702686Y-199862922D01*
X176239039Y-199327505D01*
X176529668Y-198627590D01*
X176530330Y-197869735D01*
X176240922Y-197169314D01*
X175705505Y-196632961D01*
X175005590Y-196342332D01*
X174247735Y-196341670D01*
X173547314Y-196631078D01*
X173010961Y-197166495D01*
X172720332Y-197866410D01*
X172719670Y-198624265D01*
X171449670Y-198624265D01*
X171450330Y-197869735D01*
X171160922Y-197169314D01*
X170625505Y-196632961D01*
X169925590Y-196342332D01*
X169167735Y-196341670D01*
X168467314Y-196631078D01*
X167930961Y-197166495D01*
X167640332Y-197866410D01*
X167639670Y-198624265D01*
X163067670Y-198624265D01*
X163068330Y-197869735D01*
X162778922Y-197169314D01*
X162243505Y-196632961D01*
X161543590Y-196342332D01*
X160785735Y-196341670D01*
X160085314Y-196631078D01*
X159548961Y-197166495D01*
X159258332Y-197866410D01*
X159257670Y-198624265D01*
X157987670Y-198624265D01*
X157988330Y-197869735D01*
X157698922Y-197169314D01*
X157163505Y-196632961D01*
X156463590Y-196342332D01*
X155705735Y-196341670D01*
X155005314Y-196631078D01*
X154468961Y-197166495D01*
X154178332Y-197866410D01*
X154177670Y-198624265D01*
X149478670Y-198624265D01*
X149479330Y-197869735D01*
X149189922Y-197169314D01*
X148654505Y-196632961D01*
X147954590Y-196342332D01*
X147196735Y-196341670D01*
X146496314Y-196631078D01*
X145959961Y-197166495D01*
X145669332Y-197866410D01*
X145668670Y-198624265D01*
X144398670Y-198624265D01*
X144399330Y-197869735D01*
X144109922Y-197169314D01*
X143574505Y-196632961D01*
X142874590Y-196342332D01*
X142116735Y-196341670D01*
X141416314Y-196631078D01*
X140879961Y-197166495D01*
X140589332Y-197866410D01*
X140588670Y-198624265D01*
X131922531Y-198624265D01*
X131517575Y-197644199D01*
X130524031Y-196648920D01*
X129667917Y-196293431D01*
X130509334Y-195948867D01*
X130533467Y-195932742D01*
X130863882Y-195468487D01*
X128519000Y-193123605D01*
X126174118Y-195468487D01*
X126504533Y-195932742D01*
X127368271Y-196294596D01*
X126519199Y-196645425D01*
X125523920Y-197638969D01*
X125221896Y-198366323D01*
X125222330Y-197869735D01*
X124932922Y-197169314D01*
X124397505Y-196632961D01*
X123697590Y-196342332D01*
X122939735Y-196341670D01*
X122239314Y-196631078D01*
X121702961Y-197166495D01*
X121412332Y-197866410D01*
X121411670Y-198624265D01*
X120141670Y-198624265D01*
X120142330Y-197869735D01*
X119852922Y-197169314D01*
X119317505Y-196632961D01*
X118617590Y-196342332D01*
X117859735Y-196341670D01*
X117159314Y-196631078D01*
X116622961Y-197166495D01*
X116332332Y-197866410D01*
X116331670Y-198624265D01*
X107919531Y-198624265D01*
X107514575Y-197644199D01*
X106521031Y-196648920D01*
X105665789Y-196293793D01*
X106515801Y-195942575D01*
X107511080Y-194949031D01*
X108050385Y-193650240D01*
X108050400Y-193632916D01*
X124981197Y-193632916D01*
X125514133Y-194934334D01*
X125530258Y-194958467D01*
X125994513Y-195288882D01*
X128339395Y-192944000D01*
X128698605Y-192944000D01*
X131043487Y-195288882D01*
X131507742Y-194958467D01*
X132051141Y-193661383D01*
X132056803Y-192255084D01*
X131523867Y-190953666D01*
X131507742Y-190929533D01*
X131043487Y-190599118D01*
X128698605Y-192944000D01*
X128339395Y-192944000D01*
X125994513Y-190599118D01*
X125530258Y-190929533D01*
X124986859Y-192226617D01*
X124981197Y-193632916D01*
X108050400Y-193632916D01*
X108051613Y-192243930D01*
X107514575Y-190944199D01*
X106521031Y-189948920D01*
X105222240Y-189409615D01*
X103815930Y-189408387D01*
X102516199Y-189945425D01*
X101520920Y-190938969D01*
X100981615Y-192237760D01*
X100980387Y-193644070D01*
X101517425Y-194943801D01*
X102510969Y-195939080D01*
X103366211Y-196294207D01*
X102516199Y-196645425D01*
X101520920Y-197638969D01*
X101219007Y-198366055D01*
X101219330Y-197996735D01*
X100929922Y-197296314D01*
X100394505Y-196759961D01*
X99694590Y-196469332D01*
X98936735Y-196468670D01*
X98236314Y-196758078D01*
X97699961Y-197293495D01*
X97409332Y-197993410D01*
X97408670Y-198751265D01*
X96138670Y-198751265D01*
X96139330Y-197996735D01*
X95849922Y-197296314D01*
X95314505Y-196759961D01*
X94614590Y-196469332D01*
X93856735Y-196468670D01*
X93156314Y-196758078D01*
X92619961Y-197293495D01*
X92329332Y-197993410D01*
X92328670Y-198751265D01*
X83864055Y-198751265D01*
X83511575Y-197898199D01*
X82518031Y-196902920D01*
X81661917Y-196547431D01*
X82503334Y-196202867D01*
X82527467Y-196186742D01*
X82857882Y-195722487D01*
X80513000Y-193377605D01*
X78168118Y-195722487D01*
X78498533Y-196186742D01*
X79362271Y-196548596D01*
X78513199Y-196899425D01*
X77517920Y-197892969D01*
X76978615Y-199191760D01*
X76977387Y-200598070D01*
X60806390Y-200598070D01*
X60807613Y-199197930D01*
X60270575Y-197898199D01*
X59277031Y-196902920D01*
X58421789Y-196547793D01*
X59271801Y-196196575D01*
X60267080Y-195203031D01*
X60806385Y-193904240D01*
X60806400Y-193886916D01*
X76975197Y-193886916D01*
X77508133Y-195188334D01*
X77524258Y-195212467D01*
X77988513Y-195542882D01*
X80333395Y-193198000D01*
X80692605Y-193198000D01*
X83037487Y-195542882D01*
X83501742Y-195212467D01*
X84045141Y-193915383D01*
X84050803Y-192509084D01*
X83517867Y-191207666D01*
X83501742Y-191183533D01*
X83037487Y-190853118D01*
X80692605Y-193198000D01*
X80333395Y-193198000D01*
X77988513Y-190853118D01*
X77524258Y-191183533D01*
X76980859Y-192480617D01*
X76975197Y-193886916D01*
X60806400Y-193886916D01*
X60807613Y-192497930D01*
X60270575Y-191198199D01*
X59277031Y-190202920D01*
X57978240Y-189663615D01*
X56571930Y-189662387D01*
X55272199Y-190199425D01*
X54276920Y-191192969D01*
X53737615Y-192491760D01*
X53736387Y-193898070D01*
X37690210Y-193898070D01*
X37695803Y-192509084D01*
X37162867Y-191207666D01*
X37146742Y-191183533D01*
X36682487Y-190853118D01*
X34337605Y-193198000D01*
X33978395Y-193198000D01*
X31633513Y-190853118D01*
X31169258Y-191183533D01*
X30625859Y-192480617D01*
X30620197Y-193886916D01*
X23710000Y-193886916D01*
X23710000Y-190673513D01*
X31813118Y-190673513D01*
X34158000Y-193018395D01*
X36502882Y-190673513D01*
X36172467Y-190209258D01*
X34875383Y-189665859D01*
X33469084Y-189660197D01*
X32167666Y-190193133D01*
X32143533Y-190209258D01*
X31813118Y-190673513D01*
X23710000Y-190673513D01*
X23710000Y-188398070D01*
X36967387Y-188398070D01*
X37504425Y-189697801D01*
X38497969Y-190693080D01*
X39796760Y-191232385D01*
X41203070Y-191233613D01*
X42502801Y-190696575D01*
X43498080Y-189703031D01*
X44037385Y-188404240D01*
X44038613Y-186997930D01*
X43501575Y-185698199D01*
X42508031Y-184702920D01*
X41209240Y-184163615D01*
X39802930Y-184162387D01*
X38503199Y-184699425D01*
X37507920Y-185692969D01*
X36968615Y-186991760D01*
X36967387Y-188398070D01*
X23710000Y-188398070D01*
X23710000Y-183192167D01*
X30814838Y-183192167D01*
X30956883Y-183535943D01*
X31219673Y-183799192D01*
X31563201Y-183941838D01*
X31935167Y-183942162D01*
X32278943Y-183800117D01*
X32347179Y-183732000D01*
X59517032Y-183732000D01*
X59516838Y-183954167D01*
X59658883Y-184297943D01*
X59921673Y-184561192D01*
X60265201Y-184703838D01*
X60637167Y-184704162D01*
X60980943Y-184562117D01*
X61176401Y-184367000D01*
X62421729Y-184367000D01*
X61617199Y-184699425D01*
X60621920Y-185692969D01*
X60082615Y-186991760D01*
X60081387Y-188398070D01*
X60618425Y-189697801D01*
X61611969Y-190693080D01*
X62910760Y-191232385D01*
X64317070Y-191233613D01*
X65616801Y-190696575D01*
X65639903Y-190673513D01*
X78168118Y-190673513D01*
X80513000Y-193018395D01*
X82857882Y-190673513D01*
X82527467Y-190209258D01*
X81230383Y-189665859D01*
X79824084Y-189660197D01*
X78522666Y-190193133D01*
X78498533Y-190209258D01*
X78168118Y-190673513D01*
X65639903Y-190673513D01*
X66612080Y-189703031D01*
X67151385Y-188404240D01*
X67152613Y-186997930D01*
X66615575Y-185698199D01*
X65622031Y-184702920D01*
X64813046Y-184367000D01*
X85662729Y-184367000D01*
X84858199Y-184699425D01*
X83862920Y-185692969D01*
X83323615Y-186991760D01*
X83322387Y-188398070D01*
X83859425Y-189697801D01*
X84852969Y-190693080D01*
X86151760Y-191232385D01*
X87558070Y-191233613D01*
X88857801Y-190696575D01*
X89853080Y-189703031D01*
X90392385Y-188404240D01*
X90393346Y-187303650D01*
X91435348Y-188345652D01*
X91670554Y-188502813D01*
X91716585Y-188511969D01*
X91948000Y-188558000D01*
X99314000Y-188558000D01*
X99545415Y-188511969D01*
X99591446Y-188502813D01*
X99826652Y-188345652D01*
X100739978Y-187432326D01*
X101092410Y-187578668D01*
X101850265Y-187579330D01*
X102550686Y-187289922D01*
X103087039Y-186754505D01*
X103377668Y-186054590D01*
X103378330Y-185296735D01*
X103088922Y-184596314D01*
X102553505Y-184059961D01*
X101853590Y-183769332D01*
X101095735Y-183768670D01*
X100395314Y-184058078D01*
X99858961Y-184593495D01*
X99568332Y-185293410D01*
X99567670Y-186051265D01*
X99714668Y-186407028D01*
X99013696Y-187108000D01*
X98033926Y-187108000D01*
X98388039Y-186754505D01*
X98678668Y-186054590D01*
X98679330Y-185296735D01*
X98389922Y-184596314D01*
X97854505Y-184059961D01*
X97154590Y-183769332D01*
X96396735Y-183768670D01*
X96040973Y-183915668D01*
X95222304Y-183097000D01*
X111376430Y-183097000D01*
X111333162Y-183201201D01*
X111332838Y-183573167D01*
X111471821Y-183909532D01*
X110160930Y-183908387D01*
X108861199Y-184445425D01*
X107865920Y-185438969D01*
X107326615Y-186737760D01*
X107325387Y-188144070D01*
X107862425Y-189443801D01*
X108855969Y-190439080D01*
X110154760Y-190978385D01*
X111561070Y-190979613D01*
X112860801Y-190442575D01*
X112883903Y-190419513D01*
X126174118Y-190419513D01*
X128519000Y-192764395D01*
X130863882Y-190419513D01*
X130533467Y-189955258D01*
X129236383Y-189411859D01*
X127830084Y-189406197D01*
X126528666Y-189939133D01*
X126504533Y-189955258D01*
X126174118Y-190419513D01*
X112883903Y-190419513D01*
X113856080Y-189449031D01*
X114395385Y-188150240D01*
X114396613Y-186743930D01*
X114044027Y-185890608D01*
X114046000Y-185891000D01*
X114172699Y-185891000D01*
X114172670Y-185924265D01*
X114462078Y-186624686D01*
X114997495Y-187161039D01*
X115697410Y-187451668D01*
X116455265Y-187452330D01*
X117155686Y-187162922D01*
X117692039Y-186627505D01*
X117982668Y-185927590D01*
X117983330Y-185169735D01*
X117693922Y-184469314D01*
X117158505Y-183932961D01*
X116458590Y-183642332D01*
X115700735Y-183641670D01*
X115000314Y-183931078D01*
X114489501Y-184441000D01*
X114346305Y-184441000D01*
X113203079Y-183297775D01*
X113203162Y-183202833D01*
X113159433Y-183097000D01*
X117301696Y-183097000D01*
X119018674Y-184813978D01*
X118872332Y-185166410D01*
X118871670Y-185924265D01*
X119161078Y-186624686D01*
X119696495Y-187161039D01*
X120396410Y-187451668D01*
X121154265Y-187452330D01*
X121854686Y-187162922D01*
X122391039Y-186627505D01*
X122681668Y-185927590D01*
X122682330Y-185169735D01*
X122392922Y-184469314D01*
X121857505Y-183932961D01*
X121157590Y-183642332D01*
X120399735Y-183641670D01*
X120043972Y-183788668D01*
X118114652Y-181859348D01*
X117879446Y-181702187D01*
X117833415Y-181693031D01*
X117602000Y-181647000D01*
X88564968Y-181647000D01*
X88565033Y-181573000D01*
X120476696Y-181573000D01*
X123717674Y-184813979D01*
X123571332Y-185166410D01*
X123570670Y-185924265D01*
X123860078Y-186624686D01*
X124395495Y-187161039D01*
X125095410Y-187451668D01*
X125853265Y-187452330D01*
X126553686Y-187162922D01*
X127090039Y-186627505D01*
X127380668Y-185927590D01*
X127381330Y-185169735D01*
X127091922Y-184469314D01*
X126556505Y-183932961D01*
X125856590Y-183642332D01*
X125098735Y-183641670D01*
X124742973Y-183788668D01*
X121511304Y-180557000D01*
X123905696Y-180557000D01*
X131305348Y-187956653D01*
X131328537Y-187972148D01*
X131328387Y-188144070D01*
X131865425Y-189443801D01*
X132858969Y-190439080D01*
X134157760Y-190978385D01*
X135564070Y-190979613D01*
X136863801Y-190442575D01*
X137859080Y-189449031D01*
X138398385Y-188150240D01*
X138399613Y-186743930D01*
X138060935Y-185924265D01*
X138429670Y-185924265D01*
X138719078Y-186624686D01*
X139254495Y-187161039D01*
X139954410Y-187451668D01*
X140712265Y-187452330D01*
X141412686Y-187162922D01*
X141949039Y-186627505D01*
X142239668Y-185927590D01*
X142239670Y-185924265D01*
X143128670Y-185924265D01*
X143418078Y-186624686D01*
X143953495Y-187161039D01*
X144653410Y-187451668D01*
X145411265Y-187452330D01*
X146111686Y-187162922D01*
X146380299Y-186894777D01*
X148564828Y-186894777D01*
X148696520Y-187189657D01*
X149404036Y-187461261D01*
X150161632Y-187441436D01*
X150769480Y-187189657D01*
X150901172Y-186894777D01*
X149733000Y-185726605D01*
X148564828Y-186894777D01*
X146380299Y-186894777D01*
X146648039Y-186627505D01*
X146938668Y-185927590D01*
X146939287Y-185218036D01*
X147818739Y-185218036D01*
X147838564Y-185975632D01*
X148090343Y-186583480D01*
X148385223Y-186715172D01*
X149553395Y-185547000D01*
X149912605Y-185547000D01*
X151080777Y-186715172D01*
X151375657Y-186583480D01*
X151628719Y-185924265D01*
X152018670Y-185924265D01*
X152308078Y-186624686D01*
X152843495Y-187161039D01*
X153543410Y-187451668D01*
X154301265Y-187452330D01*
X155001686Y-187162922D01*
X155538039Y-186627505D01*
X155828668Y-185927590D01*
X155828670Y-185924265D01*
X156717670Y-185924265D01*
X157007078Y-186624686D01*
X157542495Y-187161039D01*
X158242410Y-187451668D01*
X159000265Y-187452330D01*
X159700686Y-187162922D01*
X159969299Y-186894777D01*
X162153828Y-186894777D01*
X162285520Y-187189657D01*
X162993036Y-187461261D01*
X163750632Y-187441436D01*
X164358480Y-187189657D01*
X164490172Y-186894777D01*
X163322000Y-185726605D01*
X162153828Y-186894777D01*
X159969299Y-186894777D01*
X160237039Y-186627505D01*
X160527668Y-185927590D01*
X160528287Y-185218036D01*
X161407739Y-185218036D01*
X161427564Y-185975632D01*
X161679343Y-186583480D01*
X161974223Y-186715172D01*
X163142395Y-185547000D01*
X163501605Y-185547000D01*
X164669777Y-186715172D01*
X164964657Y-186583480D01*
X165217719Y-185924265D01*
X165480670Y-185924265D01*
X165770078Y-186624686D01*
X166305495Y-187161039D01*
X167005410Y-187451668D01*
X167763265Y-187452330D01*
X168463686Y-187162922D01*
X169000039Y-186627505D01*
X169290668Y-185927590D01*
X169290670Y-185924265D01*
X170179670Y-185924265D01*
X170469078Y-186624686D01*
X171004495Y-187161039D01*
X171704410Y-187451668D01*
X172462265Y-187452330D01*
X173162686Y-187162922D01*
X173431299Y-186894777D01*
X175615828Y-186894777D01*
X175747520Y-187189657D01*
X176455036Y-187461261D01*
X177212632Y-187441436D01*
X177820480Y-187189657D01*
X177952172Y-186894777D01*
X176784000Y-185726605D01*
X175615828Y-186894777D01*
X173431299Y-186894777D01*
X173699039Y-186627505D01*
X173989668Y-185927590D01*
X173990287Y-185218036D01*
X174869739Y-185218036D01*
X174889564Y-185975632D01*
X175141343Y-186583480D01*
X175436223Y-186715172D01*
X176604395Y-185547000D01*
X176963605Y-185547000D01*
X178131777Y-186715172D01*
X178426657Y-186583480D01*
X178698261Y-185875964D01*
X178678436Y-185118368D01*
X178426657Y-184510520D01*
X178131777Y-184378828D01*
X176963605Y-185547000D01*
X176604395Y-185547000D01*
X175436223Y-184378828D01*
X175141343Y-184510520D01*
X174869739Y-185218036D01*
X173990287Y-185218036D01*
X173990330Y-185169735D01*
X173700922Y-184469314D01*
X173431303Y-184199223D01*
X175615828Y-184199223D01*
X176784000Y-185367395D01*
X177952172Y-184199223D01*
X177820480Y-183904343D01*
X177112964Y-183632739D01*
X176355368Y-183652564D01*
X175747520Y-183904343D01*
X175615828Y-184199223D01*
X173431303Y-184199223D01*
X173165505Y-183932961D01*
X172465590Y-183642332D01*
X171707735Y-183641670D01*
X171007314Y-183931078D01*
X170470961Y-184466495D01*
X170180332Y-185166410D01*
X170179670Y-185924265D01*
X169290670Y-185924265D01*
X169291330Y-185169735D01*
X169001922Y-184469314D01*
X168466505Y-183932961D01*
X167766590Y-183642332D01*
X167008735Y-183641670D01*
X166308314Y-183931078D01*
X165771961Y-184466495D01*
X165481332Y-185166410D01*
X165480670Y-185924265D01*
X165217719Y-185924265D01*
X165236261Y-185875964D01*
X165216436Y-185118368D01*
X164964657Y-184510520D01*
X164669777Y-184378828D01*
X163501605Y-185547000D01*
X163142395Y-185547000D01*
X161974223Y-184378828D01*
X161679343Y-184510520D01*
X161407739Y-185218036D01*
X160528287Y-185218036D01*
X160528330Y-185169735D01*
X160238922Y-184469314D01*
X159969303Y-184199223D01*
X162153828Y-184199223D01*
X163322000Y-185367395D01*
X164490172Y-184199223D01*
X164358480Y-183904343D01*
X163650964Y-183632739D01*
X162893368Y-183652564D01*
X162285520Y-183904343D01*
X162153828Y-184199223D01*
X159969303Y-184199223D01*
X159703505Y-183932961D01*
X159003590Y-183642332D01*
X158245735Y-183641670D01*
X157545314Y-183931078D01*
X157008961Y-184466495D01*
X156718332Y-185166410D01*
X156717670Y-185924265D01*
X155828670Y-185924265D01*
X155829330Y-185169735D01*
X155539922Y-184469314D01*
X155004505Y-183932961D01*
X154304590Y-183642332D01*
X153546735Y-183641670D01*
X152846314Y-183931078D01*
X152309961Y-184466495D01*
X152019332Y-185166410D01*
X152018670Y-185924265D01*
X151628719Y-185924265D01*
X151647261Y-185875964D01*
X151627436Y-185118368D01*
X151375657Y-184510520D01*
X151080777Y-184378828D01*
X149912605Y-185547000D01*
X149553395Y-185547000D01*
X148385223Y-184378828D01*
X148090343Y-184510520D01*
X147818739Y-185218036D01*
X146939287Y-185218036D01*
X146939330Y-185169735D01*
X146649922Y-184469314D01*
X146380303Y-184199223D01*
X148564828Y-184199223D01*
X149733000Y-185367395D01*
X150901172Y-184199223D01*
X150769480Y-183904343D01*
X150061964Y-183632739D01*
X149304368Y-183652564D01*
X148696520Y-183904343D01*
X148564828Y-184199223D01*
X146380303Y-184199223D01*
X146114505Y-183932961D01*
X145414590Y-183642332D01*
X144656735Y-183641670D01*
X143956314Y-183931078D01*
X143419961Y-184466495D01*
X143129332Y-185166410D01*
X143128670Y-185924265D01*
X142239670Y-185924265D01*
X142240330Y-185169735D01*
X141950922Y-184469314D01*
X141415505Y-183932961D01*
X140715590Y-183642332D01*
X139957735Y-183641670D01*
X139257314Y-183931078D01*
X138720961Y-184466495D01*
X138430332Y-185166410D01*
X138429670Y-185924265D01*
X138060935Y-185924265D01*
X137862575Y-185444199D01*
X136869031Y-184448920D01*
X135570240Y-183909615D01*
X134163930Y-183908387D01*
X132864199Y-184445425D01*
X131868920Y-185438969D01*
X131566524Y-186167219D01*
X124718652Y-179319348D01*
X124483446Y-179162187D01*
X124437415Y-179153031D01*
X124206000Y-179107000D01*
X78321402Y-179107000D01*
X78254327Y-179039808D01*
X77910799Y-178897162D01*
X77538833Y-178896838D01*
X77195057Y-179038883D01*
X76931808Y-179301673D01*
X76881135Y-179423706D01*
X76881162Y-179392833D01*
X76739117Y-179049057D01*
X76476327Y-178785808D01*
X76132799Y-178643162D01*
X75760833Y-178642838D01*
X75417057Y-178784883D01*
X75153808Y-179047673D01*
X75011162Y-179391201D01*
X75010838Y-179763167D01*
X75152883Y-180106943D01*
X75415673Y-180370192D01*
X75759201Y-180512838D01*
X75855618Y-180512922D01*
X76227695Y-180885000D01*
X43142402Y-180885000D01*
X43075327Y-180817808D01*
X42731799Y-180675162D01*
X42359833Y-180674838D01*
X42016057Y-180816883D01*
X41752808Y-181079673D01*
X41610162Y-181423201D01*
X41609967Y-181647000D01*
X32873534Y-181647000D01*
X32797117Y-181462057D01*
X32534327Y-181198808D01*
X32190799Y-181056162D01*
X31818833Y-181055838D01*
X31475057Y-181197883D01*
X31211808Y-181460673D01*
X31069162Y-181804201D01*
X31068838Y-182176167D01*
X31124322Y-182310449D01*
X30957808Y-182476673D01*
X30815162Y-182820201D01*
X30814838Y-183192167D01*
X23710000Y-183192167D01*
X23710000Y-95250000D01*
X32947000Y-95250000D01*
X32947000Y-118872000D01*
X33010561Y-119191541D01*
X33150479Y-119400943D01*
X33191566Y-119462434D01*
X35048465Y-121319333D01*
X35147883Y-121559943D01*
X35410673Y-121823192D01*
X35652910Y-121923778D01*
X37011000Y-123281868D01*
X37011000Y-144098766D01*
X36911162Y-144339201D01*
X36910838Y-144711167D01*
X37011000Y-144953578D01*
X37011000Y-173482000D01*
X37074561Y-173801541D01*
X37255566Y-174072434D01*
X39541566Y-176358434D01*
X39812459Y-176539439D01*
X40132000Y-176603000D01*
X41228766Y-176603000D01*
X41469201Y-176702838D01*
X41841167Y-176703162D01*
X42083578Y-176603000D01*
X45374132Y-176603000D01*
X47113465Y-178342333D01*
X47212883Y-178582943D01*
X47475673Y-178846192D01*
X47819201Y-178988838D01*
X48191167Y-178989162D01*
X48534943Y-178847117D01*
X48798192Y-178584327D01*
X48940838Y-178240799D01*
X48941162Y-177868833D01*
X48799117Y-177525057D01*
X48536327Y-177261808D01*
X48294090Y-177161222D01*
X46310434Y-175177566D01*
X46243736Y-175133000D01*
X46039541Y-174996561D01*
X45720000Y-174933000D01*
X42083234Y-174933000D01*
X41842799Y-174833162D01*
X41470833Y-174832838D01*
X41228422Y-174933000D01*
X40477868Y-174933000D01*
X38681000Y-173136132D01*
X38681000Y-160205167D01*
X55706838Y-160205167D01*
X55848883Y-160548943D01*
X56111673Y-160812192D01*
X56455201Y-160954838D01*
X56827167Y-160955162D01*
X57170943Y-160813117D01*
X57434192Y-160550327D01*
X57534778Y-160308090D01*
X59654868Y-158188000D01*
X64551132Y-158188000D01*
X65713000Y-159349868D01*
X65713000Y-170942000D01*
X65776561Y-171261541D01*
X65886819Y-171426554D01*
X65957566Y-171532434D01*
X69211465Y-174786333D01*
X69310883Y-175026943D01*
X69573673Y-175290192D01*
X69917201Y-175432838D01*
X70289167Y-175433162D01*
X70632943Y-175291117D01*
X70896192Y-175028327D01*
X71038838Y-174684799D01*
X71039162Y-174312833D01*
X70897117Y-173969057D01*
X70737339Y-173809000D01*
X79248000Y-173809000D01*
X79567541Y-173745439D01*
X79838434Y-173564434D01*
X80751701Y-172651167D01*
X90250838Y-172651167D01*
X90392883Y-172994943D01*
X90655673Y-173258192D01*
X90999201Y-173400838D01*
X91371167Y-173401162D01*
X91714943Y-173259117D01*
X91783179Y-173191000D01*
X107894941Y-173191000D01*
X107918883Y-173248943D01*
X108181673Y-173512192D01*
X108525201Y-173654838D01*
X108897167Y-173655162D01*
X109240943Y-173513117D01*
X109504192Y-173250327D01*
X109646838Y-172906799D01*
X109647162Y-172534833D01*
X109505117Y-172191057D01*
X109242327Y-171927808D01*
X108898799Y-171785162D01*
X108679056Y-171784971D01*
X108678389Y-171784838D01*
X108458000Y-171741000D01*
X91783402Y-171741000D01*
X91716327Y-171673808D01*
X91372799Y-171531162D01*
X91000833Y-171530838D01*
X90657057Y-171672883D01*
X90393808Y-171935673D01*
X90251162Y-172279201D01*
X90250838Y-172651167D01*
X80751701Y-172651167D01*
X82378434Y-171024434D01*
X82413341Y-170972192D01*
X82559439Y-170753541D01*
X82623000Y-170434000D01*
X82623000Y-166543234D01*
X82722838Y-166302799D01*
X82723162Y-165930833D01*
X82581117Y-165587057D01*
X82318327Y-165323808D01*
X81974799Y-165181162D01*
X81602833Y-165180838D01*
X81259057Y-165322883D01*
X80995808Y-165585673D01*
X80853162Y-165929201D01*
X80852838Y-166301167D01*
X80953000Y-166543578D01*
X80953000Y-170088132D01*
X78902132Y-172139000D01*
X68925868Y-172139000D01*
X67383000Y-170596132D01*
X67383000Y-159004000D01*
X67319440Y-158684460D01*
X67138434Y-158413566D01*
X63630535Y-154905667D01*
X63531117Y-154665057D01*
X63268327Y-154401808D01*
X62924799Y-154259162D01*
X62552833Y-154258838D01*
X62209057Y-154400883D01*
X61945808Y-154663673D01*
X61803162Y-155007201D01*
X61802838Y-155379167D01*
X61944883Y-155722943D01*
X62207673Y-155986192D01*
X62449910Y-156086778D01*
X62881132Y-156518000D01*
X59309000Y-156518000D01*
X58989460Y-156581560D01*
X58718566Y-156762566D01*
X56353667Y-159127465D01*
X56113057Y-159226883D01*
X55849808Y-159489673D01*
X55707162Y-159833201D01*
X55706838Y-160205167D01*
X38681000Y-160205167D01*
X38681000Y-144953234D01*
X38780838Y-144712799D01*
X38781162Y-144340833D01*
X38681000Y-144098422D01*
X38681000Y-140393167D01*
X55198838Y-140393167D01*
X55340883Y-140736943D01*
X55603673Y-141000192D01*
X55947201Y-141142838D01*
X56319167Y-141143162D01*
X56662943Y-141001117D01*
X56926192Y-140738327D01*
X57026778Y-140496090D01*
X58756434Y-138766434D01*
X58937439Y-138495541D01*
X59001000Y-138176000D01*
X59001000Y-135555234D01*
X59100838Y-135314799D01*
X59101162Y-134942833D01*
X58959117Y-134599057D01*
X58696327Y-134335808D01*
X58352799Y-134193162D01*
X57980833Y-134192838D01*
X57637057Y-134334883D01*
X57373808Y-134597673D01*
X57231162Y-134941201D01*
X57230838Y-135313167D01*
X57331000Y-135555578D01*
X57331000Y-137830132D01*
X55845667Y-139315465D01*
X55605057Y-139414883D01*
X55341808Y-139677673D01*
X55199162Y-140021201D01*
X55198838Y-140393167D01*
X38681000Y-140393167D01*
X38681000Y-122936000D01*
X38617439Y-122616459D01*
X38436434Y-122345566D01*
X36833535Y-120742667D01*
X36734117Y-120502057D01*
X36471327Y-120238808D01*
X36229090Y-120138222D01*
X34617000Y-118526132D01*
X34617000Y-114935000D01*
X40931000Y-114935000D01*
X40931000Y-125095000D01*
X40960428Y-125242943D01*
X40986187Y-125372446D01*
X41143348Y-125607652D01*
X41778348Y-126242653D01*
X41778351Y-126242655D01*
X43556348Y-128020653D01*
X43791554Y-128177813D01*
X44069000Y-128233000D01*
X58119696Y-128233000D01*
X63156000Y-133269305D01*
X63156000Y-151638000D01*
X63201860Y-151868554D01*
X63211187Y-151915446D01*
X63368348Y-152150652D01*
X63876347Y-152658652D01*
X63876350Y-152658654D01*
X64638348Y-153420653D01*
X64873554Y-153577813D01*
X65151000Y-153633000D01*
X91721695Y-153633000D01*
X87710696Y-157644000D01*
X78740000Y-157644000D01*
X78462555Y-157699187D01*
X78462553Y-157699188D01*
X78462554Y-157699188D01*
X78227348Y-157856348D01*
X76068348Y-160015348D01*
X75911187Y-160250554D01*
X75911187Y-160250555D01*
X75856000Y-160528000D01*
X75856000Y-169418000D01*
X75892003Y-169599001D01*
X75911187Y-169695446D01*
X76068348Y-169930652D01*
X76153921Y-170016225D01*
X76153838Y-170111167D01*
X76295883Y-170454943D01*
X76558673Y-170718192D01*
X76902201Y-170860838D01*
X77274167Y-170861162D01*
X77617943Y-170719117D01*
X77881192Y-170456327D01*
X78023838Y-170112799D01*
X78024162Y-169740833D01*
X77882117Y-169397057D01*
X77619327Y-169133808D01*
X77306000Y-169003703D01*
X77306000Y-160828304D01*
X79040304Y-159094000D01*
X86895696Y-159094000D01*
X85761775Y-160227921D01*
X85666833Y-160227838D01*
X85323057Y-160369883D01*
X85059808Y-160632673D01*
X84917162Y-160976201D01*
X84916838Y-161348167D01*
X85058883Y-161691943D01*
X85321673Y-161955192D01*
X85665201Y-162097838D01*
X86037167Y-162098162D01*
X86143000Y-162054433D01*
X86143000Y-168863695D01*
X85888775Y-169117921D01*
X85793833Y-169117838D01*
X85450057Y-169259883D01*
X85186808Y-169522673D01*
X85044162Y-169866201D01*
X85043838Y-170238167D01*
X85185883Y-170581943D01*
X85448673Y-170845192D01*
X85792201Y-170987838D01*
X86164167Y-170988162D01*
X86507943Y-170846117D01*
X86771192Y-170583327D01*
X86913838Y-170239799D01*
X86913922Y-170143382D01*
X87380653Y-169676652D01*
X87537813Y-169441446D01*
X87593000Y-169164000D01*
X87593000Y-161238708D01*
X87610541Y-161221167D01*
X110824838Y-161221167D01*
X110966883Y-161564943D01*
X111229673Y-161828192D01*
X111543000Y-161958297D01*
X111543000Y-177202598D01*
X111475808Y-177269673D01*
X111333162Y-177613201D01*
X111332838Y-177985167D01*
X111474883Y-178328943D01*
X111737673Y-178592192D01*
X112081201Y-178734838D01*
X112453167Y-178735162D01*
X112796943Y-178593117D01*
X113060192Y-178330327D01*
X113202838Y-177986799D01*
X113203162Y-177614833D01*
X113061117Y-177271057D01*
X112993000Y-177202821D01*
X112993000Y-176296172D01*
X129285538Y-176296172D01*
X129690709Y-177276761D01*
X130440293Y-178027655D01*
X131420173Y-178434536D01*
X132481172Y-178435462D01*
X133461761Y-178030291D01*
X134212655Y-177280707D01*
X134619536Y-176300827D01*
X134620393Y-175318167D01*
X135843838Y-175318167D01*
X135985883Y-175661943D01*
X136248673Y-175925192D01*
X136592201Y-176067838D01*
X136964167Y-176068162D01*
X137307943Y-175926117D01*
X137376179Y-175858000D01*
X172847000Y-175858000D01*
X173078415Y-175811969D01*
X173124446Y-175802813D01*
X173359652Y-175645652D01*
X177931652Y-171073653D01*
X178081217Y-170849813D01*
X178088813Y-170838445D01*
X178144000Y-170561000D01*
X178144000Y-156591000D01*
X178088813Y-156313555D01*
X178088813Y-156313554D01*
X177931652Y-156078348D01*
X173786169Y-151932865D01*
X173895345Y-151384000D01*
X173781271Y-150810511D01*
X173456415Y-150324330D01*
X173141634Y-150114000D01*
X173456415Y-149903670D01*
X173781271Y-149417489D01*
X173895345Y-148844000D01*
X173781271Y-148270511D01*
X173456415Y-147784330D01*
X173141634Y-147574000D01*
X173456415Y-147363670D01*
X173781271Y-146877489D01*
X173895345Y-146304000D01*
X173781271Y-145730511D01*
X173456415Y-145244330D01*
X173141634Y-145034000D01*
X173456415Y-144823670D01*
X173781271Y-144337489D01*
X173895345Y-143764000D01*
X173781271Y-143190511D01*
X173456415Y-142704330D01*
X173141634Y-142494000D01*
X173456415Y-142283670D01*
X173781271Y-141797489D01*
X173895345Y-141224000D01*
X173781271Y-140650511D01*
X173456415Y-140164330D01*
X173141634Y-139954000D01*
X173456415Y-139743670D01*
X173781271Y-139257489D01*
X173895345Y-138684000D01*
X173781271Y-138110511D01*
X173456415Y-137624330D01*
X173442087Y-137614757D01*
X173463317Y-137610762D01*
X173679441Y-137471690D01*
X173824431Y-137259490D01*
X173875440Y-137007600D01*
X173875440Y-135280400D01*
X173831162Y-135045083D01*
X173692090Y-134828959D01*
X173479890Y-134683969D01*
X173228000Y-134632960D01*
X171196000Y-134632960D01*
X170960683Y-134677238D01*
X170744559Y-134816310D01*
X170599569Y-135028510D01*
X170548560Y-135280400D01*
X170548560Y-137007600D01*
X170592838Y-137242917D01*
X170731910Y-137459041D01*
X170944110Y-137604031D01*
X170985439Y-137612400D01*
X170967585Y-137624330D01*
X170642729Y-138110511D01*
X170528655Y-138684000D01*
X170642729Y-139257489D01*
X170967585Y-139743670D01*
X171282366Y-139954000D01*
X170967585Y-140164330D01*
X170642729Y-140650511D01*
X170528655Y-141224000D01*
X170642729Y-141797489D01*
X170967585Y-142283670D01*
X171282366Y-142494000D01*
X170967585Y-142704330D01*
X170642729Y-143190511D01*
X170528655Y-143764000D01*
X170642729Y-144337489D01*
X170967585Y-144823670D01*
X171282366Y-145034000D01*
X170967585Y-145244330D01*
X170642729Y-145730511D01*
X170528655Y-146304000D01*
X170642729Y-146877489D01*
X170967585Y-147363670D01*
X171282366Y-147574000D01*
X170967585Y-147784330D01*
X170642729Y-148270511D01*
X170528655Y-148844000D01*
X170642729Y-149417489D01*
X170967585Y-149903670D01*
X171282366Y-150114000D01*
X170967585Y-150324330D01*
X170642729Y-150810511D01*
X170528655Y-151384000D01*
X170642729Y-151957489D01*
X170967585Y-152443670D01*
X171282366Y-152654000D01*
X170967585Y-152864330D01*
X170642729Y-153350511D01*
X170528655Y-153924000D01*
X170642729Y-154497489D01*
X170967585Y-154983670D01*
X171282366Y-155194000D01*
X170967585Y-155404330D01*
X170642729Y-155890511D01*
X170561000Y-156301391D01*
X170561000Y-155575000D01*
X170550994Y-155525590D01*
X170522553Y-155483965D01*
X170480159Y-155456685D01*
X170434000Y-155448000D01*
X156972000Y-155448000D01*
X156922590Y-155458006D01*
X156880965Y-155486447D01*
X156853685Y-155528841D01*
X156845000Y-155575000D01*
X156845000Y-165989000D01*
X156855006Y-166038410D01*
X156883447Y-166080035D01*
X156925841Y-166107315D01*
X156972000Y-166116000D01*
X170434000Y-166116000D01*
X170483410Y-166105994D01*
X170525035Y-166077553D01*
X170552315Y-166035159D01*
X170561000Y-165989000D01*
X170561000Y-164246609D01*
X170642729Y-164657489D01*
X170967585Y-165143670D01*
X171453766Y-165468526D01*
X172027255Y-165582600D01*
X172396745Y-165582600D01*
X172970234Y-165468526D01*
X173456415Y-165143670D01*
X173582166Y-164955470D01*
X174535000Y-165908305D01*
X174535000Y-166704695D01*
X172545698Y-168693998D01*
X150796303Y-168693998D01*
X150541079Y-168438775D01*
X150541162Y-168343833D01*
X150399117Y-168000057D01*
X150136327Y-167736808D01*
X149792799Y-167594162D01*
X149420833Y-167593838D01*
X149077057Y-167735883D01*
X148813808Y-167998673D01*
X148704235Y-168262554D01*
X148442057Y-168370883D01*
X148178808Y-168633673D01*
X148036162Y-168977201D01*
X148035838Y-169349167D01*
X148079567Y-169455000D01*
X147409402Y-169455000D01*
X147342327Y-169387808D01*
X146998799Y-169245162D01*
X146626833Y-169244838D01*
X146283057Y-169386883D01*
X146019808Y-169649673D01*
X145877162Y-169993201D01*
X145876838Y-170365167D01*
X146018883Y-170708943D01*
X146281673Y-170972192D01*
X146298068Y-170979000D01*
X145796000Y-170979000D01*
X145574657Y-171023028D01*
X145356833Y-171022838D01*
X145013057Y-171164883D01*
X144749808Y-171427673D01*
X144607162Y-171771201D01*
X144606838Y-172143167D01*
X144748883Y-172486943D01*
X144939651Y-172678044D01*
X144606696Y-173011000D01*
X143599402Y-173011000D01*
X143532327Y-172943808D01*
X143188799Y-172801162D01*
X142816833Y-172800838D01*
X142473057Y-172942883D01*
X142209808Y-173205673D01*
X142067162Y-173549201D01*
X142066838Y-173921167D01*
X142208883Y-174264943D01*
X142351691Y-174408000D01*
X137376402Y-174408000D01*
X137309327Y-174340808D01*
X136965799Y-174198162D01*
X136593833Y-174197838D01*
X136250057Y-174339883D01*
X135986808Y-174602673D01*
X135844162Y-174946201D01*
X135843838Y-175318167D01*
X134620393Y-175318167D01*
X134620462Y-175239828D01*
X134215291Y-174259239D01*
X133465707Y-173508345D01*
X132485827Y-173101464D01*
X131424828Y-173100538D01*
X130444239Y-173505709D01*
X129693345Y-174255293D01*
X129286464Y-175235173D01*
X129285538Y-176296172D01*
X112993000Y-176296172D01*
X112993000Y-161544000D01*
X112937813Y-161266555D01*
X112885663Y-161188508D01*
X112780652Y-161031347D01*
X112695079Y-160945774D01*
X112695162Y-160850833D01*
X112553117Y-160507057D01*
X112290327Y-160243808D01*
X111946799Y-160101162D01*
X111574833Y-160100838D01*
X111231057Y-160242883D01*
X110967808Y-160505673D01*
X110825162Y-160849201D01*
X110824838Y-161221167D01*
X87610541Y-161221167D01*
X89173354Y-159658355D01*
X89232566Y-159569738D01*
X93264305Y-155538000D01*
X147339466Y-155538000D01*
X147415883Y-155722943D01*
X147678673Y-155986192D01*
X148022201Y-156128838D01*
X148394167Y-156129162D01*
X148737943Y-155987117D01*
X149001192Y-155724327D01*
X149047108Y-155613749D01*
X149372943Y-155479117D01*
X149564045Y-155288349D01*
X149982348Y-155706652D01*
X152437000Y-158161305D01*
X152437000Y-158369000D01*
X152480164Y-158586000D01*
X152492187Y-158646446D01*
X152649348Y-158881652D01*
X152752478Y-158984782D01*
X152748655Y-159004000D01*
X152862729Y-159577489D01*
X153187585Y-160063670D01*
X153502366Y-160274000D01*
X153187585Y-160484330D01*
X152862729Y-160970511D01*
X152748655Y-161544000D01*
X152806538Y-161835000D01*
X118156304Y-161835000D01*
X117775079Y-161453775D01*
X117775162Y-161358833D01*
X117633117Y-161015057D01*
X117370327Y-160751808D01*
X117026799Y-160609162D01*
X116654833Y-160608838D01*
X116311057Y-160750883D01*
X116047808Y-161013673D01*
X115905162Y-161357201D01*
X115904838Y-161729167D01*
X116046883Y-162072943D01*
X116309673Y-162336192D01*
X116653201Y-162478838D01*
X116749618Y-162478922D01*
X117343348Y-163072652D01*
X117578554Y-163229813D01*
X117624585Y-163238969D01*
X117856000Y-163285000D01*
X124444507Y-163285000D01*
X124429808Y-163299673D01*
X124287162Y-163643201D01*
X124286838Y-164015167D01*
X124428883Y-164358943D01*
X124691673Y-164622192D01*
X125035201Y-164764838D01*
X125131617Y-164764922D01*
X125217347Y-164850652D01*
X125345080Y-164936000D01*
X125452555Y-165007813D01*
X125730000Y-165063000D01*
X153133683Y-165063000D01*
X153187585Y-165143670D01*
X153673766Y-165468526D01*
X154247255Y-165582600D01*
X154616745Y-165582600D01*
X155190234Y-165468526D01*
X155676415Y-165143670D01*
X156001271Y-164657489D01*
X156115345Y-164084000D01*
X156001271Y-163510511D01*
X155676415Y-163024330D01*
X155361634Y-162814000D01*
X155676415Y-162603670D01*
X156001271Y-162117489D01*
X156115345Y-161544000D01*
X156001271Y-160970511D01*
X155676415Y-160484330D01*
X155361634Y-160274000D01*
X155676415Y-160063670D01*
X156001271Y-159577489D01*
X156115345Y-159004000D01*
X156001271Y-158430511D01*
X155676415Y-157944330D01*
X155361634Y-157734000D01*
X155676415Y-157523670D01*
X156001271Y-157037489D01*
X156115345Y-156464000D01*
X156001271Y-155890511D01*
X155676415Y-155404330D01*
X155361634Y-155194000D01*
X155676415Y-154983670D01*
X156001271Y-154497489D01*
X156115345Y-153924000D01*
X156001271Y-153350511D01*
X155676415Y-152864330D01*
X155361634Y-152654000D01*
X155676415Y-152443670D01*
X156001271Y-151957489D01*
X156115345Y-151384000D01*
X156001271Y-150810511D01*
X155676415Y-150324330D01*
X155361634Y-150114000D01*
X155676415Y-149903670D01*
X156001271Y-149417489D01*
X156115345Y-148844000D01*
X156001271Y-148270511D01*
X155676415Y-147784330D01*
X155361634Y-147574000D01*
X155676415Y-147363670D01*
X156001271Y-146877489D01*
X156115345Y-146304000D01*
X156001271Y-145730511D01*
X155676415Y-145244330D01*
X155361634Y-145034000D01*
X155676415Y-144823670D01*
X156001271Y-144337489D01*
X156115345Y-143764000D01*
X156001271Y-143190511D01*
X155676415Y-142704330D01*
X155361634Y-142494000D01*
X155676415Y-142283670D01*
X156001271Y-141797489D01*
X156115345Y-141224000D01*
X156001271Y-140650511D01*
X155676415Y-140164330D01*
X155366931Y-139957539D01*
X155782732Y-139586036D01*
X156036709Y-139058791D01*
X156039358Y-139043026D01*
X155918217Y-138811000D01*
X154559000Y-138811000D01*
X154559000Y-138831000D01*
X154305000Y-138831000D01*
X154305000Y-138811000D01*
X152945783Y-138811000D01*
X152824642Y-139043026D01*
X152827291Y-139058791D01*
X153081268Y-139586036D01*
X153497069Y-139957539D01*
X153187585Y-140164330D01*
X152862729Y-140650511D01*
X152748655Y-141224000D01*
X152862729Y-141797489D01*
X153187585Y-142283670D01*
X153502366Y-142494000D01*
X153187585Y-142704330D01*
X152862729Y-143190511D01*
X152748655Y-143764000D01*
X152862729Y-144337489D01*
X153187585Y-144823670D01*
X153502366Y-145034000D01*
X153187585Y-145244330D01*
X152862729Y-145730511D01*
X152748655Y-146304000D01*
X152862729Y-146877489D01*
X153187585Y-147363670D01*
X153502366Y-147574000D01*
X153187585Y-147784330D01*
X152862729Y-148270511D01*
X152748655Y-148844000D01*
X152862729Y-149417489D01*
X153187585Y-149903670D01*
X153502366Y-150114000D01*
X153187585Y-150324330D01*
X152862729Y-150810511D01*
X152842343Y-150913000D01*
X146731079Y-150913000D01*
X146731162Y-150817833D01*
X146589117Y-150474057D01*
X146326327Y-150210808D01*
X145982799Y-150068162D01*
X145610833Y-150067838D01*
X145267057Y-150209883D01*
X145198821Y-150278000D01*
X123078493Y-150278000D01*
X123093192Y-150263327D01*
X123235838Y-149919799D01*
X123236162Y-149547833D01*
X123094117Y-149204057D01*
X122831327Y-148940808D01*
X122487799Y-148798162D01*
X122391383Y-148798078D01*
X121416655Y-147823351D01*
X121416653Y-147823348D01*
X119851000Y-146257696D01*
X119851000Y-142583402D01*
X119918192Y-142516327D01*
X120060838Y-142172799D01*
X120061162Y-141800833D01*
X119919117Y-141457057D01*
X119656327Y-141193808D01*
X119312799Y-141051162D01*
X118940833Y-141050838D01*
X118597057Y-141192883D01*
X118333808Y-141455673D01*
X118191162Y-141799201D01*
X118190838Y-142171167D01*
X118332883Y-142514943D01*
X118401000Y-142583179D01*
X118401000Y-146558000D01*
X118447031Y-146789415D01*
X118456187Y-146835446D01*
X118613348Y-147070652D01*
X120391348Y-148848653D01*
X120391351Y-148848655D01*
X121365921Y-149823225D01*
X121365838Y-149918167D01*
X121507883Y-150261943D01*
X121523912Y-150278000D01*
X94069402Y-150278000D01*
X94002327Y-150210808D01*
X93658799Y-150068162D01*
X93286833Y-150067838D01*
X92943057Y-150209883D01*
X92874821Y-150278000D01*
X67864304Y-150278000D01*
X67822655Y-150236351D01*
X67822653Y-150236348D01*
X67060655Y-149474351D01*
X67060653Y-149474348D01*
X66638000Y-149051696D01*
X66638000Y-143695167D01*
X78058838Y-143695167D01*
X78200883Y-144038943D01*
X78463673Y-144302192D01*
X78807201Y-144444838D01*
X79179167Y-144445162D01*
X79421578Y-144345000D01*
X103458766Y-144345000D01*
X103699201Y-144444838D01*
X104071167Y-144445162D01*
X104414943Y-144303117D01*
X104678192Y-144040327D01*
X104820838Y-143696799D01*
X104821162Y-143324833D01*
X104679117Y-142981057D01*
X104416327Y-142717808D01*
X104072799Y-142575162D01*
X103700833Y-142574838D01*
X103458422Y-142675000D01*
X79421234Y-142675000D01*
X79180799Y-142575162D01*
X78808833Y-142574838D01*
X78465057Y-142716883D01*
X78201808Y-142979673D01*
X78059162Y-143323201D01*
X78058838Y-143695167D01*
X66638000Y-143695167D01*
X66638000Y-131699000D01*
X66582813Y-131421555D01*
X66582813Y-131421554D01*
X66425653Y-131186348D01*
X60583652Y-125344348D01*
X60348446Y-125187187D01*
X60302415Y-125178031D01*
X60071000Y-125132000D01*
X57450305Y-125132000D01*
X54931472Y-122613167D01*
X101680838Y-122613167D01*
X101822883Y-122956943D01*
X102085673Y-123220192D01*
X102429201Y-123362838D01*
X102801167Y-123363162D01*
X103144943Y-123221117D01*
X103213179Y-123153000D01*
X105066598Y-123153000D01*
X105133673Y-123220192D01*
X105477201Y-123362838D01*
X105849167Y-123363162D01*
X106192943Y-123221117D01*
X106456192Y-122958327D01*
X106598838Y-122614799D01*
X106599162Y-122242833D01*
X106457117Y-121899057D01*
X106194327Y-121635808D01*
X105850799Y-121493162D01*
X105478833Y-121492838D01*
X105135057Y-121634883D01*
X105066821Y-121703000D01*
X103213402Y-121703000D01*
X103146327Y-121635808D01*
X102802799Y-121493162D01*
X102430833Y-121492838D01*
X102087057Y-121634883D01*
X101823808Y-121897673D01*
X101681162Y-122241201D01*
X101680838Y-122613167D01*
X54931472Y-122613167D01*
X53406079Y-121087775D01*
X53406162Y-120992833D01*
X53264117Y-120649057D01*
X53001327Y-120385808D01*
X52657799Y-120243162D01*
X52285833Y-120242838D01*
X51942057Y-120384883D01*
X51678808Y-120647673D01*
X51536162Y-120991201D01*
X51535838Y-121363167D01*
X51677883Y-121706943D01*
X51940673Y-121970192D01*
X52284201Y-122112838D01*
X52380618Y-122112922D01*
X56288695Y-126021000D01*
X46401304Y-126021000D01*
X45004079Y-124623775D01*
X45004162Y-124528833D01*
X44862117Y-124185057D01*
X44599327Y-123921808D01*
X44255799Y-123779162D01*
X43883833Y-123778838D01*
X43540057Y-123920883D01*
X43276808Y-124183673D01*
X43134162Y-124527201D01*
X43133838Y-124899167D01*
X43275883Y-125242943D01*
X43538673Y-125506192D01*
X43882201Y-125648838D01*
X43978618Y-125648922D01*
X45112696Y-126783000D01*
X44369305Y-126783000D01*
X42803655Y-125217351D01*
X42803653Y-125217348D01*
X42381000Y-124794696D01*
X42381000Y-115349009D01*
X42692943Y-115220117D01*
X42956192Y-114957327D01*
X43098838Y-114613799D01*
X43098950Y-114485167D01*
X51134838Y-114485167D01*
X51276883Y-114828943D01*
X51539673Y-115092192D01*
X51883201Y-115234838D01*
X52255167Y-115235162D01*
X52598943Y-115093117D01*
X52667179Y-115025000D01*
X54182696Y-115025000D01*
X56722921Y-117565225D01*
X56722838Y-117660167D01*
X56864883Y-118003943D01*
X57127673Y-118267192D01*
X57471201Y-118409838D01*
X57843167Y-118410162D01*
X58186943Y-118268117D01*
X58450192Y-118005327D01*
X58592838Y-117661799D01*
X58593162Y-117289833D01*
X58451117Y-116946057D01*
X58188327Y-116682808D01*
X57844799Y-116540162D01*
X57748382Y-116540078D01*
X54995652Y-113787348D01*
X54760446Y-113630187D01*
X54714415Y-113621031D01*
X54483000Y-113575000D01*
X52667402Y-113575000D01*
X52600327Y-113507808D01*
X52256799Y-113365162D01*
X51884833Y-113364838D01*
X51541057Y-113506883D01*
X51277808Y-113769673D01*
X51135162Y-114113201D01*
X51134838Y-114485167D01*
X43098950Y-114485167D01*
X43099162Y-114241833D01*
X42957117Y-113898057D01*
X42694327Y-113634808D01*
X42350799Y-113492162D01*
X41978833Y-113491838D01*
X41635057Y-113633883D01*
X41371808Y-113896673D01*
X41229162Y-114240201D01*
X41229078Y-114336618D01*
X41143348Y-114422348D01*
X40986187Y-114657554D01*
X40986187Y-114657555D01*
X40931000Y-114935000D01*
X34617000Y-114935000D01*
X34617000Y-104706167D01*
X48213838Y-104706167D01*
X48355883Y-105049943D01*
X48618673Y-105313192D01*
X48962201Y-105455838D01*
X49334167Y-105456162D01*
X49677943Y-105314117D01*
X49873401Y-105119000D01*
X66501696Y-105119000D01*
X68152921Y-106770226D01*
X68152838Y-106865167D01*
X68294883Y-107208943D01*
X68557673Y-107472192D01*
X68901201Y-107614838D01*
X69273167Y-107615162D01*
X69616943Y-107473117D01*
X69880192Y-107210327D01*
X70022838Y-106866799D01*
X70023162Y-106494833D01*
X69881117Y-106151057D01*
X69618327Y-105887808D01*
X69274799Y-105745162D01*
X69178383Y-105745078D01*
X67314652Y-103881348D01*
X67079446Y-103724187D01*
X67030413Y-103714434D01*
X66802000Y-103669000D01*
X49535294Y-103669000D01*
X49335799Y-103586162D01*
X48963833Y-103585838D01*
X48620057Y-103727883D01*
X48356808Y-103990673D01*
X48214162Y-104334201D01*
X48213838Y-104706167D01*
X34617000Y-104706167D01*
X34617000Y-99753167D01*
X67644838Y-99753167D01*
X67786883Y-100096943D01*
X68049673Y-100360192D01*
X68291910Y-100460778D01*
X70539000Y-102707868D01*
X70539000Y-113364766D01*
X70439162Y-113605201D01*
X70438838Y-113977167D01*
X70580883Y-114320943D01*
X70843673Y-114584192D01*
X71187201Y-114726838D01*
X71559167Y-114727162D01*
X71902943Y-114585117D01*
X72166192Y-114322327D01*
X72308838Y-113978799D01*
X72309162Y-113606833D01*
X72209000Y-113364422D01*
X72209000Y-112505868D01*
X77133566Y-117430434D01*
X77404459Y-117611439D01*
X77724000Y-117675000D01*
X85932766Y-117675000D01*
X86173201Y-117774838D01*
X86545167Y-117775162D01*
X86888943Y-117633117D01*
X87152192Y-117370327D01*
X87294838Y-117026799D01*
X87295162Y-116654833D01*
X87153117Y-116311057D01*
X86890327Y-116047808D01*
X86546799Y-115905162D01*
X86174833Y-115904838D01*
X85932422Y-116005000D01*
X78069868Y-116005000D01*
X72209000Y-110144132D01*
X72209000Y-102362000D01*
X72199001Y-102311732D01*
X72145440Y-102042460D01*
X71964434Y-101771566D01*
X69472535Y-99279667D01*
X69373117Y-99039057D01*
X69110327Y-98775808D01*
X68766799Y-98633162D01*
X68394833Y-98632838D01*
X68051057Y-98774883D01*
X67787808Y-99037673D01*
X67645162Y-99381201D01*
X67644838Y-99753167D01*
X34617000Y-99753167D01*
X34617000Y-96705167D01*
X51642838Y-96705167D01*
X51784883Y-97048943D01*
X52047673Y-97312192D01*
X52391201Y-97454838D01*
X52763167Y-97455162D01*
X53106943Y-97313117D01*
X53175179Y-97245000D01*
X66548000Y-97245000D01*
X66769343Y-97200972D01*
X66987167Y-97201162D01*
X67330943Y-97059117D01*
X67594192Y-96796327D01*
X67736838Y-96452799D01*
X67737162Y-96080833D01*
X67595117Y-95737057D01*
X67332327Y-95473808D01*
X66988799Y-95331162D01*
X66616833Y-95330838D01*
X66273057Y-95472883D01*
X66009808Y-95735673D01*
X65985173Y-95795000D01*
X53175402Y-95795000D01*
X53108327Y-95727808D01*
X52764799Y-95585162D01*
X52392833Y-95584838D01*
X52049057Y-95726883D01*
X51785808Y-95989673D01*
X51643162Y-96333201D01*
X51642838Y-96705167D01*
X34617000Y-96705167D01*
X34617000Y-95595868D01*
X36864333Y-93348535D01*
X37104943Y-93249117D01*
X37368192Y-92986327D01*
X37468778Y-92744090D01*
X37571701Y-92641167D01*
X54944838Y-92641167D01*
X55086883Y-92984943D01*
X55349673Y-93248192D01*
X55693201Y-93390838D01*
X56065167Y-93391162D01*
X56408943Y-93249117D01*
X56621430Y-93037000D01*
X60379000Y-93037000D01*
X60379000Y-93552766D01*
X60279162Y-93793201D01*
X60278838Y-94165167D01*
X60420883Y-94508943D01*
X60683673Y-94772192D01*
X61027201Y-94914838D01*
X61399167Y-94915162D01*
X61742943Y-94773117D01*
X62006192Y-94510327D01*
X62148838Y-94166799D01*
X62149162Y-93794833D01*
X62049000Y-93552422D01*
X62049000Y-93037000D01*
X76026766Y-93037000D01*
X76267201Y-93136838D01*
X76639167Y-93137162D01*
X76881578Y-93037000D01*
X87284132Y-93037000D01*
X99437465Y-105190333D01*
X99536883Y-105430943D01*
X99799673Y-105694192D01*
X100143201Y-105836838D01*
X100515167Y-105837162D01*
X100858943Y-105695117D01*
X101122192Y-105432327D01*
X101264838Y-105088799D01*
X101265162Y-104716833D01*
X101123117Y-104373057D01*
X100860327Y-104109808D01*
X100618090Y-104009222D01*
X100567868Y-103959000D01*
X124895000Y-103959000D01*
X124895000Y-111160132D01*
X119551566Y-116503566D01*
X119370561Y-116774459D01*
X119307000Y-117094000D01*
X119307000Y-129975000D01*
X93472000Y-129975000D01*
X93152459Y-130038561D01*
X92881566Y-130219566D01*
X88865667Y-134235465D01*
X88625057Y-134334883D01*
X88361808Y-134597673D01*
X88219162Y-134941201D01*
X88218838Y-135313167D01*
X88360883Y-135656943D01*
X88623673Y-135920192D01*
X88967201Y-136062838D01*
X89339167Y-136063162D01*
X89682943Y-135921117D01*
X89946192Y-135658327D01*
X90046778Y-135416090D01*
X90182468Y-135280400D01*
X152768560Y-135280400D01*
X152768560Y-137007600D01*
X152812838Y-137242917D01*
X152951910Y-137459041D01*
X153164110Y-137604031D01*
X153258927Y-137623232D01*
X153081268Y-137781964D01*
X152827291Y-138309209D01*
X152824642Y-138324974D01*
X152945783Y-138557000D01*
X154305000Y-138557000D01*
X154305000Y-138537000D01*
X154559000Y-138537000D01*
X154559000Y-138557000D01*
X155918217Y-138557000D01*
X156039358Y-138324974D01*
X156036709Y-138309209D01*
X155782732Y-137781964D01*
X155607155Y-137625093D01*
X155683317Y-137610762D01*
X155899441Y-137471690D01*
X156044431Y-137259490D01*
X156095440Y-137007600D01*
X156095440Y-135280400D01*
X156051162Y-135045083D01*
X155912090Y-134828959D01*
X155699890Y-134683969D01*
X155448000Y-134632960D01*
X153416000Y-134632960D01*
X153180683Y-134677238D01*
X152964559Y-134816310D01*
X152819569Y-135028510D01*
X152768560Y-135280400D01*
X90182468Y-135280400D01*
X93817868Y-131645000D01*
X119307000Y-131645000D01*
X119307000Y-133684766D01*
X119207162Y-133925201D01*
X119206838Y-134297167D01*
X119348883Y-134640943D01*
X119611673Y-134904192D01*
X119955201Y-135046838D01*
X120327167Y-135047162D01*
X120670943Y-134905117D01*
X120934192Y-134642327D01*
X121076838Y-134298799D01*
X121077162Y-133926833D01*
X120977000Y-133684422D01*
X120977000Y-122105167D01*
X123778838Y-122105167D01*
X123920883Y-122448943D01*
X124183673Y-122712192D01*
X124527201Y-122854838D01*
X124746944Y-122855029D01*
X124968000Y-122899000D01*
X132334000Y-122899000D01*
X132565415Y-122852969D01*
X132611446Y-122843813D01*
X132846652Y-122686652D01*
X135726226Y-119807079D01*
X135821167Y-119807162D01*
X136164943Y-119665117D01*
X136428192Y-119402327D01*
X136570838Y-119058799D01*
X136571162Y-118686833D01*
X136429117Y-118343057D01*
X136166327Y-118079808D01*
X135822799Y-117937162D01*
X135450833Y-117936838D01*
X135107057Y-118078883D01*
X134843808Y-118341673D01*
X134701162Y-118685201D01*
X134701078Y-118781617D01*
X132033696Y-121449000D01*
X125531059Y-121449000D01*
X125507117Y-121391057D01*
X125244327Y-121127808D01*
X124900799Y-120985162D01*
X124528833Y-120984838D01*
X124185057Y-121126883D01*
X123921808Y-121389673D01*
X123779162Y-121733201D01*
X123778838Y-122105167D01*
X120977000Y-122105167D01*
X120977000Y-117439868D01*
X122747901Y-115668967D01*
X156602430Y-115668967D01*
X156602430Y-116741033D01*
X156707900Y-117271268D01*
X157008254Y-117720779D01*
X157457765Y-118021133D01*
X157988000Y-118126603D01*
X158518235Y-118021133D01*
X158967746Y-117720779D01*
X159268100Y-117271268D01*
X159269950Y-117261968D01*
X159296501Y-117351677D01*
X159638056Y-117773658D01*
X160115097Y-118032810D01*
X160186725Y-118046993D01*
X160401000Y-117924339D01*
X160401000Y-116332000D01*
X160381000Y-116332000D01*
X160381000Y-116078000D01*
X160401000Y-116078000D01*
X160401000Y-114485661D01*
X160655000Y-114485661D01*
X160655000Y-116078000D01*
X160675000Y-116078000D01*
X160675000Y-116332000D01*
X160655000Y-116332000D01*
X160655000Y-117924339D01*
X160869275Y-118046993D01*
X160940903Y-118032810D01*
X161417944Y-117773658D01*
X161759499Y-117351677D01*
X161786050Y-117261968D01*
X161787900Y-117271268D01*
X162088254Y-117720779D01*
X162537765Y-118021133D01*
X163068000Y-118126603D01*
X163598235Y-118021133D01*
X164047746Y-117720779D01*
X164348100Y-117271268D01*
X164453570Y-116741033D01*
X164453570Y-115668967D01*
X164348100Y-115138732D01*
X164047746Y-114689221D01*
X163598235Y-114388867D01*
X163068000Y-114283397D01*
X162537765Y-114388867D01*
X162088254Y-114689221D01*
X161787900Y-115138732D01*
X161786050Y-115148032D01*
X161759499Y-115058323D01*
X161417944Y-114636342D01*
X160940903Y-114377190D01*
X160869275Y-114363007D01*
X160655000Y-114485661D01*
X160401000Y-114485661D01*
X160186725Y-114363007D01*
X160115097Y-114377190D01*
X159638056Y-114636342D01*
X159296501Y-115058323D01*
X159269950Y-115148032D01*
X159268100Y-115138732D01*
X158967746Y-114689221D01*
X158518235Y-114388867D01*
X157988000Y-114283397D01*
X157457765Y-114388867D01*
X157008254Y-114689221D01*
X156707900Y-115138732D01*
X156602430Y-115668967D01*
X122747901Y-115668967D01*
X126320434Y-112096434D01*
X126501439Y-111825541D01*
X126565000Y-111506000D01*
X126565000Y-103959000D01*
X130449374Y-103959000D01*
X130545900Y-104444268D01*
X130846254Y-104893779D01*
X131295765Y-105194133D01*
X131826000Y-105299603D01*
X132356235Y-105194133D01*
X132805746Y-104893779D01*
X133106100Y-104444268D01*
X133107950Y-104434968D01*
X133134501Y-104524677D01*
X133476056Y-104946658D01*
X133953097Y-105205810D01*
X134024725Y-105219993D01*
X134239000Y-105097339D01*
X134239000Y-103505000D01*
X134219000Y-103505000D01*
X134219000Y-103251000D01*
X134239000Y-103251000D01*
X134239000Y-101658661D01*
X134493000Y-101658661D01*
X134493000Y-103251000D01*
X134513000Y-103251000D01*
X134513000Y-103505000D01*
X134493000Y-103505000D01*
X134493000Y-105097339D01*
X134707275Y-105219993D01*
X134778903Y-105205810D01*
X135255944Y-104946658D01*
X135597499Y-104524677D01*
X135624050Y-104434968D01*
X135625900Y-104444268D01*
X135926254Y-104893779D01*
X136375765Y-105194133D01*
X136906000Y-105299603D01*
X137436235Y-105194133D01*
X137885746Y-104893779D01*
X138186100Y-104444268D01*
X138291570Y-103914033D01*
X138291570Y-102841967D01*
X138186100Y-102311732D01*
X137885746Y-101862221D01*
X137436235Y-101561867D01*
X136906000Y-101456397D01*
X136375765Y-101561867D01*
X135926254Y-101862221D01*
X135625900Y-102311732D01*
X135624050Y-102321032D01*
X135597499Y-102231323D01*
X135255944Y-101809342D01*
X134778903Y-101550190D01*
X134707275Y-101536007D01*
X134493000Y-101658661D01*
X134239000Y-101658661D01*
X134024725Y-101536007D01*
X133953097Y-101550190D01*
X133476056Y-101809342D01*
X133134501Y-102231323D01*
X133107950Y-102321032D01*
X133106100Y-102311732D01*
X132805746Y-101862221D01*
X132356235Y-101561867D01*
X131826000Y-101456397D01*
X131295765Y-101561867D01*
X130846254Y-101862221D01*
X130561089Y-102289000D01*
X98897868Y-102289000D01*
X88220434Y-91611566D01*
X87949541Y-91430561D01*
X87630000Y-91367000D01*
X76881234Y-91367000D01*
X76640799Y-91267162D01*
X76268833Y-91266838D01*
X76026422Y-91367000D01*
X56134000Y-91367000D01*
X55814459Y-91430561D01*
X55654261Y-91537602D01*
X55351057Y-91662883D01*
X55087808Y-91925673D01*
X54945162Y-92269201D01*
X54944838Y-92641167D01*
X37571701Y-92641167D01*
X42763868Y-87449000D01*
X66564132Y-87449000D01*
X66513667Y-87499465D01*
X66273057Y-87598883D01*
X66009808Y-87861673D01*
X65867162Y-88205201D01*
X65866838Y-88577167D01*
X66008883Y-88920943D01*
X66271673Y-89184192D01*
X66615201Y-89326838D01*
X66987167Y-89327162D01*
X67330943Y-89185117D01*
X67594192Y-88922327D01*
X67694778Y-88680090D01*
X68925868Y-87449000D01*
X108874132Y-87449000D01*
X109899566Y-88474434D01*
X110170459Y-88655439D01*
X110490000Y-88719000D01*
X163148766Y-88719000D01*
X163389201Y-88818838D01*
X163761167Y-88819162D01*
X164104943Y-88677117D01*
X164368192Y-88414327D01*
X164510838Y-88070799D01*
X164511162Y-87698833D01*
X164369117Y-87355057D01*
X164106327Y-87091808D01*
X163762799Y-86949162D01*
X163390833Y-86948838D01*
X163148422Y-87049000D01*
X110835868Y-87049000D01*
X108085718Y-84298850D01*
X147454424Y-84298850D01*
X147626911Y-84716301D01*
X147946019Y-85035967D01*
X148363168Y-85209182D01*
X148814850Y-85209576D01*
X149232301Y-85037089D01*
X149551967Y-84717981D01*
X149725182Y-84300832D01*
X149725497Y-83939263D01*
X149994737Y-83939497D01*
X149994424Y-84298850D01*
X150166911Y-84716301D01*
X150486019Y-85035967D01*
X150903168Y-85209182D01*
X151354850Y-85209576D01*
X151772301Y-85037089D01*
X152091967Y-84717981D01*
X152265182Y-84300832D01*
X152265405Y-84044850D01*
X168536424Y-84044850D01*
X168708911Y-84462301D01*
X169028019Y-84781967D01*
X169445168Y-84955182D01*
X169896850Y-84955576D01*
X170314301Y-84783089D01*
X170633967Y-84463981D01*
X170807182Y-84046832D01*
X170807497Y-83685263D01*
X171076737Y-83685497D01*
X171076424Y-84044850D01*
X171248911Y-84462301D01*
X171568019Y-84781967D01*
X171985168Y-84955182D01*
X172436850Y-84955576D01*
X172854301Y-84783089D01*
X173173967Y-84463981D01*
X173347182Y-84046832D01*
X173347576Y-83595150D01*
X173175089Y-83177699D01*
X172855981Y-82858033D01*
X172438832Y-82684818D01*
X172077263Y-82684503D01*
X172077576Y-82325150D01*
X171905089Y-81907699D01*
X171585981Y-81588033D01*
X171168832Y-81414818D01*
X170717150Y-81414424D01*
X170299699Y-81586911D01*
X169980033Y-81906019D01*
X169806818Y-82323168D01*
X169806503Y-82684737D01*
X169447150Y-82684424D01*
X169029699Y-82856911D01*
X168710033Y-83176019D01*
X168536818Y-83593168D01*
X168536424Y-84044850D01*
X152265405Y-84044850D01*
X152265576Y-83849150D01*
X152093089Y-83431699D01*
X151773981Y-83112033D01*
X151356832Y-82938818D01*
X150995263Y-82938503D01*
X150995576Y-82579150D01*
X150823089Y-82161699D01*
X150503981Y-81842033D01*
X150086832Y-81668818D01*
X149635150Y-81668424D01*
X149217699Y-81840911D01*
X148898033Y-82160019D01*
X148724818Y-82577168D01*
X148724503Y-82938737D01*
X148365150Y-82938424D01*
X147947699Y-83110911D01*
X147628033Y-83430019D01*
X147454818Y-83847168D01*
X147454424Y-84298850D01*
X108085718Y-84298850D01*
X107826535Y-84039667D01*
X107727117Y-83799057D01*
X107464327Y-83535808D01*
X107120799Y-83393162D01*
X106748833Y-83392838D01*
X106405057Y-83534883D01*
X106141808Y-83797673D01*
X105999162Y-84141201D01*
X105998838Y-84513167D01*
X106140883Y-84856943D01*
X106403673Y-85120192D01*
X106645910Y-85220778D01*
X107204132Y-85779000D01*
X42418000Y-85779000D01*
X42098460Y-85842560D01*
X41827566Y-86023566D01*
X36287667Y-91563465D01*
X36047057Y-91662883D01*
X35783808Y-91925673D01*
X35683222Y-92167910D01*
X33191566Y-94659566D01*
X33010561Y-94930459D01*
X32947000Y-95250000D01*
X23710000Y-95250000D01*
X23710000Y-71359295D01*
X152764673Y-71359295D01*
X153051802Y-72054200D01*
X153583003Y-72586330D01*
X154277406Y-72874671D01*
X155029295Y-72875327D01*
X155724200Y-72588198D01*
X155990929Y-72321934D01*
X158577671Y-72321934D01*
X158707530Y-72615257D01*
X159409614Y-72884357D01*
X160161235Y-72864297D01*
X160762470Y-72615257D01*
X160892329Y-72321934D01*
X159735000Y-71164605D01*
X158577671Y-72321934D01*
X155990929Y-72321934D01*
X156256330Y-72056997D01*
X156544671Y-71362594D01*
X156545284Y-70659614D01*
X157835643Y-70659614D01*
X157855703Y-71411235D01*
X158104743Y-72012470D01*
X158398066Y-72142329D01*
X159555395Y-70985000D01*
X159914605Y-70985000D01*
X161071934Y-72142329D01*
X161365257Y-72012470D01*
X161615610Y-71359295D01*
X162924673Y-71359295D01*
X163211802Y-72054200D01*
X163743003Y-72586330D01*
X164437406Y-72874671D01*
X165189295Y-72875327D01*
X165884200Y-72588198D01*
X166416330Y-72056997D01*
X166704671Y-71362594D01*
X166705327Y-70610705D01*
X166418198Y-69915800D01*
X165886997Y-69383670D01*
X165192594Y-69095329D01*
X164440705Y-69094673D01*
X163745800Y-69381802D01*
X163213670Y-69913003D01*
X162925329Y-70607406D01*
X162924673Y-71359295D01*
X161615610Y-71359295D01*
X161634357Y-71310386D01*
X161614297Y-70558765D01*
X161365257Y-69957530D01*
X161071934Y-69827671D01*
X159914605Y-70985000D01*
X159555395Y-70985000D01*
X158398066Y-69827671D01*
X158104743Y-69957530D01*
X157835643Y-70659614D01*
X156545284Y-70659614D01*
X156545327Y-70610705D01*
X156258198Y-69915800D01*
X155990932Y-69648066D01*
X158577671Y-69648066D01*
X159735000Y-70805395D01*
X160892329Y-69648066D01*
X160762470Y-69354743D01*
X160060386Y-69085643D01*
X159308765Y-69105703D01*
X158707530Y-69354743D01*
X158577671Y-69648066D01*
X155990932Y-69648066D01*
X155726997Y-69383670D01*
X155032594Y-69095329D01*
X154280705Y-69094673D01*
X153585800Y-69381802D01*
X153053670Y-69913003D01*
X152765329Y-70607406D01*
X152764673Y-71359295D01*
X23710000Y-71359295D01*
X23710000Y-61340133D01*
X43233472Y-61340133D01*
X43287303Y-61569179D01*
X43764664Y-61734681D01*
X44269023Y-61704906D01*
X44596697Y-61569179D01*
X44650528Y-61340133D01*
X43942000Y-60631605D01*
X43233472Y-61340133D01*
X23710000Y-61340133D01*
X23710000Y-59240167D01*
X37037838Y-59240167D01*
X37179883Y-59583943D01*
X37347230Y-59751583D01*
X37292162Y-59884201D01*
X37291838Y-60256167D01*
X37433883Y-60599943D01*
X37696673Y-60863192D01*
X38040201Y-61005838D01*
X38412167Y-61006162D01*
X38755943Y-60864117D01*
X39019192Y-60601327D01*
X39154835Y-60274664D01*
X42659319Y-60274664D01*
X42689094Y-60779023D01*
X42824821Y-61106697D01*
X43053867Y-61160528D01*
X43762395Y-60452000D01*
X43053867Y-59743472D01*
X42824821Y-59797303D01*
X42659319Y-60274664D01*
X39154835Y-60274664D01*
X39161838Y-60257799D01*
X39161922Y-60161382D01*
X39759437Y-59563867D01*
X43233472Y-59563867D01*
X43942000Y-60272395D01*
X44650528Y-59563867D01*
X44596697Y-59334821D01*
X44119336Y-59169319D01*
X43614977Y-59199094D01*
X43287303Y-59334821D01*
X43233472Y-59563867D01*
X39759437Y-59563867D01*
X41956305Y-57367000D01*
X45333168Y-57367000D01*
X45212221Y-57658273D01*
X45211780Y-58163510D01*
X45404718Y-58630458D01*
X45761663Y-58988026D01*
X46228273Y-59181779D01*
X46230488Y-59181781D01*
X45763542Y-59374718D01*
X45405974Y-59731663D01*
X45212221Y-60198273D01*
X45212032Y-60415071D01*
X45194906Y-60124977D01*
X45059179Y-59797303D01*
X44830133Y-59743472D01*
X44121605Y-60452000D01*
X44830133Y-61160528D01*
X45059179Y-61106697D01*
X45211812Y-60666453D01*
X45211780Y-60703510D01*
X45404718Y-61170458D01*
X45761663Y-61528026D01*
X46228273Y-61721779D01*
X46733510Y-61722220D01*
X47200458Y-61529282D01*
X47389937Y-61340133D01*
X48313472Y-61340133D01*
X48367303Y-61569179D01*
X48844664Y-61734681D01*
X49349023Y-61704906D01*
X49676697Y-61569179D01*
X49730528Y-61340133D01*
X62791472Y-61340133D01*
X62845303Y-61569179D01*
X63322664Y-61734681D01*
X63827023Y-61704906D01*
X64154697Y-61569179D01*
X64208528Y-61340133D01*
X63500000Y-60631605D01*
X62791472Y-61340133D01*
X49730528Y-61340133D01*
X49022000Y-60631605D01*
X48313472Y-61340133D01*
X47389937Y-61340133D01*
X47558026Y-61172337D01*
X47751779Y-60705727D01*
X47751968Y-60488929D01*
X47769094Y-60779023D01*
X47904821Y-61106697D01*
X48133867Y-61160528D01*
X48842395Y-60452000D01*
X49201605Y-60452000D01*
X49910133Y-61160528D01*
X50139179Y-61106697D01*
X50304681Y-60629336D01*
X50283743Y-60274664D01*
X62217319Y-60274664D01*
X62247094Y-60779023D01*
X62382821Y-61106697D01*
X62611867Y-61160528D01*
X63320395Y-60452000D01*
X62611867Y-59743472D01*
X62382821Y-59797303D01*
X62217319Y-60274664D01*
X50283743Y-60274664D01*
X50274906Y-60124977D01*
X50139179Y-59797303D01*
X49910133Y-59743472D01*
X49201605Y-60452000D01*
X48842395Y-60452000D01*
X48133867Y-59743472D01*
X47904821Y-59797303D01*
X47752188Y-60237547D01*
X47752220Y-60200490D01*
X47559282Y-59733542D01*
X47389903Y-59563867D01*
X48313472Y-59563867D01*
X49022000Y-60272395D01*
X49730528Y-59563867D01*
X62791472Y-59563867D01*
X63500000Y-60272395D01*
X64208528Y-59563867D01*
X64154697Y-59334821D01*
X63677336Y-59169319D01*
X63172977Y-59199094D01*
X62845303Y-59334821D01*
X62791472Y-59563867D01*
X49730528Y-59563867D01*
X49676697Y-59334821D01*
X49199336Y-59169319D01*
X48694977Y-59199094D01*
X48367303Y-59334821D01*
X48313472Y-59563867D01*
X47389903Y-59563867D01*
X47202337Y-59375974D01*
X46735727Y-59182221D01*
X46733512Y-59182219D01*
X47200458Y-58989282D01*
X47558026Y-58632337D01*
X47751779Y-58165727D01*
X47752220Y-57660490D01*
X47630953Y-57367000D01*
X64891168Y-57367000D01*
X64770221Y-57658273D01*
X64769780Y-58163510D01*
X64962718Y-58630458D01*
X65319663Y-58988026D01*
X65786273Y-59181779D01*
X65788488Y-59181781D01*
X65321542Y-59374718D01*
X64963974Y-59731663D01*
X64770221Y-60198273D01*
X64770032Y-60415071D01*
X64752906Y-60124977D01*
X64617179Y-59797303D01*
X64388133Y-59743472D01*
X63679605Y-60452000D01*
X64388133Y-61160528D01*
X64617179Y-61106697D01*
X64769812Y-60666453D01*
X64769780Y-60703510D01*
X64962718Y-61170458D01*
X65319663Y-61528026D01*
X65786273Y-61721779D01*
X66291510Y-61722220D01*
X66758458Y-61529282D01*
X66947937Y-61340133D01*
X67871472Y-61340133D01*
X67925303Y-61569179D01*
X68402664Y-61734681D01*
X68907023Y-61704906D01*
X69234697Y-61569179D01*
X69288528Y-61340133D01*
X82349472Y-61340133D01*
X82403303Y-61569179D01*
X82880664Y-61734681D01*
X83385023Y-61704906D01*
X83712697Y-61569179D01*
X83766528Y-61340133D01*
X83058000Y-60631605D01*
X82349472Y-61340133D01*
X69288528Y-61340133D01*
X68580000Y-60631605D01*
X67871472Y-61340133D01*
X66947937Y-61340133D01*
X67116026Y-61172337D01*
X67309779Y-60705727D01*
X67309968Y-60488929D01*
X67327094Y-60779023D01*
X67462821Y-61106697D01*
X67691867Y-61160528D01*
X68400395Y-60452000D01*
X68759605Y-60452000D01*
X69468133Y-61160528D01*
X69697179Y-61106697D01*
X69862681Y-60629336D01*
X69841743Y-60274664D01*
X81775319Y-60274664D01*
X81805094Y-60779023D01*
X81940821Y-61106697D01*
X82169867Y-61160528D01*
X82878395Y-60452000D01*
X82169867Y-59743472D01*
X81940821Y-59797303D01*
X81775319Y-60274664D01*
X69841743Y-60274664D01*
X69832906Y-60124977D01*
X69697179Y-59797303D01*
X69468133Y-59743472D01*
X68759605Y-60452000D01*
X68400395Y-60452000D01*
X67691867Y-59743472D01*
X67462821Y-59797303D01*
X67310188Y-60237547D01*
X67310220Y-60200490D01*
X67117282Y-59733542D01*
X66947903Y-59563867D01*
X67871472Y-59563867D01*
X68580000Y-60272395D01*
X69288528Y-59563867D01*
X69234697Y-59334821D01*
X68757336Y-59169319D01*
X68252977Y-59199094D01*
X67925303Y-59334821D01*
X67871472Y-59563867D01*
X66947903Y-59563867D01*
X66760337Y-59375974D01*
X66293727Y-59182221D01*
X66291512Y-59182219D01*
X66758458Y-58989282D01*
X67116026Y-58632337D01*
X67309779Y-58165727D01*
X67310220Y-57660490D01*
X67188953Y-57367000D01*
X81487696Y-57367000D01*
X83319032Y-59198337D01*
X83235336Y-59169319D01*
X82730977Y-59199094D01*
X82403303Y-59334821D01*
X82349472Y-59563867D01*
X83058000Y-60272395D01*
X83072143Y-60258253D01*
X83251748Y-60437858D01*
X83237605Y-60452000D01*
X83946133Y-61160528D01*
X84175179Y-61106697D01*
X84327812Y-60666453D01*
X84327780Y-60703510D01*
X84520718Y-61170458D01*
X84877663Y-61528026D01*
X85344273Y-61721779D01*
X85849510Y-61722220D01*
X86316458Y-61529282D01*
X86505937Y-61340133D01*
X87429472Y-61340133D01*
X87483303Y-61569179D01*
X87960664Y-61734681D01*
X88465023Y-61704906D01*
X88792697Y-61569179D01*
X88846528Y-61340133D01*
X102415472Y-61340133D01*
X102469303Y-61569179D01*
X102946664Y-61734681D01*
X103451023Y-61704906D01*
X103778697Y-61569179D01*
X103832528Y-61340133D01*
X103124000Y-60631605D01*
X102415472Y-61340133D01*
X88846528Y-61340133D01*
X88138000Y-60631605D01*
X87429472Y-61340133D01*
X86505937Y-61340133D01*
X86674026Y-61172337D01*
X86867779Y-60705727D01*
X86867968Y-60488929D01*
X86885094Y-60779023D01*
X87020821Y-61106697D01*
X87249867Y-61160528D01*
X87958395Y-60452000D01*
X88317605Y-60452000D01*
X89026133Y-61160528D01*
X89255179Y-61106697D01*
X89420681Y-60629336D01*
X89399743Y-60274664D01*
X101841319Y-60274664D01*
X101871094Y-60779023D01*
X102006821Y-61106697D01*
X102235867Y-61160528D01*
X102944395Y-60452000D01*
X103303605Y-60452000D01*
X104012133Y-61160528D01*
X104241179Y-61106697D01*
X104393812Y-60666453D01*
X104393780Y-60703510D01*
X104586718Y-61170458D01*
X104943663Y-61528026D01*
X105410273Y-61721779D01*
X105915510Y-61722220D01*
X106382458Y-61529282D01*
X106571937Y-61340133D01*
X107495472Y-61340133D01*
X107549303Y-61569179D01*
X108026664Y-61734681D01*
X108531023Y-61704906D01*
X108858697Y-61569179D01*
X108912528Y-61340133D01*
X108204000Y-60631605D01*
X107495472Y-61340133D01*
X106571937Y-61340133D01*
X106740026Y-61172337D01*
X106933779Y-60705727D01*
X106933968Y-60488929D01*
X106951094Y-60779023D01*
X107086821Y-61106697D01*
X107315867Y-61160528D01*
X108024395Y-60452000D01*
X108383605Y-60452000D01*
X109092133Y-61160528D01*
X109321179Y-61106697D01*
X109486681Y-60629336D01*
X109456906Y-60124977D01*
X109321179Y-59797303D01*
X109092133Y-59743472D01*
X108383605Y-60452000D01*
X108024395Y-60452000D01*
X107315867Y-59743472D01*
X107086821Y-59797303D01*
X106934188Y-60237547D01*
X106934220Y-60200490D01*
X106741282Y-59733542D01*
X106571903Y-59563867D01*
X107495472Y-59563867D01*
X108204000Y-60272395D01*
X108912528Y-59563867D01*
X108858697Y-59334821D01*
X108381336Y-59169319D01*
X107876977Y-59199094D01*
X107549303Y-59334821D01*
X107495472Y-59563867D01*
X106571903Y-59563867D01*
X106384337Y-59375974D01*
X105917727Y-59182221D01*
X105915512Y-59182219D01*
X106382458Y-58989282D01*
X106740026Y-58632337D01*
X106933779Y-58165727D01*
X106934220Y-57660490D01*
X106741282Y-57193542D01*
X106384337Y-56835974D01*
X105917727Y-56642221D01*
X105412490Y-56641780D01*
X104945542Y-56834718D01*
X104587974Y-57191663D01*
X104394221Y-57658273D01*
X104393780Y-58163510D01*
X104586718Y-58630458D01*
X104943663Y-58988026D01*
X105410273Y-59181779D01*
X105412488Y-59181781D01*
X104945542Y-59374718D01*
X104587974Y-59731663D01*
X104394221Y-60198273D01*
X104394032Y-60415071D01*
X104376906Y-60124977D01*
X104241179Y-59797303D01*
X104012133Y-59743472D01*
X103303605Y-60452000D01*
X102944395Y-60452000D01*
X102235867Y-59743472D01*
X102006821Y-59797303D01*
X101841319Y-60274664D01*
X89399743Y-60274664D01*
X89390906Y-60124977D01*
X89255179Y-59797303D01*
X89026133Y-59743472D01*
X88317605Y-60452000D01*
X87958395Y-60452000D01*
X87249867Y-59743472D01*
X87020821Y-59797303D01*
X86868188Y-60237547D01*
X86868220Y-60200490D01*
X86675282Y-59733542D01*
X86505903Y-59563867D01*
X87429472Y-59563867D01*
X88138000Y-60272395D01*
X88846528Y-59563867D01*
X102415472Y-59563867D01*
X103124000Y-60272395D01*
X103832528Y-59563867D01*
X103778697Y-59334821D01*
X103301336Y-59169319D01*
X102796977Y-59199094D01*
X102469303Y-59334821D01*
X102415472Y-59563867D01*
X88846528Y-59563867D01*
X88792697Y-59334821D01*
X88315336Y-59169319D01*
X87810977Y-59199094D01*
X87483303Y-59334821D01*
X87429472Y-59563867D01*
X86505903Y-59563867D01*
X86318337Y-59375974D01*
X85851727Y-59182221D01*
X85849512Y-59182219D01*
X86316458Y-58989282D01*
X86674026Y-58632337D01*
X86867779Y-58165727D01*
X86868220Y-57660490D01*
X86675282Y-57193542D01*
X86318337Y-56835974D01*
X85851727Y-56642221D01*
X85353090Y-56641786D01*
X84205652Y-55494348D01*
X83970446Y-55337187D01*
X83924415Y-55328031D01*
X83870688Y-55317344D01*
X141566501Y-55317344D01*
X142004790Y-56378086D01*
X142815645Y-57190357D01*
X143875620Y-57630498D01*
X145023344Y-57631499D01*
X146084086Y-57193210D01*
X146788729Y-56489795D01*
X149796716Y-56489795D01*
X150045106Y-57090943D01*
X150504637Y-57551278D01*
X151105352Y-57800716D01*
X151755795Y-57801284D01*
X152356943Y-57552894D01*
X152817278Y-57093363D01*
X152817350Y-57093191D01*
X153274637Y-57551278D01*
X153875352Y-57800716D01*
X154525795Y-57801284D01*
X155126943Y-57552894D01*
X155587278Y-57093363D01*
X155587350Y-57093191D01*
X156044637Y-57551278D01*
X156645352Y-57800716D01*
X157295795Y-57801284D01*
X157896943Y-57552894D01*
X158131715Y-57318532D01*
X158769073Y-57318532D01*
X158867736Y-57585387D01*
X159477461Y-57811908D01*
X160127460Y-57787856D01*
X160616264Y-57585387D01*
X160714927Y-57318532D01*
X161539073Y-57318532D01*
X161637736Y-57585387D01*
X162247461Y-57811908D01*
X162897460Y-57787856D01*
X163386264Y-57585387D01*
X163484927Y-57318532D01*
X162512000Y-56345605D01*
X161539073Y-57318532D01*
X160714927Y-57318532D01*
X159742000Y-56345605D01*
X158769073Y-57318532D01*
X158131715Y-57318532D01*
X158357278Y-57093363D01*
X158371779Y-57058442D01*
X158589468Y-57138927D01*
X159562395Y-56166000D01*
X159921605Y-56166000D01*
X160894532Y-57138927D01*
X161127000Y-57052978D01*
X161359468Y-57138927D01*
X162332395Y-56166000D01*
X162691605Y-56166000D01*
X163664532Y-57138927D01*
X163931387Y-57040264D01*
X164157908Y-56430539D01*
X164133856Y-55780540D01*
X163941995Y-55317344D01*
X166606501Y-55317344D01*
X167044790Y-56378086D01*
X167855645Y-57190357D01*
X168915620Y-57630498D01*
X170063344Y-57631499D01*
X171124086Y-57193210D01*
X171936357Y-56382355D01*
X172376498Y-55322380D01*
X172377499Y-54174656D01*
X171939210Y-53113914D01*
X171128355Y-52301643D01*
X170068380Y-51861502D01*
X168920656Y-51860501D01*
X167859914Y-52298790D01*
X167047643Y-53109645D01*
X166607502Y-54169620D01*
X166606501Y-55317344D01*
X163941995Y-55317344D01*
X163931387Y-55291736D01*
X163664532Y-55193073D01*
X162691605Y-56166000D01*
X162332395Y-56166000D01*
X161359468Y-55193073D01*
X161127000Y-55279022D01*
X160894532Y-55193073D01*
X159921605Y-56166000D01*
X159562395Y-56166000D01*
X158589468Y-55193073D01*
X158372251Y-55273384D01*
X158358894Y-55241057D01*
X158079085Y-54960759D01*
X158680795Y-54961284D01*
X158807763Y-54908822D01*
X158769073Y-55013468D01*
X159742000Y-55986395D01*
X160714927Y-55013468D01*
X160676393Y-54909244D01*
X160800352Y-54960716D01*
X161450795Y-54961284D01*
X161577763Y-54908822D01*
X161539073Y-55013468D01*
X162512000Y-55986395D01*
X163484927Y-55013468D01*
X163386264Y-54746613D01*
X162776539Y-54520092D01*
X162224624Y-54540515D01*
X162512278Y-54253363D01*
X162761716Y-53652648D01*
X162762284Y-53002205D01*
X162513894Y-52401057D01*
X162054363Y-51940722D01*
X161453648Y-51691284D01*
X160803205Y-51690716D01*
X160202057Y-51939106D01*
X159741722Y-52398637D01*
X159741650Y-52398809D01*
X159284363Y-51940722D01*
X158683648Y-51691284D01*
X158033205Y-51690716D01*
X157432057Y-51939106D01*
X156971722Y-52398637D01*
X156971650Y-52398809D01*
X156514363Y-51940722D01*
X155913648Y-51691284D01*
X155263205Y-51690716D01*
X154662057Y-51939106D01*
X154201722Y-52398637D01*
X154201650Y-52398809D01*
X153744363Y-51940722D01*
X153143648Y-51691284D01*
X152493205Y-51690716D01*
X151892057Y-51939106D01*
X151431722Y-52398637D01*
X151182284Y-52999352D01*
X151181716Y-53649795D01*
X151430106Y-54250943D01*
X151709915Y-54531241D01*
X151108205Y-54530716D01*
X150507057Y-54779106D01*
X150046722Y-55238637D01*
X149797284Y-55839352D01*
X149796716Y-56489795D01*
X146788729Y-56489795D01*
X146896357Y-56382355D01*
X147336498Y-55322380D01*
X147337499Y-54174656D01*
X146899210Y-53113914D01*
X146088355Y-52301643D01*
X145028380Y-51861502D01*
X143880656Y-51860501D01*
X142819914Y-52298790D01*
X142007643Y-53109645D01*
X141567502Y-54169620D01*
X141566501Y-55317344D01*
X83870688Y-55317344D01*
X83693000Y-55282000D01*
X41021000Y-55282000D01*
X40789585Y-55328031D01*
X40743554Y-55337187D01*
X40508348Y-55494348D01*
X37882775Y-58119921D01*
X37787833Y-58119838D01*
X37444057Y-58261883D01*
X37180808Y-58524673D01*
X37038162Y-58868201D01*
X37037838Y-59240167D01*
X23710000Y-59240167D01*
X23710000Y-51939265D01*
X39496670Y-51939265D01*
X39786078Y-52639686D01*
X40321495Y-53176039D01*
X41021410Y-53466668D01*
X41779265Y-53467330D01*
X42479686Y-53177922D01*
X43016039Y-52642505D01*
X43306668Y-51942590D01*
X43306670Y-51939265D01*
X49656670Y-51939265D01*
X49946078Y-52639686D01*
X50481495Y-53176039D01*
X51181410Y-53466668D01*
X51939265Y-53467330D01*
X52639686Y-53177922D01*
X53176039Y-52642505D01*
X53466668Y-51942590D01*
X53466670Y-51939265D01*
X59054670Y-51939265D01*
X59344078Y-52639686D01*
X59879495Y-53176039D01*
X60579410Y-53466668D01*
X61337265Y-53467330D01*
X62037686Y-53177922D01*
X62574039Y-52642505D01*
X62864668Y-51942590D01*
X62864670Y-51939265D01*
X69214670Y-51939265D01*
X69504078Y-52639686D01*
X70039495Y-53176039D01*
X70739410Y-53466668D01*
X71497265Y-53467330D01*
X72197686Y-53177922D01*
X72734039Y-52642505D01*
X73024668Y-51942590D01*
X73024670Y-51939265D01*
X78612670Y-51939265D01*
X78902078Y-52639686D01*
X79437495Y-53176039D01*
X80137410Y-53466668D01*
X80895265Y-53467330D01*
X81595686Y-53177922D01*
X82132039Y-52642505D01*
X82422668Y-51942590D01*
X82422670Y-51939265D01*
X88772670Y-51939265D01*
X89062078Y-52639686D01*
X89597495Y-53176039D01*
X90297410Y-53466668D01*
X91055265Y-53467330D01*
X91755686Y-53177922D01*
X92292039Y-52642505D01*
X92582668Y-51942590D01*
X92582670Y-51939265D01*
X98678670Y-51939265D01*
X98968078Y-52639686D01*
X99503495Y-53176039D01*
X100203410Y-53466668D01*
X100961265Y-53467330D01*
X101661686Y-53177922D01*
X102198039Y-52642505D01*
X102488668Y-51942590D01*
X102488670Y-51939265D01*
X108838670Y-51939265D01*
X109128078Y-52639686D01*
X109663495Y-53176039D01*
X110363410Y-53466668D01*
X111121265Y-53467330D01*
X111821686Y-53177922D01*
X112358039Y-52642505D01*
X112648668Y-51942590D01*
X112649330Y-51184735D01*
X112359922Y-50484314D01*
X111824505Y-49947961D01*
X111124590Y-49657332D01*
X110366735Y-49656670D01*
X109666314Y-49946078D01*
X109129961Y-50481495D01*
X108839332Y-51181410D01*
X108838670Y-51939265D01*
X102488670Y-51939265D01*
X102489330Y-51184735D01*
X102199922Y-50484314D01*
X101664505Y-49947961D01*
X100964590Y-49657332D01*
X100206735Y-49656670D01*
X99506314Y-49946078D01*
X98969961Y-50481495D01*
X98679332Y-51181410D01*
X98678670Y-51939265D01*
X92582670Y-51939265D01*
X92583330Y-51184735D01*
X92293922Y-50484314D01*
X91758505Y-49947961D01*
X91058590Y-49657332D01*
X90300735Y-49656670D01*
X89600314Y-49946078D01*
X89063961Y-50481495D01*
X88773332Y-51181410D01*
X88772670Y-51939265D01*
X82422670Y-51939265D01*
X82423330Y-51184735D01*
X82133922Y-50484314D01*
X81598505Y-49947961D01*
X80898590Y-49657332D01*
X80140735Y-49656670D01*
X79440314Y-49946078D01*
X78903961Y-50481495D01*
X78613332Y-51181410D01*
X78612670Y-51939265D01*
X73024670Y-51939265D01*
X73025330Y-51184735D01*
X72735922Y-50484314D01*
X72200505Y-49947961D01*
X71500590Y-49657332D01*
X70742735Y-49656670D01*
X70042314Y-49946078D01*
X69505961Y-50481495D01*
X69215332Y-51181410D01*
X69214670Y-51939265D01*
X62864670Y-51939265D01*
X62865330Y-51184735D01*
X62575922Y-50484314D01*
X62040505Y-49947961D01*
X61340590Y-49657332D01*
X60582735Y-49656670D01*
X59882314Y-49946078D01*
X59345961Y-50481495D01*
X59055332Y-51181410D01*
X59054670Y-51939265D01*
X53466670Y-51939265D01*
X53467330Y-51184735D01*
X53177922Y-50484314D01*
X52642505Y-49947961D01*
X51942590Y-49657332D01*
X51184735Y-49656670D01*
X50484314Y-49946078D01*
X49947961Y-50481495D01*
X49657332Y-51181410D01*
X49656670Y-51939265D01*
X43306670Y-51939265D01*
X43307330Y-51184735D01*
X43017922Y-50484314D01*
X42482505Y-49947961D01*
X41782590Y-49657332D01*
X41024735Y-49656670D01*
X40324314Y-49946078D01*
X39787961Y-50481495D01*
X39497332Y-51181410D01*
X39496670Y-51939265D01*
X23710000Y-51939265D01*
X23710000Y-46710000D01*
X181290000Y-46710000D01*
X181290000Y-204290000D01*
M02*
