M48
;DRILL file {KiCad 4.0.2-stable} date 9/9/2016 3:16:15 PM
;FORMAT={-:-/ absolute / inch / decimal}
FMAT,2
INCH,TZ
T1C0.012
T2C0.016
T3C0.024
T4C0.035
T5C0.039
T6C0.040
T7C0.049
T8C0.051
T9C0.073
T10C0.079
T11C0.122
T12C0.148
T13C0.149
%
G90
G05
M72
T1
X1.585Y-4.78
X1.585Y-4.845
X1.96Y-4.925
X2.21Y-4.72
X2.32Y-6.535
X2.36Y-6.59
X3.325Y-5.28
X4.115Y-6.88
X4.24Y-4.925
X4.315Y-6.695
X4.33Y-4.925
X4.44Y-5.67
X4.44Y-5.73
X4.625Y-5.505
X4.71Y-5.5
X5.04Y-6.56
X5.395Y-6.22
X5.565Y-6.15
X5.585Y-5.885
T2
X1.25Y-7.205
X1.26Y-7.165
X1.415Y-4.765
X1.44Y-3.64
X1.49Y-5.69
X1.495Y-2.325
X1.505Y-2.365
X1.64Y-6.92
X1.66Y-4.505
X1.675Y-7.15
X1.735Y-4.91
X1.89Y-7.01
X1.935Y-4.115
X2.05Y-4.5
X2.0658Y-4.7708
X2.07Y-3.8
X2.2Y-3.64
X2.21Y-5.52
X2.23Y-6.3
X2.27Y-4.625
X2.29Y-5.32
X2.38Y-7.235
X2.41Y-3.7
X2.47Y-6.11
X2.565Y-5.91
X2.63Y-3.48
X2.63Y-3.79
X2.7Y-3.92
X2.72Y-4.2
X2.76Y-6.87
X2.81Y-4.48
X2.99Y-7.07
X3.01Y-3.63
X3.035Y-6.69
X3.06Y-7.08
X3.11Y-5.65
X3.22Y-6.54
X3.38Y-6.345
X3.385Y-6.695
X3.4Y-4.6
X3.45Y-7.15
X3.51Y-5.32
X3.59Y-6.79
X3.68Y-5.945
X3.95Y-4.13
X4.04Y-4.82
X4.09Y-5.65
X4.16Y-4.82
X4.21Y-3.32
X4.28Y-6.8
X4.4Y-6.34
X4.42Y-7.
X4.42Y-7.22
X4.6Y-6.36
X4.69Y-5.59
X4.73Y-5.28
X4.815Y-5.895
X4.91Y-4.8
X4.93Y-6.45
X5.34Y-4.68
X5.385Y-6.895
X5.63Y-6.84
X5.73Y-6.77
X5.74Y-5.945
X5.78Y-6.7
X5.835Y-6.11
X5.86Y-6.09
X5.865Y-6.66
X5.89Y-6.635
X6.44Y-3.46
X6.795Y-6.76
X6.815Y-6.79
X6.945Y-6.7
T3
X5.85Y-3.31
X5.9Y-3.26
X5.95Y-3.31
X6.68Y-3.3
X6.73Y-3.25
X6.78Y-3.3
T4
X1.73Y-2.38
X1.83Y-2.28
X1.83Y-2.38
X1.93Y-2.38
X2.5Y-2.38
X2.6Y-2.28
X2.6Y-2.38
X2.7Y-2.38
X3.27Y-2.38
X3.37Y-2.28
X3.37Y-2.38
X3.47Y-2.38
X4.06Y-2.38
X4.16Y-2.28
X4.16Y-2.38
X4.26Y-2.38
T5
X5.19Y-4.07
X5.29Y-4.07
X5.39Y-4.07
X6.22Y-4.575
X6.32Y-4.575
X6.42Y-4.575
T6
X6.08Y-5.36
X6.08Y-5.36
X6.08Y-5.46
X6.08Y-5.46
X6.08Y-5.56
X6.08Y-5.56
X6.08Y-5.66
X6.08Y-5.66
X6.08Y-5.76
X6.08Y-5.76
X6.08Y-5.86
X6.08Y-5.86
X6.08Y-5.96
X6.08Y-5.96
X6.08Y-6.06
X6.08Y-6.06
X6.08Y-6.16
X6.08Y-6.16
X6.08Y-6.26
X6.08Y-6.26
X6.08Y-6.36
X6.08Y-6.36
X6.08Y-6.46
X6.08Y-6.46
X6.78Y-5.36
X6.78Y-5.36
X6.78Y-5.46
X6.78Y-5.46
X6.78Y-5.56
X6.78Y-5.56
X6.78Y-5.66
X6.78Y-5.66
X6.78Y-5.76
X6.78Y-5.76
X6.78Y-5.86
X6.78Y-5.86
X6.78Y-5.96
X6.78Y-5.96
X6.78Y-6.06
X6.78Y-6.06
X6.78Y-6.16
X6.78Y-6.16
X6.78Y-6.26
X6.78Y-6.26
X6.78Y-6.36
X6.78Y-6.36
X6.78Y-6.46
X6.78Y-6.46
T7
X5.9619Y-2.2113
X6.0164Y-2.0994
X6.0709Y-2.2113
X6.1255Y-2.0994
X6.18Y-2.2113
X6.2345Y-2.0994
X6.2891Y-2.2113
X6.3436Y-2.0994
X6.3981Y-2.2113
T8
X6.0888Y-2.7947
X6.2888Y-2.7947
X6.4888Y-2.7947
T9
X3.625Y-7.31
X3.71Y-7.81
X3.81Y-7.31
X3.91Y-7.81
X3.995Y-7.31
X4.57Y-7.305
X4.655Y-7.805
X4.755Y-7.305
X4.855Y-7.805
X4.94Y-7.305
X5.525Y-7.305
X5.61Y-7.805
X5.71Y-7.305
X5.81Y-7.805
X5.895Y-7.305
X6.06Y-7.305
X6.145Y-7.805
X6.245Y-7.305
X6.345Y-7.805
X6.43Y-7.305
X6.59Y-7.305
X6.675Y-7.805
X6.775Y-7.305
X6.875Y-7.805
X6.96Y-7.305
T10
X1.63Y-2.03
X2.03Y-2.03
X2.4Y-2.03
X2.8Y-2.03
X3.17Y-2.03
X3.57Y-2.03
X3.96Y-2.03
X4.36Y-2.03
T11
X5.195Y-6.92
T12
X1.3448Y-7.6062
X1.3448Y-7.87
X1.5946Y-7.3897
X2.2548Y-7.6062
X2.2548Y-7.87
X2.5046Y-7.3897
X3.1698Y-7.6062
X3.1698Y-7.87
X3.4196Y-7.3897
X4.1148Y-7.5962
X4.1148Y-7.86
X4.3646Y-7.3797
X5.0598Y-7.5962
X5.0598Y-7.86
X5.3096Y-7.3797
T13
X5.6871Y-2.1554
X6.6729Y-2.1554
T0
M30
